<?xml version="1.0" encoding="utf-8" standalone="no"?>
<!DOCTYPE svg PUBLIC "-//W3C//DTD SVG 1.1//EN"
  "http://www.w3.org/Graphics/SVG/1.1/DTD/svg11.dtd">
<svg xmlns:xlink="http://www.w3.org/1999/xlink" width="1008pt" height="576pt" viewBox="0 0 1008 576" xmlns="http://www.w3.org/2000/svg" version="1.1">
 <metadata>
  <rdf:RDF xmlns:dc="http://purl.org/dc/elements/1.1/" xmlns:cc="http://creativecommons.org/ns#" xmlns:rdf="http://www.w3.org/1999/02/22-rdf-syntax-ns#">
   <cc:Work>
    <dc:type rdf:resource="http://purl.org/dc/dcmitype/StillImage"/>
    <dc:date>2025-12-26T00:36:32.912134</dc:date>
    <dc:format>image/svg+xml</dc:format>
    <dc:creator>
     <cc:Agent>
      <dc:title>Matplotlib v3.10.7, https://matplotlib.org/</dc:title>
     </cc:Agent>
    </dc:creator>
   </cc:Work>
  </rdf:RDF>
 </metadata>
 <defs>
  <style type="text/css">*{stroke-linejoin: round; stroke-linecap: butt}</style>
 </defs>
 <g id="figure_1">
  <g id="patch_1">
   <path d="M 0 576 
L 1008 576 
L 1008 0 
L 0 0 
z
" style="fill: #ffffff"/>
  </g>
  <g id="axes_1">
   <g id="patch_2">
    <path d="M 40.53 536.76375 
L 997.2 536.76375 
L 997.2 66.672 
L 40.53 66.672 
z
" style="fill: #ffffff"/>
   </g>
   <g id="matplotlib.axis_1">
    <g id="xtick_1">
     <g id="line2d_1">
      <path d="M 84.015 536.76375 
L 84.015 66.672 
" clip-path="url(#p2e3ddb9916)" style="fill: none; stroke: #cccccc; stroke-width: 0.8; stroke-linecap: round"/>
     </g>
     <g id="line2d_2"/>
     <g id="text_1">
      <!-- 0 -->
      <g style="fill: #262626" transform="translate(81.234531 547.421563) scale(0.1 -0.1)">
       <defs>
        <path id="ArialMT-30" d="M 266 2259 
Q 266 3072 433 3567 
Q 600 4063 929 4331 
Q 1259 4600 1759 4600 
Q 2128 4600 2406 4451 
Q 2684 4303 2865 4023 
Q 3047 3744 3150 3342 
Q 3253 2941 3253 2259 
Q 3253 1453 3087 958 
Q 2922 463 2592 192 
Q 2263 -78 1759 -78 
Q 1097 -78 719 397 
Q 266 969 266 2259 
z
M 844 2259 
Q 844 1131 1108 757 
Q 1372 384 1759 384 
Q 2147 384 2411 759 
Q 2675 1134 2675 2259 
Q 2675 3391 2411 3762 
Q 2147 4134 1753 4134 
Q 1366 4134 1134 3806 
Q 844 3388 844 2259 
z
" transform="scale(0.015625)"/>
       </defs>
       <use xlink:href="#ArialMT-30"/>
      </g>
     </g>
    </g>
    <g id="xtick_2">
     <g id="line2d_3">
      <path d="M 259.71197 536.76375 
L 259.71197 66.672 
" clip-path="url(#p2e3ddb9916)" style="fill: none; stroke: #cccccc; stroke-width: 0.8; stroke-linecap: round"/>
     </g>
     <g id="line2d_4"/>
     <g id="text_2">
      <!-- 20 -->
      <g style="fill: #262626" transform="translate(254.151032 547.421563) scale(0.1 -0.1)">
       <defs>
        <path id="ArialMT-32" d="M 3222 541 
L 3222 0 
L 194 0 
Q 188 203 259 391 
Q 375 700 629 1000 
Q 884 1300 1366 1694 
Q 2113 2306 2375 2664 
Q 2638 3022 2638 3341 
Q 2638 3675 2398 3904 
Q 2159 4134 1775 4134 
Q 1369 4134 1125 3890 
Q 881 3647 878 3216 
L 300 3275 
Q 359 3922 746 4261 
Q 1134 4600 1788 4600 
Q 2447 4600 2831 4234 
Q 3216 3869 3216 3328 
Q 3216 3053 3103 2787 
Q 2991 2522 2730 2228 
Q 2469 1934 1863 1422 
Q 1356 997 1212 845 
Q 1069 694 975 541 
L 3222 541 
z
" transform="scale(0.015625)"/>
       </defs>
       <use xlink:href="#ArialMT-32"/>
       <use xlink:href="#ArialMT-30" transform="translate(55.615234 0)"/>
      </g>
     </g>
    </g>
    <g id="xtick_3">
     <g id="line2d_5">
      <path d="M 435.408939 536.76375 
L 435.408939 66.672 
" clip-path="url(#p2e3ddb9916)" style="fill: none; stroke: #cccccc; stroke-width: 0.8; stroke-linecap: round"/>
     </g>
     <g id="line2d_6"/>
     <g id="text_3">
      <!-- 40 -->
      <g style="fill: #262626" transform="translate(429.848002 547.421563) scale(0.1 -0.1)">
       <defs>
        <path id="ArialMT-34" d="M 2069 0 
L 2069 1097 
L 81 1097 
L 81 1613 
L 2172 4581 
L 2631 4581 
L 2631 1613 
L 3250 1613 
L 3250 1097 
L 2631 1097 
L 2631 0 
L 2069 0 
z
M 2069 1613 
L 2069 3678 
L 634 1613 
L 2069 1613 
z
" transform="scale(0.015625)"/>
       </defs>
       <use xlink:href="#ArialMT-34"/>
       <use xlink:href="#ArialMT-30" transform="translate(55.615234 0)"/>
      </g>
     </g>
    </g>
    <g id="xtick_4">
     <g id="line2d_7">
      <path d="M 611.105909 536.76375 
L 611.105909 66.672 
" clip-path="url(#p2e3ddb9916)" style="fill: none; stroke: #cccccc; stroke-width: 0.8; stroke-linecap: round"/>
     </g>
     <g id="line2d_8"/>
     <g id="text_4">
      <!-- 60 -->
      <g style="fill: #262626" transform="translate(605.544972 547.421563) scale(0.1 -0.1)">
       <defs>
        <path id="ArialMT-36" d="M 3184 3459 
L 2625 3416 
Q 2550 3747 2413 3897 
Q 2184 4138 1850 4138 
Q 1581 4138 1378 3988 
Q 1113 3794 959 3422 
Q 806 3050 800 2363 
Q 1003 2672 1297 2822 
Q 1591 2972 1913 2972 
Q 2475 2972 2870 2558 
Q 3266 2144 3266 1488 
Q 3266 1056 3080 686 
Q 2894 316 2569 119 
Q 2244 -78 1831 -78 
Q 1128 -78 684 439 
Q 241 956 241 2144 
Q 241 3472 731 4075 
Q 1159 4600 1884 4600 
Q 2425 4600 2770 4297 
Q 3116 3994 3184 3459 
z
M 888 1484 
Q 888 1194 1011 928 
Q 1134 663 1356 523 
Q 1578 384 1822 384 
Q 2178 384 2434 671 
Q 2691 959 2691 1453 
Q 2691 1928 2437 2201 
Q 2184 2475 1800 2475 
Q 1419 2475 1153 2201 
Q 888 1928 888 1484 
z
" transform="scale(0.015625)"/>
       </defs>
       <use xlink:href="#ArialMT-36"/>
       <use xlink:href="#ArialMT-30" transform="translate(55.615234 0)"/>
      </g>
     </g>
    </g>
    <g id="xtick_5">
     <g id="line2d_9">
      <path d="M 786.802879 536.76375 
L 786.802879 66.672 
" clip-path="url(#p2e3ddb9916)" style="fill: none; stroke: #cccccc; stroke-width: 0.8; stroke-linecap: round"/>
     </g>
     <g id="line2d_10"/>
     <g id="text_5">
      <!-- 80 -->
      <g style="fill: #262626" transform="translate(781.241941 547.421563) scale(0.1 -0.1)">
       <defs>
        <path id="ArialMT-38" d="M 1131 2484 
Q 781 2613 612 2850 
Q 444 3088 444 3419 
Q 444 3919 803 4259 
Q 1163 4600 1759 4600 
Q 2359 4600 2725 4251 
Q 3091 3903 3091 3403 
Q 3091 3084 2923 2848 
Q 2756 2613 2416 2484 
Q 2838 2347 3058 2040 
Q 3278 1734 3278 1309 
Q 3278 722 2862 322 
Q 2447 -78 1769 -78 
Q 1091 -78 675 323 
Q 259 725 259 1325 
Q 259 1772 486 2073 
Q 713 2375 1131 2484 
z
M 1019 3438 
Q 1019 3113 1228 2906 
Q 1438 2700 1772 2700 
Q 2097 2700 2305 2904 
Q 2513 3109 2513 3406 
Q 2513 3716 2298 3927 
Q 2084 4138 1766 4138 
Q 1444 4138 1231 3931 
Q 1019 3725 1019 3438 
z
M 838 1322 
Q 838 1081 952 856 
Q 1066 631 1291 507 
Q 1516 384 1775 384 
Q 2178 384 2440 643 
Q 2703 903 2703 1303 
Q 2703 1709 2433 1975 
Q 2163 2241 1756 2241 
Q 1359 2241 1098 1978 
Q 838 1716 838 1322 
z
" transform="scale(0.015625)"/>
       </defs>
       <use xlink:href="#ArialMT-38"/>
       <use xlink:href="#ArialMT-30" transform="translate(55.615234 0)"/>
      </g>
     </g>
    </g>
    <g id="xtick_6">
     <g id="line2d_11">
      <path d="M 962.499848 536.76375 
L 962.499848 66.672 
" clip-path="url(#p2e3ddb9916)" style="fill: none; stroke: #cccccc; stroke-width: 0.8; stroke-linecap: round"/>
     </g>
     <g id="line2d_12"/>
     <g id="text_6">
      <!-- 100 -->
      <g style="fill: #262626" transform="translate(954.158442 547.421563) scale(0.1 -0.1)">
       <defs>
        <path id="ArialMT-31" d="M 2384 0 
L 1822 0 
L 1822 3584 
Q 1619 3391 1289 3197 
Q 959 3003 697 2906 
L 697 3450 
Q 1169 3672 1522 3987 
Q 1875 4303 2022 4600 
L 2384 4600 
L 2384 0 
z
" transform="scale(0.015625)"/>
       </defs>
       <use xlink:href="#ArialMT-31"/>
       <use xlink:href="#ArialMT-30" transform="translate(55.615234 0)"/>
       <use xlink:href="#ArialMT-30" transform="translate(111.230469 0)"/>
      </g>
     </g>
    </g>
    <g id="text_7">
     <!-- Time Step -->
     <g style="fill: #262626" transform="translate(491.74875 562.144688) scale(0.12 -0.12)">
      <defs>
       <path id="ArialMT-54" d="M 1659 0 
L 1659 4041 
L 150 4041 
L 150 4581 
L 3781 4581 
L 3781 4041 
L 2266 4041 
L 2266 0 
L 1659 0 
z
" transform="scale(0.015625)"/>
       <path id="ArialMT-69" d="M 425 3934 
L 425 4581 
L 988 4581 
L 988 3934 
L 425 3934 
z
M 425 0 
L 425 3319 
L 988 3319 
L 988 0 
L 425 0 
z
" transform="scale(0.015625)"/>
       <path id="ArialMT-6d" d="M 422 0 
L 422 3319 
L 925 3319 
L 925 2853 
Q 1081 3097 1340 3245 
Q 1600 3394 1931 3394 
Q 2300 3394 2536 3241 
Q 2772 3088 2869 2813 
Q 3263 3394 3894 3394 
Q 4388 3394 4653 3120 
Q 4919 2847 4919 2278 
L 4919 0 
L 4359 0 
L 4359 2091 
Q 4359 2428 4304 2576 
Q 4250 2725 4106 2815 
Q 3963 2906 3769 2906 
Q 3419 2906 3187 2673 
Q 2956 2441 2956 1928 
L 2956 0 
L 2394 0 
L 2394 2156 
Q 2394 2531 2256 2718 
Q 2119 2906 1806 2906 
Q 1569 2906 1367 2781 
Q 1166 2656 1075 2415 
Q 984 2175 984 1722 
L 984 0 
L 422 0 
z
" transform="scale(0.015625)"/>
       <path id="ArialMT-65" d="M 2694 1069 
L 3275 997 
Q 3138 488 2766 206 
Q 2394 -75 1816 -75 
Q 1088 -75 661 373 
Q 234 822 234 1631 
Q 234 2469 665 2931 
Q 1097 3394 1784 3394 
Q 2450 3394 2872 2941 
Q 3294 2488 3294 1666 
Q 3294 1616 3291 1516 
L 816 1516 
Q 847 969 1125 678 
Q 1403 388 1819 388 
Q 2128 388 2347 550 
Q 2566 713 2694 1069 
z
M 847 1978 
L 2700 1978 
Q 2663 2397 2488 2606 
Q 2219 2931 1791 2931 
Q 1403 2931 1139 2672 
Q 875 2413 847 1978 
z
" transform="scale(0.015625)"/>
       <path id="ArialMT-20" transform="scale(0.015625)"/>
       <path id="ArialMT-53" d="M 288 1472 
L 859 1522 
Q 900 1178 1048 958 
Q 1197 738 1509 602 
Q 1822 466 2213 466 
Q 2559 466 2825 569 
Q 3091 672 3220 851 
Q 3350 1031 3350 1244 
Q 3350 1459 3225 1620 
Q 3100 1781 2813 1891 
Q 2628 1963 1997 2114 
Q 1366 2266 1113 2400 
Q 784 2572 623 2826 
Q 463 3081 463 3397 
Q 463 3744 659 4045 
Q 856 4347 1234 4503 
Q 1613 4659 2075 4659 
Q 2584 4659 2973 4495 
Q 3363 4331 3572 4012 
Q 3781 3694 3797 3291 
L 3216 3247 
Q 3169 3681 2898 3903 
Q 2628 4125 2100 4125 
Q 1550 4125 1298 3923 
Q 1047 3722 1047 3438 
Q 1047 3191 1225 3031 
Q 1400 2872 2139 2705 
Q 2878 2538 3153 2413 
Q 3553 2228 3743 1945 
Q 3934 1663 3934 1294 
Q 3934 928 3725 604 
Q 3516 281 3123 101 
Q 2731 -78 2241 -78 
Q 1619 -78 1198 103 
Q 778 284 539 648 
Q 300 1013 288 1472 
z
" transform="scale(0.015625)"/>
       <path id="ArialMT-74" d="M 1650 503 
L 1731 6 
Q 1494 -44 1306 -44 
Q 1000 -44 831 53 
Q 663 150 594 308 
Q 525 466 525 972 
L 525 2881 
L 113 2881 
L 113 3319 
L 525 3319 
L 525 4141 
L 1084 4478 
L 1084 3319 
L 1650 3319 
L 1650 2881 
L 1084 2881 
L 1084 941 
Q 1084 700 1114 631 
Q 1144 563 1211 522 
Q 1278 481 1403 481 
Q 1497 481 1650 503 
z
" transform="scale(0.015625)"/>
       <path id="ArialMT-70" d="M 422 -1272 
L 422 3319 
L 934 3319 
L 934 2888 
Q 1116 3141 1344 3267 
Q 1572 3394 1897 3394 
Q 2322 3394 2647 3175 
Q 2972 2956 3137 2557 
Q 3303 2159 3303 1684 
Q 3303 1175 3120 767 
Q 2938 359 2589 142 
Q 2241 -75 1856 -75 
Q 1575 -75 1351 44 
Q 1128 163 984 344 
L 984 -1272 
L 422 -1272 
z
M 931 1641 
Q 931 1000 1190 694 
Q 1450 388 1819 388 
Q 2194 388 2461 705 
Q 2728 1022 2728 1688 
Q 2728 2322 2467 2637 
Q 2206 2953 1844 2953 
Q 1484 2953 1207 2617 
Q 931 2281 931 1641 
z
" transform="scale(0.015625)"/>
      </defs>
      <use xlink:href="#ArialMT-54"/>
      <use xlink:href="#ArialMT-69" transform="translate(57.333984 0)"/>
      <use xlink:href="#ArialMT-6d" transform="translate(79.550781 0)"/>
      <use xlink:href="#ArialMT-65" transform="translate(162.851562 0)"/>
      <use xlink:href="#ArialMT-20" transform="translate(218.466797 0)"/>
      <use xlink:href="#ArialMT-53" transform="translate(246.25 0)"/>
      <use xlink:href="#ArialMT-74" transform="translate(312.949219 0)"/>
      <use xlink:href="#ArialMT-65" transform="translate(340.732422 0)"/>
      <use xlink:href="#ArialMT-70" transform="translate(396.347656 0)"/>
     </g>
    </g>
   </g>
   <g id="matplotlib.axis_2">
    <g id="ytick_1">
     <g id="line2d_13">
      <path d="M 40.53 472.66033 
L 997.2 472.66033 
" clip-path="url(#p2e3ddb9916)" style="fill: none; stroke: #cccccc; stroke-width: 0.8; stroke-linecap: round"/>
     </g>
     <g id="line2d_14"/>
     <g id="text_8">
      <!-- −2 -->
      <g style="fill: #262626" transform="translate(25.628438 476.239236) scale(0.1 -0.1)">
       <defs>
        <path id="ArialMT-2212" d="M 3381 1997 
L 356 1997 
L 356 2522 
L 3381 2522 
L 3381 1997 
z
" transform="scale(0.015625)"/>
       </defs>
       <use xlink:href="#ArialMT-2212"/>
       <use xlink:href="#ArialMT-32" transform="translate(58.398438 0)"/>
      </g>
     </g>
    </g>
    <g id="ytick_2">
     <g id="line2d_15">
      <path d="M 40.53 387.189102 
L 997.2 387.189102 
" clip-path="url(#p2e3ddb9916)" style="fill: none; stroke: #cccccc; stroke-width: 0.8; stroke-linecap: round"/>
     </g>
     <g id="line2d_16"/>
     <g id="text_9">
      <!-- −1 -->
      <g style="fill: #262626" transform="translate(25.628438 390.768009) scale(0.1 -0.1)">
       <use xlink:href="#ArialMT-2212"/>
       <use xlink:href="#ArialMT-31" transform="translate(58.398438 0)"/>
      </g>
     </g>
    </g>
    <g id="ytick_3">
     <g id="line2d_17">
      <path d="M 40.53 301.717875 
L 997.2 301.717875 
" clip-path="url(#p2e3ddb9916)" style="fill: none; stroke: #cccccc; stroke-width: 0.8; stroke-linecap: round"/>
     </g>
     <g id="line2d_18"/>
     <g id="text_10">
      <!-- 0 -->
      <g style="fill: #262626" transform="translate(31.469062 305.296781) scale(0.1 -0.1)">
       <use xlink:href="#ArialMT-30"/>
      </g>
     </g>
    </g>
    <g id="ytick_4">
     <g id="line2d_19">
      <path d="M 40.53 216.246648 
L 997.2 216.246648 
" clip-path="url(#p2e3ddb9916)" style="fill: none; stroke: #cccccc; stroke-width: 0.8; stroke-linecap: round"/>
     </g>
     <g id="line2d_20"/>
     <g id="text_11">
      <!-- 1 -->
      <g style="fill: #262626" transform="translate(31.469062 219.825554) scale(0.1 -0.1)">
       <use xlink:href="#ArialMT-31"/>
      </g>
     </g>
    </g>
    <g id="ytick_5">
     <g id="line2d_21">
      <path d="M 40.53 130.77542 
L 997.2 130.77542 
" clip-path="url(#p2e3ddb9916)" style="fill: none; stroke: #cccccc; stroke-width: 0.8; stroke-linecap: round"/>
     </g>
     <g id="line2d_22"/>
     <g id="text_12">
      <!-- 2 -->
      <g style="fill: #262626" transform="translate(31.469062 134.354327) scale(0.1 -0.1)">
       <use xlink:href="#ArialMT-32"/>
      </g>
     </g>
    </g>
    <g id="text_13">
     <!-- Value -->
     <g style="fill: #262626" transform="translate(19.243437 316.620375) rotate(-90) scale(0.12 -0.12)">
      <defs>
       <path id="ArialMT-56" d="M 1803 0 
L 28 4581 
L 684 4581 
L 1875 1253 
Q 2019 853 2116 503 
Q 2222 878 2363 1253 
L 3600 4581 
L 4219 4581 
L 2425 0 
L 1803 0 
z
" transform="scale(0.015625)"/>
       <path id="ArialMT-61" d="M 2588 409 
Q 2275 144 1986 34 
Q 1697 -75 1366 -75 
Q 819 -75 525 192 
Q 231 459 231 875 
Q 231 1119 342 1320 
Q 453 1522 633 1644 
Q 813 1766 1038 1828 
Q 1203 1872 1538 1913 
Q 2219 1994 2541 2106 
Q 2544 2222 2544 2253 
Q 2544 2597 2384 2738 
Q 2169 2928 1744 2928 
Q 1347 2928 1158 2789 
Q 969 2650 878 2297 
L 328 2372 
Q 403 2725 575 2942 
Q 747 3159 1072 3276 
Q 1397 3394 1825 3394 
Q 2250 3394 2515 3294 
Q 2781 3194 2906 3042 
Q 3031 2891 3081 2659 
Q 3109 2516 3109 2141 
L 3109 1391 
Q 3109 606 3145 398 
Q 3181 191 3288 0 
L 2700 0 
Q 2613 175 2588 409 
z
M 2541 1666 
Q 2234 1541 1622 1453 
Q 1275 1403 1131 1340 
Q 988 1278 909 1158 
Q 831 1038 831 891 
Q 831 666 1001 516 
Q 1172 366 1500 366 
Q 1825 366 2078 508 
Q 2331 650 2450 897 
Q 2541 1088 2541 1459 
L 2541 1666 
z
" transform="scale(0.015625)"/>
       <path id="ArialMT-6c" d="M 409 0 
L 409 4581 
L 972 4581 
L 972 0 
L 409 0 
z
" transform="scale(0.015625)"/>
       <path id="ArialMT-75" d="M 2597 0 
L 2597 488 
Q 2209 -75 1544 -75 
Q 1250 -75 995 37 
Q 741 150 617 320 
Q 494 491 444 738 
Q 409 903 409 1263 
L 409 3319 
L 972 3319 
L 972 1478 
Q 972 1038 1006 884 
Q 1059 663 1231 536 
Q 1403 409 1656 409 
Q 1909 409 2131 539 
Q 2353 669 2445 892 
Q 2538 1116 2538 1541 
L 2538 3319 
L 3100 3319 
L 3100 0 
L 2597 0 
z
" transform="scale(0.015625)"/>
      </defs>
      <use xlink:href="#ArialMT-56"/>
      <use xlink:href="#ArialMT-61" transform="translate(59.324219 0)"/>
      <use xlink:href="#ArialMT-6c" transform="translate(114.939453 0)"/>
      <use xlink:href="#ArialMT-75" transform="translate(137.15625 0)"/>
      <use xlink:href="#ArialMT-65" transform="translate(192.771484 0)"/>
     </g>
    </g>
   </g>
   <g id="line2d_23">
    <path d="M 84.015 297.472398 
L 92.799848 292.079625 
L 101.584697 274.716075 
L 110.369545 256.933906 
L 119.154394 262.163381 
L 127.939242 253.042504 
L 136.724091 229.238249 
L 145.508939 228.820325 
L 154.293788 233.103455 
L 163.078636 219.333185 
L 171.863485 224.062096 
L 180.648333 221.525797 
L 189.433182 214.275376 
L 198.21803 232.868515 
L 207.002879 232.801513 
L 215.787727 225.753436 
L 224.572576 233.792979 
L 233.357424 227.871197 
L 242.142273 244.884025 
L 250.927121 256.799443 
L 259.71197 240.723493 
L 268.496818 264.48243 
L 277.281667 271.907822 
L 286.066515 295.065161 
L 294.851364 298.246224 
L 303.636212 88.039807 
L 312.421061 325.060132 
L 321.205909 322.586765 
L 329.990758 341.119633 
L 338.775606 348.115654 
L 347.560455 359.695542 
L 356.345303 346.801072 
L 365.130152 369.847979 
L 373.915 384.778514 
L 382.699848 373.522236 
L 391.484697 394.533348 
L 400.269545 384.533946 
L 409.054394 403.927885 
L 417.839242 398.014637 
L 426.624091 383.097205 
L 435.408939 375.248875 
L 444.193788 375.59207 
L 452.978636 372.329141 
L 461.763485 367.0779 
L 470.548333 369.29483 
L 479.333182 354.079706 
L 488.11803 342.39011 
L 496.902879 319.352403 
L 505.687727 314.956463 
L 514.472576 322.207716 
L 523.257424 293.526969 
L 532.042273 288.833684 
L 540.827121 280.833729 
L 549.61197 259.754704 
L 558.396818 246.696561 
L 567.181667 238.818264 
L 575.966515 246.104315 
L 584.751364 234.737945 
L 593.536212 223.547625 
L 602.321061 213.537007 
L 611.105909 515.395943 
L 619.890758 218.360132 
L 628.675606 225.713387 
L 637.460455 227.340746 
L 646.245303 212.392345 
L 655.030152 211.291172 
L 663.815 228.3131 
L 672.599848 225.125815 
L 681.384697 237.712082 
L 690.169545 254.396986 
L 698.954394 254.724345 
L 707.739242 254.304063 
L 716.524091 277.944057 
L 725.308939 274.8401 
L 734.093788 321.397333 
L 742.878636 302.81753 
L 751.663485 319.804085 
L 760.448333 333.506409 
L 769.233182 340.098768 
L 778.01803 367.173173 
L 786.802879 147.869666 
L 795.587727 363.260434 
L 804.372576 360.2469 
L 813.157424 382.729282 
L 821.942273 389.398549 
L 830.727121 389.6659 
L 839.51197 379.096222 
L 848.296818 384.282416 
L 857.081667 390.418528 
L 865.866515 378.947582 
L 874.651364 378.635504 
L 883.436212 366.065823 
L 892.221061 374.0566 
L 901.005909 363.500344 
L 909.790758 355.74584 
L 918.575606 355.782549 
L 927.360455 330.953345 
L 936.145303 320.95253 
L 944.930152 312.494182 
L 953.715 303.72292 
" clip-path="url(#p2e3ddb9916)" style="fill: none; stroke: #000000; stroke-width: 1.5; stroke-linecap: round"/>
   </g>
   <g id="PathCollection_1">
    <defs>
     <path id="mfd4fe6f2e0" d="M 0 1.581139 
C 0.419323 1.581139 0.821528 1.41454 1.118034 1.118034 
C 1.41454 0.821528 1.581139 0.419323 1.581139 0 
C 1.581139 -0.419323 1.41454 -0.821528 1.118034 -1.118034 
C 0.821528 -1.41454 0.419323 -1.581139 0 -1.581139 
C -0.419323 -1.581139 -0.821528 -1.41454 -1.118034 -1.118034 
C -1.41454 -0.821528 -1.581139 -0.419323 -1.581139 0 
C -1.581139 0.419323 -1.41454 0.821528 -1.118034 1.118034 
C -0.821528 1.41454 -0.419323 1.581139 0 1.581139 
z
" style="stroke: #000000; stroke-opacity: 0.5"/>
    </defs>
    <g clip-path="url(#p2e3ddb9916)">
     <use xlink:href="#mfd4fe6f2e0" x="84.015" y="297.472398" style="fill-opacity: 0.5; stroke: #000000; stroke-opacity: 0.5"/>
     <use xlink:href="#mfd4fe6f2e0" x="92.799848" y="292.079625" style="fill-opacity: 0.5; stroke: #000000; stroke-opacity: 0.5"/>
     <use xlink:href="#mfd4fe6f2e0" x="101.584697" y="274.716075" style="fill-opacity: 0.5; stroke: #000000; stroke-opacity: 0.5"/>
     <use xlink:href="#mfd4fe6f2e0" x="110.369545" y="256.933906" style="fill-opacity: 0.5; stroke: #000000; stroke-opacity: 0.5"/>
     <use xlink:href="#mfd4fe6f2e0" x="119.154394" y="262.163381" style="fill-opacity: 0.5; stroke: #000000; stroke-opacity: 0.5"/>
     <use xlink:href="#mfd4fe6f2e0" x="127.939242" y="253.042504" style="fill-opacity: 0.5; stroke: #000000; stroke-opacity: 0.5"/>
     <use xlink:href="#mfd4fe6f2e0" x="136.724091" y="229.238249" style="fill-opacity: 0.5; stroke: #000000; stroke-opacity: 0.5"/>
     <use xlink:href="#mfd4fe6f2e0" x="145.508939" y="228.820325" style="fill-opacity: 0.5; stroke: #000000; stroke-opacity: 0.5"/>
     <use xlink:href="#mfd4fe6f2e0" x="154.293788" y="233.103455" style="fill-opacity: 0.5; stroke: #000000; stroke-opacity: 0.5"/>
     <use xlink:href="#mfd4fe6f2e0" x="163.078636" y="219.333185" style="fill-opacity: 0.5; stroke: #000000; stroke-opacity: 0.5"/>
     <use xlink:href="#mfd4fe6f2e0" x="171.863485" y="224.062096" style="fill-opacity: 0.5; stroke: #000000; stroke-opacity: 0.5"/>
     <use xlink:href="#mfd4fe6f2e0" x="180.648333" y="221.525797" style="fill-opacity: 0.5; stroke: #000000; stroke-opacity: 0.5"/>
     <use xlink:href="#mfd4fe6f2e0" x="189.433182" y="214.275376" style="fill-opacity: 0.5; stroke: #000000; stroke-opacity: 0.5"/>
     <use xlink:href="#mfd4fe6f2e0" x="198.21803" y="232.868515" style="fill-opacity: 0.5; stroke: #000000; stroke-opacity: 0.5"/>
     <use xlink:href="#mfd4fe6f2e0" x="207.002879" y="232.801513" style="fill-opacity: 0.5; stroke: #000000; stroke-opacity: 0.5"/>
     <use xlink:href="#mfd4fe6f2e0" x="215.787727" y="225.753436" style="fill-opacity: 0.5; stroke: #000000; stroke-opacity: 0.5"/>
     <use xlink:href="#mfd4fe6f2e0" x="224.572576" y="233.792979" style="fill-opacity: 0.5; stroke: #000000; stroke-opacity: 0.5"/>
     <use xlink:href="#mfd4fe6f2e0" x="233.357424" y="227.871197" style="fill-opacity: 0.5; stroke: #000000; stroke-opacity: 0.5"/>
     <use xlink:href="#mfd4fe6f2e0" x="242.142273" y="244.884025" style="fill-opacity: 0.5; stroke: #000000; stroke-opacity: 0.5"/>
     <use xlink:href="#mfd4fe6f2e0" x="250.927121" y="256.799443" style="fill-opacity: 0.5; stroke: #000000; stroke-opacity: 0.5"/>
     <use xlink:href="#mfd4fe6f2e0" x="259.71197" y="240.723493" style="fill-opacity: 0.5; stroke: #000000; stroke-opacity: 0.5"/>
     <use xlink:href="#mfd4fe6f2e0" x="268.496818" y="264.48243" style="fill-opacity: 0.5; stroke: #000000; stroke-opacity: 0.5"/>
     <use xlink:href="#mfd4fe6f2e0" x="277.281667" y="271.907822" style="fill-opacity: 0.5; stroke: #000000; stroke-opacity: 0.5"/>
     <use xlink:href="#mfd4fe6f2e0" x="286.066515" y="295.065161" style="fill-opacity: 0.5; stroke: #000000; stroke-opacity: 0.5"/>
     <use xlink:href="#mfd4fe6f2e0" x="294.851364" y="298.246224" style="fill-opacity: 0.5; stroke: #000000; stroke-opacity: 0.5"/>
     <use xlink:href="#mfd4fe6f2e0" x="303.636212" y="88.039807" style="fill-opacity: 0.5; stroke: #000000; stroke-opacity: 0.5"/>
     <use xlink:href="#mfd4fe6f2e0" x="312.421061" y="325.060132" style="fill-opacity: 0.5; stroke: #000000; stroke-opacity: 0.5"/>
     <use xlink:href="#mfd4fe6f2e0" x="321.205909" y="322.586765" style="fill-opacity: 0.5; stroke: #000000; stroke-opacity: 0.5"/>
     <use xlink:href="#mfd4fe6f2e0" x="329.990758" y="341.119633" style="fill-opacity: 0.5; stroke: #000000; stroke-opacity: 0.5"/>
     <use xlink:href="#mfd4fe6f2e0" x="338.775606" y="348.115654" style="fill-opacity: 0.5; stroke: #000000; stroke-opacity: 0.5"/>
     <use xlink:href="#mfd4fe6f2e0" x="347.560455" y="359.695542" style="fill-opacity: 0.5; stroke: #000000; stroke-opacity: 0.5"/>
     <use xlink:href="#mfd4fe6f2e0" x="356.345303" y="346.801072" style="fill-opacity: 0.5; stroke: #000000; stroke-opacity: 0.5"/>
     <use xlink:href="#mfd4fe6f2e0" x="365.130152" y="369.847979" style="fill-opacity: 0.5; stroke: #000000; stroke-opacity: 0.5"/>
     <use xlink:href="#mfd4fe6f2e0" x="373.915" y="384.778514" style="fill-opacity: 0.5; stroke: #000000; stroke-opacity: 0.5"/>
     <use xlink:href="#mfd4fe6f2e0" x="382.699848" y="373.522236" style="fill-opacity: 0.5; stroke: #000000; stroke-opacity: 0.5"/>
     <use xlink:href="#mfd4fe6f2e0" x="391.484697" y="394.533348" style="fill-opacity: 0.5; stroke: #000000; stroke-opacity: 0.5"/>
     <use xlink:href="#mfd4fe6f2e0" x="400.269545" y="384.533946" style="fill-opacity: 0.5; stroke: #000000; stroke-opacity: 0.5"/>
     <use xlink:href="#mfd4fe6f2e0" x="409.054394" y="403.927885" style="fill-opacity: 0.5; stroke: #000000; stroke-opacity: 0.5"/>
     <use xlink:href="#mfd4fe6f2e0" x="417.839242" y="398.014637" style="fill-opacity: 0.5; stroke: #000000; stroke-opacity: 0.5"/>
     <use xlink:href="#mfd4fe6f2e0" x="426.624091" y="383.097205" style="fill-opacity: 0.5; stroke: #000000; stroke-opacity: 0.5"/>
     <use xlink:href="#mfd4fe6f2e0" x="435.408939" y="375.248875" style="fill-opacity: 0.5; stroke: #000000; stroke-opacity: 0.5"/>
     <use xlink:href="#mfd4fe6f2e0" x="444.193788" y="375.59207" style="fill-opacity: 0.5; stroke: #000000; stroke-opacity: 0.5"/>
     <use xlink:href="#mfd4fe6f2e0" x="452.978636" y="372.329141" style="fill-opacity: 0.5; stroke: #000000; stroke-opacity: 0.5"/>
     <use xlink:href="#mfd4fe6f2e0" x="461.763485" y="367.0779" style="fill-opacity: 0.5; stroke: #000000; stroke-opacity: 0.5"/>
     <use xlink:href="#mfd4fe6f2e0" x="470.548333" y="369.29483" style="fill-opacity: 0.5; stroke: #000000; stroke-opacity: 0.5"/>
     <use xlink:href="#mfd4fe6f2e0" x="479.333182" y="354.079706" style="fill-opacity: 0.5; stroke: #000000; stroke-opacity: 0.5"/>
     <use xlink:href="#mfd4fe6f2e0" x="488.11803" y="342.39011" style="fill-opacity: 0.5; stroke: #000000; stroke-opacity: 0.5"/>
     <use xlink:href="#mfd4fe6f2e0" x="496.902879" y="319.352403" style="fill-opacity: 0.5; stroke: #000000; stroke-opacity: 0.5"/>
     <use xlink:href="#mfd4fe6f2e0" x="505.687727" y="314.956463" style="fill-opacity: 0.5; stroke: #000000; stroke-opacity: 0.5"/>
     <use xlink:href="#mfd4fe6f2e0" x="514.472576" y="322.207716" style="fill-opacity: 0.5; stroke: #000000; stroke-opacity: 0.5"/>
     <use xlink:href="#mfd4fe6f2e0" x="523.257424" y="293.526969" style="fill-opacity: 0.5; stroke: #000000; stroke-opacity: 0.5"/>
     <use xlink:href="#mfd4fe6f2e0" x="532.042273" y="288.833684" style="fill-opacity: 0.5; stroke: #000000; stroke-opacity: 0.5"/>
     <use xlink:href="#mfd4fe6f2e0" x="540.827121" y="280.833729" style="fill-opacity: 0.5; stroke: #000000; stroke-opacity: 0.5"/>
     <use xlink:href="#mfd4fe6f2e0" x="549.61197" y="259.754704" style="fill-opacity: 0.5; stroke: #000000; stroke-opacity: 0.5"/>
     <use xlink:href="#mfd4fe6f2e0" x="558.396818" y="246.696561" style="fill-opacity: 0.5; stroke: #000000; stroke-opacity: 0.5"/>
     <use xlink:href="#mfd4fe6f2e0" x="567.181667" y="238.818264" style="fill-opacity: 0.5; stroke: #000000; stroke-opacity: 0.5"/>
     <use xlink:href="#mfd4fe6f2e0" x="575.966515" y="246.104315" style="fill-opacity: 0.5; stroke: #000000; stroke-opacity: 0.5"/>
     <use xlink:href="#mfd4fe6f2e0" x="584.751364" y="234.737945" style="fill-opacity: 0.5; stroke: #000000; stroke-opacity: 0.5"/>
     <use xlink:href="#mfd4fe6f2e0" x="593.536212" y="223.547625" style="fill-opacity: 0.5; stroke: #000000; stroke-opacity: 0.5"/>
     <use xlink:href="#mfd4fe6f2e0" x="602.321061" y="213.537007" style="fill-opacity: 0.5; stroke: #000000; stroke-opacity: 0.5"/>
     <use xlink:href="#mfd4fe6f2e0" x="611.105909" y="515.395943" style="fill-opacity: 0.5; stroke: #000000; stroke-opacity: 0.5"/>
     <use xlink:href="#mfd4fe6f2e0" x="619.890758" y="218.360132" style="fill-opacity: 0.5; stroke: #000000; stroke-opacity: 0.5"/>
     <use xlink:href="#mfd4fe6f2e0" x="628.675606" y="225.713387" style="fill-opacity: 0.5; stroke: #000000; stroke-opacity: 0.5"/>
     <use xlink:href="#mfd4fe6f2e0" x="637.460455" y="227.340746" style="fill-opacity: 0.5; stroke: #000000; stroke-opacity: 0.5"/>
     <use xlink:href="#mfd4fe6f2e0" x="646.245303" y="212.392345" style="fill-opacity: 0.5; stroke: #000000; stroke-opacity: 0.5"/>
     <use xlink:href="#mfd4fe6f2e0" x="655.030152" y="211.291172" style="fill-opacity: 0.5; stroke: #000000; stroke-opacity: 0.5"/>
     <use xlink:href="#mfd4fe6f2e0" x="663.815" y="228.3131" style="fill-opacity: 0.5; stroke: #000000; stroke-opacity: 0.5"/>
     <use xlink:href="#mfd4fe6f2e0" x="672.599848" y="225.125815" style="fill-opacity: 0.5; stroke: #000000; stroke-opacity: 0.5"/>
     <use xlink:href="#mfd4fe6f2e0" x="681.384697" y="237.712082" style="fill-opacity: 0.5; stroke: #000000; stroke-opacity: 0.5"/>
     <use xlink:href="#mfd4fe6f2e0" x="690.169545" y="254.396986" style="fill-opacity: 0.5; stroke: #000000; stroke-opacity: 0.5"/>
     <use xlink:href="#mfd4fe6f2e0" x="698.954394" y="254.724345" style="fill-opacity: 0.5; stroke: #000000; stroke-opacity: 0.5"/>
     <use xlink:href="#mfd4fe6f2e0" x="707.739242" y="254.304063" style="fill-opacity: 0.5; stroke: #000000; stroke-opacity: 0.5"/>
     <use xlink:href="#mfd4fe6f2e0" x="716.524091" y="277.944057" style="fill-opacity: 0.5; stroke: #000000; stroke-opacity: 0.5"/>
     <use xlink:href="#mfd4fe6f2e0" x="725.308939" y="274.8401" style="fill-opacity: 0.5; stroke: #000000; stroke-opacity: 0.5"/>
     <use xlink:href="#mfd4fe6f2e0" x="734.093788" y="321.397333" style="fill-opacity: 0.5; stroke: #000000; stroke-opacity: 0.5"/>
     <use xlink:href="#mfd4fe6f2e0" x="742.878636" y="302.81753" style="fill-opacity: 0.5; stroke: #000000; stroke-opacity: 0.5"/>
     <use xlink:href="#mfd4fe6f2e0" x="751.663485" y="319.804085" style="fill-opacity: 0.5; stroke: #000000; stroke-opacity: 0.5"/>
     <use xlink:href="#mfd4fe6f2e0" x="760.448333" y="333.506409" style="fill-opacity: 0.5; stroke: #000000; stroke-opacity: 0.5"/>
     <use xlink:href="#mfd4fe6f2e0" x="769.233182" y="340.098768" style="fill-opacity: 0.5; stroke: #000000; stroke-opacity: 0.5"/>
     <use xlink:href="#mfd4fe6f2e0" x="778.01803" y="367.173173" style="fill-opacity: 0.5; stroke: #000000; stroke-opacity: 0.5"/>
     <use xlink:href="#mfd4fe6f2e0" x="786.802879" y="147.869666" style="fill-opacity: 0.5; stroke: #000000; stroke-opacity: 0.5"/>
     <use xlink:href="#mfd4fe6f2e0" x="795.587727" y="363.260434" style="fill-opacity: 0.5; stroke: #000000; stroke-opacity: 0.5"/>
     <use xlink:href="#mfd4fe6f2e0" x="804.372576" y="360.2469" style="fill-opacity: 0.5; stroke: #000000; stroke-opacity: 0.5"/>
     <use xlink:href="#mfd4fe6f2e0" x="813.157424" y="382.729282" style="fill-opacity: 0.5; stroke: #000000; stroke-opacity: 0.5"/>
     <use xlink:href="#mfd4fe6f2e0" x="821.942273" y="389.398549" style="fill-opacity: 0.5; stroke: #000000; stroke-opacity: 0.5"/>
     <use xlink:href="#mfd4fe6f2e0" x="830.727121" y="389.6659" style="fill-opacity: 0.5; stroke: #000000; stroke-opacity: 0.5"/>
     <use xlink:href="#mfd4fe6f2e0" x="839.51197" y="379.096222" style="fill-opacity: 0.5; stroke: #000000; stroke-opacity: 0.5"/>
     <use xlink:href="#mfd4fe6f2e0" x="848.296818" y="384.282416" style="fill-opacity: 0.5; stroke: #000000; stroke-opacity: 0.5"/>
     <use xlink:href="#mfd4fe6f2e0" x="857.081667" y="390.418528" style="fill-opacity: 0.5; stroke: #000000; stroke-opacity: 0.5"/>
     <use xlink:href="#mfd4fe6f2e0" x="865.866515" y="378.947582" style="fill-opacity: 0.5; stroke: #000000; stroke-opacity: 0.5"/>
     <use xlink:href="#mfd4fe6f2e0" x="874.651364" y="378.635504" style="fill-opacity: 0.5; stroke: #000000; stroke-opacity: 0.5"/>
     <use xlink:href="#mfd4fe6f2e0" x="883.436212" y="366.065823" style="fill-opacity: 0.5; stroke: #000000; stroke-opacity: 0.5"/>
     <use xlink:href="#mfd4fe6f2e0" x="892.221061" y="374.0566" style="fill-opacity: 0.5; stroke: #000000; stroke-opacity: 0.5"/>
     <use xlink:href="#mfd4fe6f2e0" x="901.005909" y="363.500344" style="fill-opacity: 0.5; stroke: #000000; stroke-opacity: 0.5"/>
     <use xlink:href="#mfd4fe6f2e0" x="909.790758" y="355.74584" style="fill-opacity: 0.5; stroke: #000000; stroke-opacity: 0.5"/>
     <use xlink:href="#mfd4fe6f2e0" x="918.575606" y="355.782549" style="fill-opacity: 0.5; stroke: #000000; stroke-opacity: 0.5"/>
     <use xlink:href="#mfd4fe6f2e0" x="927.360455" y="330.953345" style="fill-opacity: 0.5; stroke: #000000; stroke-opacity: 0.5"/>
     <use xlink:href="#mfd4fe6f2e0" x="936.145303" y="320.95253" style="fill-opacity: 0.5; stroke: #000000; stroke-opacity: 0.5"/>
     <use xlink:href="#mfd4fe6f2e0" x="944.930152" y="312.494182" style="fill-opacity: 0.5; stroke: #000000; stroke-opacity: 0.5"/>
     <use xlink:href="#mfd4fe6f2e0" x="953.715" y="303.72292" style="fill-opacity: 0.5; stroke: #000000; stroke-opacity: 0.5"/>
    </g>
   </g>
   <g id="FillBetweenPolyCollection_1">
    <defs>
     <path id="m784316e882" d="M 84.015 -302.180253 
L 84.015 -273.641015 
L 92.799848 -273.672548 
L 101.584697 -277.911298 
L 110.369545 -289.192253 
L 119.154394 -300.781837 
L 127.939242 -310.925175 
L 136.724091 -316.31536 
L 145.508939 -328.356345 
L 154.293788 -342.711928 
L 163.078636 -343.932418 
L 171.863485 -345.194029 
L 180.648333 -345.348619 
L 189.433182 -341.393471 
L 198.21803 -341.078821 
L 207.002879 -338.175738 
L 215.787727 -341.092495 
L 224.572576 -334.065514 
L 233.357424 -322.638542 
L 242.142273 -321.918871 
L 250.927121 -311.956454 
L 259.71197 -304.568071 
L 268.496818 -286.164372 
L 277.281667 -273.556664 
L 286.066515 -226.689492 
L 294.851364 -205.638434 
L 303.636212 -189.83435 
L 312.421061 -174.224918 
L 321.205909 -158.276 
L 329.990758 -217.910016 
L 338.775606 -216.043284 
L 347.560455 -209.044375 
L 356.345303 -195.089344 
L 365.130152 -191.805388 
L 373.915 -180.511784 
L 382.699848 -182.719603 
L 391.484697 -173.953297 
L 400.269545 -170.692862 
L 409.054394 -172.504389 
L 417.839242 -172.990091 
L 426.624091 -173.049661 
L 435.408939 -182.682985 
L 444.193788 -194.351265 
L 452.978636 -199.638899 
L 461.763485 -198.427027 
L 470.548333 -199.92603 
L 479.333182 -200.991679 
L 488.11803 -208.387654 
L 496.902879 -225.215932 
L 505.687727 -236.543983 
L 514.472576 -249.675984 
L 523.257424 -254.708421 
L 532.042273 -259.834016 
L 540.827121 -278.097723 
L 549.61197 -287.229984 
L 558.396818 -301.673594 
L 567.181667 -319.313472 
L 575.966515 -326.611324 
L 584.751364 -329.200267 
L 593.536212 -135.203223 
L 602.321061 -137.440162 
L 611.105909 -138.216942 
L 619.890758 -137.926436 
L 628.675606 -137.980752 
L 637.460455 -348.118863 
L 646.245303 -344.87393 
L 655.030152 -345.085311 
L 663.815 -339.632705 
L 672.599848 -325.451324 
L 681.384697 -319.112093 
L 690.169545 -314.67888 
L 698.954394 -302.972016 
L 707.739242 -298.29152 
L 716.524091 -266.564032 
L 725.308939 -258.392413 
L 734.093788 -249.971912 
L 742.878636 -238.259844 
L 751.663485 -235.278189 
L 760.448333 -214.525906 
L 769.233182 -169.070917 
L 778.01803 -155.228991 
L 786.802879 -146.969898 
L 795.587727 -132.965569 
L 804.372576 -125.080466 
L 813.157424 -181.796184 
L 821.942273 -181.323281 
L 830.727121 -185.544315 
L 839.51197 -183.626362 
L 848.296818 -184.896322 
L 857.081667 -187.582545 
L 865.866515 -185.538851 
L 874.651364 -187.763624 
L 883.436212 -195.195499 
L 892.221061 -197.61332 
L 901.005909 -203.740531 
L 909.790758 -200.926398 
L 918.575606 -208.577145 
L 927.360455 -216.947049 
L 936.145303 -227.157027 
L 944.930152 -244.993887 
L 953.715 -253.271788 
L 953.715 -273.948457 
L 953.715 -273.948457 
L 944.930152 -272.944625 
L 936.145303 -275.280763 
L 927.360455 -264.681572 
L 918.575606 -252.649012 
L 909.790758 -239.058132 
L 901.005909 -222.199007 
L 892.221061 -219.185036 
L 883.436212 -212.322161 
L 874.651364 -208.986761 
L 865.866515 -207.121208 
L 857.081667 -199.865354 
L 848.296818 -198.139419 
L 839.51197 -195.228992 
L 830.727121 -196.386738 
L 821.942273 -210.221977 
L 813.157424 -216.08339 
L 804.372576 -369.517601 
L 795.587727 -370.52265 
L 786.802879 -373.570526 
L 778.01803 -376.007629 
L 769.233182 -379.548243 
L 760.448333 -272.114109 
L 751.663485 -269.672161 
L 742.878636 -292.793974 
L 734.093788 -303.306846 
L 725.308939 -321.086354 
L 716.524091 -332.152008 
L 707.739242 -327.224659 
L 698.954394 -337.395371 
L 690.169545 -346.815803 
L 681.384697 -352.778975 
L 672.599848 -363.813015 
L 663.815 -366.43349 
L 655.030152 -365.129417 
L 646.245303 -365.10577 
L 637.460455 -365.842025 
L 628.675606 -454.338226 
L 619.890758 -453.934678 
L 611.105909 -455.16142 
L 602.321061 -452.328377 
L 593.536212 -443.467643 
L 584.751364 -360.10167 
L 575.966515 -349.426792 
L 567.181667 -342.241812 
L 558.396818 -341.443377 
L 549.61197 -338.795239 
L 540.827121 -326.044018 
L 532.042273 -314.103263 
L 523.257424 -297.148154 
L 514.472576 -286.773122 
L 505.687727 -278.482552 
L 496.902879 -265.589509 
L 488.11803 -263.582941 
L 479.333182 -250.130341 
L 470.548333 -230.005296 
L 461.763485 -218.223514 
L 452.978636 -208.543974 
L 444.193788 -208.310659 
L 435.408939 -207.604243 
L 426.624091 -204.59807 
L 417.839242 -201.08089 
L 409.054394 -193.852802 
L 400.269545 -199.494317 
L 391.484697 -201.528331 
L 382.699848 -206.393988 
L 373.915 -223.694957 
L 365.130152 -226.336475 
L 356.345303 -233.215151 
L 347.560455 -236.723673 
L 338.775606 -248.629249 
L 329.990758 -255.458893 
L 321.205909 -423.755204 
L 312.421061 -427.754058 
L 303.636212 -430.566414 
L 294.851364 -435.033908 
L 286.066515 -438.21393 
L 277.281667 -330.273284 
L 268.496818 -334.244289 
L 259.71197 -335.913044 
L 250.927121 -346.139312 
L 242.142273 -348.452674 
L 233.357424 -353.721026 
L 224.572576 -351.893226 
L 215.787727 -349.672449 
L 207.002879 -358.027534 
L 198.21803 -360.031324 
L 189.433182 -360.39321 
L 180.648333 -361.825393 
L 171.863485 -361.886008 
L 163.078636 -357.329638 
L 154.293788 -355.465148 
L 145.508939 -358.228568 
L 136.724091 -353.137474 
L 127.939242 -348.995479 
L 119.154394 -340.780517 
L 110.369545 -327.233551 
L 101.584697 -320.742549 
L 92.799848 -317.726451 
L 84.015 -302.180253 
z
" style="stroke: #008000; stroke-opacity: 0.05"/>
    </defs>
    <g clip-path="url(#p2e3ddb9916)">
     <use xlink:href="#m784316e882" x="0" y="576" style="fill: #008000; fill-opacity: 0.05; stroke: #008000; stroke-opacity: 0.05"/>
    </g>
   </g>
   <g id="line2d_24">
    <path d="M 84.015 297.472398 
L 92.799848 292.079625 
L 101.584697 274.716075 
L 110.369545 256.933906 
L 119.154394 262.163381 
L 127.939242 253.042504 
L 136.724091 229.238249 
L 145.508939 228.820325 
L 154.293788 233.103455 
L 163.078636 219.333185 
L 171.863485 224.062096 
L 180.648333 221.525797 
L 189.433182 225.10666 
L 198.21803 232.868515 
L 207.002879 232.801513 
L 215.787727 230.617528 
L 224.572576 233.792979 
L 233.357424 227.871197 
L 242.142273 244.884025 
L 250.927121 256.799443 
L 259.71197 240.723493 
L 268.496818 264.48243 
L 277.281667 271.907822 
L 286.066515 295.065161 
L 294.851364 298.246224 
L 303.636212 265.799618 
L 312.421061 325.060132 
L 321.205909 322.586765 
L 329.990758 341.119633 
L 338.775606 348.115654 
L 347.560455 359.695542 
L 356.345303 346.801072 
L 365.130152 369.847979 
L 373.915 384.778514 
L 382.699848 373.522236 
L 391.484697 394.533348 
L 400.269545 384.533946 
L 409.054394 392.821404 
L 417.839242 398.014637 
L 426.624091 383.097205 
L 435.408939 375.248875 
L 444.193788 375.59207 
L 452.978636 372.329141 
L 461.763485 367.0779 
L 470.548333 369.29483 
L 479.333182 354.079706 
L 488.11803 342.39011 
L 496.902879 319.352403 
L 505.687727 314.956463 
L 514.472576 322.207716 
L 523.257424 293.526969 
L 532.042273 288.833684 
L 540.827121 280.833729 
L 549.61197 259.754704 
L 558.396818 246.696561 
L 567.181667 238.818264 
L 575.966515 246.104315 
L 584.751364 234.737945 
L 593.536212 223.547625 
L 602.321061 213.537007 
L 611.105909 279.310819 
L 619.890758 218.360132 
L 628.675606 225.713387 
L 637.460455 227.340746 
L 646.245303 212.392345 
L 655.030152 211.291172 
L 663.815 228.3131 
L 672.599848 225.125815 
L 681.384697 237.712082 
L 690.169545 254.396986 
L 698.954394 254.724345 
L 707.739242 254.304063 
L 716.524091 277.944057 
L 725.308939 274.8401 
L 734.093788 321.397333 
L 742.878636 302.81753 
L 751.663485 319.804085 
L 760.448333 333.506409 
L 769.233182 340.098768 
L 778.01803 367.173173 
L 786.802879 315.729788 
L 795.587727 363.260434 
L 804.372576 360.2469 
L 813.157424 382.729282 
L 821.942273 389.398549 
L 830.727121 389.6659 
L 839.51197 386.572323 
L 848.296818 384.282416 
L 857.081667 382.27605 
L 865.866515 378.947582 
L 874.651364 378.635504 
L 883.436212 366.065823 
L 892.221061 374.0566 
L 901.005909 363.500344 
L 909.790758 355.74584 
L 918.575606 355.782549 
L 927.360455 330.953345 
L 936.145303 320.95253 
L 944.930152 312.494182 
L 953.715 303.72292 
" clip-path="url(#p2e3ddb9916)" style="fill: none; stroke-dasharray: 7.4,3.2; stroke-dashoffset: 0; stroke: #d62728; stroke-opacity: 0.7; stroke-width: 2"/>
   </g>
   <g id="line2d_25">
    <path d="M 84.015 297.472398 
L 92.799848 292.079625 
L 101.584697 274.716075 
L 110.369545 256.933906 
L 119.154394 262.163381 
L 127.939242 253.042504 
L 136.724091 229.238249 
L 145.508939 228.820325 
L 154.293788 233.103455 
L 163.078636 219.333185 
L 171.863485 224.062096 
L 180.648333 221.525797 
L 189.433182 215.60679 
L 198.21803 232.868515 
L 207.002879 232.801513 
L 215.787727 226.327551 
L 224.572576 233.792979 
L 233.357424 227.871197 
L 242.142273 244.884025 
L 250.927121 256.799443 
L 259.71197 240.723493 
L 268.496818 264.48243 
L 277.281667 271.907822 
L 286.066515 295.065161 
L 294.851364 298.246224 
L 303.636212 145.433586 
L 312.421061 325.060132 
L 321.205909 322.586765 
L 329.990758 341.119633 
L 338.775606 348.115654 
L 347.560455 359.695542 
L 356.345303 346.801072 
L 365.130152 369.847979 
L 373.915 384.778514 
L 382.699848 373.522236 
L 391.484697 394.533348 
L 400.269545 384.533946 
L 409.054394 403.495611 
L 417.839242 398.014637 
L 426.624091 383.097205 
L 435.408939 375.248875 
L 444.193788 375.59207 
L 452.978636 372.329141 
L 461.763485 367.0779 
L 470.548333 369.29483 
L 479.333182 354.079706 
L 488.11803 342.39011 
L 496.902879 319.352403 
L 505.687727 314.956463 
L 514.472576 322.207716 
L 523.257424 293.526969 
L 532.042273 288.833684 
L 540.827121 280.833729 
L 549.61197 259.754704 
L 558.396818 246.696561 
L 567.181667 238.818264 
L 575.966515 246.104315 
L 584.751364 234.737945 
L 593.536212 223.547625 
L 602.321061 213.537007 
L 611.105909 437.783058 
L 619.890758 218.360132 
L 628.675606 225.713387 
L 637.460455 227.340746 
L 646.245303 212.392345 
L 655.030152 211.291172 
L 663.815 228.3131 
L 672.599848 225.125815 
L 681.384697 237.712082 
L 690.169545 254.396986 
L 698.954394 254.724345 
L 707.739242 254.304063 
L 716.524091 277.944057 
L 725.308939 274.8401 
L 734.093788 321.397333 
L 742.878636 302.81753 
L 751.663485 319.804085 
L 760.448333 333.506409 
L 769.233182 340.098768 
L 778.01803 367.173173 
L 786.802879 202.429474 
L 795.587727 363.260434 
L 804.372576 360.2469 
L 813.157424 382.729282 
L 821.942273 389.398549 
L 830.727121 389.6659 
L 839.51197 380.771008 
L 848.296818 384.282416 
L 857.081667 388.417455 
L 865.866515 378.947582 
L 874.651364 378.635504 
L 883.436212 366.065823 
L 892.221061 374.0566 
L 901.005909 363.500344 
L 909.790758 355.74584 
L 918.575606 355.782549 
L 927.360455 330.953345 
L 936.145303 320.95253 
L 944.930152 312.494182 
L 953.715 303.72292 
" clip-path="url(#p2e3ddb9916)" style="fill: none; stroke: #2ca02c; stroke-width: 2; stroke-linecap: round"/>
   </g>
   <g id="line2d_26">
    <path d="M 84.015 273.819747 
L 92.799848 258.273549 
L 101.584697 255.257451 
L 110.369545 248.766449 
L 119.154394 235.219483 
L 127.939242 227.004521 
L 136.724091 222.862526 
L 145.508939 217.771432 
L 154.293788 220.534852 
L 163.078636 218.670362 
L 171.863485 214.113992 
L 180.648333 214.174607 
L 189.433182 215.60679 
L 198.21803 215.968676 
L 207.002879 217.972466 
L 215.787727 226.327551 
L 224.572576 224.106774 
L 233.357424 222.278974 
L 242.142273 227.547326 
L 250.927121 229.860688 
L 259.71197 240.086956 
L 268.496818 241.755711 
L 277.281667 245.726716 
L 286.066515 137.78607 
L 294.851364 140.966092 
L 303.636212 145.433586 
L 312.421061 148.245942 
L 321.205909 152.244796 
L 329.990758 320.541107 
L 338.775606 327.370751 
L 347.560455 339.276327 
L 356.345303 342.784849 
L 365.130152 349.663525 
L 373.915 352.305043 
L 382.699848 369.606012 
L 391.484697 374.471669 
L 400.269545 376.505683 
L 409.054394 382.147198 
L 417.839242 374.91911 
L 426.624091 371.40193 
L 435.408939 368.395757 
L 444.193788 367.689341 
L 452.978636 367.456026 
L 461.763485 357.776486 
L 470.548333 345.994704 
L 479.333182 325.869659 
L 488.11803 312.417059 
L 496.902879 310.410491 
L 505.687727 297.517448 
L 514.472576 289.226878 
L 523.257424 278.851846 
L 532.042273 261.896737 
L 540.827121 249.955982 
L 549.61197 237.204761 
L 558.396818 234.556623 
L 567.181667 233.758188 
L 575.966515 226.573208 
L 584.751364 215.89833 
L 593.536212 132.532357 
L 602.321061 123.671623 
L 611.105909 120.83858 
L 619.890758 122.065322 
L 628.675606 121.661774 
L 637.460455 210.157975 
L 646.245303 210.89423 
L 655.030152 210.870583 
L 663.815 209.56651 
L 672.599848 212.186985 
L 681.384697 223.221025 
L 690.169545 229.184197 
L 698.954394 238.604629 
L 707.739242 248.775341 
L 716.524091 243.847992 
L 725.308939 254.913646 
L 734.093788 272.693154 
L 742.878636 283.206026 
L 751.663485 306.327839 
L 760.448333 303.885891 
L 769.233182 196.451757 
L 778.01803 199.992371 
L 786.802879 202.429474 
L 795.587727 205.47735 
L 804.372576 206.482399 
L 813.157424 359.91661 
L 821.942273 365.778023 
L 830.727121 379.613262 
L 839.51197 380.771008 
L 848.296818 377.860581 
L 857.081667 376.134646 
L 865.866515 368.878792 
L 874.651364 367.013239 
L 883.436212 363.677839 
L 892.221061 356.814964 
L 901.005909 353.800993 
L 909.790758 336.941868 
L 918.575606 323.350988 
L 927.360455 311.318428 
L 936.145303 300.719237 
L 944.930152 303.055375 
L 953.715 302.051543 
" clip-path="url(#p2e3ddb9916)" style="fill: none; stroke-dasharray: 1,1.65; stroke-dashoffset: 0; stroke: #008000; stroke-opacity: 0.3"/>
   </g>
   <g id="line2d_27">
    <path d="M 84.015 302.358985 
L 92.799848 302.327452 
L 101.584697 298.088702 
L 110.369545 286.807747 
L 119.154394 275.218163 
L 127.939242 265.074825 
L 136.724091 259.68464 
L 145.508939 247.643655 
L 154.293788 233.288072 
L 163.078636 232.067582 
L 171.863485 230.805971 
L 180.648333 230.651381 
L 189.433182 234.606529 
L 198.21803 234.921179 
L 207.002879 237.824262 
L 215.787727 234.907505 
L 224.572576 241.934486 
L 233.357424 253.361458 
L 242.142273 254.081129 
L 250.927121 264.043546 
L 259.71197 271.431929 
L 268.496818 289.835628 
L 277.281667 302.443336 
L 286.066515 349.310508 
L 294.851364 370.361566 
L 303.636212 386.16565 
L 312.421061 401.775082 
L 321.205909 417.724 
L 329.990758 358.089984 
L 338.775606 359.956716 
L 347.560455 366.955625 
L 356.345303 380.910656 
L 365.130152 384.194612 
L 373.915 395.488216 
L 382.699848 393.280397 
L 391.484697 402.046703 
L 400.269545 405.307138 
L 409.054394 403.495611 
L 417.839242 403.009909 
L 426.624091 402.950339 
L 435.408939 393.317015 
L 444.193788 381.648735 
L 452.978636 376.361101 
L 461.763485 377.572973 
L 470.548333 376.07397 
L 479.333182 375.008321 
L 488.11803 367.612346 
L 496.902879 350.784068 
L 505.687727 339.456017 
L 514.472576 326.324016 
L 523.257424 321.291579 
L 532.042273 316.165984 
L 540.827121 297.902277 
L 549.61197 288.770016 
L 558.396818 274.326406 
L 567.181667 256.686528 
L 575.966515 249.388676 
L 584.751364 246.799733 
L 593.536212 440.796777 
L 602.321061 438.559838 
L 611.105909 437.783058 
L 619.890758 438.073564 
L 628.675606 438.019248 
L 637.460455 227.881137 
L 646.245303 231.12607 
L 655.030152 230.914689 
L 663.815 236.367295 
L 672.599848 250.548676 
L 681.384697 256.887907 
L 690.169545 261.32112 
L 698.954394 273.027984 
L 707.739242 277.70848 
L 716.524091 309.435968 
L 725.308939 317.607587 
L 734.093788 326.028088 
L 742.878636 337.740156 
L 751.663485 340.721811 
L 760.448333 361.474094 
L 769.233182 406.929083 
L 778.01803 420.771009 
L 786.802879 429.030102 
L 795.587727 443.034431 
L 804.372576 450.919534 
L 813.157424 394.203816 
L 821.942273 394.676719 
L 830.727121 390.455685 
L 839.51197 392.373638 
L 848.296818 391.103678 
L 857.081667 388.417455 
L 865.866515 390.461149 
L 874.651364 388.236376 
L 883.436212 380.804501 
L 892.221061 378.38668 
L 901.005909 372.259469 
L 909.790758 375.073602 
L 918.575606 367.422855 
L 927.360455 359.052951 
L 936.145303 348.842973 
L 944.930152 331.006113 
L 953.715 322.728212 
" clip-path="url(#p2e3ddb9916)" style="fill: none; stroke-dasharray: 1,1.65; stroke-dashoffset: 0; stroke: #008000; stroke-opacity: 0.3"/>
   </g>
   <g id="patch_3">
    <path d="M 40.53 536.76375 
L 40.53 66.672 
" style="fill: none; stroke: #cccccc; stroke-linejoin: miter; stroke-linecap: square"/>
   </g>
   <g id="patch_4">
    <path d="M 997.2 536.76375 
L 997.2 66.672 
" style="fill: none; stroke: #cccccc; stroke-linejoin: miter; stroke-linecap: square"/>
   </g>
   <g id="patch_5">
    <path d="M 40.53 536.76375 
L 997.2 536.76375 
" style="fill: none; stroke: #cccccc; stroke-linejoin: miter; stroke-linecap: square"/>
   </g>
   <g id="patch_6">
    <path d="M 40.53 66.672 
L 997.2 66.672 
" style="fill: none; stroke: #cccccc; stroke-linejoin: miter; stroke-linecap: square"/>
   </g>
   <g id="patch_7">
    <path d="M 305.636212 35.20006 
Q 305.636212 54.177984 305.636212 73.155908 
L 309.636212 73.155908 
Q 306.636212 79.154633 303.636212 85.153358 
Q 300.636212 79.154633 297.636212 73.155908 
L 301.636212 73.155908 
Q 301.636212 54.177984 301.636212 35.20006 
L 305.636212 35.20006 
z
" style="stroke: #000000; stroke-linecap: round"/>
   </g>
   <g id="text_14">
    <!-- Outlier 1 -->
    <g style="fill: #262626" transform="translate(284.7409 17.486823) scale(0.1 -0.1)">
     <defs>
      <path id="ArialMT-4f" d="M 309 2231 
Q 309 3372 921 4017 
Q 1534 4663 2503 4663 
Q 3138 4663 3647 4359 
Q 4156 4056 4423 3514 
Q 4691 2972 4691 2284 
Q 4691 1588 4409 1038 
Q 4128 488 3612 205 
Q 3097 -78 2500 -78 
Q 1853 -78 1343 234 
Q 834 547 571 1087 
Q 309 1628 309 2231 
z
M 934 2222 
Q 934 1394 1379 917 
Q 1825 441 2497 441 
Q 3181 441 3623 922 
Q 4066 1403 4066 2288 
Q 4066 2847 3877 3264 
Q 3688 3681 3323 3911 
Q 2959 4141 2506 4141 
Q 1863 4141 1398 3698 
Q 934 3256 934 2222 
z
" transform="scale(0.015625)"/>
      <path id="ArialMT-72" d="M 416 0 
L 416 3319 
L 922 3319 
L 922 2816 
Q 1116 3169 1280 3281 
Q 1444 3394 1641 3394 
Q 1925 3394 2219 3213 
L 2025 2691 
Q 1819 2813 1613 2813 
Q 1428 2813 1281 2702 
Q 1134 2591 1072 2394 
Q 978 2094 978 1738 
L 978 0 
L 416 0 
z
" transform="scale(0.015625)"/>
     </defs>
     <use xlink:href="#ArialMT-4f"/>
     <use xlink:href="#ArialMT-75" transform="translate(77.783203 0)"/>
     <use xlink:href="#ArialMT-74" transform="translate(133.398438 0)"/>
     <use xlink:href="#ArialMT-6c" transform="translate(161.181641 0)"/>
     <use xlink:href="#ArialMT-69" transform="translate(183.398438 0)"/>
     <use xlink:href="#ArialMT-65" transform="translate(205.615234 0)"/>
     <use xlink:href="#ArialMT-72" transform="translate(261.230469 0)"/>
     <use xlink:href="#ArialMT-20" transform="translate(294.53125 0)"/>
     <use xlink:href="#ArialMT-31" transform="translate(322.314453 0)"/>
    </g>
    <!-- (Upward Spike) -->
    <g style="fill: #262626" transform="translate(269.182306 28.209948) scale(0.1 -0.1)">
     <defs>
      <path id="ArialMT-28" d="M 1497 -1347 
Q 1031 -759 709 28 
Q 388 816 388 1659 
Q 388 2403 628 3084 
Q 909 3875 1497 4659 
L 1900 4659 
Q 1522 4009 1400 3731 
Q 1209 3300 1100 2831 
Q 966 2247 966 1656 
Q 966 153 1900 -1347 
L 1497 -1347 
z
" transform="scale(0.015625)"/>
      <path id="ArialMT-55" d="M 3500 4581 
L 4106 4581 
L 4106 1934 
Q 4106 1244 3950 837 
Q 3794 431 3386 176 
Q 2978 -78 2316 -78 
Q 1672 -78 1262 144 
Q 853 366 678 786 
Q 503 1206 503 1934 
L 503 4581 
L 1109 4581 
L 1109 1938 
Q 1109 1341 1220 1058 
Q 1331 775 1601 622 
Q 1872 469 2263 469 
Q 2931 469 3215 772 
Q 3500 1075 3500 1938 
L 3500 4581 
z
" transform="scale(0.015625)"/>
      <path id="ArialMT-77" d="M 1034 0 
L 19 3319 
L 600 3319 
L 1128 1403 
L 1325 691 
Q 1338 744 1497 1375 
L 2025 3319 
L 2603 3319 
L 3100 1394 
L 3266 759 
L 3456 1400 
L 4025 3319 
L 4572 3319 
L 3534 0 
L 2950 0 
L 2422 1988 
L 2294 2553 
L 1622 0 
L 1034 0 
z
" transform="scale(0.015625)"/>
      <path id="ArialMT-64" d="M 2575 0 
L 2575 419 
Q 2259 -75 1647 -75 
Q 1250 -75 917 144 
Q 584 363 401 755 
Q 219 1147 219 1656 
Q 219 2153 384 2558 
Q 550 2963 881 3178 
Q 1213 3394 1622 3394 
Q 1922 3394 2156 3267 
Q 2391 3141 2538 2938 
L 2538 4581 
L 3097 4581 
L 3097 0 
L 2575 0 
z
M 797 1656 
Q 797 1019 1065 703 
Q 1334 388 1700 388 
Q 2069 388 2326 689 
Q 2584 991 2584 1609 
Q 2584 2291 2321 2609 
Q 2059 2928 1675 2928 
Q 1300 2928 1048 2622 
Q 797 2316 797 1656 
z
" transform="scale(0.015625)"/>
      <path id="ArialMT-6b" d="M 425 0 
L 425 4581 
L 988 4581 
L 988 1969 
L 2319 3319 
L 3047 3319 
L 1778 2088 
L 3175 0 
L 2481 0 
L 1384 1697 
L 988 1316 
L 988 0 
L 425 0 
z
" transform="scale(0.015625)"/>
      <path id="ArialMT-29" d="M 791 -1347 
L 388 -1347 
Q 1322 153 1322 1656 
Q 1322 2244 1188 2822 
Q 1081 3291 891 3722 
Q 769 4003 388 4659 
L 791 4659 
Q 1378 3875 1659 3084 
Q 1900 2403 1900 1659 
Q 1900 816 1576 28 
Q 1253 -759 791 -1347 
z
" transform="scale(0.015625)"/>
     </defs>
     <use xlink:href="#ArialMT-28"/>
     <use xlink:href="#ArialMT-55" transform="translate(33.300781 0)"/>
     <use xlink:href="#ArialMT-70" transform="translate(105.517578 0)"/>
     <use xlink:href="#ArialMT-77" transform="translate(161.132812 0)"/>
     <use xlink:href="#ArialMT-61" transform="translate(233.349609 0)"/>
     <use xlink:href="#ArialMT-72" transform="translate(288.964844 0)"/>
     <use xlink:href="#ArialMT-64" transform="translate(322.265625 0)"/>
     <use xlink:href="#ArialMT-20" transform="translate(377.880859 0)"/>
     <use xlink:href="#ArialMT-53" transform="translate(405.664062 0)"/>
     <use xlink:href="#ArialMT-70" transform="translate(472.363281 0)"/>
     <use xlink:href="#ArialMT-69" transform="translate(527.978516 0)"/>
     <use xlink:href="#ArialMT-6b" transform="translate(550.195312 0)"/>
     <use xlink:href="#ArialMT-65" transform="translate(600.195312 0)"/>
     <use xlink:href="#ArialMT-29" transform="translate(655.810547 0)"/>
    </g>
   </g>
   <g id="text_15">
    <!-- Denoising Method Comparison: Mean Replacement vs. Clamping -->
    <g style="fill: #262626" transform="translate(315.778594 45.495563) scale(0.14 -0.14)">
     <defs>
      <path id="ArialMT-44" d="M 494 0 
L 494 4581 
L 2072 4581 
Q 2606 4581 2888 4516 
Q 3281 4425 3559 4188 
Q 3922 3881 4101 3404 
Q 4281 2928 4281 2316 
Q 4281 1794 4159 1391 
Q 4038 988 3847 723 
Q 3656 459 3429 307 
Q 3203 156 2883 78 
Q 2563 0 2147 0 
L 494 0 
z
M 1100 541 
L 2078 541 
Q 2531 541 2789 625 
Q 3047 709 3200 863 
Q 3416 1078 3536 1442 
Q 3656 1806 3656 2325 
Q 3656 3044 3420 3430 
Q 3184 3816 2847 3947 
Q 2603 4041 2063 4041 
L 1100 4041 
L 1100 541 
z
" transform="scale(0.015625)"/>
      <path id="ArialMT-6e" d="M 422 0 
L 422 3319 
L 928 3319 
L 928 2847 
Q 1294 3394 1984 3394 
Q 2284 3394 2536 3286 
Q 2788 3178 2913 3003 
Q 3038 2828 3088 2588 
Q 3119 2431 3119 2041 
L 3119 0 
L 2556 0 
L 2556 2019 
Q 2556 2363 2490 2533 
Q 2425 2703 2258 2804 
Q 2091 2906 1866 2906 
Q 1506 2906 1245 2678 
Q 984 2450 984 1813 
L 984 0 
L 422 0 
z
" transform="scale(0.015625)"/>
      <path id="ArialMT-6f" d="M 213 1659 
Q 213 2581 725 3025 
Q 1153 3394 1769 3394 
Q 2453 3394 2887 2945 
Q 3322 2497 3322 1706 
Q 3322 1066 3130 698 
Q 2938 331 2570 128 
Q 2203 -75 1769 -75 
Q 1072 -75 642 372 
Q 213 819 213 1659 
z
M 791 1659 
Q 791 1022 1069 705 
Q 1347 388 1769 388 
Q 2188 388 2466 706 
Q 2744 1025 2744 1678 
Q 2744 2294 2464 2611 
Q 2184 2928 1769 2928 
Q 1347 2928 1069 2612 
Q 791 2297 791 1659 
z
" transform="scale(0.015625)"/>
      <path id="ArialMT-73" d="M 197 991 
L 753 1078 
Q 800 744 1014 566 
Q 1228 388 1613 388 
Q 2000 388 2187 545 
Q 2375 703 2375 916 
Q 2375 1106 2209 1216 
Q 2094 1291 1634 1406 
Q 1016 1563 777 1677 
Q 538 1791 414 1992 
Q 291 2194 291 2438 
Q 291 2659 392 2848 
Q 494 3038 669 3163 
Q 800 3259 1026 3326 
Q 1253 3394 1513 3394 
Q 1903 3394 2198 3281 
Q 2494 3169 2634 2976 
Q 2775 2784 2828 2463 
L 2278 2388 
Q 2241 2644 2061 2787 
Q 1881 2931 1553 2931 
Q 1166 2931 1000 2803 
Q 834 2675 834 2503 
Q 834 2394 903 2306 
Q 972 2216 1119 2156 
Q 1203 2125 1616 2013 
Q 2213 1853 2448 1751 
Q 2684 1650 2818 1456 
Q 2953 1263 2953 975 
Q 2953 694 2789 445 
Q 2625 197 2315 61 
Q 2006 -75 1616 -75 
Q 969 -75 630 194 
Q 291 463 197 991 
z
" transform="scale(0.015625)"/>
      <path id="ArialMT-67" d="M 319 -275 
L 866 -356 
Q 900 -609 1056 -725 
Q 1266 -881 1628 -881 
Q 2019 -881 2231 -725 
Q 2444 -569 2519 -288 
Q 2563 -116 2559 434 
Q 2191 0 1641 0 
Q 956 0 581 494 
Q 206 988 206 1678 
Q 206 2153 378 2554 
Q 550 2956 876 3175 
Q 1203 3394 1644 3394 
Q 2231 3394 2613 2919 
L 2613 3319 
L 3131 3319 
L 3131 450 
Q 3131 -325 2973 -648 
Q 2816 -972 2473 -1159 
Q 2131 -1347 1631 -1347 
Q 1038 -1347 672 -1080 
Q 306 -813 319 -275 
z
M 784 1719 
Q 784 1066 1043 766 
Q 1303 466 1694 466 
Q 2081 466 2343 764 
Q 2606 1063 2606 1700 
Q 2606 2309 2336 2618 
Q 2066 2928 1684 2928 
Q 1309 2928 1046 2623 
Q 784 2319 784 1719 
z
" transform="scale(0.015625)"/>
      <path id="ArialMT-4d" d="M 475 0 
L 475 4581 
L 1388 4581 
L 2472 1338 
Q 2622 884 2691 659 
Q 2769 909 2934 1394 
L 4031 4581 
L 4847 4581 
L 4847 0 
L 4263 0 
L 4263 3834 
L 2931 0 
L 2384 0 
L 1059 3900 
L 1059 0 
L 475 0 
z
" transform="scale(0.015625)"/>
      <path id="ArialMT-68" d="M 422 0 
L 422 4581 
L 984 4581 
L 984 2938 
Q 1378 3394 1978 3394 
Q 2347 3394 2619 3248 
Q 2891 3103 3008 2847 
Q 3125 2591 3125 2103 
L 3125 0 
L 2563 0 
L 2563 2103 
Q 2563 2525 2380 2717 
Q 2197 2909 1863 2909 
Q 1613 2909 1392 2779 
Q 1172 2650 1078 2428 
Q 984 2206 984 1816 
L 984 0 
L 422 0 
z
" transform="scale(0.015625)"/>
      <path id="ArialMT-43" d="M 3763 1606 
L 4369 1453 
Q 4178 706 3683 314 
Q 3188 -78 2472 -78 
Q 1731 -78 1267 223 
Q 803 525 561 1097 
Q 319 1669 319 2325 
Q 319 3041 592 3573 
Q 866 4106 1370 4382 
Q 1875 4659 2481 4659 
Q 3169 4659 3637 4309 
Q 4106 3959 4291 3325 
L 3694 3184 
Q 3534 3684 3231 3912 
Q 2928 4141 2469 4141 
Q 1941 4141 1586 3887 
Q 1231 3634 1087 3207 
Q 944 2781 944 2328 
Q 944 1744 1114 1308 
Q 1284 872 1643 656 
Q 2003 441 2422 441 
Q 2931 441 3284 734 
Q 3638 1028 3763 1606 
z
" transform="scale(0.015625)"/>
      <path id="ArialMT-3a" d="M 578 2678 
L 578 3319 
L 1219 3319 
L 1219 2678 
L 578 2678 
z
M 578 0 
L 578 641 
L 1219 641 
L 1219 0 
L 578 0 
z
" transform="scale(0.015625)"/>
      <path id="ArialMT-52" d="M 503 0 
L 503 4581 
L 2534 4581 
Q 3147 4581 3465 4457 
Q 3784 4334 3975 4021 
Q 4166 3709 4166 3331 
Q 4166 2844 3850 2509 
Q 3534 2175 2875 2084 
Q 3116 1969 3241 1856 
Q 3506 1613 3744 1247 
L 4541 0 
L 3778 0 
L 3172 953 
Q 2906 1366 2734 1584 
Q 2563 1803 2427 1890 
Q 2291 1978 2150 2013 
Q 2047 2034 1813 2034 
L 1109 2034 
L 1109 0 
L 503 0 
z
M 1109 2559 
L 2413 2559 
Q 2828 2559 3062 2645 
Q 3297 2731 3419 2920 
Q 3541 3109 3541 3331 
Q 3541 3656 3305 3865 
Q 3069 4075 2559 4075 
L 1109 4075 
L 1109 2559 
z
" transform="scale(0.015625)"/>
      <path id="ArialMT-63" d="M 2588 1216 
L 3141 1144 
Q 3050 572 2676 248 
Q 2303 -75 1759 -75 
Q 1078 -75 664 370 
Q 250 816 250 1647 
Q 250 2184 428 2587 
Q 606 2991 970 3192 
Q 1334 3394 1763 3394 
Q 2303 3394 2647 3120 
Q 2991 2847 3088 2344 
L 2541 2259 
Q 2463 2594 2264 2762 
Q 2066 2931 1784 2931 
Q 1359 2931 1093 2626 
Q 828 2322 828 1663 
Q 828 994 1084 691 
Q 1341 388 1753 388 
Q 2084 388 2306 591 
Q 2528 794 2588 1216 
z
" transform="scale(0.015625)"/>
      <path id="ArialMT-76" d="M 1344 0 
L 81 3319 
L 675 3319 
L 1388 1331 
Q 1503 1009 1600 663 
Q 1675 925 1809 1294 
L 2547 3319 
L 3125 3319 
L 1869 0 
L 1344 0 
z
" transform="scale(0.015625)"/>
      <path id="ArialMT-2e" d="M 581 0 
L 581 641 
L 1222 641 
L 1222 0 
L 581 0 
z
" transform="scale(0.015625)"/>
     </defs>
     <use xlink:href="#ArialMT-44"/>
     <use xlink:href="#ArialMT-65" transform="translate(72.216797 0)"/>
     <use xlink:href="#ArialMT-6e" transform="translate(127.832031 0)"/>
     <use xlink:href="#ArialMT-6f" transform="translate(183.447266 0)"/>
     <use xlink:href="#ArialMT-69" transform="translate(239.0625 0)"/>
     <use xlink:href="#ArialMT-73" transform="translate(261.279297 0)"/>
     <use xlink:href="#ArialMT-69" transform="translate(311.279297 0)"/>
     <use xlink:href="#ArialMT-6e" transform="translate(333.496094 0)"/>
     <use xlink:href="#ArialMT-67" transform="translate(389.111328 0)"/>
     <use xlink:href="#ArialMT-20" transform="translate(444.726562 0)"/>
     <use xlink:href="#ArialMT-4d" transform="translate(472.509766 0)"/>
     <use xlink:href="#ArialMT-65" transform="translate(555.810547 0)"/>
     <use xlink:href="#ArialMT-74" transform="translate(611.425781 0)"/>
     <use xlink:href="#ArialMT-68" transform="translate(639.208984 0)"/>
     <use xlink:href="#ArialMT-6f" transform="translate(694.824219 0)"/>
     <use xlink:href="#ArialMT-64" transform="translate(750.439453 0)"/>
     <use xlink:href="#ArialMT-20" transform="translate(806.054688 0)"/>
     <use xlink:href="#ArialMT-43" transform="translate(833.837891 0)"/>
     <use xlink:href="#ArialMT-6f" transform="translate(906.054688 0)"/>
     <use xlink:href="#ArialMT-6d" transform="translate(961.669922 0)"/>
     <use xlink:href="#ArialMT-70" transform="translate(1044.970703 0)"/>
     <use xlink:href="#ArialMT-61" transform="translate(1100.585938 0)"/>
     <use xlink:href="#ArialMT-72" transform="translate(1156.201172 0)"/>
     <use xlink:href="#ArialMT-69" transform="translate(1189.501953 0)"/>
     <use xlink:href="#ArialMT-73" transform="translate(1211.71875 0)"/>
     <use xlink:href="#ArialMT-6f" transform="translate(1261.71875 0)"/>
     <use xlink:href="#ArialMT-6e" transform="translate(1317.333984 0)"/>
     <use xlink:href="#ArialMT-3a" transform="translate(1372.949219 0)"/>
     <use xlink:href="#ArialMT-20" transform="translate(1400.732422 0)"/>
     <use xlink:href="#ArialMT-4d" transform="translate(1428.515625 0)"/>
     <use xlink:href="#ArialMT-65" transform="translate(1511.816406 0)"/>
     <use xlink:href="#ArialMT-61" transform="translate(1567.431641 0)"/>
     <use xlink:href="#ArialMT-6e" transform="translate(1623.046875 0)"/>
     <use xlink:href="#ArialMT-20" transform="translate(1678.662109 0)"/>
     <use xlink:href="#ArialMT-52" transform="translate(1706.445312 0)"/>
     <use xlink:href="#ArialMT-65" transform="translate(1778.662109 0)"/>
     <use xlink:href="#ArialMT-70" transform="translate(1834.277344 0)"/>
     <use xlink:href="#ArialMT-6c" transform="translate(1889.892578 0)"/>
     <use xlink:href="#ArialMT-61" transform="translate(1912.109375 0)"/>
     <use xlink:href="#ArialMT-63" transform="translate(1967.724609 0)"/>
     <use xlink:href="#ArialMT-65" transform="translate(2017.724609 0)"/>
     <use xlink:href="#ArialMT-6d" transform="translate(2073.339844 0)"/>
     <use xlink:href="#ArialMT-65" transform="translate(2156.640625 0)"/>
     <use xlink:href="#ArialMT-6e" transform="translate(2212.255859 0)"/>
     <use xlink:href="#ArialMT-74" transform="translate(2267.871094 0)"/>
     <use xlink:href="#ArialMT-20" transform="translate(2295.654297 0)"/>
     <use xlink:href="#ArialMT-76" transform="translate(2323.4375 0)"/>
     <use xlink:href="#ArialMT-73" transform="translate(2373.4375 0)"/>
     <use xlink:href="#ArialMT-2e" transform="translate(2423.4375 0)"/>
     <use xlink:href="#ArialMT-20" transform="translate(2451.220703 0)"/>
     <use xlink:href="#ArialMT-43" transform="translate(2479.003906 0)"/>
     <use xlink:href="#ArialMT-6c" transform="translate(2551.220703 0)"/>
     <use xlink:href="#ArialMT-61" transform="translate(2573.4375 0)"/>
     <use xlink:href="#ArialMT-6d" transform="translate(2629.052734 0)"/>
     <use xlink:href="#ArialMT-70" transform="translate(2712.353516 0)"/>
     <use xlink:href="#ArialMT-69" transform="translate(2767.96875 0)"/>
     <use xlink:href="#ArialMT-6e" transform="translate(2790.185547 0)"/>
     <use xlink:href="#ArialMT-67" transform="translate(2845.800781 0)"/>
    </g>
    <!-- (Window=5, Threshold=1.2σ) -->
    <g style="fill: #262626" transform="translate(428.295937 60.672) scale(0.14 -0.14)">
     <defs>
      <path id="ArialMT-57" d="M 1294 0 
L 78 4581 
L 700 4581 
L 1397 1578 
Q 1509 1106 1591 641 
Q 1766 1375 1797 1488 
L 2669 4581 
L 3400 4581 
L 4056 2263 
Q 4303 1400 4413 641 
Q 4500 1075 4641 1638 
L 5359 4581 
L 5969 4581 
L 4713 0 
L 4128 0 
L 3163 3491 
Q 3041 3928 3019 4028 
Q 2947 3713 2884 3491 
L 1913 0 
L 1294 0 
z
" transform="scale(0.015625)"/>
      <path id="ArialMT-3d" d="M 3381 2694 
L 356 2694 
L 356 3219 
L 3381 3219 
L 3381 2694 
z
M 3381 1303 
L 356 1303 
L 356 1828 
L 3381 1828 
L 3381 1303 
z
" transform="scale(0.015625)"/>
      <path id="ArialMT-35" d="M 266 1200 
L 856 1250 
Q 922 819 1161 601 
Q 1400 384 1738 384 
Q 2144 384 2425 690 
Q 2706 997 2706 1503 
Q 2706 1984 2436 2262 
Q 2166 2541 1728 2541 
Q 1456 2541 1237 2417 
Q 1019 2294 894 2097 
L 366 2166 
L 809 4519 
L 3088 4519 
L 3088 3981 
L 1259 3981 
L 1013 2750 
Q 1425 3038 1878 3038 
Q 2478 3038 2890 2622 
Q 3303 2206 3303 1553 
Q 3303 931 2941 478 
Q 2500 -78 1738 -78 
Q 1113 -78 717 272 
Q 322 622 266 1200 
z
" transform="scale(0.015625)"/>
      <path id="ArialMT-2c" d="M 569 0 
L 569 641 
L 1209 641 
L 1209 0 
Q 1209 -353 1084 -570 
Q 959 -788 688 -906 
L 531 -666 
Q 709 -588 793 -436 
Q 878 -284 888 0 
L 569 0 
z
" transform="scale(0.015625)"/>
      <path id="ArialMT-3c3" d="M 3809 3319 
L 3809 2863 
L 2906 2863 
Q 3322 2475 3322 1656 
Q 3322 766 2867 345 
Q 2413 -75 1763 -75 
Q 1088 -75 650 362 
Q 213 800 213 1659 
Q 213 2544 667 2969 
Q 1122 3394 1763 3394 
Q 1997 3394 2294 3319 
L 3809 3319 
z
M 1753 2928 
Q 1344 2928 1067 2609 
Q 791 2291 791 1656 
Q 791 1025 1061 706 
Q 1331 388 1763 388 
Q 2216 388 2483 720 
Q 2750 1053 2750 1659 
Q 2750 2213 2504 2570 
Q 2259 2928 1753 2928 
z
" transform="scale(0.015625)"/>
     </defs>
     <use xlink:href="#ArialMT-28"/>
     <use xlink:href="#ArialMT-57" transform="translate(33.300781 0)"/>
     <use xlink:href="#ArialMT-69" transform="translate(127.685547 0)"/>
     <use xlink:href="#ArialMT-6e" transform="translate(149.902344 0)"/>
     <use xlink:href="#ArialMT-64" transform="translate(205.517578 0)"/>
     <use xlink:href="#ArialMT-6f" transform="translate(261.132812 0)"/>
     <use xlink:href="#ArialMT-77" transform="translate(316.748047 0)"/>
     <use xlink:href="#ArialMT-3d" transform="translate(388.964844 0)"/>
     <use xlink:href="#ArialMT-35" transform="translate(447.363281 0)"/>
     <use xlink:href="#ArialMT-2c" transform="translate(502.978516 0)"/>
     <use xlink:href="#ArialMT-20" transform="translate(530.761719 0)"/>
     <use xlink:href="#ArialMT-54" transform="translate(556.794922 0)"/>
     <use xlink:href="#ArialMT-68" transform="translate(617.878906 0)"/>
     <use xlink:href="#ArialMT-72" transform="translate(673.494141 0)"/>
     <use xlink:href="#ArialMT-65" transform="translate(706.794922 0)"/>
     <use xlink:href="#ArialMT-73" transform="translate(762.410156 0)"/>
     <use xlink:href="#ArialMT-68" transform="translate(812.410156 0)"/>
     <use xlink:href="#ArialMT-6f" transform="translate(868.025391 0)"/>
     <use xlink:href="#ArialMT-6c" transform="translate(923.640625 0)"/>
     <use xlink:href="#ArialMT-64" transform="translate(945.857422 0)"/>
     <use xlink:href="#ArialMT-3d" transform="translate(1001.472656 0)"/>
     <use xlink:href="#ArialMT-31" transform="translate(1059.871094 0)"/>
     <use xlink:href="#ArialMT-2e" transform="translate(1115.486328 0)"/>
     <use xlink:href="#ArialMT-32" transform="translate(1143.269531 0)"/>
     <use xlink:href="#ArialMT-3c3" transform="translate(1198.884766 0)"/>
     <use xlink:href="#ArialMT-29" transform="translate(1260.603516 0)"/>
    </g>
   </g>
   <g id="legend_1">
    <g id="patch_8">
     <path d="M 810.6875 148.243875 
L 992.2 148.243875 
Q 994.2 148.243875 994.2 146.243875 
L 994.2 75.672 
Q 994.2 73.672 992.2 73.672 
L 810.6875 73.672 
Q 808.6875 73.672 808.6875 75.672 
L 808.6875 146.243875 
Q 808.6875 148.243875 810.6875 148.243875 
z
" style="fill: #4d4d4d; opacity: 0.5; stroke: #4d4d4d; stroke-linejoin: miter"/>
    </g>
    <g id="patch_9">
     <path d="M 808.6875 146.243875 
L 990.2 146.243875 
Q 992.2 146.243875 992.2 144.243875 
L 992.2 73.672 
Q 992.2 71.672 990.2 71.672 
L 808.6875 71.672 
Q 806.6875 71.672 806.6875 73.672 
L 806.6875 144.243875 
Q 806.6875 146.243875 808.6875 146.243875 
z
" style="fill: #ffffff; stroke: #cccccc; stroke-linejoin: miter"/>
    </g>
    <g id="line2d_28">
     <path d="M 810.6875 79.329813 
L 820.6875 79.329813 
L 830.6875 79.329813 
" style="fill: none; stroke: #000000; stroke-width: 1.5; stroke-linecap: round"/>
    </g>
    <g id="text_16">
     <!-- Raw Data -->
     <g style="fill: #262626" transform="translate(838.6875 82.829813) scale(0.1 -0.1)">
      <use xlink:href="#ArialMT-52"/>
      <use xlink:href="#ArialMT-61" transform="translate(72.216797 0)"/>
      <use xlink:href="#ArialMT-77" transform="translate(127.832031 0)"/>
      <use xlink:href="#ArialMT-20" transform="translate(200.048828 0)"/>
      <use xlink:href="#ArialMT-44" transform="translate(227.832031 0)"/>
      <use xlink:href="#ArialMT-61" transform="translate(300.048828 0)"/>
      <use xlink:href="#ArialMT-74" transform="translate(355.664062 0)"/>
      <use xlink:href="#ArialMT-61" transform="translate(383.447266 0)"/>
     </g>
    </g>
    <g id="line2d_29">
     <path d="M 810.6875 93.60325 
L 820.6875 93.60325 
L 830.6875 93.60325 
" style="fill: none; stroke-dasharray: 7.4,3.2; stroke-dashoffset: 0; stroke: #d62728; stroke-opacity: 0.7; stroke-width: 2"/>
    </g>
    <g id="text_17">
     <!-- Old Method: Mean Replacement -->
     <g style="fill: #262626" transform="translate(838.6875 97.10325) scale(0.1 -0.1)">
      <use xlink:href="#ArialMT-4f"/>
      <use xlink:href="#ArialMT-6c" transform="translate(77.783203 0)"/>
      <use xlink:href="#ArialMT-64" transform="translate(100 0)"/>
      <use xlink:href="#ArialMT-20" transform="translate(155.615234 0)"/>
      <use xlink:href="#ArialMT-4d" transform="translate(183.398438 0)"/>
      <use xlink:href="#ArialMT-65" transform="translate(266.699219 0)"/>
      <use xlink:href="#ArialMT-74" transform="translate(322.314453 0)"/>
      <use xlink:href="#ArialMT-68" transform="translate(350.097656 0)"/>
      <use xlink:href="#ArialMT-6f" transform="translate(405.712891 0)"/>
      <use xlink:href="#ArialMT-64" transform="translate(461.328125 0)"/>
      <use xlink:href="#ArialMT-3a" transform="translate(516.943359 0)"/>
      <use xlink:href="#ArialMT-20" transform="translate(544.726562 0)"/>
      <use xlink:href="#ArialMT-4d" transform="translate(572.509766 0)"/>
      <use xlink:href="#ArialMT-65" transform="translate(655.810547 0)"/>
      <use xlink:href="#ArialMT-61" transform="translate(711.425781 0)"/>
      <use xlink:href="#ArialMT-6e" transform="translate(767.041016 0)"/>
      <use xlink:href="#ArialMT-20" transform="translate(822.65625 0)"/>
      <use xlink:href="#ArialMT-52" transform="translate(850.439453 0)"/>
      <use xlink:href="#ArialMT-65" transform="translate(922.65625 0)"/>
      <use xlink:href="#ArialMT-70" transform="translate(978.271484 0)"/>
      <use xlink:href="#ArialMT-6c" transform="translate(1033.886719 0)"/>
      <use xlink:href="#ArialMT-61" transform="translate(1056.103516 0)"/>
      <use xlink:href="#ArialMT-63" transform="translate(1111.71875 0)"/>
      <use xlink:href="#ArialMT-65" transform="translate(1161.71875 0)"/>
      <use xlink:href="#ArialMT-6d" transform="translate(1217.333984 0)"/>
      <use xlink:href="#ArialMT-65" transform="translate(1300.634766 0)"/>
      <use xlink:href="#ArialMT-6e" transform="translate(1356.25 0)"/>
      <use xlink:href="#ArialMT-74" transform="translate(1411.865234 0)"/>
     </g>
    </g>
    <g id="line2d_30">
     <path d="M 810.6875 107.870438 
L 820.6875 107.870438 
L 830.6875 107.870438 
" style="fill: none; stroke: #2ca02c; stroke-width: 2; stroke-linecap: round"/>
    </g>
    <g id="text_18">
     <!-- New Method: Boundary Clamping -->
     <g style="fill: #262626" transform="translate(838.6875 111.370438) scale(0.1 -0.1)">
      <defs>
       <path id="ArialMT-4e" d="M 488 0 
L 488 4581 
L 1109 4581 
L 3516 984 
L 3516 4581 
L 4097 4581 
L 4097 0 
L 3475 0 
L 1069 3600 
L 1069 0 
L 488 0 
z
" transform="scale(0.015625)"/>
       <path id="ArialMT-42" d="M 469 0 
L 469 4581 
L 2188 4581 
Q 2713 4581 3030 4442 
Q 3347 4303 3526 4014 
Q 3706 3725 3706 3409 
Q 3706 3116 3547 2856 
Q 3388 2597 3066 2438 
Q 3481 2316 3704 2022 
Q 3928 1728 3928 1328 
Q 3928 1006 3792 729 
Q 3656 453 3456 303 
Q 3256 153 2954 76 
Q 2653 0 2216 0 
L 469 0 
z
M 1075 2656 
L 2066 2656 
Q 2469 2656 2644 2709 
Q 2875 2778 2992 2937 
Q 3109 3097 3109 3338 
Q 3109 3566 3000 3739 
Q 2891 3913 2687 3977 
Q 2484 4041 1991 4041 
L 1075 4041 
L 1075 2656 
z
M 1075 541 
L 2216 541 
Q 2509 541 2628 563 
Q 2838 600 2978 687 
Q 3119 775 3209 942 
Q 3300 1109 3300 1328 
Q 3300 1584 3169 1773 
Q 3038 1963 2805 2039 
Q 2572 2116 2134 2116 
L 1075 2116 
L 1075 541 
z
" transform="scale(0.015625)"/>
       <path id="ArialMT-79" d="M 397 -1278 
L 334 -750 
Q 519 -800 656 -800 
Q 844 -800 956 -737 
Q 1069 -675 1141 -563 
Q 1194 -478 1313 -144 
Q 1328 -97 1363 -6 
L 103 3319 
L 709 3319 
L 1400 1397 
Q 1534 1031 1641 628 
Q 1738 1016 1872 1384 
L 2581 3319 
L 3144 3319 
L 1881 -56 
Q 1678 -603 1566 -809 
Q 1416 -1088 1222 -1217 
Q 1028 -1347 759 -1347 
Q 597 -1347 397 -1278 
z
" transform="scale(0.015625)"/>
      </defs>
      <use xlink:href="#ArialMT-4e"/>
      <use xlink:href="#ArialMT-65" transform="translate(72.216797 0)"/>
      <use xlink:href="#ArialMT-77" transform="translate(127.832031 0)"/>
      <use xlink:href="#ArialMT-20" transform="translate(200.048828 0)"/>
      <use xlink:href="#ArialMT-4d" transform="translate(227.832031 0)"/>
      <use xlink:href="#ArialMT-65" transform="translate(311.132812 0)"/>
      <use xlink:href="#ArialMT-74" transform="translate(366.748047 0)"/>
      <use xlink:href="#ArialMT-68" transform="translate(394.53125 0)"/>
      <use xlink:href="#ArialMT-6f" transform="translate(450.146484 0)"/>
      <use xlink:href="#ArialMT-64" transform="translate(505.761719 0)"/>
      <use xlink:href="#ArialMT-3a" transform="translate(561.376953 0)"/>
      <use xlink:href="#ArialMT-20" transform="translate(589.160156 0)"/>
      <use xlink:href="#ArialMT-42" transform="translate(616.943359 0)"/>
      <use xlink:href="#ArialMT-6f" transform="translate(683.642578 0)"/>
      <use xlink:href="#ArialMT-75" transform="translate(739.257812 0)"/>
      <use xlink:href="#ArialMT-6e" transform="translate(794.873047 0)"/>
      <use xlink:href="#ArialMT-64" transform="translate(850.488281 0)"/>
      <use xlink:href="#ArialMT-61" transform="translate(906.103516 0)"/>
      <use xlink:href="#ArialMT-72" transform="translate(961.71875 0)"/>
      <use xlink:href="#ArialMT-79" transform="translate(995.019531 0)"/>
      <use xlink:href="#ArialMT-20" transform="translate(1045.019531 0)"/>
      <use xlink:href="#ArialMT-43" transform="translate(1072.802734 0)"/>
      <use xlink:href="#ArialMT-6c" transform="translate(1145.019531 0)"/>
      <use xlink:href="#ArialMT-61" transform="translate(1167.236328 0)"/>
      <use xlink:href="#ArialMT-6d" transform="translate(1222.851562 0)"/>
      <use xlink:href="#ArialMT-70" transform="translate(1306.152344 0)"/>
      <use xlink:href="#ArialMT-69" transform="translate(1361.767578 0)"/>
      <use xlink:href="#ArialMT-6e" transform="translate(1383.984375 0)"/>
      <use xlink:href="#ArialMT-67" transform="translate(1439.599609 0)"/>
     </g>
    </g>
    <g id="line2d_31">
     <path d="M 810.6875 122.254813 
L 820.6875 122.254813 
L 830.6875 122.254813 
" style="fill: none; stroke-dasharray: 1,1.65; stroke-dashoffset: 0; stroke: #008000; stroke-opacity: 0.3"/>
    </g>
    <g id="text_19">
     <!-- Upper Bound (μ + nσ) -->
     <g style="fill: #262626" transform="translate(838.6875 125.754813) scale(0.1 -0.1)">
      <defs>
       <path id="ArialMT-3bc" d="M 3181 3319 
L 3181 0 
L 2678 0 
L 2678 394 
Q 2516 144 2356 50 
Q 2138 -78 1847 -78 
Q 1588 -78 1388 25 
Q 1238 103 1056 334 
L 1056 -1272 
L 500 -1272 
L 500 3319 
L 1056 3319 
L 1056 1913 
Q 1056 1147 1137 920 
Q 1219 694 1401 562 
Q 1584 431 1822 431 
Q 2072 431 2269 568 
Q 2466 706 2547 923 
Q 2628 1141 2628 1903 
L 2628 3319 
L 3181 3319 
z
" transform="scale(0.015625)"/>
       <path id="ArialMT-2b" d="M 1603 741 
L 1603 1997 
L 356 1997 
L 356 2522 
L 1603 2522 
L 1603 3769 
L 2134 3769 
L 2134 2522 
L 3381 2522 
L 3381 1997 
L 2134 1997 
L 2134 741 
L 1603 741 
z
" transform="scale(0.015625)"/>
      </defs>
      <use xlink:href="#ArialMT-55"/>
      <use xlink:href="#ArialMT-70" transform="translate(72.216797 0)"/>
      <use xlink:href="#ArialMT-70" transform="translate(127.832031 0)"/>
      <use xlink:href="#ArialMT-65" transform="translate(183.447266 0)"/>
      <use xlink:href="#ArialMT-72" transform="translate(239.0625 0)"/>
      <use xlink:href="#ArialMT-20" transform="translate(272.363281 0)"/>
      <use xlink:href="#ArialMT-42" transform="translate(300.146484 0)"/>
      <use xlink:href="#ArialMT-6f" transform="translate(366.845703 0)"/>
      <use xlink:href="#ArialMT-75" transform="translate(422.460938 0)"/>
      <use xlink:href="#ArialMT-6e" transform="translate(478.076172 0)"/>
      <use xlink:href="#ArialMT-64" transform="translate(533.691406 0)"/>
      <use xlink:href="#ArialMT-20" transform="translate(589.306641 0)"/>
      <use xlink:href="#ArialMT-28" transform="translate(617.089844 0)"/>
      <use xlink:href="#ArialMT-3bc" transform="translate(650.390625 0)"/>
      <use xlink:href="#ArialMT-20" transform="translate(708.007812 0)"/>
      <use xlink:href="#ArialMT-2b" transform="translate(735.791016 0)"/>
      <use xlink:href="#ArialMT-20" transform="translate(794.189453 0)"/>
      <use xlink:href="#ArialMT-6e" transform="translate(821.972656 0)"/>
      <use xlink:href="#ArialMT-3c3" transform="translate(877.587891 0)"/>
      <use xlink:href="#ArialMT-29" transform="translate(939.306641 0)"/>
     </g>
    </g>
    <g id="line2d_32">
     <path d="M 810.6875 136.639188 
L 820.6875 136.639188 
L 830.6875 136.639188 
" style="fill: none; stroke-dasharray: 1,1.65; stroke-dashoffset: 0; stroke: #008000; stroke-opacity: 0.3"/>
    </g>
    <g id="text_20">
     <!-- Lower Bound (μ - nσ) -->
     <g style="fill: #262626" transform="translate(838.6875 140.139188) scale(0.1 -0.1)">
      <defs>
       <path id="ArialMT-4c" d="M 469 0 
L 469 4581 
L 1075 4581 
L 1075 541 
L 3331 541 
L 3331 0 
L 469 0 
z
" transform="scale(0.015625)"/>
       <path id="ArialMT-2d" d="M 203 1375 
L 203 1941 
L 1931 1941 
L 1931 1375 
L 203 1375 
z
" transform="scale(0.015625)"/>
      </defs>
      <use xlink:href="#ArialMT-4c"/>
      <use xlink:href="#ArialMT-6f" transform="translate(55.615234 0)"/>
      <use xlink:href="#ArialMT-77" transform="translate(111.230469 0)"/>
      <use xlink:href="#ArialMT-65" transform="translate(183.447266 0)"/>
      <use xlink:href="#ArialMT-72" transform="translate(239.0625 0)"/>
      <use xlink:href="#ArialMT-20" transform="translate(272.363281 0)"/>
      <use xlink:href="#ArialMT-42" transform="translate(300.146484 0)"/>
      <use xlink:href="#ArialMT-6f" transform="translate(366.845703 0)"/>
      <use xlink:href="#ArialMT-75" transform="translate(422.460938 0)"/>
      <use xlink:href="#ArialMT-6e" transform="translate(478.076172 0)"/>
      <use xlink:href="#ArialMT-64" transform="translate(533.691406 0)"/>
      <use xlink:href="#ArialMT-20" transform="translate(589.306641 0)"/>
      <use xlink:href="#ArialMT-28" transform="translate(617.089844 0)"/>
      <use xlink:href="#ArialMT-3bc" transform="translate(650.390625 0)"/>
      <use xlink:href="#ArialMT-20" transform="translate(708.007812 0)"/>
      <use xlink:href="#ArialMT-2d" transform="translate(735.791016 0)"/>
      <use xlink:href="#ArialMT-20" transform="translate(769.091797 0)"/>
      <use xlink:href="#ArialMT-6e" transform="translate(796.875 0)"/>
      <use xlink:href="#ArialMT-3c3" transform="translate(852.490234 0)"/>
      <use xlink:href="#ArialMT-29" transform="translate(914.208984 0)"/>
     </g>
    </g>
   </g>
  </g>
  <g id="axes_2">
   <g id="patch_10">
    <path d="M 655.2 230.4 
L 856.8 230.4 
L 856.8 115.2 
L 655.2 115.2 
z
" style="fill: #ffffff"/>
   </g>
   <g id="matplotlib.axis_3"/>
   <g id="matplotlib.axis_4">
    <g id="ytick_6">
     <g id="line2d_33">
      <path d="M 655.2 206.480191 
L 856.8 206.480191 
" clip-path="url(#p97f843997a)" style="fill: none; stroke: #cccccc; stroke-width: 0.8; stroke-linecap: round"/>
     </g>
     <g id="line2d_34"/>
     <g id="text_21">
      <!-- 0 -->
      <g style="fill: #262626" transform="translate(646.139063 210.059097) scale(0.1 -0.1)">
       <use xlink:href="#ArialMT-30"/>
      </g>
     </g>
    </g>
    <g id="ytick_7">
     <g id="line2d_35">
      <path d="M 655.2 172.06266 
L 856.8 172.06266 
" clip-path="url(#p97f843997a)" style="fill: none; stroke: #cccccc; stroke-width: 0.8; stroke-linecap: round"/>
     </g>
     <g id="line2d_36"/>
     <g id="text_22">
      <!-- 1 -->
      <g style="fill: #262626" transform="translate(646.139063 175.641566) scale(0.1 -0.1)">
       <use xlink:href="#ArialMT-31"/>
      </g>
     </g>
    </g>
    <g id="ytick_8">
     <g id="line2d_37">
      <path d="M 655.2 137.645129 
L 856.8 137.645129 
" clip-path="url(#p97f843997a)" style="fill: none; stroke: #cccccc; stroke-width: 0.8; stroke-linecap: round"/>
     </g>
     <g id="line2d_38"/>
     <g id="text_23">
      <!-- 2 -->
      <g style="fill: #262626" transform="translate(646.139063 141.224035) scale(0.1 -0.1)">
       <use xlink:href="#ArialMT-32"/>
      </g>
     </g>
    </g>
   </g>
   <g id="line2d_39">
    <path d="M 664.363636 181.918989 
L 684.727273 191.486232 
L 705.090909 194.476287 
L 725.454545 203.801278 
L 745.818182 205.082228 
L 766.181818 120.436364 
L 786.545455 215.879645 
L 806.909091 214.88367 
L 827.272727 222.34648 
L 847.636364 225.163636 
" clip-path="url(#p97f843997a)" style="fill: none; stroke: #000000; stroke-width: 1.5; stroke-linecap: round"/>
    <defs>
     <path id="mf394a412a6" d="M 0 2 
C 0.530406 2 1.03916 1.789267 1.414214 1.414214 
C 1.789267 1.03916 2 0.530406 2 0 
C 2 -0.530406 1.789267 -1.03916 1.414214 -1.414214 
C 1.03916 -1.789267 0.530406 -2 0 -2 
C -0.530406 -2 -1.03916 -1.789267 -1.414214 -1.414214 
C -1.789267 -1.03916 -2 -0.530406 -2 0 
C -2 0.530406 -1.789267 1.03916 -1.414214 1.414214 
C -1.03916 1.789267 -0.530406 2 0 2 
z
" style="stroke: #000000"/>
    </defs>
    <g clip-path="url(#p97f843997a)">
     <use xlink:href="#mf394a412a6" x="664.363636" y="181.918989" style="stroke: #000000"/>
     <use xlink:href="#mf394a412a6" x="684.727273" y="191.486232" style="stroke: #000000"/>
     <use xlink:href="#mf394a412a6" x="705.090909" y="194.476287" style="stroke: #000000"/>
     <use xlink:href="#mf394a412a6" x="725.454545" y="203.801278" style="stroke: #000000"/>
     <use xlink:href="#mf394a412a6" x="745.818182" y="205.082228" style="stroke: #000000"/>
     <use xlink:href="#mf394a412a6" x="766.181818" y="120.436364" style="stroke: #000000"/>
     <use xlink:href="#mf394a412a6" x="786.545455" y="215.879645" style="stroke: #000000"/>
     <use xlink:href="#mf394a412a6" x="806.909091" y="214.88367" style="stroke: #000000"/>
     <use xlink:href="#mf394a412a6" x="827.272727" y="222.34648" style="stroke: #000000"/>
     <use xlink:href="#mf394a412a6" x="847.636364" y="225.163636" style="stroke: #000000"/>
    </g>
   </g>
   <g id="line2d_40">
    <path d="M 664.363636 181.918989 
L 684.727273 191.486232 
L 705.090909 194.476287 
L 725.454545 203.801278 
L 745.818182 205.082228 
L 766.181818 192.016637 
L 786.545455 215.879645 
L 806.909091 214.88367 
L 827.272727 222.34648 
L 847.636364 225.163636 
" clip-path="url(#p97f843997a)" style="fill: none; stroke-dasharray: 5.55,2.4; stroke-dashoffset: 0; stroke: #d62728; stroke-width: 1.5"/>
    <defs>
     <path id="mcf44741dd6" d="M -3 3 
L 3 -3 
M -3 -3 
L 3 3 
" style="stroke: #d62728"/>
    </defs>
    <g clip-path="url(#p97f843997a)">
     <use xlink:href="#mcf44741dd6" x="664.363636" y="181.918989" style="fill: #d62728; stroke: #d62728"/>
     <use xlink:href="#mcf44741dd6" x="684.727273" y="191.486232" style="fill: #d62728; stroke: #d62728"/>
     <use xlink:href="#mcf44741dd6" x="705.090909" y="194.476287" style="fill: #d62728; stroke: #d62728"/>
     <use xlink:href="#mcf44741dd6" x="725.454545" y="203.801278" style="fill: #d62728; stroke: #d62728"/>
     <use xlink:href="#mcf44741dd6" x="745.818182" y="205.082228" style="fill: #d62728; stroke: #d62728"/>
     <use xlink:href="#mcf44741dd6" x="766.181818" y="192.016637" style="fill: #d62728; stroke: #d62728"/>
     <use xlink:href="#mcf44741dd6" x="786.545455" y="215.879645" style="fill: #d62728; stroke: #d62728"/>
     <use xlink:href="#mcf44741dd6" x="806.909091" y="214.88367" style="fill: #d62728; stroke: #d62728"/>
     <use xlink:href="#mcf44741dd6" x="827.272727" y="222.34648" style="fill: #d62728; stroke: #d62728"/>
     <use xlink:href="#mcf44741dd6" x="847.636364" y="225.163636" style="fill: #d62728; stroke: #d62728"/>
    </g>
   </g>
   <g id="line2d_41">
    <path d="M 664.363636 181.918989 
L 684.727273 191.486232 
L 705.090909 194.476287 
L 725.454545 203.801278 
L 745.818182 205.082228 
L 766.181818 143.547675 
L 786.545455 215.879645 
L 806.909091 214.88367 
L 827.272727 222.34648 
L 847.636364 225.163636 
" clip-path="url(#p97f843997a)" style="fill: none; stroke: #2ca02c; stroke-width: 1.5; stroke-linecap: round"/>
    <defs>
     <path id="m4d6704dc9f" d="M 0 1.5 
C 0.397805 1.5 0.77937 1.341951 1.06066 1.06066 
C 1.341951 0.77937 1.5 0.397805 1.5 0 
C 1.5 -0.397805 1.341951 -0.77937 1.06066 -1.06066 
C 0.77937 -1.341951 0.397805 -1.5 0 -1.5 
C -0.397805 -1.5 -0.77937 -1.341951 -1.06066 -1.06066 
C -1.341951 -0.77937 -1.5 -0.397805 -1.5 0 
C -1.5 0.397805 -1.341951 0.77937 -1.06066 1.06066 
C -0.77937 1.341951 -0.397805 1.5 0 1.5 
z
" style="stroke: #2ca02c"/>
    </defs>
    <g clip-path="url(#p97f843997a)">
     <use xlink:href="#m4d6704dc9f" x="664.363636" y="181.918989" style="fill: #2ca02c; stroke: #2ca02c"/>
     <use xlink:href="#m4d6704dc9f" x="684.727273" y="191.486232" style="fill: #2ca02c; stroke: #2ca02c"/>
     <use xlink:href="#m4d6704dc9f" x="705.090909" y="194.476287" style="fill: #2ca02c; stroke: #2ca02c"/>
     <use xlink:href="#m4d6704dc9f" x="725.454545" y="203.801278" style="fill: #2ca02c; stroke: #2ca02c"/>
     <use xlink:href="#m4d6704dc9f" x="745.818182" y="205.082228" style="fill: #2ca02c; stroke: #2ca02c"/>
     <use xlink:href="#m4d6704dc9f" x="766.181818" y="143.547675" style="fill: #2ca02c; stroke: #2ca02c"/>
     <use xlink:href="#m4d6704dc9f" x="786.545455" y="215.879645" style="fill: #2ca02c; stroke: #2ca02c"/>
     <use xlink:href="#m4d6704dc9f" x="806.909091" y="214.88367" style="fill: #2ca02c; stroke: #2ca02c"/>
     <use xlink:href="#m4d6704dc9f" x="827.272727" y="222.34648" style="fill: #2ca02c; stroke: #2ca02c"/>
     <use xlink:href="#m4d6704dc9f" x="847.636364" y="225.163636" style="fill: #2ca02c; stroke: #2ca02c"/>
    </g>
   </g>
   <g id="patch_11">
    <path d="M 655.2 230.4 
L 655.2 115.2 
" style="fill: none; stroke: #cccccc; stroke-linejoin: miter; stroke-linecap: square"/>
   </g>
   <g id="patch_12">
    <path d="M 856.8 230.4 
L 856.8 115.2 
" style="fill: none; stroke: #cccccc; stroke-linejoin: miter; stroke-linecap: square"/>
   </g>
   <g id="patch_13">
    <path d="M 655.2 230.4 
L 856.8 230.4 
" style="fill: none; stroke: #cccccc; stroke-linejoin: miter; stroke-linecap: square"/>
   </g>
   <g id="patch_14">
    <path d="M 655.2 115.2 
L 856.8 115.2 
" style="fill: none; stroke: #cccccc; stroke-linejoin: miter; stroke-linecap: square"/>
   </g>
   <g id="text_24">
    <!-- Zoom In -->
    <g style="fill: #262626" transform="translate(733.994063 109.2) scale(0.12 -0.12)">
     <defs>
      <path id="ArialMT-5a" d="M 128 0 
L 128 563 
L 2475 3497 
Q 2725 3809 2950 4041 
L 394 4041 
L 394 4581 
L 3675 4581 
L 3675 4041 
L 1103 863 
L 825 541 
L 3750 541 
L 3750 0 
L 128 0 
z
" transform="scale(0.015625)"/>
      <path id="ArialMT-49" d="M 597 0 
L 597 4581 
L 1203 4581 
L 1203 0 
L 597 0 
z
" transform="scale(0.015625)"/>
     </defs>
     <use xlink:href="#ArialMT-5a"/>
     <use xlink:href="#ArialMT-6f" transform="translate(61.083984 0)"/>
     <use xlink:href="#ArialMT-6f" transform="translate(116.699219 0)"/>
     <use xlink:href="#ArialMT-6d" transform="translate(172.314453 0)"/>
     <use xlink:href="#ArialMT-20" transform="translate(255.615234 0)"/>
     <use xlink:href="#ArialMT-49" transform="translate(283.398438 0)"/>
     <use xlink:href="#ArialMT-6e" transform="translate(311.181641 0)"/>
    </g>
   </g>
  </g>
 </g>
 <defs>
  <clipPath id="p2e3ddb9916">
   <rect x="40.53" y="66.672" width="956.67" height="470.09175"/>
  </clipPath>
  <clipPath id="p97f843997a">
   <rect x="655.2" y="115.2" width="201.6" height="115.2"/>
  </clipPath>
 </defs>
</svg>
