<?xml version="1.0" encoding="utf-8" standalone="no"?>
<!DOCTYPE svg PUBLIC "-//W3C//DTD SVG 1.1//EN"
  "http://www.w3.org/Graphics/SVG/1.1/DTD/svg11.dtd">
<svg xmlns:xlink="http://www.w3.org/1999/xlink" width="864pt" height="432pt" viewBox="0 0 864 432" xmlns="http://www.w3.org/2000/svg" version="1.1">
 <metadata>
  <rdf:RDF xmlns:dc="http://purl.org/dc/elements/1.1/" xmlns:cc="http://creativecommons.org/ns#" xmlns:rdf="http://www.w3.org/1999/02/22-rdf-syntax-ns#">
   <cc:Work>
    <dc:type rdf:resource="http://purl.org/dc/dcmitype/StillImage"/>
    <dc:date>2025-12-21T22:00:56.826222</dc:date>
    <dc:format>image/svg+xml</dc:format>
    <dc:creator>
     <cc:Agent>
      <dc:title>Matplotlib v3.9.1, https://matplotlib.org/</dc:title>
     </cc:Agent>
    </dc:creator>
   </cc:Work>
  </rdf:RDF>
 </metadata>
 <defs>
  <style type="text/css">*{stroke-linejoin: round; stroke-linecap: butt}</style>
 </defs>
 <g id="figure_1">
  <g id="patch_1">
   <path d="M 0 432 
L 864 432 
L 864 0 
L 0 0 
z
" style="fill: #ffffff"/>
  </g>
  <g id="axes_1">
   <g id="patch_2">
    <path d="M 32.74 402.68 
L 847.401672 402.68 
L 847.401672 52.08 
L 32.74 52.08 
z
" style="fill: #ffffff"/>
   </g>
   <g id="matplotlib.axis_1">
    <g id="xtick_1">
     <g id="line2d_1">
      <path d="M 69.770076 402.68 
L 69.770076 52.08 
" clip-path="url(#pc507f7c32a)" style="fill: none; stroke: #b0b0b0; stroke-opacity: 0.3; stroke-width: 0.8; stroke-linecap: square"/>
     </g>
     <g id="line2d_2">
      <defs>
       <path id="m6af5e1c1a1" d="M 0 0 
L 0 3.5 
" style="stroke: #000000; stroke-width: 0.8"/>
      </defs>
      <g>
       <use xlink:href="#m6af5e1c1a1" x="69.770076" y="402.68" style="stroke: #000000; stroke-width: 0.8"/>
      </g>
     </g>
     <g id="text_1">
      <!-- 0 -->
      <g transform="translate(66.770076 418.0125) scale(0.12 -0.12)">
       <defs>
        <path id="TimesNewRomanPSMT-30" d="M 231 2094 
Q 231 2819 450 3342 
Q 669 3866 1031 4122 
Q 1313 4325 1613 4325 
Q 2100 4325 2488 3828 
Q 2972 3213 2972 2159 
Q 2972 1422 2759 906 
Q 2547 391 2217 158 
Q 1888 -75 1581 -75 
Q 975 -75 572 641 
Q 231 1244 231 2094 
z
M 844 2016 
Q 844 1141 1059 588 
Q 1238 122 1591 122 
Q 1759 122 1940 273 
Q 2122 425 2216 781 
Q 2359 1319 2359 2297 
Q 2359 3022 2209 3506 
Q 2097 3866 1919 4016 
Q 1791 4119 1609 4119 
Q 1397 4119 1231 3928 
Q 1006 3669 925 3112 
Q 844 2556 844 2016 
z
" transform="scale(0.015625)"/>
       </defs>
       <use xlink:href="#TimesNewRomanPSMT-30"/>
      </g>
     </g>
    </g>
    <g id="xtick_2">
     <g id="line2d_3">
      <path d="M 198.123892 402.68 
L 198.123892 52.08 
" clip-path="url(#pc507f7c32a)" style="fill: none; stroke: #b0b0b0; stroke-opacity: 0.3; stroke-width: 0.8; stroke-linecap: square"/>
     </g>
     <g id="line2d_4">
      <g>
       <use xlink:href="#m6af5e1c1a1" x="198.123892" y="402.68" style="stroke: #000000; stroke-width: 0.8"/>
      </g>
     </g>
     <g id="text_2">
      <!-- 200 -->
      <g transform="translate(189.123892 418.0125) scale(0.12 -0.12)">
       <defs>
        <path id="TimesNewRomanPSMT-32" d="M 2934 816 
L 2638 0 
L 138 0 
L 138 116 
Q 1241 1122 1691 1759 
Q 2141 2397 2141 2925 
Q 2141 3328 1894 3587 
Q 1647 3847 1303 3847 
Q 991 3847 742 3664 
Q 494 3481 375 3128 
L 259 3128 
Q 338 3706 661 4015 
Q 984 4325 1469 4325 
Q 1984 4325 2329 3994 
Q 2675 3663 2675 3213 
Q 2675 2891 2525 2569 
Q 2294 2063 1775 1497 
Q 997 647 803 472 
L 1909 472 
Q 2247 472 2383 497 
Q 2519 522 2628 598 
Q 2738 675 2819 816 
L 2934 816 
z
" transform="scale(0.015625)"/>
       </defs>
       <use xlink:href="#TimesNewRomanPSMT-32"/>
       <use xlink:href="#TimesNewRomanPSMT-30" x="50"/>
       <use xlink:href="#TimesNewRomanPSMT-30" x="100"/>
      </g>
     </g>
    </g>
    <g id="xtick_3">
     <g id="line2d_5">
      <path d="M 326.477708 402.68 
L 326.477708 52.08 
" clip-path="url(#pc507f7c32a)" style="fill: none; stroke: #b0b0b0; stroke-opacity: 0.3; stroke-width: 0.8; stroke-linecap: square"/>
     </g>
     <g id="line2d_6">
      <g>
       <use xlink:href="#m6af5e1c1a1" x="326.477708" y="402.68" style="stroke: #000000; stroke-width: 0.8"/>
      </g>
     </g>
     <g id="text_3">
      <!-- 400 -->
      <g transform="translate(317.477708 418.0125) scale(0.12 -0.12)">
       <defs>
        <path id="TimesNewRomanPSMT-34" d="M 2978 1563 
L 2978 1119 
L 2409 1119 
L 2409 0 
L 1894 0 
L 1894 1119 
L 100 1119 
L 100 1519 
L 2066 4325 
L 2409 4325 
L 2409 1563 
L 2978 1563 
z
M 1894 1563 
L 1894 3666 
L 406 1563 
L 1894 1563 
z
" transform="scale(0.015625)"/>
       </defs>
       <use xlink:href="#TimesNewRomanPSMT-34"/>
       <use xlink:href="#TimesNewRomanPSMT-30" x="50"/>
       <use xlink:href="#TimesNewRomanPSMT-30" x="100"/>
      </g>
     </g>
    </g>
    <g id="xtick_4">
     <g id="line2d_7">
      <path d="M 454.831525 402.68 
L 454.831525 52.08 
" clip-path="url(#pc507f7c32a)" style="fill: none; stroke: #b0b0b0; stroke-opacity: 0.3; stroke-width: 0.8; stroke-linecap: square"/>
     </g>
     <g id="line2d_8">
      <g>
       <use xlink:href="#m6af5e1c1a1" x="454.831525" y="402.68" style="stroke: #000000; stroke-width: 0.8"/>
      </g>
     </g>
     <g id="text_4">
      <!-- 600 -->
      <g transform="translate(445.831525 418.0125) scale(0.12 -0.12)">
       <defs>
        <path id="TimesNewRomanPSMT-36" d="M 2869 4325 
L 2869 4209 
Q 2456 4169 2195 4045 
Q 1934 3922 1679 3669 
Q 1425 3416 1258 3105 
Q 1091 2794 978 2366 
Q 1428 2675 1881 2675 
Q 2316 2675 2634 2325 
Q 2953 1975 2953 1425 
Q 2953 894 2631 456 
Q 2244 -75 1606 -75 
Q 1172 -75 869 213 
Q 275 772 275 1663 
Q 275 2231 503 2743 
Q 731 3256 1154 3653 
Q 1578 4050 1965 4187 
Q 2353 4325 2688 4325 
L 2869 4325 
z
M 925 2138 
Q 869 1716 869 1456 
Q 869 1156 980 804 
Q 1091 453 1309 247 
Q 1469 100 1697 100 
Q 1969 100 2183 356 
Q 2397 613 2397 1088 
Q 2397 1622 2184 2012 
Q 1972 2403 1581 2403 
Q 1463 2403 1327 2353 
Q 1191 2303 925 2138 
z
" transform="scale(0.015625)"/>
       </defs>
       <use xlink:href="#TimesNewRomanPSMT-36"/>
       <use xlink:href="#TimesNewRomanPSMT-30" x="50"/>
       <use xlink:href="#TimesNewRomanPSMT-30" x="100"/>
      </g>
     </g>
    </g>
    <g id="xtick_5">
     <g id="line2d_9">
      <path d="M 583.185341 402.68 
L 583.185341 52.08 
" clip-path="url(#pc507f7c32a)" style="fill: none; stroke: #b0b0b0; stroke-opacity: 0.3; stroke-width: 0.8; stroke-linecap: square"/>
     </g>
     <g id="line2d_10">
      <g>
       <use xlink:href="#m6af5e1c1a1" x="583.185341" y="402.68" style="stroke: #000000; stroke-width: 0.8"/>
      </g>
     </g>
     <g id="text_5">
      <!-- 800 -->
      <g transform="translate(574.185341 418.0125) scale(0.12 -0.12)">
       <defs>
        <path id="TimesNewRomanPSMT-38" d="M 1228 2134 
Q 725 2547 579 2797 
Q 434 3047 434 3316 
Q 434 3728 753 4026 
Q 1072 4325 1600 4325 
Q 2113 4325 2425 4047 
Q 2738 3769 2738 3413 
Q 2738 3175 2569 2928 
Q 2400 2681 1866 2347 
Q 2416 1922 2594 1678 
Q 2831 1359 2831 1006 
Q 2831 559 2490 242 
Q 2150 -75 1597 -75 
Q 994 -75 656 303 
Q 388 606 388 966 
Q 388 1247 577 1523 
Q 766 1800 1228 2134 
z
M 1719 2469 
Q 2094 2806 2194 3001 
Q 2294 3197 2294 3444 
Q 2294 3772 2109 3958 
Q 1925 4144 1606 4144 
Q 1288 4144 1088 3959 
Q 888 3775 888 3528 
Q 888 3366 970 3203 
Q 1053 3041 1206 2894 
L 1719 2469 
z
M 1375 2016 
Q 1116 1797 991 1539 
Q 866 1281 866 981 
Q 866 578 1086 336 
Q 1306 94 1647 94 
Q 1984 94 2187 284 
Q 2391 475 2391 747 
Q 2391 972 2272 1150 
Q 2050 1481 1375 2016 
z
" transform="scale(0.015625)"/>
       </defs>
       <use xlink:href="#TimesNewRomanPSMT-38"/>
       <use xlink:href="#TimesNewRomanPSMT-30" x="50"/>
       <use xlink:href="#TimesNewRomanPSMT-30" x="100"/>
      </g>
     </g>
    </g>
    <g id="xtick_6">
     <g id="line2d_11">
      <path d="M 711.539157 402.68 
L 711.539157 52.08 
" clip-path="url(#pc507f7c32a)" style="fill: none; stroke: #b0b0b0; stroke-opacity: 0.3; stroke-width: 0.8; stroke-linecap: square"/>
     </g>
     <g id="line2d_12">
      <g>
       <use xlink:href="#m6af5e1c1a1" x="711.539157" y="402.68" style="stroke: #000000; stroke-width: 0.8"/>
      </g>
     </g>
     <g id="text_6">
      <!-- 1000 -->
      <g transform="translate(699.539157 418.0125) scale(0.12 -0.12)">
       <defs>
        <path id="TimesNewRomanPSMT-31" d="M 750 3822 
L 1781 4325 
L 1884 4325 
L 1884 747 
Q 1884 391 1914 303 
Q 1944 216 2037 169 
Q 2131 122 2419 116 
L 2419 0 
L 825 0 
L 825 116 
Q 1125 122 1212 167 
Q 1300 213 1334 289 
Q 1369 366 1369 747 
L 1369 3034 
Q 1369 3497 1338 3628 
Q 1316 3728 1258 3775 
Q 1200 3822 1119 3822 
Q 1003 3822 797 3725 
L 750 3822 
z
" transform="scale(0.015625)"/>
       </defs>
       <use xlink:href="#TimesNewRomanPSMT-31"/>
       <use xlink:href="#TimesNewRomanPSMT-30" x="50"/>
       <use xlink:href="#TimesNewRomanPSMT-30" x="100"/>
       <use xlink:href="#TimesNewRomanPSMT-30" x="150"/>
      </g>
     </g>
    </g>
    <g id="xtick_7">
     <g id="line2d_13">
      <path d="M 839.892973 402.68 
L 839.892973 52.08 
" clip-path="url(#pc507f7c32a)" style="fill: none; stroke: #b0b0b0; stroke-opacity: 0.3; stroke-width: 0.8; stroke-linecap: square"/>
     </g>
     <g id="line2d_14">
      <g>
       <use xlink:href="#m6af5e1c1a1" x="839.892973" y="402.68" style="stroke: #000000; stroke-width: 0.8"/>
      </g>
     </g>
     <g id="text_7">
      <!-- 1200 -->
      <g transform="translate(827.892973 418.0125) scale(0.12 -0.12)">
       <use xlink:href="#TimesNewRomanPSMT-31"/>
       <use xlink:href="#TimesNewRomanPSMT-32" x="50"/>
       <use xlink:href="#TimesNewRomanPSMT-30" x="100"/>
       <use xlink:href="#TimesNewRomanPSMT-30" x="150"/>
      </g>
     </g>
    </g>
   </g>
   <g id="matplotlib.axis_2">
    <g id="ytick_1">
     <g id="line2d_15">
      <path d="M 32.74 398.548396 
L 847.401672 398.548396 
" clip-path="url(#pc507f7c32a)" style="fill: none; stroke: #b0b0b0; stroke-opacity: 0.3; stroke-width: 0.8; stroke-linecap: square"/>
     </g>
     <g id="line2d_16">
      <defs>
       <path id="m363a278d6b" d="M 0 0 
L -3.5 0 
" style="stroke: #000000; stroke-width: 0.8"/>
      </defs>
      <g>
       <use xlink:href="#m363a278d6b" x="32.74" y="398.548396" style="stroke: #000000; stroke-width: 0.8"/>
      </g>
     </g>
     <g id="text_8">
      <!-- 0.0 -->
      <g transform="translate(10.74 402.714646) scale(0.12 -0.12)">
       <defs>
        <path id="TimesNewRomanPSMT-2e" d="M 800 606 
Q 947 606 1047 504 
Q 1147 403 1147 259 
Q 1147 116 1045 14 
Q 944 -88 800 -88 
Q 656 -88 554 14 
Q 453 116 453 259 
Q 453 406 554 506 
Q 656 606 800 606 
z
" transform="scale(0.015625)"/>
       </defs>
       <use xlink:href="#TimesNewRomanPSMT-30"/>
       <use xlink:href="#TimesNewRomanPSMT-2e" x="50"/>
       <use xlink:href="#TimesNewRomanPSMT-30" x="75"/>
      </g>
     </g>
    </g>
    <g id="ytick_2">
     <g id="line2d_17">
      <path d="M 32.74 354.107115 
L 847.401672 354.107115 
" clip-path="url(#pc507f7c32a)" style="fill: none; stroke: #b0b0b0; stroke-opacity: 0.3; stroke-width: 0.8; stroke-linecap: square"/>
     </g>
     <g id="line2d_18">
      <g>
       <use xlink:href="#m363a278d6b" x="32.74" y="354.107115" style="stroke: #000000; stroke-width: 0.8"/>
      </g>
     </g>
     <g id="text_9">
      <!-- 0.5 -->
      <g transform="translate(10.74 358.273365) scale(0.12 -0.12)">
       <defs>
        <path id="TimesNewRomanPSMT-35" d="M 2778 4238 
L 2534 3706 
L 1259 3706 
L 981 3138 
Q 1809 3016 2294 2522 
Q 2709 2097 2709 1522 
Q 2709 1188 2573 903 
Q 2438 619 2231 419 
Q 2025 219 1772 97 
Q 1413 -75 1034 -75 
Q 653 -75 479 54 
Q 306 184 306 341 
Q 306 428 378 495 
Q 450 563 559 563 
Q 641 563 702 538 
Q 763 513 909 409 
Q 1144 247 1384 247 
Q 1750 247 2026 523 
Q 2303 800 2303 1197 
Q 2303 1581 2056 1914 
Q 1809 2247 1375 2428 
Q 1034 2569 447 2591 
L 1259 4238 
L 2778 4238 
z
" transform="scale(0.015625)"/>
       </defs>
       <use xlink:href="#TimesNewRomanPSMT-30"/>
       <use xlink:href="#TimesNewRomanPSMT-2e" x="50"/>
       <use xlink:href="#TimesNewRomanPSMT-35" x="75"/>
      </g>
     </g>
    </g>
    <g id="ytick_3">
     <g id="line2d_19">
      <path d="M 32.74 309.665833 
L 847.401672 309.665833 
" clip-path="url(#pc507f7c32a)" style="fill: none; stroke: #b0b0b0; stroke-opacity: 0.3; stroke-width: 0.8; stroke-linecap: square"/>
     </g>
     <g id="line2d_20">
      <g>
       <use xlink:href="#m363a278d6b" x="32.74" y="309.665833" style="stroke: #000000; stroke-width: 0.8"/>
      </g>
     </g>
     <g id="text_10">
      <!-- 1.0 -->
      <g transform="translate(10.74 313.832083) scale(0.12 -0.12)">
       <use xlink:href="#TimesNewRomanPSMT-31"/>
       <use xlink:href="#TimesNewRomanPSMT-2e" x="50"/>
       <use xlink:href="#TimesNewRomanPSMT-30" x="75"/>
      </g>
     </g>
    </g>
    <g id="ytick_4">
     <g id="line2d_21">
      <path d="M 32.74 265.224551 
L 847.401672 265.224551 
" clip-path="url(#pc507f7c32a)" style="fill: none; stroke: #b0b0b0; stroke-opacity: 0.3; stroke-width: 0.8; stroke-linecap: square"/>
     </g>
     <g id="line2d_22">
      <g>
       <use xlink:href="#m363a278d6b" x="32.74" y="265.224551" style="stroke: #000000; stroke-width: 0.8"/>
      </g>
     </g>
     <g id="text_11">
      <!-- 1.5 -->
      <g transform="translate(10.74 269.390801) scale(0.12 -0.12)">
       <use xlink:href="#TimesNewRomanPSMT-31"/>
       <use xlink:href="#TimesNewRomanPSMT-2e" x="50"/>
       <use xlink:href="#TimesNewRomanPSMT-35" x="75"/>
      </g>
     </g>
    </g>
    <g id="ytick_5">
     <g id="line2d_23">
      <path d="M 32.74 220.783269 
L 847.401672 220.783269 
" clip-path="url(#pc507f7c32a)" style="fill: none; stroke: #b0b0b0; stroke-opacity: 0.3; stroke-width: 0.8; stroke-linecap: square"/>
     </g>
     <g id="line2d_24">
      <g>
       <use xlink:href="#m363a278d6b" x="32.74" y="220.783269" style="stroke: #000000; stroke-width: 0.8"/>
      </g>
     </g>
     <g id="text_12">
      <!-- 2.0 -->
      <g transform="translate(10.74 224.949519) scale(0.12 -0.12)">
       <use xlink:href="#TimesNewRomanPSMT-32"/>
       <use xlink:href="#TimesNewRomanPSMT-2e" x="50"/>
       <use xlink:href="#TimesNewRomanPSMT-30" x="75"/>
      </g>
     </g>
    </g>
    <g id="ytick_6">
     <g id="line2d_25">
      <path d="M 32.74 176.341988 
L 847.401672 176.341988 
" clip-path="url(#pc507f7c32a)" style="fill: none; stroke: #b0b0b0; stroke-opacity: 0.3; stroke-width: 0.8; stroke-linecap: square"/>
     </g>
     <g id="line2d_26">
      <g>
       <use xlink:href="#m363a278d6b" x="32.74" y="176.341988" style="stroke: #000000; stroke-width: 0.8"/>
      </g>
     </g>
     <g id="text_13">
      <!-- 2.5 -->
      <g transform="translate(10.74 180.508238) scale(0.12 -0.12)">
       <use xlink:href="#TimesNewRomanPSMT-32"/>
       <use xlink:href="#TimesNewRomanPSMT-2e" x="50"/>
       <use xlink:href="#TimesNewRomanPSMT-35" x="75"/>
      </g>
     </g>
    </g>
    <g id="ytick_7">
     <g id="line2d_27">
      <path d="M 32.74 131.900706 
L 847.401672 131.900706 
" clip-path="url(#pc507f7c32a)" style="fill: none; stroke: #b0b0b0; stroke-opacity: 0.3; stroke-width: 0.8; stroke-linecap: square"/>
     </g>
     <g id="line2d_28">
      <g>
       <use xlink:href="#m363a278d6b" x="32.74" y="131.900706" style="stroke: #000000; stroke-width: 0.8"/>
      </g>
     </g>
     <g id="text_14">
      <!-- 3.0 -->
      <g transform="translate(10.74 136.066956) scale(0.12 -0.12)">
       <defs>
        <path id="TimesNewRomanPSMT-33" d="M 325 3431 
Q 506 3859 782 4092 
Q 1059 4325 1472 4325 
Q 1981 4325 2253 3994 
Q 2459 3747 2459 3466 
Q 2459 3003 1878 2509 
Q 2269 2356 2469 2072 
Q 2669 1788 2669 1403 
Q 2669 853 2319 450 
Q 1863 -75 997 -75 
Q 569 -75 414 31 
Q 259 138 259 259 
Q 259 350 332 419 
Q 406 488 509 488 
Q 588 488 669 463 
Q 722 447 909 348 
Q 1097 250 1169 231 
Q 1284 197 1416 197 
Q 1734 197 1970 444 
Q 2206 691 2206 1028 
Q 2206 1275 2097 1509 
Q 2016 1684 1919 1775 
Q 1784 1900 1550 2001 
Q 1316 2103 1072 2103 
L 972 2103 
L 972 2197 
Q 1219 2228 1467 2375 
Q 1716 2522 1828 2728 
Q 1941 2934 1941 3181 
Q 1941 3503 1739 3701 
Q 1538 3900 1238 3900 
Q 753 3900 428 3381 
L 325 3431 
z
" transform="scale(0.015625)"/>
       </defs>
       <use xlink:href="#TimesNewRomanPSMT-33"/>
       <use xlink:href="#TimesNewRomanPSMT-2e" x="50"/>
       <use xlink:href="#TimesNewRomanPSMT-30" x="75"/>
      </g>
     </g>
    </g>
    <g id="ytick_8">
     <g id="line2d_29">
      <path d="M 32.74 87.459424 
L 847.401672 87.459424 
" clip-path="url(#pc507f7c32a)" style="fill: none; stroke: #b0b0b0; stroke-opacity: 0.3; stroke-width: 0.8; stroke-linecap: square"/>
     </g>
     <g id="line2d_30">
      <g>
       <use xlink:href="#m363a278d6b" x="32.74" y="87.459424" style="stroke: #000000; stroke-width: 0.8"/>
      </g>
     </g>
     <g id="text_15">
      <!-- 3.5 -->
      <g transform="translate(10.74 91.625674) scale(0.12 -0.12)">
       <use xlink:href="#TimesNewRomanPSMT-33"/>
       <use xlink:href="#TimesNewRomanPSMT-2e" x="50"/>
       <use xlink:href="#TimesNewRomanPSMT-35" x="75"/>
      </g>
     </g>
    </g>
   </g>
   <g id="line2d_31">
    <path d="M 69.770076 129.123126 
L 70.411845 109.680065 
L 71.053614 128.428687 
L 71.695383 115.235225 
L 72.337152 114.540786 
L 72.978921 124.262316 
L 73.62069 68.016364 
L 74.26246 86.764985 
L 74.904229 121.484736 
L 75.545998 162.454087 
L 76.187767 126.345546 
L 77.471305 163.148438 
L 78.113074 160.370858 
L 78.754843 172.869968 
L 79.396612 172.175618 
L 80.038381 192.313118 
L 80.68015 281.890032 
L 81.321919 201.340209 
L 81.963689 152.732557 
L 82.605458 179.119568 
L 83.247227 190.229888 
L 83.888996 219.394479 
L 84.530765 208.97851 
L 85.172534 242.309471 
L 85.814303 215.228109 
L 86.456072 218.70004 
L 87.097841 231.199239 
L 87.73961 262.446971 
L 88.381379 236.754311 
L 89.023148 199.256979 
L 89.664918 200.645769 
L 90.306687 215.92246 
L 90.948456 234.67117 
L 91.590225 247.17028 
L 92.231994 232.58794 
L 92.873763 222.86641 
L 93.515532 240.22633 
L 94.157301 240.920681 
L 94.79907 297.166722 
L 95.440839 240.920681 
L 96.082608 252.725441 
L 96.724377 240.22633 
L 97.366146 244.3927 
L 98.007916 291.611562 
L 98.649685 266.613341 
L 99.291454 312.443413 
L 100.574992 259.669391 
L 101.216761 307.582603 
L 101.85853 270.779711 
L 102.500299 277.723662 
L 103.142068 295.083582 
L 103.783837 285.361962 
L 104.425606 281.890032 
L 105.067375 322.859383 
L 105.709145 320.081714 
L 106.350914 312.443413 
L 106.992683 277.029222 
L 107.634452 274.946082 
L 108.276221 318.692924 
L 108.91799 321.470504 
L 109.559759 324.942523 
L 110.843297 292.306002 
L 111.485066 301.333093 
L 112.126835 299.944302 
L 112.768604 296.472372 
L 113.410374 295.777932 
L 114.052143 299.944302 
L 114.693912 311.749062 
L 115.335681 320.081714 
L 115.97745 319.387363 
L 116.619219 324.248173 
L 117.260988 311.054623 
L 117.902757 304.805023 
L 118.544526 317.304134 
L 119.186295 286.056402 
L 119.828064 310.360183 
L 120.469833 306.193813 
L 121.111602 300.638653 
L 121.753372 315.915344 
L 122.395141 299.944302 
L 123.03691 309.665833 
L 123.678679 314.526642 
L 124.320448 294.389142 
L 124.962217 324.248173 
L 125.603986 338.830424 
L 126.245755 320.776153 
L 126.887524 320.081714 
L 127.529293 317.998573 
L 128.171062 318.692924 
L 128.812831 313.832203 
L 129.454601 317.304134 
L 130.09637 319.387363 
L 130.738139 317.304134 
L 131.379908 325.636963 
L 132.021677 329.803244 
L 132.663446 311.749062 
L 133.305215 313.832203 
L 134.588753 329.108894 
L 135.872291 309.665833 
L 136.51406 317.304134 
L 137.15583 322.164943 
L 137.797599 315.220993 
L 138.439368 314.526642 
L 139.081137 320.776153 
L 139.722906 324.248173 
L 140.364675 328.414454 
L 141.006444 335.358493 
L 141.648213 322.164943 
L 142.289982 324.942523 
L 142.931751 329.108894 
L 143.57352 304.110673 
L 144.215289 305.499463 
L 144.857058 309.665833 
L 145.498828 317.998573 
L 146.140597 314.526642 
L 146.782366 299.944302 
L 147.424135 320.776153 
L 148.065904 309.665833 
L 148.707673 313.832203 
L 149.349442 322.859383 
L 150.63298 304.805023 
L 151.274749 318.692924 
L 151.916518 322.164943 
L 152.558287 317.998573 
L 153.200057 306.888253 
L 153.841826 322.859383 
L 154.483595 301.333093 
L 155.125364 307.582603 
L 156.408902 322.859383 
L 157.050671 327.025664 
L 157.69244 302.027443 
L 158.334209 317.998573 
L 158.975978 304.110673 
L 159.617747 310.360183 
L 160.259516 320.081714 
L 160.901286 320.081714 
L 161.543055 292.306002 
L 162.184824 304.110673 
L 162.826593 312.443413 
L 163.468362 333.969703 
L 164.110131 303.416233 
L 164.7519 304.805023 
L 166.035438 320.081714 
L 166.677207 327.720104 
L 167.318976 318.692924 
L 167.960745 316.609783 
L 168.602514 313.137852 
L 169.886053 329.803244 
L 170.527822 330.497684 
L 171.169591 317.304134 
L 171.81136 329.108894 
L 172.453129 322.859383 
L 173.094898 314.526642 
L 173.736667 326.331313 
L 174.378436 319.387363 
L 175.020205 320.776153 
L 175.661974 309.665833 
L 176.303743 329.803244 
L 176.945513 320.081714 
L 177.587282 307.582603 
L 178.229051 305.499463 
L 178.87082 315.915344 
L 179.512589 312.443413 
L 180.154358 309.665833 
L 180.796127 320.776153 
L 181.437896 315.220993 
L 182.721434 331.192034 
L 183.363203 314.526642 
L 184.004972 322.164943 
L 185.288511 331.192034 
L 185.93028 327.720104 
L 186.572049 326.331313 
L 187.213818 323.553733 
L 187.855587 324.942523 
L 188.497356 318.692924 
L 189.139125 315.915344 
L 189.780894 324.248173 
L 191.064432 306.193813 
L 191.706201 293.000352 
L 192.34797 299.249863 
L 192.98974 303.416233 
L 193.631509 291.611562 
L 194.273278 296.472372 
L 194.915047 311.054623 
L 195.556816 309.665833 
L 196.198585 322.859383 
L 196.840354 318.692924 
L 197.482123 308.277043 
L 198.123892 320.081714 
L 198.765661 311.749062 
L 199.40743 322.859383 
L 200.049199 327.025664 
L 200.690969 304.110673 
L 201.332738 311.749062 
L 201.974507 321.470504 
L 202.616276 327.720104 
L 203.258045 312.443413 
L 203.899814 320.081714 
L 204.541583 325.636963 
L 205.183352 317.998573 
L 205.825121 324.248173 
L 206.46689 326.331313 
L 207.108659 332.580824 
L 207.750428 327.720104 
L 208.392198 324.942523 
L 209.033967 308.277043 
L 209.675736 313.832203 
L 210.317505 313.137852 
L 210.959274 309.665833 
L 211.601043 323.553733 
L 212.242812 329.108894 
L 212.884581 305.499463 
L 213.52635 304.110673 
L 214.168119 292.306002 
L 214.809888 299.944302 
L 215.451657 299.249863 
L 216.093426 315.915344 
L 216.735196 322.859383 
L 217.376965 320.081714 
L 218.018734 338.830424 
L 218.660503 310.360183 
L 219.302272 313.832203 
L 219.944041 314.526642 
L 220.58581 322.859383 
L 221.227579 313.137852 
L 221.869348 311.749062 
L 222.511117 309.665833 
L 223.152886 329.803244 
L 223.794655 322.164943 
L 224.436425 313.137852 
L 225.078194 310.360183 
L 225.719963 314.526642 
L 226.361732 314.526642 
L 227.003501 320.776153 
L 227.64527 320.776153 
L 228.287039 322.859383 
L 228.928808 320.776153 
L 229.570577 320.081714 
L 230.212346 316.609783 
L 230.854115 320.776153 
L 231.495884 336.052844 
L 232.137654 329.803244 
L 232.779423 333.969703 
L 233.421192 346.468814 
L 234.062961 336.052844 
L 234.70473 298.555512 
L 235.346499 311.749062 
L 235.988268 311.054623 
L 236.630037 315.220993 
L 237.271806 327.025664 
L 237.913575 336.747283 
L 238.555344 338.135985 
L 239.197113 327.720104 
L 239.838882 341.608004 
L 240.480652 338.830424 
L 241.122421 354.801465 
L 241.76419 330.497684 
L 242.405959 330.497684 
L 243.047728 319.387363 
L 243.689497 340.219214 
L 244.331266 348.551954 
L 244.973035 327.025664 
L 245.614804 324.248173 
L 246.256573 326.331313 
L 246.898342 327.025664 
L 247.540111 322.164943 
L 248.181881 324.942523 
L 248.82365 331.886474 
L 249.465419 340.219214 
L 250.107188 345.080024 
L 250.748957 336.747283 
L 252.032495 332.580824 
L 252.674264 338.135985 
L 253.316033 332.580824 
L 253.957802 328.414454 
L 254.599571 327.720104 
L 255.24134 327.720104 
L 255.88311 342.302355 
L 256.524879 315.915344 
L 257.166648 316.609783 
L 257.808417 315.915344 
L 258.450186 312.443413 
L 259.091955 320.081714 
L 259.733724 313.137852 
L 260.375493 332.580824 
L 261.017262 335.358493 
L 261.659031 313.832203 
L 262.3008 318.692924 
L 262.942569 317.998573 
L 263.584339 323.553733 
L 264.226108 327.025664 
L 264.867877 347.163164 
L 265.509646 328.414454 
L 266.151415 360.356625 
L 266.793184 350.635095 
L 267.434953 349.940744 
L 268.718491 340.913565 
L 269.36026 338.830424 
L 270.002029 337.441634 
L 270.643798 332.580824 
L 271.285567 338.135985 
L 271.927337 347.163164 
L 272.569106 342.996794 
L 273.210875 349.940744 
L 273.852644 331.886474 
L 274.494413 327.720104 
L 275.136182 351.329534 
L 275.777951 353.412675 
L 276.41972 349.246305 
L 277.061489 341.608004 
L 278.345027 318.692924 
L 278.986796 323.553733 
L 279.628566 317.304134 
L 280.270335 315.220993 
L 280.912104 315.915344 
L 281.553873 309.665833 
L 282.195642 313.832203 
L 282.837411 311.054623 
L 283.47918 306.193813 
L 284.120949 311.054623 
L 284.762718 312.443413 
L 285.404487 309.665833 
L 286.046256 312.443413 
L 286.688025 315.915344 
L 287.329795 322.164943 
L 288.613333 329.803244 
L 289.255102 320.081714 
L 289.896871 320.776153 
L 290.53864 337.441634 
L 291.180409 336.052844 
L 292.463947 336.052844 
L 293.105716 338.830424 
L 293.747485 339.524775 
L 294.389254 358.273485 
L 295.672793 327.720104 
L 296.314562 332.580824 
L 296.956331 342.996794 
L 297.5981 342.302355 
L 298.239869 348.551954 
L 298.881638 335.358493 
L 299.523407 331.886474 
L 300.165176 332.580824 
L 300.806945 342.302355 
L 301.448714 346.468814 
L 302.090483 327.025664 
L 302.732252 333.969703 
L 303.374022 339.524775 
L 304.65756 330.497684 
L 305.299329 333.275264 
L 305.941098 328.414454 
L 306.582867 331.192034 
L 307.224636 340.219214 
L 307.866405 342.996794 
L 308.508174 343.691145 
L 309.149943 346.468814 
L 309.791712 331.886474 
L 310.433481 323.553733 
L 311.075251 330.497684 
L 311.71702 324.942523 
L 312.358789 324.942523 
L 313.642327 306.888253 
L 314.284096 305.499463 
L 314.925865 306.193813 
L 315.567634 307.582603 
L 316.209403 307.582603 
L 316.851172 317.998573 
L 317.492941 312.443413 
L 318.13471 311.054623 
L 318.776479 325.636963 
L 319.418249 316.609783 
L 320.701787 302.721883 
L 321.343556 303.416233 
L 321.985325 308.277043 
L 322.627094 317.304134 
L 323.268863 337.441634 
L 324.552401 320.081714 
L 325.19417 337.441634 
L 325.835939 348.551954 
L 326.477708 320.081714 
L 327.119478 317.998573 
L 327.761247 329.108894 
L 328.403016 333.969703 
L 329.044785 335.358493 
L 329.686554 335.358493 
L 330.328323 344.385584 
L 330.970092 329.108894 
L 331.611861 340.913565 
L 332.25363 337.441634 
L 332.895399 320.776153 
L 333.537168 324.942523 
L 334.178937 334.664054 
L 334.820707 338.135985 
L 335.462476 348.551954 
L 336.104245 334.664054 
L 336.746014 331.192034 
L 337.387783 329.108894 
L 338.029552 319.387363 
L 338.671321 313.832203 
L 339.31309 318.692924 
L 339.954859 327.025664 
L 340.596628 324.248173 
L 341.238397 327.025664 
L 341.880166 347.163164 
L 342.521935 345.080024 
L 343.163705 336.747283 
L 343.805474 336.747283 
L 344.447243 333.969703 
L 345.089012 309.665833 
L 345.730781 317.304134 
L 346.37255 318.692924 
L 347.014319 327.025664 
L 347.656088 317.304134 
L 348.297857 331.192034 
L 348.939626 329.803244 
L 349.581395 335.358493 
L 350.223164 337.441634 
L 350.864934 334.664054 
L 351.506703 338.830424 
L 352.148472 340.913565 
L 352.790241 345.080024 
L 353.43201 331.192034 
L 354.073779 337.441634 
L 354.715548 331.192034 
L 355.357317 333.275264 
L 355.999086 326.331313 
L 356.640855 331.192034 
L 357.282624 327.025664 
L 357.924393 329.108894 
L 358.566163 348.551954 
L 359.207932 334.664054 
L 359.849701 317.304134 
L 360.49147 308.971393 
L 361.133239 315.220993 
L 361.775008 318.692924 
L 362.416777 327.025664 
L 363.058546 318.692924 
L 363.700315 316.609783 
L 364.983853 331.192034 
L 365.625622 338.135985 
L 366.267391 346.468814 
L 366.909161 342.302355 
L 367.55093 333.969703 
L 368.192699 322.859383 
L 368.834468 314.526642 
L 369.476237 324.942523 
L 370.118006 316.609783 
L 370.759775 335.358493 
L 372.043313 306.193813 
L 372.685082 320.081714 
L 373.326851 329.108894 
L 373.96862 333.275264 
L 374.61039 339.524775 
L 375.252159 338.830424 
L 375.893928 340.913565 
L 376.535697 333.275264 
L 377.177466 320.776153 
L 377.819235 311.054623 
L 378.461004 346.468814 
L 379.102773 322.164943 
L 379.744542 311.749062 
L 380.386311 304.110673 
L 381.02808 299.249863 
L 381.669849 319.387363 
L 382.311619 311.749062 
L 382.953388 327.025664 
L 383.595157 326.331313 
L 384.236926 322.164943 
L 384.878695 328.414454 
L 385.520464 338.135985 
L 386.162233 340.219214 
L 386.804002 335.358493 
L 387.445771 322.859383 
L 388.08754 329.803244 
L 388.729309 328.414454 
L 389.371078 324.942523 
L 390.012847 320.776153 
L 390.654617 330.497684 
L 391.296386 332.580824 
L 391.938155 329.108894 
L 393.221693 317.304134 
L 393.863462 318.692924 
L 395.147 331.192034 
L 395.788769 320.776153 
L 396.430538 331.192034 
L 397.072307 329.803244 
L 397.714076 333.969703 
L 398.355846 333.275264 
L 398.997615 331.886474 
L 399.639384 335.358493 
L 400.281153 331.886474 
L 400.922922 325.636963 
L 401.564691 324.248173 
L 402.20646 331.886474 
L 403.489998 355.495905 
L 404.131767 349.940744 
L 404.773536 325.636963 
L 405.415305 319.387363 
L 406.057075 317.998573 
L 406.698844 318.692924 
L 407.340613 328.414454 
L 407.982382 329.803244 
L 408.624151 328.414454 
L 409.26592 321.470504 
L 409.907689 317.304134 
L 410.549458 336.747283 
L 411.191227 336.052844 
L 411.832996 336.052844 
L 412.474765 337.441634 
L 413.116534 327.025664 
L 413.758303 331.192034 
L 414.400073 321.470504 
L 415.041842 334.664054 
L 415.683611 336.747283 
L 416.32538 333.969703 
L 417.608918 340.913565 
L 418.250687 338.135985 
L 418.892456 342.302355 
L 419.534225 342.996794 
L 420.175994 349.940744 
L 420.817763 337.441634 
L 421.459532 344.385584 
L 422.101302 338.830424 
L 422.743071 346.468814 
L 423.38484 347.163164 
L 424.668378 335.358493 
L 425.310147 333.969703 
L 425.951916 336.747283 
L 426.593685 333.969703 
L 427.235454 331.886474 
L 427.877223 338.830424 
L 428.518992 342.996794 
L 429.160761 350.635095 
L 429.802531 342.302355 
L 430.4443 343.691145 
L 431.086069 325.636963 
L 431.727838 329.108894 
L 432.369607 329.803244 
L 433.011376 336.052844 
L 433.653145 329.803244 
L 434.294914 329.803244 
L 434.936683 344.385584 
L 435.578452 349.246305 
L 436.220221 322.859383 
L 436.86199 322.164943 
L 437.50376 355.495905 
L 438.145529 342.302355 
L 438.787298 334.664054 
L 439.429067 350.635095 
L 440.070836 345.774374 
L 440.712605 337.441634 
L 441.354374 337.441634 
L 442.637912 358.273485 
L 443.279681 352.718325 
L 443.92145 331.886474 
L 444.563219 344.385584 
L 445.204988 349.940744 
L 445.846758 340.219214 
L 446.488527 357.579045 
L 447.130296 353.412675 
L 447.772065 359.662275 
L 448.413834 358.967835 
L 449.055603 363.134205 
L 449.697372 369.383805 
L 450.339141 353.412675 
L 450.98091 362.439855 
L 451.622679 357.579045 
L 452.264448 364.522996 
L 452.906217 365.217435 
L 453.547987 358.967835 
L 454.189756 358.967835 
L 454.831525 364.522996 
L 455.473294 365.217435 
L 456.115063 370.078156 
L 456.756832 364.522996 
L 457.398601 369.383805 
L 458.04037 369.383805 
L 458.682139 367.300665 
L 459.323908 352.023885 
L 459.965677 355.495905 
L 460.607446 353.412675 
L 461.249216 353.412675 
L 461.890985 356.884695 
L 462.532754 353.412675 
L 463.174523 361.745504 
L 463.816292 365.217435 
L 465.09983 361.051065 
L 465.741599 361.051065 
L 466.383368 360.356625 
L 467.025137 365.911786 
L 467.666906 361.051065 
L 468.308675 360.356625 
L 468.950444 355.495905 
L 469.592214 357.579045 
L 470.233983 362.439855 
L 470.875752 358.273485 
L 471.517521 342.996794 
L 472.15929 338.135985 
L 472.801059 348.551954 
L 473.442828 343.691145 
L 474.084597 357.579045 
L 474.726366 358.273485 
L 475.368135 350.635095 
L 476.009904 355.495905 
L 476.651673 349.246305 
L 477.293443 347.857604 
L 477.935212 347.857604 
L 478.576981 359.662275 
L 479.21875 362.439855 
L 479.860519 359.662275 
L 480.502288 359.662275 
L 481.144057 350.635095 
L 481.785826 362.439855 
L 482.427595 346.468814 
L 483.069364 353.412675 
L 483.711133 356.884695 
L 484.352902 357.579045 
L 485.636441 361.745504 
L 486.27821 362.439855 
L 486.919979 358.273485 
L 487.561748 358.273485 
L 488.203517 362.439855 
L 488.845286 363.828645 
L 489.487055 362.439855 
L 490.128824 365.217435 
L 490.770593 359.662275 
L 491.412362 370.078156 
L 492.054131 373.550175 
L 492.6959 375.633316 
L 493.33767 374.244526 
L 493.979439 358.273485 
L 494.621208 347.163164 
L 495.904746 367.995015 
L 496.546515 367.995015 
L 497.188284 352.718325 
L 497.830053 354.107115 
L 498.471822 354.107115 
L 499.113591 355.495905 
L 499.75536 355.495905 
L 501.038899 368.689366 
L 501.680668 362.439855 
L 502.322437 363.828645 
L 503.605975 347.857604 
L 504.247744 349.940744 
L 504.889513 346.468814 
L 505.531282 356.190344 
L 506.173051 353.412675 
L 506.81482 354.801465 
L 507.456589 354.801465 
L 508.098358 355.495905 
L 508.740128 347.163164 
L 509.381897 349.246305 
L 510.023666 352.023885 
L 510.665435 352.023885 
L 511.307204 356.884695 
L 511.948973 358.273485 
L 512.590742 372.161385 
L 513.232511 350.635095 
L 513.87428 343.691145 
L 514.516049 356.884695 
L 515.157818 344.385584 
L 515.799587 356.190344 
L 516.441356 349.940744 
L 517.083126 347.163164 
L 517.724895 345.774374 
L 518.366664 355.495905 
L 519.008433 359.662275 
L 519.650202 370.772595 
L 520.291971 363.828645 
L 520.93374 353.412675 
L 521.575509 366.606225 
L 522.217278 362.439855 
L 522.859047 365.911786 
L 523.500816 363.134205 
L 524.142585 358.967835 
L 524.784355 364.522996 
L 525.426124 361.745504 
L 526.067893 349.246305 
L 526.709662 345.774374 
L 527.351431 350.635095 
L 527.9932 356.884695 
L 528.634969 348.551954 
L 529.276738 345.080024 
L 529.918507 352.023885 
L 530.560276 360.356625 
L 531.202045 357.579045 
L 531.843814 352.718325 
L 532.485584 351.329534 
L 533.127353 351.329534 
L 533.769122 365.911786 
L 534.410891 363.828645 
L 535.05266 356.190344 
L 535.694429 363.828645 
L 536.336198 363.134205 
L 536.977967 361.051065 
L 537.619736 356.884695 
L 538.261505 359.662275 
L 538.903274 361.051065 
L 539.545043 352.023885 
L 540.186812 362.439855 
L 540.828582 353.412675 
L 542.11212 361.051065 
L 542.753889 356.190344 
L 543.395658 356.190344 
L 544.037427 339.524775 
L 544.679196 341.608004 
L 545.320965 354.107115 
L 545.962734 357.579045 
L 546.604503 364.522996 
L 547.246272 352.718325 
L 547.888041 369.383805 
L 548.529811 352.023885 
L 549.17158 342.996794 
L 549.813349 347.163164 
L 550.455118 356.190344 
L 551.096887 361.051065 
L 552.380425 355.495905 
L 553.022194 353.412675 
L 553.663963 369.383805 
L 554.305732 361.745504 
L 554.947501 361.051065 
L 555.58927 366.606225 
L 556.23104 374.938965 
L 556.872809 374.938965 
L 557.514578 377.022195 
L 558.156347 385.354935 
L 558.798116 379.105336 
L 560.081654 370.078156 
L 560.723423 356.884695 
L 561.365192 354.107115 
L 562.64873 361.051065 
L 563.290499 365.911786 
L 563.932268 364.522996 
L 564.574038 356.884695 
L 565.215807 363.828645 
L 565.857576 366.606225 
L 566.499345 361.745504 
L 567.141114 353.412675 
L 567.782883 358.967835 
L 568.424652 362.439855 
L 569.70819 374.244526 
L 570.349959 365.911786 
L 570.991728 361.745504 
L 571.633497 363.134205 
L 572.275267 367.300665 
L 572.917036 365.911786 
L 573.558805 368.689366 
L 574.200574 359.662275 
L 574.842343 356.884695 
L 575.484112 362.439855 
L 576.76765 382.577355 
L 577.409419 377.716545 
L 578.692957 333.969703 
L 579.334726 337.441634 
L 579.976496 345.774374 
L 580.618265 348.551954 
L 581.260034 352.023885 
L 581.901803 356.884695 
L 582.543572 344.385584 
L 583.185341 347.857604 
L 583.82711 363.134205 
L 584.468879 360.356625 
L 585.110648 352.023885 
L 585.752417 354.107115 
L 586.394186 360.356625 
L 587.035955 365.217435 
L 587.677725 372.855825 
L 588.319494 367.300665 
L 588.961263 365.217435 
L 589.603032 367.995015 
L 590.244801 364.522996 
L 590.88657 363.828645 
L 591.528339 354.801465 
L 592.170108 354.801465 
L 592.811877 368.689366 
L 593.453646 356.884695 
L 594.095415 358.273485 
L 594.737184 354.107115 
L 595.378953 356.190344 
L 596.020723 374.244526 
L 596.662492 362.439855 
L 597.304261 376.327755 
L 597.94603 355.495905 
L 598.587799 351.329534 
L 599.229568 363.828645 
L 599.871337 370.772595 
L 600.513106 360.356625 
L 601.796644 368.689366 
L 602.438413 377.022195 
L 603.080182 361.745504 
L 603.721952 355.495905 
L 604.363721 352.718325 
L 605.00549 355.495905 
L 605.647259 360.356625 
L 606.289028 360.356625 
L 606.930797 362.439855 
L 607.572566 365.217435 
L 608.214335 371.467035 
L 608.856104 367.300665 
L 609.497873 367.300665 
L 610.781411 353.412675 
L 611.423181 353.412675 
L 612.06495 350.635095 
L 612.706719 357.579045 
L 613.348488 359.662275 
L 613.990257 355.495905 
L 614.632026 358.273485 
L 615.273795 363.134205 
L 615.915564 366.606225 
L 616.557333 365.911786 
L 617.199102 363.828645 
L 618.48264 367.995015 
L 619.124409 365.217435 
L 619.766179 372.161385 
L 620.407948 367.995015 
L 621.691486 352.023885 
L 622.333255 353.412675 
L 622.975024 361.745504 
L 623.616793 361.051065 
L 624.258562 367.300665 
L 624.900331 364.522996 
L 625.5421 370.772595 
L 626.183869 359.662275 
L 626.825638 360.356625 
L 627.467408 366.606225 
L 628.109177 362.439855 
L 628.750946 366.606225 
L 629.392715 369.383805 
L 630.034484 370.772595 
L 630.676253 367.300665 
L 631.318022 362.439855 
L 631.959791 370.078156 
L 632.60156 363.828645 
L 633.885098 376.327755 
L 635.168637 372.161385 
L 635.810406 378.410896 
L 636.452175 386.049286 
L 637.093944 386.743636 
L 637.735713 382.577355 
L 638.377482 383.271706 
L 639.019251 375.633316 
L 639.66102 366.606225 
L 640.302789 372.855825 
L 640.944558 374.244526 
L 641.586327 372.161385 
L 642.228096 365.911786 
L 642.869865 361.051065 
L 643.511635 361.745504 
L 644.153404 364.522996 
L 644.795173 366.606225 
L 645.436942 365.217435 
L 646.078711 365.217435 
L 646.72048 377.022195 
L 647.362249 371.467035 
L 648.004018 374.244526 
L 648.645787 377.716545 
L 649.287556 370.772595 
L 649.929325 369.383805 
L 650.571094 360.356625 
L 651.212864 363.828645 
L 651.854633 370.772595 
L 652.496402 370.078156 
L 653.138171 366.606225 
L 653.77994 365.217435 
L 654.421709 355.495905 
L 655.063478 363.828645 
L 655.705247 365.217435 
L 656.347016 362.439855 
L 657.630554 370.078156 
L 658.272323 372.161385 
L 658.914093 375.633316 
L 659.555862 365.911786 
L 660.197631 360.356625 
L 660.8394 361.745504 
L 661.481169 371.467035 
L 662.122938 367.300665 
L 663.406476 377.022195 
L 664.048245 380.494126 
L 664.690014 374.938965 
L 665.331783 371.467035 
L 665.973552 372.161385 
L 666.615321 370.078156 
L 667.257091 379.799775 
L 667.89886 370.772595 
L 668.540629 365.911786 
L 669.824167 377.716545 
L 670.465936 372.161385 
L 671.107705 370.078156 
L 671.749474 365.911786 
L 672.391243 359.662275 
L 673.033012 362.439855 
L 673.674781 367.995015 
L 674.31655 370.078156 
L 674.95832 370.078156 
L 675.600089 370.772595 
L 676.241858 373.550175 
L 676.883627 372.161385 
L 677.525396 372.855825 
L 678.167165 370.772595 
L 678.808934 371.467035 
L 679.450703 368.689366 
L 680.092472 373.550175 
L 680.734241 362.439855 
L 681.37601 365.911786 
L 682.017779 357.579045 
L 682.659549 363.828645 
L 683.301318 363.134205 
L 683.943087 364.522996 
L 684.584856 364.522996 
L 685.226625 359.662275 
L 685.868394 363.134205 
L 686.510163 369.383805 
L 687.151932 370.772595 
L 687.793701 376.327755 
L 688.43547 363.134205 
L 689.077239 366.606225 
L 689.719008 367.300665 
L 690.360777 370.772595 
L 691.002547 363.134205 
L 691.644316 360.356625 
L 692.286085 365.911786 
L 692.927854 367.995015 
L 693.569623 367.995015 
L 694.211392 372.161385 
L 694.853161 366.606225 
L 695.49493 367.300665 
L 696.136699 360.356625 
L 696.778468 365.217435 
L 697.420237 362.439855 
L 698.062006 357.579045 
L 698.703776 370.772595 
L 699.345545 367.300665 
L 699.987314 363.134205 
L 700.629083 361.051065 
L 701.270852 359.662275 
L 701.912621 360.356625 
L 702.55439 364.522996 
L 703.196159 361.051065 
L 703.837928 366.606225 
L 704.479697 365.217435 
L 705.121466 367.995015 
L 705.763235 366.606225 
L 706.405005 363.828645 
L 707.046774 367.995015 
L 707.688543 363.828645 
L 708.330312 361.051065 
L 708.972081 358.967835 
L 709.61385 362.439855 
L 710.255619 364.522996 
L 710.897388 367.300665 
L 711.539157 364.522996 
L 712.180926 369.383805 
L 712.822695 369.383805 
L 713.464464 368.689366 
L 714.106233 370.078156 
L 714.748003 370.078156 
L 715.389772 369.383805 
L 716.031541 372.161385 
L 716.67331 371.467035 
L 717.315079 372.855825 
L 717.956848 371.467035 
L 718.598617 372.161385 
L 719.240386 374.244526 
L 719.882155 373.550175 
L 720.523924 377.022195 
L 721.165693 370.078156 
L 721.807462 364.522996 
L 722.449232 366.606225 
L 723.091001 367.995015 
L 723.73277 365.217435 
L 724.374539 370.772595 
L 725.658077 365.217435 
L 726.299846 363.134205 
L 726.941615 363.134205 
L 727.583384 363.828645 
L 728.225153 368.689366 
L 728.866922 370.772595 
L 729.508691 371.467035 
L 730.150461 369.383805 
L 730.79223 371.467035 
L 731.433999 371.467035 
L 732.075768 375.633316 
L 732.717537 367.995015 
L 734.001075 356.190344 
L 734.642844 355.495905 
L 735.284613 355.495905 
L 735.926382 356.190344 
L 736.568151 352.718325 
L 737.20992 354.801465 
L 737.851689 361.745504 
L 738.493459 362.439855 
L 739.135228 365.217435 
L 739.776997 364.522996 
L 740.418766 362.439855 
L 741.060535 367.300665 
L 742.344073 365.911786 
L 742.985842 363.134205 
L 743.627611 365.911786 
L 744.26938 362.439855 
L 744.911149 359.662275 
L 745.552918 363.134205 
L 746.194688 361.051065 
L 746.836457 357.579045 
L 747.478226 365.911786 
L 748.761764 356.190344 
L 749.403533 359.662275 
L 750.045302 364.522996 
L 750.687071 363.134205 
L 751.32884 361.051065 
L 751.970609 361.745504 
L 752.612378 365.911786 
L 753.254147 367.995015 
L 753.895917 366.606225 
L 754.537686 364.522996 
L 755.179455 364.522996 
L 755.821224 366.606225 
L 756.462993 367.300665 
L 757.104762 364.522996 
L 757.746531 362.439855 
L 758.3883 363.828645 
L 759.030069 365.911786 
L 759.671838 364.522996 
L 760.313607 367.300665 
L 760.955376 371.467035 
L 761.597146 371.467035 
L 762.238915 367.995015 
L 762.880684 362.439855 
L 763.522453 365.911786 
L 764.164222 364.522996 
L 764.805991 367.995015 
L 765.44776 364.522996 
L 766.089529 359.662275 
L 766.731298 357.579045 
L 767.373067 357.579045 
L 768.014836 361.051065 
L 768.656605 359.662275 
L 769.298374 363.828645 
L 769.940144 365.911786 
L 771.223682 358.273485 
L 771.865451 361.745504 
L 772.50722 358.273485 
L 773.148989 361.745504 
L 773.790758 364.522996 
L 774.432527 358.967835 
L 775.074296 365.911786 
L 775.716065 363.828645 
L 776.357834 365.911786 
L 776.999603 366.606225 
L 777.641373 365.911786 
L 778.283142 370.772595 
L 778.924911 363.828645 
L 779.56668 365.911786 
L 780.208449 372.855825 
L 780.850218 365.911786 
L 781.491987 363.828645 
L 782.133756 361.051065 
L 782.775525 364.522996 
L 783.417294 365.911786 
L 784.059063 365.911786 
L 784.700832 366.606225 
L 785.342602 370.078156 
L 785.984371 370.772595 
L 786.62614 363.134205 
L 787.267909 364.522996 
L 787.909678 368.689366 
L 788.551447 365.911786 
L 789.193216 365.911786 
L 789.834985 356.884695 
L 790.476754 354.107115 
L 791.118523 359.662275 
L 791.760292 367.300665 
L 792.402061 363.134205 
L 793.6856 364.522996 
L 794.327369 363.134205 
L 794.969138 368.689366 
L 795.610907 369.383805 
L 796.252676 365.217435 
L 796.894445 366.606225 
L 797.536214 367.300665 
L 798.177983 372.161385 
L 798.819752 369.383805 
L 800.10329 366.606225 
L 800.745059 373.550175 
L 801.386829 374.938965 
L 802.028598 369.383805 
L 802.670367 367.995015 
L 803.312136 372.161385 
L 803.953905 370.078156 
L 804.595674 372.855825 
L 805.237443 370.772595 
L 805.879212 370.772595 
L 806.520981 367.995015 
L 807.16275 371.467035 
L 807.804519 371.467035 
L 808.446288 376.327755 
L 809.088058 373.550175 
L 809.729827 374.938965 
L 810.371596 374.244526 
L 810.371596 374.244526 
" clip-path="url(#pc507f7c32a)" style="fill: none; stroke: #000000; stroke-opacity: 0.8; stroke-linecap: square"/>
   </g>
   <g id="patch_3">
    <path d="M 32.74 402.68 
L 32.74 52.08 
" style="fill: none; stroke: #000000; stroke-width: 0.8; stroke-linejoin: miter; stroke-linecap: square"/>
   </g>
   <g id="patch_4">
    <path d="M 847.401672 402.68 
L 847.401672 52.08 
" style="fill: none; stroke: #000000; stroke-width: 0.8; stroke-linejoin: miter; stroke-linecap: square"/>
   </g>
   <g id="patch_5">
    <path d="M 32.74 402.68 
L 847.401672 402.68 
" style="fill: none; stroke: #000000; stroke-width: 0.8; stroke-linejoin: miter; stroke-linecap: square"/>
   </g>
   <g id="patch_6">
    <path d="M 32.74 52.08 
L 847.401672 52.08 
" style="fill: none; stroke: #000000; stroke-width: 0.8; stroke-linejoin: miter; stroke-linecap: square"/>
   </g>
   <g id="text_16">
    <!-- Violet Channel -->
    <g transform="translate(397.915523 46.08) scale(0.14 -0.14)">
     <defs>
      <path id="TimesNewRomanPSMT-56" d="M 4544 4238 
L 4544 4122 
Q 4319 4081 4203 3978 
Q 4038 3825 3909 3509 
L 2431 -97 
L 2316 -97 
L 728 3556 
Q 606 3838 556 3900 
Q 478 3997 364 4051 
Q 250 4106 56 4122 
L 56 4238 
L 1788 4238 
L 1788 4122 
Q 1494 4094 1406 4022 
Q 1319 3950 1319 3838 
Q 1319 3681 1463 3350 
L 2541 866 
L 3541 3319 
Q 3688 3681 3688 3822 
Q 3688 3913 3597 3995 
Q 3506 4078 3291 4113 
Q 3275 4116 3238 4122 
L 3238 4238 
L 4544 4238 
z
" transform="scale(0.015625)"/>
      <path id="TimesNewRomanPSMT-69" d="M 928 4444 
Q 1059 4444 1151 4351 
Q 1244 4259 1244 4128 
Q 1244 3997 1151 3903 
Q 1059 3809 928 3809 
Q 797 3809 703 3903 
Q 609 3997 609 4128 
Q 609 4259 701 4351 
Q 794 4444 928 4444 
z
M 1188 2947 
L 1188 647 
Q 1188 378 1227 289 
Q 1266 200 1342 156 
Q 1419 113 1622 113 
L 1622 0 
L 231 0 
L 231 113 
Q 441 113 512 153 
Q 584 194 626 287 
Q 669 381 669 647 
L 669 1750 
Q 669 2216 641 2353 
Q 619 2453 572 2492 
Q 525 2531 444 2531 
Q 356 2531 231 2484 
L 188 2597 
L 1050 2947 
L 1188 2947 
z
" transform="scale(0.015625)"/>
      <path id="TimesNewRomanPSMT-6f" d="M 1600 2947 
Q 2250 2947 2644 2453 
Q 2978 2031 2978 1484 
Q 2978 1100 2793 706 
Q 2609 313 2286 112 
Q 1963 -88 1566 -88 
Q 919 -88 538 428 
Q 216 863 216 1403 
Q 216 1797 411 2186 
Q 606 2575 925 2761 
Q 1244 2947 1600 2947 
z
M 1503 2744 
Q 1338 2744 1170 2645 
Q 1003 2547 900 2300 
Q 797 2053 797 1666 
Q 797 1041 1045 587 
Q 1294 134 1700 134 
Q 2003 134 2200 384 
Q 2397 634 2397 1244 
Q 2397 2006 2069 2444 
Q 1847 2744 1503 2744 
z
" transform="scale(0.015625)"/>
      <path id="TimesNewRomanPSMT-6c" d="M 1184 4444 
L 1184 647 
Q 1184 378 1223 290 
Q 1263 203 1344 158 
Q 1425 113 1647 113 
L 1647 0 
L 244 0 
L 244 113 
Q 441 113 512 153 
Q 584 194 625 287 
Q 666 381 666 647 
L 666 3247 
Q 666 3731 644 3842 
Q 622 3953 573 3993 
Q 525 4034 450 4034 
Q 369 4034 244 3984 
L 191 4094 
L 1044 4444 
L 1184 4444 
z
" transform="scale(0.015625)"/>
      <path id="TimesNewRomanPSMT-65" d="M 681 1784 
Q 678 1147 991 784 
Q 1303 422 1725 422 
Q 2006 422 2214 576 
Q 2422 731 2563 1106 
L 2659 1044 
Q 2594 616 2278 264 
Q 1963 -88 1488 -88 
Q 972 -88 605 314 
Q 238 716 238 1394 
Q 238 2128 614 2539 
Q 991 2950 1559 2950 
Q 2041 2950 2350 2633 
Q 2659 2316 2659 1784 
L 681 1784 
z
M 681 1966 
L 2006 1966 
Q 1991 2241 1941 2353 
Q 1863 2528 1708 2628 
Q 1553 2728 1384 2728 
Q 1125 2728 920 2526 
Q 716 2325 681 1966 
z
" transform="scale(0.015625)"/>
      <path id="TimesNewRomanPSMT-74" d="M 1031 3803 
L 1031 2863 
L 1700 2863 
L 1700 2644 
L 1031 2644 
L 1031 788 
Q 1031 509 1111 412 
Q 1191 316 1316 316 
Q 1419 316 1516 380 
Q 1613 444 1666 569 
L 1788 569 
Q 1678 263 1478 108 
Q 1278 -47 1066 -47 
Q 922 -47 784 33 
Q 647 113 581 261 
Q 516 409 516 719 
L 516 2644 
L 63 2644 
L 63 2747 
Q 234 2816 414 2980 
Q 594 3144 734 3369 
Q 806 3488 934 3803 
L 1031 3803 
z
" transform="scale(0.015625)"/>
      <path id="TimesNewRomanPSMT-20" transform="scale(0.015625)"/>
      <path id="TimesNewRomanPSMT-43" d="M 3853 4334 
L 3950 2894 
L 3853 2894 
Q 3659 3541 3300 3825 
Q 2941 4109 2438 4109 
Q 2016 4109 1675 3895 
Q 1334 3681 1139 3212 
Q 944 2744 944 2047 
Q 944 1472 1128 1050 
Q 1313 628 1683 403 
Q 2053 178 2528 178 
Q 2941 178 3256 354 
Q 3572 531 3950 1056 
L 4047 994 
Q 3728 428 3303 165 
Q 2878 -97 2294 -97 
Q 1241 -97 663 684 
Q 231 1266 231 2053 
Q 231 2688 515 3219 
Q 800 3750 1298 4042 
Q 1797 4334 2388 4334 
Q 2847 4334 3294 4109 
Q 3425 4041 3481 4041 
Q 3566 4041 3628 4100 
Q 3709 4184 3744 4334 
L 3853 4334 
z
" transform="scale(0.015625)"/>
      <path id="TimesNewRomanPSMT-68" d="M 1041 4444 
L 1041 2350 
Q 1388 2731 1591 2839 
Q 1794 2947 1997 2947 
Q 2241 2947 2416 2812 
Q 2591 2678 2675 2391 
Q 2734 2191 2734 1659 
L 2734 647 
Q 2734 375 2778 275 
Q 2809 200 2884 156 
Q 2959 113 3159 113 
L 3159 0 
L 1753 0 
L 1753 113 
L 1819 113 
Q 2019 113 2097 173 
Q 2175 234 2206 353 
Q 2216 403 2216 647 
L 2216 1659 
Q 2216 2128 2167 2275 
Q 2119 2422 2012 2495 
Q 1906 2569 1756 2569 
Q 1603 2569 1437 2487 
Q 1272 2406 1041 2159 
L 1041 647 
Q 1041 353 1073 281 
Q 1106 209 1195 161 
Q 1284 113 1503 113 
L 1503 0 
L 84 0 
L 84 113 
Q 275 113 384 172 
Q 447 203 484 290 
Q 522 378 522 647 
L 522 3238 
Q 522 3728 498 3840 
Q 475 3953 426 3993 
Q 378 4034 297 4034 
Q 231 4034 84 3984 
L 41 4094 
L 897 4444 
L 1041 4444 
z
" transform="scale(0.015625)"/>
      <path id="TimesNewRomanPSMT-61" d="M 1822 413 
Q 1381 72 1269 19 
Q 1100 -59 909 -59 
Q 613 -59 420 144 
Q 228 347 228 678 
Q 228 888 322 1041 
Q 450 1253 767 1440 
Q 1084 1628 1822 1897 
L 1822 2009 
Q 1822 2438 1686 2597 
Q 1550 2756 1291 2756 
Q 1094 2756 978 2650 
Q 859 2544 859 2406 
L 866 2225 
Q 866 2081 792 2003 
Q 719 1925 600 1925 
Q 484 1925 411 2006 
Q 338 2088 338 2228 
Q 338 2497 613 2722 
Q 888 2947 1384 2947 
Q 1766 2947 2009 2819 
Q 2194 2722 2281 2516 
Q 2338 2381 2338 1966 
L 2338 994 
Q 2338 584 2353 492 
Q 2369 400 2405 369 
Q 2441 338 2488 338 
Q 2538 338 2575 359 
Q 2641 400 2828 588 
L 2828 413 
Q 2478 -56 2159 -56 
Q 2006 -56 1915 50 
Q 1825 156 1822 413 
z
M 1822 616 
L 1822 1706 
Q 1350 1519 1213 1441 
Q 966 1303 859 1153 
Q 753 1003 753 825 
Q 753 600 887 451 
Q 1022 303 1197 303 
Q 1434 303 1822 616 
z
" transform="scale(0.015625)"/>
      <path id="TimesNewRomanPSMT-6e" d="M 1034 2341 
Q 1538 2947 1994 2947 
Q 2228 2947 2397 2830 
Q 2566 2713 2666 2444 
Q 2734 2256 2734 1869 
L 2734 647 
Q 2734 375 2778 278 
Q 2813 200 2889 156 
Q 2966 113 3172 113 
L 3172 0 
L 1756 0 
L 1756 113 
L 1816 113 
Q 2016 113 2095 173 
Q 2175 234 2206 353 
Q 2219 400 2219 647 
L 2219 1819 
Q 2219 2209 2117 2386 
Q 2016 2563 1775 2563 
Q 1403 2563 1034 2156 
L 1034 647 
Q 1034 356 1069 288 
Q 1113 197 1189 155 
Q 1266 113 1500 113 
L 1500 0 
L 84 0 
L 84 113 
L 147 113 
Q 366 113 442 223 
Q 519 334 519 647 
L 519 1709 
Q 519 2225 495 2337 
Q 472 2450 423 2490 
Q 375 2531 294 2531 
Q 206 2531 84 2484 
L 38 2597 
L 900 2947 
L 1034 2947 
L 1034 2341 
z
" transform="scale(0.015625)"/>
     </defs>
     <use xlink:href="#TimesNewRomanPSMT-56"/>
     <use xlink:href="#TimesNewRomanPSMT-69" x="66.216797"/>
     <use xlink:href="#TimesNewRomanPSMT-6f" x="94"/>
     <use xlink:href="#TimesNewRomanPSMT-6c" x="144"/>
     <use xlink:href="#TimesNewRomanPSMT-65" x="171.783203"/>
     <use xlink:href="#TimesNewRomanPSMT-74" x="216.167969"/>
     <use xlink:href="#TimesNewRomanPSMT-20" x="243.951172"/>
     <use xlink:href="#TimesNewRomanPSMT-43" x="268.951172"/>
     <use xlink:href="#TimesNewRomanPSMT-68" x="335.650391"/>
     <use xlink:href="#TimesNewRomanPSMT-61" x="385.650391"/>
     <use xlink:href="#TimesNewRomanPSMT-6e" x="430.035156"/>
     <use xlink:href="#TimesNewRomanPSMT-6e" x="480.035156"/>
     <use xlink:href="#TimesNewRomanPSMT-65" x="530.035156"/>
     <use xlink:href="#TimesNewRomanPSMT-6c" x="574.419922"/>
    </g>
   </g>
   <g id="legend_1">
    <g id="patch_7">
     <path d="M 730.622922 78.669375 
L 839.001672 78.669375 
Q 841.401672 78.669375 841.401672 76.269375 
L 841.401672 60.48 
Q 841.401672 58.08 839.001672 58.08 
L 730.622922 58.08 
Q 728.222922 58.08 728.222922 60.48 
L 728.222922 76.269375 
Q 728.222922 78.669375 730.622922 78.669375 
z
" style="fill: #ffffff; opacity: 0.8; stroke: #cccccc; stroke-linejoin: miter"/>
    </g>
    <g id="line2d_32">
     <path d="M 733.022922 67.08 
L 745.022922 67.08 
L 757.022922 67.08 
" style="fill: none; stroke: #000000; stroke-opacity: 0.8; stroke-linecap: square"/>
    </g>
    <g id="text_17">
     <!-- Original(Raw) -->
     <g transform="translate(766.622922 71.28) scale(0.12 -0.12)">
      <defs>
       <path id="TimesNewRomanPSMT-4f" d="M 2341 4334 
Q 3166 4334 3770 3707 
Q 4375 3081 4375 2144 
Q 4375 1178 3765 540 
Q 3156 -97 2291 -97 
Q 1416 -97 820 525 
Q 225 1147 225 2134 
Q 225 3144 913 3781 
Q 1509 4334 2341 4334 
z
M 2281 4106 
Q 1713 4106 1369 3684 
Q 941 3159 941 2147 
Q 941 1109 1384 550 
Q 1725 125 2284 125 
Q 2881 125 3270 590 
Q 3659 1056 3659 2059 
Q 3659 3147 3231 3681 
Q 2888 4106 2281 4106 
z
" transform="scale(0.015625)"/>
       <path id="TimesNewRomanPSMT-72" d="M 1038 2947 
L 1038 2303 
Q 1397 2947 1775 2947 
Q 1947 2947 2059 2842 
Q 2172 2738 2172 2600 
Q 2172 2478 2090 2393 
Q 2009 2309 1897 2309 
Q 1788 2309 1652 2417 
Q 1516 2525 1450 2525 
Q 1394 2525 1328 2463 
Q 1188 2334 1038 2041 
L 1038 669 
Q 1038 431 1097 309 
Q 1138 225 1241 169 
Q 1344 113 1538 113 
L 1538 0 
L 72 0 
L 72 113 
Q 291 113 397 181 
Q 475 231 506 341 
Q 522 394 522 644 
L 522 1753 
Q 522 2253 501 2348 
Q 481 2444 426 2487 
Q 372 2531 291 2531 
Q 194 2531 72 2484 
L 41 2597 
L 906 2947 
L 1038 2947 
z
" transform="scale(0.015625)"/>
       <path id="TimesNewRomanPSMT-67" d="M 966 1044 
Q 703 1172 562 1401 
Q 422 1631 422 1909 
Q 422 2334 742 2640 
Q 1063 2947 1563 2947 
Q 1972 2947 2272 2747 
L 2878 2747 
Q 3013 2747 3034 2739 
Q 3056 2731 3066 2713 
Q 3084 2684 3084 2613 
Q 3084 2531 3069 2500 
Q 3059 2484 3036 2475 
Q 3013 2466 2878 2466 
L 2506 2466 
Q 2681 2241 2681 1891 
Q 2681 1491 2375 1206 
Q 2069 922 1553 922 
Q 1341 922 1119 984 
Q 981 866 932 777 
Q 884 688 884 625 
Q 884 572 936 522 
Q 988 472 1138 450 
Q 1225 438 1575 428 
Q 2219 413 2409 384 
Q 2700 344 2873 169 
Q 3047 -6 3047 -263 
Q 3047 -616 2716 -925 
Q 2228 -1381 1444 -1381 
Q 841 -1381 425 -1109 
Q 191 -953 191 -784 
Q 191 -709 225 -634 
Q 278 -519 444 -313 
Q 466 -284 763 25 
Q 600 122 533 198 
Q 466 275 466 372 
Q 466 481 555 628 
Q 644 775 966 1044 
z
M 1509 2797 
Q 1278 2797 1122 2612 
Q 966 2428 966 2047 
Q 966 1553 1178 1281 
Q 1341 1075 1591 1075 
Q 1828 1075 1981 1253 
Q 2134 1431 2134 1813 
Q 2134 2309 1919 2591 
Q 1759 2797 1509 2797 
z
M 934 0 
Q 788 -159 713 -296 
Q 638 -434 638 -550 
Q 638 -700 819 -813 
Q 1131 -1006 1722 -1006 
Q 2284 -1006 2551 -807 
Q 2819 -609 2819 -384 
Q 2819 -222 2659 -153 
Q 2497 -84 2016 -72 
Q 1313 -53 934 0 
z
" transform="scale(0.015625)"/>
       <path id="TimesNewRomanPSMT-28" d="M 1988 -1253 
L 1988 -1369 
Q 1516 -1131 1200 -813 
Q 750 -359 506 256 
Q 263 872 263 1534 
Q 263 2503 741 3301 
Q 1219 4100 1988 4444 
L 1988 4313 
Q 1603 4100 1356 3731 
Q 1109 3363 987 2797 
Q 866 2231 866 1616 
Q 866 947 969 400 
Q 1050 -31 1165 -292 
Q 1281 -553 1476 -793 
Q 1672 -1034 1988 -1253 
z
" transform="scale(0.015625)"/>
       <path id="TimesNewRomanPSMT-52" d="M 4325 0 
L 3194 0 
L 1759 1981 
Q 1600 1975 1500 1975 
Q 1459 1975 1412 1976 
Q 1366 1978 1316 1981 
L 1316 750 
Q 1316 350 1403 253 
Q 1522 116 1759 116 
L 1925 116 
L 1925 0 
L 109 0 
L 109 116 
L 269 116 
Q 538 116 653 291 
Q 719 388 719 750 
L 719 3488 
Q 719 3888 631 3984 
Q 509 4122 269 4122 
L 109 4122 
L 109 4238 
L 1653 4238 
Q 2328 4238 2648 4139 
Q 2969 4041 3192 3777 
Q 3416 3513 3416 3147 
Q 3416 2756 3161 2468 
Q 2906 2181 2372 2063 
L 3247 847 
Q 3547 428 3762 290 
Q 3978 153 4325 116 
L 4325 0 
z
M 1316 2178 
Q 1375 2178 1419 2176 
Q 1463 2175 1491 2175 
Q 2097 2175 2405 2437 
Q 2713 2700 2713 3106 
Q 2713 3503 2464 3751 
Q 2216 4000 1806 4000 
Q 1625 4000 1316 3941 
L 1316 2178 
z
" transform="scale(0.015625)"/>
       <path id="TimesNewRomanPSMT-77" d="M 41 2863 
L 1241 2863 
L 1241 2747 
Q 1075 2734 1023 2687 
Q 972 2641 972 2553 
Q 972 2456 1025 2319 
L 1638 672 
L 2253 2013 
L 2091 2434 
Q 2016 2622 1894 2694 
Q 1825 2738 1638 2747 
L 1638 2863 
L 3000 2863 
L 3000 2747 
Q 2775 2738 2681 2666 
Q 2619 2616 2619 2506 
Q 2619 2444 2644 2378 
L 3294 734 
L 3897 2319 
Q 3959 2488 3959 2588 
Q 3959 2647 3898 2694 
Q 3838 2741 3659 2747 
L 3659 2863 
L 4563 2863 
L 4563 2747 
Q 4291 2706 4163 2378 
L 3206 -88 
L 3078 -88 
L 2363 1741 
L 1528 -88 
L 1413 -88 
L 494 2319 
Q 403 2547 315 2626 
Q 228 2706 41 2747 
L 41 2863 
z
" transform="scale(0.015625)"/>
       <path id="TimesNewRomanPSMT-29" d="M 144 4313 
L 144 4444 
Q 619 4209 934 3891 
Q 1381 3434 1625 2820 
Q 1869 2206 1869 1541 
Q 1869 572 1392 -226 
Q 916 -1025 144 -1369 
L 144 -1253 
Q 528 -1038 776 -670 
Q 1025 -303 1145 264 
Q 1266 831 1266 1447 
Q 1266 2113 1163 2663 
Q 1084 3094 967 3353 
Q 850 3613 656 3853 
Q 463 4094 144 4313 
z
" transform="scale(0.015625)"/>
      </defs>
      <use xlink:href="#TimesNewRomanPSMT-4f"/>
      <use xlink:href="#TimesNewRomanPSMT-72" x="72.216797"/>
      <use xlink:href="#TimesNewRomanPSMT-69" x="105.517578"/>
      <use xlink:href="#TimesNewRomanPSMT-67" x="133.300781"/>
      <use xlink:href="#TimesNewRomanPSMT-69" x="183.300781"/>
      <use xlink:href="#TimesNewRomanPSMT-6e" x="211.083984"/>
      <use xlink:href="#TimesNewRomanPSMT-61" x="261.083984"/>
      <use xlink:href="#TimesNewRomanPSMT-6c" x="305.46875"/>
      <use xlink:href="#TimesNewRomanPSMT-28" x="333.251953"/>
      <use xlink:href="#TimesNewRomanPSMT-52" x="366.552734"/>
      <use xlink:href="#TimesNewRomanPSMT-61" x="433.251953"/>
      <use xlink:href="#TimesNewRomanPSMT-77" x="477.636719"/>
      <use xlink:href="#TimesNewRomanPSMT-29" x="549.853516"/>
     </g>
    </g>
   </g>
  </g>
  <g id="text_18">
   <!-- Radiation Variation - Violet (0.0-0.7) -->
   <g transform="translate(313.68125 19.75) scale(0.16 -0.16)">
    <defs>
     <path id="TimesNewRomanPSMT-64" d="M 2222 322 
Q 2013 103 1813 7 
Q 1613 -88 1381 -88 
Q 913 -88 563 304 
Q 213 697 213 1313 
Q 213 1928 600 2439 
Q 988 2950 1597 2950 
Q 1975 2950 2222 2709 
L 2222 3238 
Q 2222 3728 2198 3840 
Q 2175 3953 2125 3993 
Q 2075 4034 2000 4034 
Q 1919 4034 1784 3984 
L 1744 4094 
L 2597 4444 
L 2738 4444 
L 2738 1134 
Q 2738 631 2761 520 
Q 2784 409 2836 365 
Q 2888 322 2956 322 
Q 3041 322 3181 375 
L 3216 266 
L 2366 -88 
L 2222 -88 
L 2222 322 
z
M 2222 541 
L 2222 2016 
Q 2203 2228 2109 2403 
Q 2016 2578 1861 2667 
Q 1706 2756 1559 2756 
Q 1284 2756 1069 2509 
Q 784 2184 784 1559 
Q 784 928 1059 592 
Q 1334 256 1672 256 
Q 1956 256 2222 541 
z
" transform="scale(0.015625)"/>
     <path id="TimesNewRomanPSMT-2d" d="M 259 1672 
L 1875 1672 
L 1875 1200 
L 259 1200 
L 259 1672 
z
" transform="scale(0.015625)"/>
     <path id="TimesNewRomanPSMT-37" d="M 644 4238 
L 2916 4238 
L 2916 4119 
L 1503 -88 
L 1153 -88 
L 2419 3728 
L 1253 3728 
Q 900 3728 750 3644 
Q 488 3500 328 3200 
L 238 3234 
L 644 4238 
z
" transform="scale(0.015625)"/>
    </defs>
    <use xlink:href="#TimesNewRomanPSMT-52"/>
    <use xlink:href="#TimesNewRomanPSMT-61" x="66.699219"/>
    <use xlink:href="#TimesNewRomanPSMT-64" x="111.083984"/>
    <use xlink:href="#TimesNewRomanPSMT-69" x="161.083984"/>
    <use xlink:href="#TimesNewRomanPSMT-61" x="188.867188"/>
    <use xlink:href="#TimesNewRomanPSMT-74" x="233.251953"/>
    <use xlink:href="#TimesNewRomanPSMT-69" x="261.035156"/>
    <use xlink:href="#TimesNewRomanPSMT-6f" x="288.818359"/>
    <use xlink:href="#TimesNewRomanPSMT-6e" x="338.818359"/>
    <use xlink:href="#TimesNewRomanPSMT-20" x="388.818359"/>
    <use xlink:href="#TimesNewRomanPSMT-56" x="412.068359"/>
    <use xlink:href="#TimesNewRomanPSMT-61" x="473.160156"/>
    <use xlink:href="#TimesNewRomanPSMT-72" x="517.544922"/>
    <use xlink:href="#TimesNewRomanPSMT-69" x="550.845703"/>
    <use xlink:href="#TimesNewRomanPSMT-61" x="578.628906"/>
    <use xlink:href="#TimesNewRomanPSMT-74" x="623.013672"/>
    <use xlink:href="#TimesNewRomanPSMT-69" x="650.796875"/>
    <use xlink:href="#TimesNewRomanPSMT-6f" x="678.580078"/>
    <use xlink:href="#TimesNewRomanPSMT-6e" x="728.580078"/>
    <use xlink:href="#TimesNewRomanPSMT-20" x="778.580078"/>
    <use xlink:href="#TimesNewRomanPSMT-2d" x="803.580078"/>
    <use xlink:href="#TimesNewRomanPSMT-20" x="836.880859"/>
    <use xlink:href="#TimesNewRomanPSMT-56" x="860.130859"/>
    <use xlink:href="#TimesNewRomanPSMT-69" x="926.347656"/>
    <use xlink:href="#TimesNewRomanPSMT-6f" x="954.130859"/>
    <use xlink:href="#TimesNewRomanPSMT-6c" x="1004.130859"/>
    <use xlink:href="#TimesNewRomanPSMT-65" x="1031.914062"/>
    <use xlink:href="#TimesNewRomanPSMT-74" x="1076.298828"/>
    <use xlink:href="#TimesNewRomanPSMT-20" x="1104.082031"/>
    <use xlink:href="#TimesNewRomanPSMT-28" x="1129.082031"/>
    <use xlink:href="#TimesNewRomanPSMT-30" x="1162.382812"/>
    <use xlink:href="#TimesNewRomanPSMT-2e" x="1212.382812"/>
    <use xlink:href="#TimesNewRomanPSMT-30" x="1237.382812"/>
    <use xlink:href="#TimesNewRomanPSMT-2d" x="1287.382812"/>
    <use xlink:href="#TimesNewRomanPSMT-30" x="1320.683594"/>
    <use xlink:href="#TimesNewRomanPSMT-2e" x="1370.683594"/>
    <use xlink:href="#TimesNewRomanPSMT-37" x="1395.683594"/>
    <use xlink:href="#TimesNewRomanPSMT-29" x="1445.683594"/>
   </g>
  </g>
 </g>
 <defs>
  <clipPath id="pc507f7c32a">
   <rect x="32.74" y="52.08" width="814.661672" height="350.6"/>
  </clipPath>
 </defs>
</svg>
