<?xml version="1.0" encoding="utf-8" standalone="no"?>
<!DOCTYPE svg PUBLIC "-//W3C//DTD SVG 1.1//EN"
  "http://www.w3.org/Graphics/SVG/1.1/DTD/svg11.dtd">
<svg xmlns:xlink="http://www.w3.org/1999/xlink" width="864pt" height="432pt" viewBox="0 0 864 432" xmlns="http://www.w3.org/2000/svg" version="1.1">
 <metadata>
  <rdf:RDF xmlns:dc="http://purl.org/dc/elements/1.1/" xmlns:cc="http://creativecommons.org/ns#" xmlns:rdf="http://www.w3.org/1999/02/22-rdf-syntax-ns#">
   <cc:Work>
    <dc:type rdf:resource="http://purl.org/dc/dcmitype/StillImage"/>
    <dc:date>2025-11-30T22:33:46.689132</dc:date>
    <dc:format>image/svg+xml</dc:format>
    <dc:creator>
     <cc:Agent>
      <dc:title>Matplotlib v3.9.1, https://matplotlib.org/</dc:title>
     </cc:Agent>
    </dc:creator>
   </cc:Work>
  </rdf:RDF>
 </metadata>
 <defs>
  <style type="text/css">*{stroke-linejoin: round; stroke-linecap: butt}</style>
 </defs>
 <g id="figure_1">
  <g id="patch_1">
   <path d="M 0 432 
L 864 432 
L 864 0 
L 0 0 
z
" style="fill: #ffffff"/>
  </g>
  <g id="axes_1">
   <g id="patch_2">
    <path d="M 173.41 387.88 
L 817.98 387.88 
L 817.98 29.5575 
L 173.41 29.5575 
z
" style="fill: #ffffff"/>
   </g>
   <g id="patch_3">
    <path d="M 173.41 45.844886 
L 316.647778 45.844886 
L 316.647778 75.458316 
L 173.41 75.458316 
z
" clip-path="url(#p4010bc0077)" style="fill: #1f77b4"/>
   </g>
   <g id="patch_4">
    <path d="M 245.028889 95.200603 
L 388.266667 95.200603 
L 388.266667 124.814032 
L 245.028889 124.814032 
z
" clip-path="url(#p4010bc0077)" style="fill: #ff7f0e"/>
   </g>
   <g id="patch_5">
    <path d="M 245.028889 144.556319 
L 459.885556 144.556319 
L 459.885556 174.169749 
L 245.028889 174.169749 
z
" clip-path="url(#p4010bc0077)" style="fill: #2ca02c"/>
   </g>
   <g id="patch_6">
    <path d="M 316.647778 193.912035 
L 459.885556 193.912035 
L 459.885556 223.525465 
L 316.647778 223.525465 
z
" clip-path="url(#p4010bc0077)" style="fill: #d62728"/>
   </g>
   <g id="patch_7">
    <path d="M 388.266667 243.267751 
L 674.742222 243.267751 
L 674.742222 272.881181 
L 388.266667 272.881181 
z
" clip-path="url(#p4010bc0077)" style="fill: #9467bd"/>
   </g>
   <g id="patch_8">
    <path d="M 603.123333 292.623468 
L 817.98 292.623468 
L 817.98 322.236897 
L 603.123333 322.236897 
z
" clip-path="url(#p4010bc0077)" style="fill: #8c564b"/>
   </g>
   <g id="patch_9">
    <path d="M 674.742222 341.979184 
L 817.98 341.979184 
L 817.98 371.592614 
L 674.742222 371.592614 
z
" clip-path="url(#p4010bc0077)" style="fill: #e377c2"/>
   </g>
   <g id="matplotlib.axis_1">
    <g id="xtick_1">
     <g id="line2d_1">
      <path d="M 173.41 387.88 
L 173.41 29.5575 
" clip-path="url(#p4010bc0077)" style="fill: none; stroke-dasharray: 2.22,0.96; stroke-dashoffset: 0; stroke: #b0b0b0; stroke-opacity: 0.6; stroke-width: 0.6"/>
     </g>
     <g id="line2d_2">
      <defs>
       <path id="med64915830" d="M 0 0 
L 0 3.5 
" style="stroke: #000000; stroke-width: 0.8"/>
      </defs>
      <g>
       <use xlink:href="#med64915830" x="173.41" y="387.88" style="stroke: #000000; stroke-width: 0.8"/>
      </g>
     </g>
     <g id="text_1">
      <!-- 7 -->
      <g transform="translate(170.22875 402.478437) scale(0.1 -0.1)">
       <defs>
        <path id="DejaVuSans-37" d="M 525 4666 
L 3525 4666 
L 3525 4397 
L 1831 0 
L 1172 0 
L 2766 4134 
L 525 4134 
L 525 4666 
z
" transform="scale(0.015625)"/>
       </defs>
       <use xlink:href="#DejaVuSans-37"/>
      </g>
     </g>
    </g>
    <g id="xtick_2">
     <g id="line2d_3">
      <path d="M 245.028889 387.88 
L 245.028889 29.5575 
" clip-path="url(#p4010bc0077)" style="fill: none; stroke-dasharray: 2.22,0.96; stroke-dashoffset: 0; stroke: #b0b0b0; stroke-opacity: 0.6; stroke-width: 0.6"/>
     </g>
     <g id="line2d_4">
      <g>
       <use xlink:href="#med64915830" x="245.028889" y="387.88" style="stroke: #000000; stroke-width: 0.8"/>
      </g>
     </g>
     <g id="text_2">
      <!-- 8 -->
      <g transform="translate(241.847639 402.478437) scale(0.1 -0.1)">
       <defs>
        <path id="DejaVuSans-38" d="M 2034 2216 
Q 1584 2216 1326 1975 
Q 1069 1734 1069 1313 
Q 1069 891 1326 650 
Q 1584 409 2034 409 
Q 2484 409 2743 651 
Q 3003 894 3003 1313 
Q 3003 1734 2745 1975 
Q 2488 2216 2034 2216 
z
M 1403 2484 
Q 997 2584 770 2862 
Q 544 3141 544 3541 
Q 544 4100 942 4425 
Q 1341 4750 2034 4750 
Q 2731 4750 3128 4425 
Q 3525 4100 3525 3541 
Q 3525 3141 3298 2862 
Q 3072 2584 2669 2484 
Q 3125 2378 3379 2068 
Q 3634 1759 3634 1313 
Q 3634 634 3220 271 
Q 2806 -91 2034 -91 
Q 1263 -91 848 271 
Q 434 634 434 1313 
Q 434 1759 690 2068 
Q 947 2378 1403 2484 
z
M 1172 3481 
Q 1172 3119 1398 2916 
Q 1625 2713 2034 2713 
Q 2441 2713 2670 2916 
Q 2900 3119 2900 3481 
Q 2900 3844 2670 4047 
Q 2441 4250 2034 4250 
Q 1625 4250 1398 4047 
Q 1172 3844 1172 3481 
z
" transform="scale(0.015625)"/>
       </defs>
       <use xlink:href="#DejaVuSans-38"/>
      </g>
     </g>
    </g>
    <g id="xtick_3">
     <g id="line2d_5">
      <path d="M 316.647778 387.88 
L 316.647778 29.5575 
" clip-path="url(#p4010bc0077)" style="fill: none; stroke-dasharray: 2.22,0.96; stroke-dashoffset: 0; stroke: #b0b0b0; stroke-opacity: 0.6; stroke-width: 0.6"/>
     </g>
     <g id="line2d_6">
      <g>
       <use xlink:href="#med64915830" x="316.647778" y="387.88" style="stroke: #000000; stroke-width: 0.8"/>
      </g>
     </g>
     <g id="text_3">
      <!-- 9 -->
      <g transform="translate(313.466528 402.478437) scale(0.1 -0.1)">
       <defs>
        <path id="DejaVuSans-39" d="M 703 97 
L 703 672 
Q 941 559 1184 500 
Q 1428 441 1663 441 
Q 2288 441 2617 861 
Q 2947 1281 2994 2138 
Q 2813 1869 2534 1725 
Q 2256 1581 1919 1581 
Q 1219 1581 811 2004 
Q 403 2428 403 3163 
Q 403 3881 828 4315 
Q 1253 4750 1959 4750 
Q 2769 4750 3195 4129 
Q 3622 3509 3622 2328 
Q 3622 1225 3098 567 
Q 2575 -91 1691 -91 
Q 1453 -91 1209 -44 
Q 966 3 703 97 
z
M 1959 2075 
Q 2384 2075 2632 2365 
Q 2881 2656 2881 3163 
Q 2881 3666 2632 3958 
Q 2384 4250 1959 4250 
Q 1534 4250 1286 3958 
Q 1038 3666 1038 3163 
Q 1038 2656 1286 2365 
Q 1534 2075 1959 2075 
z
" transform="scale(0.015625)"/>
       </defs>
       <use xlink:href="#DejaVuSans-39"/>
      </g>
     </g>
    </g>
    <g id="xtick_4">
     <g id="line2d_7">
      <path d="M 388.266667 387.88 
L 388.266667 29.5575 
" clip-path="url(#p4010bc0077)" style="fill: none; stroke-dasharray: 2.22,0.96; stroke-dashoffset: 0; stroke: #b0b0b0; stroke-opacity: 0.6; stroke-width: 0.6"/>
     </g>
     <g id="line2d_8">
      <g>
       <use xlink:href="#med64915830" x="388.266667" y="387.88" style="stroke: #000000; stroke-width: 0.8"/>
      </g>
     </g>
     <g id="text_4">
      <!-- 10 -->
      <g transform="translate(381.904167 402.478437) scale(0.1 -0.1)">
       <defs>
        <path id="DejaVuSans-31" d="M 794 531 
L 1825 531 
L 1825 4091 
L 703 3866 
L 703 4441 
L 1819 4666 
L 2450 4666 
L 2450 531 
L 3481 531 
L 3481 0 
L 794 0 
L 794 531 
z
" transform="scale(0.015625)"/>
        <path id="DejaVuSans-30" d="M 2034 4250 
Q 1547 4250 1301 3770 
Q 1056 3291 1056 2328 
Q 1056 1369 1301 889 
Q 1547 409 2034 409 
Q 2525 409 2770 889 
Q 3016 1369 3016 2328 
Q 3016 3291 2770 3770 
Q 2525 4250 2034 4250 
z
M 2034 4750 
Q 2819 4750 3233 4129 
Q 3647 3509 3647 2328 
Q 3647 1150 3233 529 
Q 2819 -91 2034 -91 
Q 1250 -91 836 529 
Q 422 1150 422 2328 
Q 422 3509 836 4129 
Q 1250 4750 2034 4750 
z
" transform="scale(0.015625)"/>
       </defs>
       <use xlink:href="#DejaVuSans-31"/>
       <use xlink:href="#DejaVuSans-30" x="63.623047"/>
      </g>
     </g>
    </g>
    <g id="xtick_5">
     <g id="line2d_9">
      <path d="M 459.885556 387.88 
L 459.885556 29.5575 
" clip-path="url(#p4010bc0077)" style="fill: none; stroke-dasharray: 2.22,0.96; stroke-dashoffset: 0; stroke: #b0b0b0; stroke-opacity: 0.6; stroke-width: 0.6"/>
     </g>
     <g id="line2d_10">
      <g>
       <use xlink:href="#med64915830" x="459.885556" y="387.88" style="stroke: #000000; stroke-width: 0.8"/>
      </g>
     </g>
     <g id="text_5">
      <!-- 11 -->
      <g transform="translate(453.523056 402.478437) scale(0.1 -0.1)">
       <use xlink:href="#DejaVuSans-31"/>
       <use xlink:href="#DejaVuSans-31" x="63.623047"/>
      </g>
     </g>
    </g>
    <g id="xtick_6">
     <g id="line2d_11">
      <path d="M 531.504444 387.88 
L 531.504444 29.5575 
" clip-path="url(#p4010bc0077)" style="fill: none; stroke-dasharray: 2.22,0.96; stroke-dashoffset: 0; stroke: #b0b0b0; stroke-opacity: 0.6; stroke-width: 0.6"/>
     </g>
     <g id="line2d_12">
      <g>
       <use xlink:href="#med64915830" x="531.504444" y="387.88" style="stroke: #000000; stroke-width: 0.8"/>
      </g>
     </g>
     <g id="text_6">
      <!-- 12 -->
      <g transform="translate(525.141944 402.478437) scale(0.1 -0.1)">
       <defs>
        <path id="DejaVuSans-32" d="M 1228 531 
L 3431 531 
L 3431 0 
L 469 0 
L 469 531 
Q 828 903 1448 1529 
Q 2069 2156 2228 2338 
Q 2531 2678 2651 2914 
Q 2772 3150 2772 3378 
Q 2772 3750 2511 3984 
Q 2250 4219 1831 4219 
Q 1534 4219 1204 4116 
Q 875 4013 500 3803 
L 500 4441 
Q 881 4594 1212 4672 
Q 1544 4750 1819 4750 
Q 2544 4750 2975 4387 
Q 3406 4025 3406 3419 
Q 3406 3131 3298 2873 
Q 3191 2616 2906 2266 
Q 2828 2175 2409 1742 
Q 1991 1309 1228 531 
z
" transform="scale(0.015625)"/>
       </defs>
       <use xlink:href="#DejaVuSans-31"/>
       <use xlink:href="#DejaVuSans-32" x="63.623047"/>
      </g>
     </g>
    </g>
    <g id="xtick_7">
     <g id="line2d_13">
      <path d="M 603.123333 387.88 
L 603.123333 29.5575 
" clip-path="url(#p4010bc0077)" style="fill: none; stroke-dasharray: 2.22,0.96; stroke-dashoffset: 0; stroke: #b0b0b0; stroke-opacity: 0.6; stroke-width: 0.6"/>
     </g>
     <g id="line2d_14">
      <g>
       <use xlink:href="#med64915830" x="603.123333" y="387.88" style="stroke: #000000; stroke-width: 0.8"/>
      </g>
     </g>
     <g id="text_7">
      <!-- 13 -->
      <g transform="translate(596.760833 402.478437) scale(0.1 -0.1)">
       <defs>
        <path id="DejaVuSans-33" d="M 2597 2516 
Q 3050 2419 3304 2112 
Q 3559 1806 3559 1356 
Q 3559 666 3084 287 
Q 2609 -91 1734 -91 
Q 1441 -91 1130 -33 
Q 819 25 488 141 
L 488 750 
Q 750 597 1062 519 
Q 1375 441 1716 441 
Q 2309 441 2620 675 
Q 2931 909 2931 1356 
Q 2931 1769 2642 2001 
Q 2353 2234 1838 2234 
L 1294 2234 
L 1294 2753 
L 1863 2753 
Q 2328 2753 2575 2939 
Q 2822 3125 2822 3475 
Q 2822 3834 2567 4026 
Q 2313 4219 1838 4219 
Q 1578 4219 1281 4162 
Q 984 4106 628 3988 
L 628 4550 
Q 988 4650 1302 4700 
Q 1616 4750 1894 4750 
Q 2613 4750 3031 4423 
Q 3450 4097 3450 3541 
Q 3450 3153 3228 2886 
Q 3006 2619 2597 2516 
z
" transform="scale(0.015625)"/>
       </defs>
       <use xlink:href="#DejaVuSans-31"/>
       <use xlink:href="#DejaVuSans-33" x="63.623047"/>
      </g>
     </g>
    </g>
    <g id="xtick_8">
     <g id="line2d_15">
      <path d="M 674.742222 387.88 
L 674.742222 29.5575 
" clip-path="url(#p4010bc0077)" style="fill: none; stroke-dasharray: 2.22,0.96; stroke-dashoffset: 0; stroke: #b0b0b0; stroke-opacity: 0.6; stroke-width: 0.6"/>
     </g>
     <g id="line2d_16">
      <g>
       <use xlink:href="#med64915830" x="674.742222" y="387.88" style="stroke: #000000; stroke-width: 0.8"/>
      </g>
     </g>
     <g id="text_8">
      <!-- 14 -->
      <g transform="translate(668.379722 402.478437) scale(0.1 -0.1)">
       <defs>
        <path id="DejaVuSans-34" d="M 2419 4116 
L 825 1625 
L 2419 1625 
L 2419 4116 
z
M 2253 4666 
L 3047 4666 
L 3047 1625 
L 3713 1625 
L 3713 1100 
L 3047 1100 
L 3047 0 
L 2419 0 
L 2419 1100 
L 313 1100 
L 313 1709 
L 2253 4666 
z
" transform="scale(0.015625)"/>
       </defs>
       <use xlink:href="#DejaVuSans-31"/>
       <use xlink:href="#DejaVuSans-34" x="63.623047"/>
      </g>
     </g>
    </g>
    <g id="xtick_9">
     <g id="line2d_17">
      <path d="M 746.361111 387.88 
L 746.361111 29.5575 
" clip-path="url(#p4010bc0077)" style="fill: none; stroke-dasharray: 2.22,0.96; stroke-dashoffset: 0; stroke: #b0b0b0; stroke-opacity: 0.6; stroke-width: 0.6"/>
     </g>
     <g id="line2d_18">
      <g>
       <use xlink:href="#med64915830" x="746.361111" y="387.88" style="stroke: #000000; stroke-width: 0.8"/>
      </g>
     </g>
     <g id="text_9">
      <!-- 15 -->
      <g transform="translate(739.998611 402.478437) scale(0.1 -0.1)">
       <defs>
        <path id="DejaVuSans-35" d="M 691 4666 
L 3169 4666 
L 3169 4134 
L 1269 4134 
L 1269 2991 
Q 1406 3038 1543 3061 
Q 1681 3084 1819 3084 
Q 2600 3084 3056 2656 
Q 3513 2228 3513 1497 
Q 3513 744 3044 326 
Q 2575 -91 1722 -91 
Q 1428 -91 1123 -41 
Q 819 9 494 109 
L 494 744 
Q 775 591 1075 516 
Q 1375 441 1709 441 
Q 2250 441 2565 725 
Q 2881 1009 2881 1497 
Q 2881 1984 2565 2268 
Q 2250 2553 1709 2553 
Q 1456 2553 1204 2497 
Q 953 2441 691 2322 
L 691 4666 
z
" transform="scale(0.015625)"/>
       </defs>
       <use xlink:href="#DejaVuSans-31"/>
       <use xlink:href="#DejaVuSans-35" x="63.623047"/>
      </g>
     </g>
    </g>
    <g id="xtick_10">
     <g id="line2d_19">
      <path d="M 817.98 387.88 
L 817.98 29.5575 
" clip-path="url(#p4010bc0077)" style="fill: none; stroke-dasharray: 2.22,0.96; stroke-dashoffset: 0; stroke: #b0b0b0; stroke-opacity: 0.6; stroke-width: 0.6"/>
     </g>
     <g id="line2d_20">
      <g>
       <use xlink:href="#med64915830" x="817.98" y="387.88" style="stroke: #000000; stroke-width: 0.8"/>
      </g>
     </g>
     <g id="text_10">
      <!-- 16 -->
      <g transform="translate(811.6175 402.478437) scale(0.1 -0.1)">
       <defs>
        <path id="DejaVuSans-36" d="M 2113 2584 
Q 1688 2584 1439 2293 
Q 1191 2003 1191 1497 
Q 1191 994 1439 701 
Q 1688 409 2113 409 
Q 2538 409 2786 701 
Q 3034 994 3034 1497 
Q 3034 2003 2786 2293 
Q 2538 2584 2113 2584 
z
M 3366 4563 
L 3366 3988 
Q 3128 4100 2886 4159 
Q 2644 4219 2406 4219 
Q 1781 4219 1451 3797 
Q 1122 3375 1075 2522 
Q 1259 2794 1537 2939 
Q 1816 3084 2150 3084 
Q 2853 3084 3261 2657 
Q 3669 2231 3669 1497 
Q 3669 778 3244 343 
Q 2819 -91 2113 -91 
Q 1303 -91 875 529 
Q 447 1150 447 2328 
Q 447 3434 972 4092 
Q 1497 4750 2381 4750 
Q 2619 4750 2861 4703 
Q 3103 4656 3366 4563 
z
" transform="scale(0.015625)"/>
       </defs>
       <use xlink:href="#DejaVuSans-31"/>
       <use xlink:href="#DejaVuSans-36" x="63.623047"/>
      </g>
     </g>
    </g>
    <g id="text_11">
     <!-- Week number -->
     <g transform="translate(457.195 418.565937) scale(0.14 -0.14)">
      <defs>
       <path id="SimSun-57" d="M 3150 4375 
L 3150 4225 
L 3050 4225 
Q 3000 4225 2937 4175 
Q 2875 4125 2850 4000 
L 2175 100 
L 2025 100 
L 1625 2750 
L 1575 2750 
L 1050 100 
L 900 100 
L 300 4025 
Q 300 4125 262 4175 
Q 225 4225 150 4225 
L 50 4225 
L 50 4375 
L 925 4375 
L 925 4225 
L 850 4225 
Q 750 4225 700 4175 
Q 650 4125 650 4025 
L 1050 1275 
L 1100 1275 
L 1525 3350 
L 1450 4025 
Q 1450 4125 1387 4175 
Q 1325 4225 1275 4225 
L 1200 4225 
L 1200 4375 
L 2050 4375 
L 2050 4225 
L 1975 4225 
Q 1875 4225 1837 4175 
Q 1800 4125 1800 4025 
L 2175 1350 
L 2225 1350 
L 2675 3975 
Q 2700 4100 2637 4162 
Q 2575 4225 2475 4225 
L 2400 4225 
L 2400 4375 
L 3150 4375 
z
M 1775 4225 
L 1775 4225 
z
M 1425 4225 
L 1425 4225 
z
M 2900 4225 
L 2900 4225 
z
M 2725 4225 
L 2725 4225 
z
M 625 4225 
L 625 4225 
z
M 275 4225 
L 275 4225 
z
" transform="scale(0.015625)"/>
       <path id="SimSun-65" d="M 2400 1650 
Q 2425 2200 2212 2487 
Q 2000 2775 1650 2775 
Q 1275 2775 1037 2475 
Q 800 2175 800 1650 
L 2400 1650 
z
M 800 1500 
Q 800 825 1062 537 
Q 1325 250 1750 250 
Q 2075 250 2300 437 
Q 2525 625 2625 900 
L 2750 850 
Q 2675 575 2412 312 
Q 2150 50 1700 50 
Q 1125 50 762 425 
Q 400 800 400 1500 
Q 400 2125 762 2537 
Q 1125 2950 1650 2950 
Q 2125 2950 2475 2625 
Q 2825 2300 2825 1500 
L 800 1500 
z
" transform="scale(0.015625)"/>
       <path id="SimSun-6b" d="M 1675 1900 
L 2625 425 
Q 2700 325 2762 287 
Q 2825 250 2900 250 
L 3000 250 
L 3000 100 
L 1975 100 
L 1975 250 
L 2050 250 
Q 2175 250 2225 287 
Q 2275 325 2200 425 
L 1425 1650 
L 925 1125 
L 925 450 
Q 925 350 987 300 
Q 1050 250 1150 250 
L 1275 250 
L 1275 100 
L 225 100 
L 225 250 
L 350 250 
Q 475 250 525 300 
Q 575 350 575 450 
L 575 4025 
Q 575 4125 525 4175 
Q 475 4225 350 4225 
L 200 4225 
L 200 4375 
L 425 4375 
Q 575 4375 687 4425 
Q 800 4475 875 4575 
L 925 4575 
L 925 1400 
L 1975 2525 
Q 2025 2625 2012 2687 
Q 2000 2750 1900 2750 
L 1750 2750 
L 1750 2900 
L 2800 2900 
L 2800 2750 
L 2675 2750 
Q 2600 2750 2487 2712 
Q 2375 2675 2275 2575 
L 1675 1900 
z
M 2450 2750 
L 2450 2750 
z
M 2175 2750 
L 2175 2750 
z
M 2300 250 
L 2300 250 
z
M 2750 250 
L 2750 250 
z
" transform="scale(0.015625)"/>
       <path id="SimSun-20" d="M 0 0 
Q 0 0 0 0 
z
" transform="scale(0.015625)"/>
       <path id="SimSun-6e" d="M 200 100 
L 200 250 
L 325 250 
Q 450 250 500 300 
Q 550 350 550 450 
L 550 2600 
Q 550 2675 525 2712 
Q 500 2750 425 2750 
L 225 2750 
L 225 2900 
L 400 2900 
Q 525 2900 637 2925 
Q 750 2950 850 3025 
L 900 3025 
L 900 2450 
Q 1125 2700 1350 2825 
Q 1575 2950 1825 2950 
Q 2250 2950 2450 2725 
Q 2650 2500 2650 2050 
L 2650 450 
Q 2650 350 2712 300 
Q 2775 250 2875 250 
L 3000 250 
L 3000 100 
L 1950 100 
L 1950 250 
L 2075 250 
Q 2200 250 2250 300 
Q 2300 350 2300 450 
L 2300 2125 
Q 2300 2425 2175 2587 
Q 2050 2750 1800 2750 
Q 1575 2750 1337 2600 
Q 1100 2450 900 2175 
L 900 450 
Q 900 350 962 300 
Q 1025 250 1125 250 
L 1250 250 
L 1250 100 
L 200 100 
z
" transform="scale(0.015625)"/>
       <path id="SimSun-75" d="M 1450 325 
Q 1750 325 1962 475 
Q 2175 625 2275 950 
L 2275 2525 
Q 2275 2625 2225 2687 
Q 2175 2750 2050 2750 
L 1900 2750 
L 1900 2900 
L 2050 2900 
Q 2200 2900 2325 2925 
Q 2450 2950 2575 3050 
L 2625 3050 
L 2625 600 
Q 2625 500 2687 450 
Q 2750 400 2850 400 
L 3000 400 
L 3000 250 
L 2850 250 
Q 2725 250 2600 212 
Q 2475 175 2325 100 
L 2275 100 
L 2275 625 
Q 2150 350 1900 212 
Q 1650 75 1325 75 
Q 925 75 725 300 
Q 525 525 525 1025 
L 525 2525 
Q 525 2625 475 2687 
Q 425 2750 300 2750 
L 150 2750 
L 150 2900 
L 300 2900 
Q 450 2900 575 2925 
Q 700 2950 825 3050 
L 875 3050 
L 875 975 
Q 875 625 1025 475 
Q 1175 325 1450 325 
z
" transform="scale(0.015625)"/>
       <path id="SimSun-6d" d="M 175 2900 
Q 300 2900 425 2925 
Q 550 2950 625 3000 
L 675 3000 
L 675 2575 
Q 800 2775 950 2862 
Q 1100 2950 1275 2950 
Q 1500 2950 1625 2862 
Q 1750 2775 1775 2575 
Q 1900 2775 2062 2862 
Q 2225 2950 2400 2950 
Q 2700 2950 2812 2775 
Q 2925 2600 2925 2325 
L 2925 425 
Q 2925 325 2975 287 
Q 3025 250 3125 250 
L 3175 250 
L 3175 100 
L 2325 100 
L 2325 250 
L 2375 250 
Q 2475 250 2525 287 
Q 2575 325 2575 425 
L 2575 2300 
Q 2575 2575 2512 2662 
Q 2450 2750 2325 2750 
Q 2150 2750 2012 2625 
Q 1875 2500 1800 2275 
L 1800 425 
Q 1800 325 1850 287 
Q 1900 250 2000 250 
L 2050 250 
L 2050 100 
L 1200 100 
L 1200 250 
L 1250 250 
Q 1350 250 1400 287 
Q 1450 325 1450 425 
L 1450 2300 
Q 1450 2525 1400 2637 
Q 1350 2750 1200 2750 
Q 1025 2750 887 2625 
Q 750 2500 675 2250 
L 675 425 
Q 675 325 725 287 
Q 775 250 875 250 
L 925 250 
L 925 100 
L 75 100 
L 75 250 
L 125 250 
Q 225 250 275 287 
Q 325 325 325 425 
L 325 2600 
Q 325 2675 300 2712 
Q 275 2750 200 2750 
L 100 2750 
L 100 2900 
L 175 2900 
z
" transform="scale(0.015625)"/>
       <path id="SimSun-62" d="M 875 2325 
Q 1000 2600 1275 2762 
Q 1550 2925 1800 2925 
Q 2325 2925 2587 2562 
Q 2850 2200 2850 1500 
Q 2850 800 2512 437 
Q 2175 75 1675 75 
Q 1425 75 1212 162 
Q 1000 250 850 400 
L 625 100 
L 525 100 
L 525 4025 
Q 525 4125 475 4175 
Q 425 4225 300 4225 
L 150 4225 
L 150 4375 
L 375 4375 
Q 500 4375 625 4425 
Q 750 4475 875 4575 
L 875 2325 
z
M 875 925 
Q 875 650 1062 450 
Q 1250 250 1625 250 
Q 2075 250 2262 562 
Q 2450 875 2450 1500 
Q 2450 2100 2287 2412 
Q 2125 2725 1775 2725 
Q 1475 2725 1250 2550 
Q 1025 2375 875 1925 
L 875 925 
z
" transform="scale(0.015625)"/>
       <path id="SimSun-72" d="M 1275 2125 
Q 1525 2525 1812 2737 
Q 2100 2950 2400 2950 
Q 2650 2950 2787 2837 
Q 2925 2725 2925 2575 
Q 2925 2450 2862 2375 
Q 2800 2300 2675 2300 
Q 2550 2300 2487 2375 
Q 2425 2450 2450 2575 
Q 2450 2650 2425 2700 
Q 2400 2750 2275 2750 
Q 2075 2750 1787 2500 
Q 1500 2250 1275 1800 
L 1275 450 
Q 1275 350 1337 300 
Q 1400 250 1500 250 
L 2050 250 
L 2050 100 
L 200 100 
L 200 250 
L 700 250 
Q 825 250 875 300 
Q 925 350 925 450 
L 925 2525 
Q 925 2625 875 2687 
Q 825 2750 700 2750 
L 225 2750 
L 225 2900 
L 425 2900 
Q 600 2900 837 2937 
Q 1075 2975 1200 3025 
L 1275 3025 
L 1275 2125 
z
" transform="scale(0.015625)"/>
      </defs>
      <use xlink:href="#SimSun-57"/>
      <use xlink:href="#SimSun-65" x="50"/>
      <use xlink:href="#SimSun-65" x="100"/>
      <use xlink:href="#SimSun-6b" x="150"/>
      <use xlink:href="#SimSun-20" x="200"/>
      <use xlink:href="#SimSun-6e" x="250"/>
      <use xlink:href="#SimSun-75" x="300"/>
      <use xlink:href="#SimSun-6d" x="350"/>
      <use xlink:href="#SimSun-62" x="400"/>
      <use xlink:href="#SimSun-65" x="450"/>
      <use xlink:href="#SimSun-72" x="500"/>
     </g>
    </g>
   </g>
   <g id="matplotlib.axis_2">
    <g id="ytick_1">
     <g id="line2d_21">
      <defs>
       <path id="m3396800428" d="M 0 0 
L -3.5 0 
" style="stroke: #000000; stroke-width: 0.8"/>
      </defs>
      <g>
       <use xlink:href="#m3396800428" x="173.41" y="60.651601" style="stroke: #000000; stroke-width: 0.8"/>
      </g>
     </g>
     <g id="text_12">
      <!-- 方案初始化 -->
      <g transform="translate(106.41 65.409414) scale(0.12 -0.12)">
       <defs>
        <path id="SimSun-65b9" d="M 275 3925 
L 5250 3925 
L 5625 4300 
L 6150 3775 
L 3075 3775 
Q 3050 3300 2950 2675 
L 4575 2675 
L 4825 2925 
L 5225 2550 
L 4975 2400 
Q 4725 475 4625 125 
Q 4525 -225 4312 -362 
Q 4100 -500 3725 -600 
Q 3625 -200 2900 100 
L 2925 200 
Q 3600 0 3812 -12 
Q 4025 -25 4137 75 
Q 4250 175 4350 712 
Q 4450 1250 4600 2525 
L 2925 2525 
Q 2500 350 475 -575 
L 425 -475 
Q 2675 800 2675 3775 
L 1100 3775 
Q 775 3775 500 3700 
L 275 3925 
z
M 2675 5150 
Q 3325 4900 3437 4725 
Q 3550 4550 3550 4450 
Q 3550 4350 3450 4212 
Q 3350 4075 3325 4075 
Q 3225 4075 3125 4350 
Q 2975 4725 2625 5075 
L 2675 5150 
z
" transform="scale(0.015625)"/>
        <path id="SimSun-6848" d="M 2675 5250 
Q 3200 5075 3300 4962 
Q 3400 4850 3400 4750 
Q 3400 4625 3337 4525 
Q 3275 4425 3225 4425 
Q 3150 4425 3075 4625 
Q 2925 4925 2650 5175 
L 2675 5250 
z
M 4900 3725 
L 5125 4225 
L 2850 4225 
L 3150 4000 
L 2950 3900 
L 2625 3475 
L 4950 3475 
L 5300 3825 
L 5800 3325 
L 4425 3325 
Q 4075 2850 3750 2575 
Q 4475 2425 4812 2275 
Q 5150 2125 5137 1925 
Q 5125 1725 5050 1725 
Q 4975 1725 4900 1775 
Q 4650 1900 4337 2062 
Q 4025 2225 3550 2375 
Q 2700 1800 850 1675 
L 850 1775 
Q 2400 1975 3225 2475 
Q 2700 2600 1725 2725 
Q 1975 3025 2200 3325 
L 1025 3325 
L 800 3275 
L 600 3475 
L 2275 3475 
Q 2625 4025 2700 4225 
L 1250 4225 
Q 1250 3850 1112 3737 
Q 975 3625 875 3625 
Q 775 3625 687 3675 
Q 600 3725 600 3750 
Q 600 3850 775 3950 
Q 1025 4125 1150 4625 
L 1250 4625 
L 1250 4375 
L 5100 4375 
L 5325 4625 
L 5750 4225 
Q 5600 4225 5412 4087 
Q 5225 3950 4975 3675 
L 4900 3725 
z
M 2550 3325 
Q 2375 3100 2150 2800 
Q 2700 2750 3425 2650 
Q 3725 2925 4000 3325 
L 2550 3325 
z
M 3025 -625 
Q 3050 225 3050 1125 
Q 2075 -50 325 -550 
L 300 -450 
Q 1800 125 2650 1200 
L 925 1200 
L 650 1150 
L 450 1350 
L 3050 1350 
Q 3050 1625 3025 2000 
L 3625 1750 
L 3400 1600 
L 3400 1350 
L 5125 1350 
L 5500 1725 
L 6025 1200 
L 3600 1200 
Q 4500 125 6075 25 
L 6075 -75 
Q 5700 -150 5600 -425 
Q 4125 50 3475 1200 
L 3400 1200 
Q 3400 50 3425 -425 
L 3025 -625 
z
" transform="scale(0.015625)"/>
        <path id="SimSun-521d" d="M 2850 4300 
L 5450 4300 
L 5675 4550 
L 6050 4225 
L 5825 4050 
Q 5625 250 5437 -87 
Q 5250 -425 4825 -550 
Q 4675 -175 4000 0 
L 4000 125 
Q 4850 25 4937 37 
Q 5025 50 5137 187 
Q 5250 325 5475 4150 
L 4100 4150 
Q 4075 3050 3937 2212 
Q 3800 1375 3387 687 
Q 2975 0 2175 -500 
L 2125 -425 
Q 2825 200 3162 825 
Q 3500 1450 3612 2287 
Q 3725 3125 3750 4150 
L 3375 4150 
L 3050 4100 
L 2850 4300 
z
M 1325 5275 
Q 2050 4850 2062 4625 
Q 2075 4400 1975 4312 
Q 1875 4225 1825 4225 
Q 1725 4225 1675 4450 
Q 1575 4750 1250 5200 
L 1325 5275 
z
M 1875 2250 
Q 1950 2225 2125 2175 
Q 2575 2875 2725 3200 
L 3125 2850 
Q 2925 2775 2700 2587 
Q 2475 2400 2250 2125 
Q 2825 1900 2862 1787 
Q 2900 1675 2900 1575 
Q 2900 1425 2850 1337 
Q 2800 1250 2775 1250 
Q 2700 1250 2600 1450 
Q 2425 1700 1875 2125 
L 1875 325 
Q 1875 25 1900 -425 
L 1525 -575 
Q 1550 275 1550 700 
L 1550 2525 
Q 950 1850 275 1425 
L 225 1500 
Q 800 2000 1262 2587 
Q 1725 3175 2100 3875 
L 1150 3875 
Q 825 3875 550 3800 
L 325 4025 
L 2100 4025 
L 2325 4250 
L 2700 3875 
L 2450 3750 
Q 2100 3275 1875 2950 
L 1875 2250 
z
" transform="scale(0.015625)"/>
        <path id="SimSun-59cb" d="M 3600 1800 
L 3600 150 
L 5250 150 
L 5250 1800 
L 3600 1800 
z
M 4025 5250 
L 4575 4900 
L 4350 4775 
Q 3575 3375 3275 3025 
Q 3875 3050 5450 3100 
Q 5200 3575 4775 4025 
L 4850 4100 
Q 5850 3425 5912 3250 
Q 5975 3075 5975 2950 
Q 5975 2775 5875 2650 
Q 5775 2525 5725 2525 
Q 5675 2525 5650 2625 
Q 5575 2800 5500 2975 
Q 4425 2900 3887 2787 
Q 3350 2675 3150 2500 
L 2850 3025 
Q 3125 3125 3437 3700 
Q 3750 4275 4025 5250 
z
M 5600 1700 
Q 5600 -50 5625 -325 
L 5250 -500 
L 5250 0 
L 3600 0 
L 3600 -400 
L 3225 -550 
Q 3250 -175 3250 762 
Q 3250 1700 3225 2175 
L 3600 1950 
L 5200 1950 
L 5375 2200 
L 5800 1875 
L 5600 1700 
z
M 1500 3525 
Q 1325 2950 900 1500 
Q 1350 1350 1725 1200 
Q 2100 2050 2325 3525 
L 1500 3525 
z
M 2050 4925 
L 1825 4775 
Q 1725 4450 1525 3675 
L 2300 3675 
L 2475 3900 
L 2875 3575 
L 2675 3425 
Q 2400 1925 2050 1075 
Q 2525 825 2625 700 
Q 2725 575 2725 375 
Q 2725 250 2700 137 
Q 2675 25 2650 25 
Q 2575 25 2450 225 
Q 2225 550 1925 800 
Q 1300 -100 375 -600 
L 325 -525 
Q 1200 175 1625 950 
Q 1000 1300 575 1450 
Q 875 2450 1150 3525 
L 1100 3525 
Q 775 3525 500 3450 
L 275 3675 
L 1175 3675 
Q 1425 4750 1475 5200 
L 2050 4925 
z
" transform="scale(0.015625)"/>
        <path id="SimSun-5316" d="M 1375 -600 
Q 1400 200 1400 925 
L 1400 3125 
Q 850 2300 350 1775 
L 275 1850 
Q 825 2625 1300 3650 
Q 1775 4675 1900 5200 
L 2450 4875 
L 2200 4725 
Q 1875 4000 1600 3475 
L 1950 3275 
L 1750 3075 
L 1750 350 
Q 1750 75 1775 -400 
L 1375 -600 
z
M 3450 2125 
L 3450 3925 
Q 3450 4475 3425 5200 
L 4000 4925 
L 3800 4725 
L 3800 2400 
Q 4150 2725 4562 3225 
Q 4975 3725 5150 4025 
L 5600 3600 
L 5325 3525 
Q 4600 2700 3800 2000 
L 3800 425 
Q 3800 0 4225 0 
L 5300 0 
Q 5500 0 5550 325 
Q 5600 650 5600 1325 
L 5725 1325 
Q 5775 650 5850 425 
Q 5925 200 6125 125 
Q 5900 -325 5400 -325 
L 4075 -325 
Q 3450 -325 3450 250 
L 3450 1775 
Q 2800 1275 1950 925 
L 1925 1025 
Q 2800 1525 3450 2125 
z
" transform="scale(0.015625)"/>
       </defs>
       <use xlink:href="#SimSun-65b9"/>
       <use xlink:href="#SimSun-6848" x="100"/>
       <use xlink:href="#SimSun-521d" x="200"/>
       <use xlink:href="#SimSun-59cb" x="300"/>
       <use xlink:href="#SimSun-5316" x="400"/>
      </g>
     </g>
    </g>
    <g id="ytick_2">
     <g id="line2d_22">
      <g>
       <use xlink:href="#m3396800428" x="173.41" y="110.007317" style="stroke: #000000; stroke-width: 0.8"/>
      </g>
     </g>
     <g id="text_13">
      <!-- 设备购买 -->
      <g transform="translate(118.41 114.741692) scale(0.12 -0.12)">
       <defs>
        <path id="SimSun-8bbe" d="M 1025 5050 
L 1100 5100 
Q 1500 4850 1662 4675 
Q 1825 4500 1812 4337 
Q 1800 4175 1687 4075 
Q 1575 3975 1550 3975 
Q 1450 3975 1400 4225 
Q 1325 4575 1025 5050 
z
M 1725 650 
L 2675 1500 
L 2750 1425 
Q 2350 975 2087 625 
Q 1825 275 1625 -50 
L 1250 300 
Q 1400 450 1375 650 
L 1375 2950 
L 1050 2950 
Q 850 2950 575 2875 
L 350 3100 
L 1350 3100 
L 1525 3350 
L 1975 3025 
L 1725 2850 
L 1725 650 
z
M 3225 2450 
Q 3575 1350 4025 900 
Q 4500 1500 4800 2450 
L 3225 2450 
z
M 2550 2600 
L 4775 2600 
L 4975 2850 
L 5425 2450 
L 5175 2325 
Q 4800 1325 4275 650 
Q 5000 75 6100 -25 
L 6100 -100 
Q 5600 -225 5575 -475 
Q 4700 -175 4050 450 
Q 3000 -400 1575 -600 
L 1550 -525 
Q 3150 -50 3800 700 
Q 3275 1475 3100 2450 
L 2975 2450 
L 2750 2400 
L 2550 2600 
z
M 4850 3600 
Q 4850 3350 5125 3350 
Q 5400 3350 5650 3425 
Q 5875 3475 5950 3337 
Q 6025 3200 6025 3125 
Q 6025 3075 5962 3062 
Q 5900 3050 5300 3050 
L 4900 3050 
Q 4450 3050 4475 3450 
L 4475 4700 
L 3375 4700 
Q 3400 3850 3125 3337 
Q 2850 2825 1975 2375 
L 1925 2450 
Q 2725 3075 2862 3537 
Q 3000 4000 3000 4350 
Q 3000 4700 2975 5050 
L 3375 4850 
L 4450 4850 
L 4625 5100 
L 5050 4775 
L 4850 4625 
L 4850 3600 
z
" transform="scale(0.015625)"/>
        <path id="SimSun-5907" d="M 1600 -600 
Q 1625 0 1625 400 
L 1625 1800 
Q 1050 1575 350 1400 
L 325 1500 
Q 1425 1900 2025 2250 
Q 2625 2600 3000 2950 
Q 2575 3475 2275 4200 
Q 1750 3350 925 2850 
L 850 2925 
Q 1475 3500 1825 4125 
Q 2175 4750 2325 5250 
L 2850 4900 
L 2650 4775 
L 2475 4525 
L 4250 4525 
L 4475 4775 
L 4900 4400 
L 4625 4250 
Q 3975 3350 3450 2925 
Q 4050 2450 4725 2237 
Q 5400 2025 6100 1975 
L 6100 1900 
Q 5750 1825 5600 1550 
Q 5200 1675 5000 1750 
L 4900 1650 
L 4900 350 
Q 4900 -50 4925 -400 
L 4550 -550 
L 4550 -175 
L 1975 -175 
L 1975 -475 
L 1600 -600 
z
M 2400 4375 
L 2350 4325 
Q 2725 3625 3225 3150 
Q 3750 3650 4225 4375 
L 2400 4375 
z
M 3225 2725 
Q 2625 2250 1925 1925 
L 2000 1875 
L 4500 1875 
L 4575 1875 
Q 3800 2225 3225 2725 
z
M 1975 1725 
L 1975 900 
L 3125 900 
L 3125 1725 
L 1975 1725 
z
M 3450 1725 
L 3450 900 
L 4550 900 
L 4550 1725 
L 3450 1725 
z
M 1975 750 
L 1975 -25 
L 3125 -25 
L 3125 750 
L 1975 750 
z
M 3450 750 
L 3450 -25 
L 4550 -25 
L 4550 750 
L 3450 750 
z
" transform="scale(0.015625)"/>
        <path id="SimSun-8d2d" d="M 1900 1000 
Q 2825 550 2937 350 
Q 3050 150 3050 50 
Q 3050 -75 2975 -175 
Q 2900 -275 2850 -275 
Q 2775 -275 2700 -75 
Q 2550 225 2300 500 
Q 2050 775 1875 925 
L 1900 1000 
z
M 625 1100 
Q 650 2025 650 3025 
Q 650 4025 625 4850 
L 975 4675 
L 2325 4675 
L 2550 4900 
L 2875 4575 
L 2675 4425 
L 2675 2025 
Q 2675 1800 2700 1300 
L 2350 1125 
L 2350 4525 
L 975 4525 
L 975 1250 
L 625 1100 
z
M 200 -550 
Q 1525 500 1500 2375 
Q 1500 3575 1475 3925 
L 2025 3650 
L 1825 3475 
L 1825 2350 
Q 1875 375 250 -625 
L 200 -550 
z
M 3750 3875 
Q 3375 3075 2825 2500 
L 2750 2550 
Q 3125 3125 3400 3837 
Q 3675 4550 3775 5250 
L 4350 4975 
L 4125 4825 
Q 3950 4425 3800 4025 
L 5475 4025 
L 5725 4275 
L 6075 3925 
L 5875 3775 
Q 5825 2025 5775 1150 
Q 5725 275 5562 -50 
Q 5400 -375 4975 -550 
Q 4825 -150 4150 25 
L 4175 125 
Q 4725 25 5000 25 
Q 5125 25 5212 62 
Q 5300 100 5375 475 
Q 5450 850 5475 1737 
Q 5500 2625 5525 3875 
L 3750 3875 
z
M 3300 1275 
L 4675 1375 
Q 4500 1725 4300 2025 
L 4350 2100 
Q 4975 1625 5050 1462 
Q 5125 1300 5125 1200 
Q 5125 1075 5025 975 
Q 4925 875 4875 875 
Q 4825 875 4825 950 
Q 4775 1100 4700 1300 
Q 3525 1025 3275 825 
L 2975 1300 
Q 3275 1325 3562 2087 
Q 3850 2850 3900 3225 
L 4425 2950 
L 4200 2800 
Q 3750 1750 3300 1275 
z
" transform="scale(0.015625)"/>
        <path id="SimSun-4e70" d="M 4675 3625 
L 5200 4575 
L 1725 4575 
Q 1400 4575 1125 4500 
L 900 4725 
L 5150 4725 
L 5400 5000 
L 5925 4475 
Q 5500 4500 4750 3575 
L 4675 3625 
z
M 1700 4225 
Q 2625 3825 2712 3675 
Q 2800 3525 2800 3450 
Q 2800 3350 2725 3212 
Q 2650 3075 2625 3075 
Q 2550 3075 2425 3325 
Q 2225 3700 1650 4150 
L 1700 4225 
z
M 1100 3250 
Q 1725 2950 1975 2750 
Q 2225 2550 2225 2375 
Q 2225 2275 2162 2137 
Q 2100 2000 2050 2000 
Q 1950 2000 1825 2275 
Q 1625 2675 1050 3175 
L 1100 3250 
z
M 3775 3800 
Q 3750 2200 3675 1750 
L 5200 1750 
L 5575 2100 
L 6050 1600 
L 3650 1600 
Q 3400 775 2637 212 
Q 1875 -350 525 -625 
L 525 -500 
Q 1625 -225 2350 350 
Q 3075 925 3275 1600 
L 1325 1600 
Q 1000 1600 725 1525 
L 500 1750 
L 3300 1750 
Q 3400 2350 3400 4275 
L 4025 4000 
L 3775 3800 
z
M 3600 1150 
Q 4750 675 5237 425 
Q 5725 175 5662 -150 
Q 5600 -475 5525 -475 
Q 5425 -475 5250 -250 
Q 4925 175 3550 1075 
L 3600 1150 
z
" transform="scale(0.015625)"/>
       </defs>
       <use xlink:href="#SimSun-8bbe"/>
       <use xlink:href="#SimSun-5907" x="100"/>
       <use xlink:href="#SimSun-8d2d" x="200"/>
       <use xlink:href="#SimSun-4e70" x="300"/>
      </g>
     </g>
    </g>
    <g id="ytick_3">
     <g id="line2d_23">
      <g>
       <use xlink:href="#m3396800428" x="173.41" y="159.363034" style="stroke: #000000; stroke-width: 0.8"/>
      </g>
     </g>
     <g id="text_14">
      <!-- 自动化采集脚本的开发与验证 -->
      <g transform="translate(10.41 164.167721) scale(0.12 -0.12)">
       <defs>
        <path id="SimSun-81ea" d="M 5075 25 
Q 5075 -225 5100 -475 
L 4700 -625 
L 4700 -100 
L 1700 -100 
L 1700 -500 
L 1300 -625 
Q 1325 -200 1325 1825 
Q 1325 3850 1300 4250 
L 1700 4025 
L 2450 4025 
Q 2725 4650 2825 5225 
L 3425 4950 
Q 3200 4825 2962 4512 
Q 2725 4200 2625 4025 
L 4650 4025 
L 4850 4325 
L 5325 3975 
L 5075 3775 
L 5075 25 
z
M 1700 3875 
L 1700 2775 
L 4700 2775 
L 4700 3875 
L 1700 3875 
z
M 1700 2625 
L 1700 1375 
L 4700 1375 
L 4700 2625 
L 1700 2625 
z
M 1700 1225 
L 1700 50 
L 4700 50 
L 4700 1225 
L 1700 1225 
z
" transform="scale(0.015625)"/>
        <path id="SimSun-52a8" d="M 5950 3500 
L 5750 3325 
Q 5725 675 5587 137 
Q 5450 -400 4850 -575 
Q 4825 -300 4075 25 
L 4100 150 
Q 4625 25 4925 25 
Q 5075 25 5162 87 
Q 5250 150 5312 737 
Q 5375 1325 5425 3425 
L 4375 3425 
Q 4350 2475 4162 1725 
Q 3975 975 3487 400 
Q 3000 -175 2200 -625 
L 2125 -550 
Q 2925 0 3312 562 
Q 3700 1125 3862 1825 
Q 4025 2525 4050 3425 
L 3600 3425 
L 3300 3375 
L 3100 3575 
L 4050 3575 
Q 4050 4625 4025 5175 
L 4550 4925 
L 4375 4750 
L 4375 3575 
L 5375 3575 
L 5575 3800 
L 5950 3500 
z
M 475 4325 
L 2275 4325 
L 2575 4625 
L 3025 4175 
L 1200 4175 
Q 925 4175 700 4100 
L 475 4325 
z
M 275 3050 
L 2625 3050 
L 2925 3350 
L 3375 2900 
L 1700 2900 
L 2100 2600 
Q 1850 2500 1450 1875 
Q 1025 1250 675 875 
L 2650 1100 
Q 2400 1600 2125 2025 
L 2200 2075 
Q 3075 1275 3125 987 
Q 3175 700 3062 587 
Q 2950 475 2925 475 
Q 2850 475 2825 600 
Q 2775 775 2700 975 
Q 875 650 600 350 
L 325 850 
Q 600 925 1025 1687 
Q 1450 2450 1550 2900 
L 750 2900 
L 475 2850 
L 275 3050 
z
" transform="scale(0.015625)"/>
        <path id="SimSun-91c7" d="M 5250 5250 
L 5625 4775 
Q 5200 4750 3800 4625 
Q 2400 4475 725 4475 
L 725 4575 
Q 1975 4650 2775 4737 
Q 3575 4825 4250 4950 
Q 4925 5075 5250 5250 
z
M 1075 4125 
Q 1825 3650 1887 3462 
Q 1950 3275 1950 3225 
Q 1950 3075 1850 2962 
Q 1750 2850 1725 2850 
Q 1625 2850 1550 3125 
Q 1425 3525 1025 4075 
L 1075 4125 
z
M 2600 4275 
L 2675 4325 
Q 3375 3925 3437 3762 
Q 3500 3600 3500 3550 
Q 3500 3400 3400 3262 
Q 3300 3125 3250 3125 
Q 3175 3125 3100 3425 
Q 2975 3825 2600 4275 
z
M 4825 4475 
L 5350 4125 
L 5125 3975 
Q 4450 3025 3975 2600 
L 3900 2675 
Q 4550 3575 4825 4475 
z
M 3350 2200 
Q 3350 50 3375 -500 
L 2950 -675 
Q 2975 875 2975 1975 
Q 2100 425 275 -450 
L 225 -350 
Q 1825 600 2675 2200 
L 1150 2200 
Q 825 2200 550 2125 
L 325 2350 
L 2975 2350 
Q 2975 2675 2950 3075 
L 3525 2775 
L 3350 2575 
L 3350 2350 
L 5300 2350 
L 5650 2700 
L 6125 2200 
L 3625 2200 
Q 4525 250 6100 -25 
L 6100 -125 
Q 5750 -100 5550 -425 
Q 4150 325 3500 2200 
L 3350 2200 
z
" transform="scale(0.015625)"/>
        <path id="SimSun-96c6" d="M 1775 2650 
L 1775 2075 
L 3200 2075 
L 3200 2650 
L 1775 2650 
z
M 1425 1500 
Q 1450 2500 1450 3750 
Q 975 3200 300 2750 
L 250 2825 
Q 800 3300 1250 3962 
Q 1700 4625 1925 5275 
L 2425 4925 
L 2200 4850 
L 1825 4250 
L 4975 4250 
L 5275 4550 
L 5700 4100 
L 3525 4100 
L 3525 3500 
L 4700 3500 
L 4975 3775 
L 5375 3350 
L 3525 3350 
L 3525 2800 
L 4650 2800 
L 4925 3075 
L 5325 2650 
L 3525 2650 
L 3525 2075 
L 4925 2075 
L 5225 2375 
L 5650 1925 
L 1775 1925 
L 1775 1625 
L 1425 1500 
z
M 2975 5200 
Q 3450 5025 3575 4887 
Q 3700 4750 3700 4650 
Q 3700 4550 3612 4425 
Q 3525 4300 3500 4300 
Q 3400 4300 3325 4525 
Q 3200 4850 2925 5125 
L 2975 5200 
z
M 1775 4100 
L 1775 3500 
L 3200 3500 
L 3200 4100 
L 1775 4100 
z
M 1775 3350 
L 1775 2800 
L 3200 2800 
L 3200 3350 
L 1775 3350 
z
M 3075 1300 
Q 3075 1675 3050 1900 
L 3600 1700 
L 3400 1525 
L 3400 1300 
L 5400 1300 
L 5700 1600 
L 6125 1150 
L 3675 1150 
Q 4150 600 4750 300 
Q 5350 0 6150 -75 
L 6150 -150 
Q 5775 -225 5700 -475 
Q 5050 -275 4525 87 
Q 4000 450 3550 1150 
L 3400 1150 
Q 3400 -100 3425 -450 
L 3050 -650 
Q 3075 150 3075 1125 
Q 2550 550 1887 150 
Q 1225 -250 300 -575 
L 275 -475 
Q 1175 -75 1800 387 
Q 2425 850 2650 1150 
L 1100 1150 
Q 775 1150 500 1075 
L 275 1300 
L 3075 1300 
z
" transform="scale(0.015625)"/>
        <path id="SimSun-811a" d="M 4475 -675 
Q 4500 50 4500 2162 
Q 4500 4275 4475 4725 
L 4800 4500 
L 5525 4500 
L 5725 4700 
L 6025 4400 
L 5825 4250 
L 5825 975 
Q 5825 775 5750 637 
Q 5675 500 5425 375 
Q 5275 700 4800 850 
L 4800 -500 
L 4475 -675 
z
M 4800 950 
Q 5350 875 5437 900 
Q 5525 925 5525 1025 
L 5525 4350 
L 4800 4350 
L 4800 950 
z
M 3075 3775 
Q 3075 4150 3075 4512 
Q 3075 4875 3050 5225 
L 3575 4975 
L 3375 4775 
L 3375 3775 
L 3675 3775 
L 3925 4025 
L 4300 3625 
L 3375 3625 
L 3375 2600 
L 3775 2600 
L 4025 2850 
L 4400 2450 
L 3075 2450 
L 3525 2200 
L 3300 2050 
Q 2925 1300 2575 775 
L 3825 900 
Q 3625 1400 3450 1700 
L 3500 1775 
Q 4000 1275 4162 1012 
Q 4325 750 4275 537 
Q 4225 325 4112 275 
Q 4000 225 3975 425 
Q 3925 600 3875 800 
Q 2775 550 2550 325 
L 2275 750 
Q 2450 800 2687 1362 
Q 2925 1925 3000 2450 
Q 2750 2450 2475 2375 
L 2250 2600 
L 3075 2600 
L 3075 3625 
Q 2800 3625 2525 3550 
L 2300 3775 
L 3075 3775 
z
M 1125 4625 
L 1125 3425 
L 1825 3425 
L 1825 4625 
L 1125 4625 
z
M 1125 3275 
L 1125 2075 
L 1825 2075 
L 1825 3275 
L 1125 3275 
z
M 1025 -75 
Q 1600 -150 1712 -137 
Q 1825 -125 1825 25 
L 1825 1925 
L 1125 1925 
Q 1075 1075 900 512 
Q 725 -50 275 -625 
L 225 -550 
Q 550 25 662 550 
Q 775 1075 800 1550 
Q 825 2025 825 3312 
Q 825 4600 800 4975 
L 1150 4775 
L 1800 4775 
L 2025 5000 
L 2325 4700 
L 2125 4550 
L 2125 25 
Q 2125 -275 2050 -387 
Q 1975 -500 1650 -650 
Q 1525 -350 1025 -175 
L 1025 -75 
z
" transform="scale(0.015625)"/>
        <path id="SimSun-672c" d="M 3400 850 
Q 3400 -50 3425 -525 
L 3000 -675 
Q 3025 425 3025 850 
L 1975 850 
L 1750 800 
L 1550 1000 
L 3025 1000 
L 3025 3200 
Q 2075 1250 300 325 
L 275 425 
Q 1925 1550 2800 3625 
L 1325 3625 
Q 1000 3625 725 3550 
L 500 3775 
L 3025 3775 
Q 3025 4450 3000 5250 
L 3650 4950 
L 3400 4750 
L 3400 3775 
L 5100 3775 
L 5450 4125 
L 5950 3625 
L 3650 3625 
Q 4475 1550 6100 1025 
L 6100 925 
Q 5625 900 5550 625 
Q 4200 1500 3525 3625 
L 3400 3625 
L 3400 1000 
L 4150 1000 
L 4450 1300 
L 4900 850 
L 3400 850 
z
" transform="scale(0.015625)"/>
        <path id="SimSun-7684" d="M 1125 3775 
L 1125 2175 
L 2425 2175 
L 2425 3775 
L 1125 3775 
z
M 1125 2025 
L 1125 275 
L 2425 275 
L 2425 2025 
L 1125 2025 
z
M 2750 3625 
Q 2750 700 2775 -200 
L 2425 -400 
L 2425 125 
L 1125 125 
L 1125 -300 
L 775 -500 
Q 800 675 800 1837 
Q 800 3000 775 4150 
L 1150 3925 
L 1400 3925 
Q 1650 4775 1675 5225 
L 2225 4925 
Q 1975 4800 1550 3925 
L 2375 3925 
L 2625 4175 
L 3000 3800 
L 2750 3625 
z
M 3975 5200 
L 4525 4875 
Q 4325 4750 3900 3850 
L 5250 3850 
L 5525 4125 
L 5900 3750 
L 5675 3575 
Q 5625 650 5537 262 
Q 5450 -125 5287 -275 
Q 5125 -425 4775 -550 
Q 4650 -150 3950 50 
L 3950 175 
Q 4575 50 4850 50 
Q 5125 50 5187 475 
Q 5250 900 5300 3700 
L 3850 3700 
Q 3400 2975 2900 2475 
L 2825 2525 
Q 3350 3325 3600 3950 
Q 3850 4575 3975 5200 
z
M 3525 2750 
Q 4125 2300 4225 2087 
Q 4325 1875 4325 1775 
Q 4325 1600 4225 1475 
Q 4125 1350 4075 1350 
Q 3975 1350 3925 1700 
Q 3825 2200 3475 2675 
L 3525 2750 
z
" transform="scale(0.015625)"/>
        <path id="SimSun-5f00" d="M 2450 4500 
L 2450 2625 
L 4000 2625 
L 4000 4500 
L 2450 4500 
z
M 4375 2475 
L 4375 525 
Q 4375 50 4400 -400 
L 3975 -550 
Q 4000 200 4000 725 
L 4000 2475 
L 2450 2475 
Q 2425 1400 1975 687 
Q 1525 -25 450 -600 
L 375 -525 
Q 1200 0 1625 675 
Q 2050 1350 2075 2475 
L 1100 2475 
Q 775 2475 500 2400 
L 275 2625 
L 2075 2625 
L 2075 4500 
L 1450 4500 
Q 1125 4500 850 4425 
L 625 4650 
L 4900 4650 
L 5275 5025 
L 5800 4500 
L 4375 4500 
L 4375 2625 
L 5175 2625 
L 5575 3025 
L 6125 2475 
L 4375 2475 
z
" transform="scale(0.015625)"/>
        <path id="SimSun-53d1" d="M 2350 3600 
Q 2425 4000 2487 4437 
Q 2550 4875 2575 5250 
L 3100 5025 
L 2925 4850 
Q 2750 3850 2700 3600 
L 5200 3600 
L 5550 3950 
L 6025 3450 
L 2675 3450 
Q 2600 2975 2475 2525 
L 4625 2525 
L 4800 2800 
L 5225 2425 
L 5000 2250 
Q 4550 1425 3975 775 
Q 4800 100 6125 -150 
L 6125 -225 
Q 5750 -300 5650 -575 
Q 4475 -150 3775 525 
Q 2800 -300 1300 -625 
L 1275 -550 
Q 2825 -25 3550 775 
Q 3000 1500 2675 2375 
L 2450 2375 
Q 2175 1550 1687 812 
Q 1200 75 400 -450 
L 350 -375 
Q 750 -25 1137 500 
Q 1525 1025 1812 1687 
Q 2100 2350 2325 3450 
L 1175 3450 
L 975 3225 
L 650 3575 
L 850 3700 
Q 1200 4500 1275 4925 
L 1775 4650 
L 1575 4500 
Q 1325 3875 1200 3600 
L 2350 3600 
z
M 2800 2375 
Q 3200 1575 3750 1000 
Q 4225 1550 4625 2375 
L 2800 2375 
z
M 3850 5125 
Q 4575 4825 4800 4637 
Q 5025 4450 5025 4275 
Q 5025 4200 4962 4050 
Q 4900 3900 4850 3900 
Q 4775 3900 4650 4125 
Q 4425 4500 3800 5050 
L 3850 5125 
z
" transform="scale(0.015625)"/>
        <path id="SimSun-4e0e" d="M 375 1250 
L 3750 1250 
L 4075 1575 
L 4550 1100 
L 1175 1100 
Q 875 1100 600 1025 
L 375 1250 
z
M 1700 2600 
Q 1800 4125 1812 4450 
Q 1825 4775 1825 5200 
L 2400 4925 
L 2200 4775 
L 2150 3850 
L 5075 3850 
L 5400 4175 
L 5875 3700 
L 2150 3700 
L 2075 2525 
L 5025 2525 
L 5225 2825 
L 5675 2500 
L 5450 2300 
Q 5400 1375 5300 687 
Q 5200 0 4937 -237 
Q 4675 -475 4250 -575 
Q 4275 -250 3425 0 
L 3450 125 
Q 4000 0 4400 0 
Q 4800 0 4925 737 
Q 5050 1475 5075 2375 
L 2100 2375 
L 1900 2125 
L 1500 2425 
L 1700 2600 
z
" transform="scale(0.015625)"/>
        <path id="SimSun-9a8c" d="M 4050 5225 
L 4550 4925 
L 4350 4800 
Q 5050 3225 6125 2975 
L 6125 2900 
Q 5750 2850 5650 2600 
Q 4700 3325 4275 4725 
Q 3575 3225 2525 2475 
L 2475 2550 
Q 3075 3150 3500 3925 
Q 3925 4700 4050 5225 
z
M 3025 2800 
L 4650 2800 
L 4950 3100 
L 5350 2650 
L 3850 2650 
Q 3525 2650 3250 2575 
L 3025 2800 
z
M 2925 2000 
L 3000 2050 
Q 3475 1300 3537 1100 
Q 3600 900 3600 775 
Q 3600 625 3512 475 
Q 3425 325 3312 337 
Q 3200 350 3175 800 
Q 3150 1250 2925 2000 
z
M 3650 2225 
L 3725 2275 
Q 4375 1450 4425 1100 
Q 4475 750 4337 650 
Q 4200 550 4175 550 
Q 4075 550 4050 800 
Q 4025 1150 3900 1562 
Q 3775 1975 3650 2225 
z
M 5175 2300 
L 5700 1950 
Q 5525 1875 5325 1412 
Q 5125 950 4675 -150 
L 5300 -150 
L 5650 200 
L 6100 -300 
L 3375 -300 
Q 3050 -300 2775 -375 
L 2550 -150 
L 4525 -150 
Q 5175 1900 5175 2300 
z
M 400 4675 
L 1950 4675 
L 2150 4925 
L 2525 4600 
L 2300 4450 
L 2050 2275 
L 2225 2275 
L 2375 2475 
L 2750 2175 
L 2550 2025 
Q 2425 500 2300 175 
Q 2175 -150 1975 -287 
Q 1775 -425 1550 -475 
Q 1525 -125 825 100 
L 850 200 
Q 1550 50 1725 62 
Q 1900 75 2012 437 
Q 2125 800 2225 2125 
L 1000 2125 
L 825 1925 
L 500 2225 
L 675 2325 
Q 875 3750 900 4200 
L 1400 3925 
L 1200 3775 
L 1000 2275 
L 1725 2275 
L 1975 4525 
L 1225 4525 
Q 900 4525 625 4450 
L 400 4675 
z
M 225 1075 
Q 725 1125 2000 1375 
L 2025 1275 
Q 600 850 500 650 
L 225 1075 
z
" transform="scale(0.015625)"/>
        <path id="SimSun-8bc1" d="M 825 4775 
L 875 4825 
Q 1325 4575 1500 4400 
Q 1675 4225 1637 4062 
Q 1600 3900 1512 3825 
Q 1425 3750 1400 3750 
Q 1300 3750 1275 3975 
Q 1200 4250 825 4775 
z
M 1475 475 
L 2300 1275 
L 2375 1225 
Q 1975 675 1775 400 
Q 1550 125 1400 -225 
L 1050 150 
Q 1175 275 1150 600 
L 1150 2800 
L 925 2800 
Q 750 2800 475 2725 
L 250 2950 
L 1100 2950 
L 1275 3200 
L 1700 2900 
L 1475 2725 
L 1475 475 
z
M 2175 4550 
L 5125 4550 
L 5525 4925 
L 6000 4400 
L 4250 4400 
L 4250 2400 
L 5000 2400 
L 5375 2750 
L 5850 2250 
L 4250 2250 
L 4250 -50 
L 5325 -50 
L 5700 300 
L 6125 -200 
L 2475 -200 
Q 2300 -200 2025 -275 
L 1800 -50 
L 2725 -50 
L 2725 2550 
L 2725 3250 
L 3275 2950 
L 3050 2775 
L 3050 -50 
L 3925 -50 
L 3925 4400 
L 2875 4400 
Q 2675 4400 2400 4325 
L 2175 4550 
z
" transform="scale(0.015625)"/>
       </defs>
       <use xlink:href="#SimSun-81ea"/>
       <use xlink:href="#SimSun-52a8" x="100"/>
       <use xlink:href="#SimSun-5316" x="200"/>
       <use xlink:href="#SimSun-91c7" x="300"/>
       <use xlink:href="#SimSun-96c6" x="400"/>
       <use xlink:href="#SimSun-811a" x="500"/>
       <use xlink:href="#SimSun-672c" x="600"/>
       <use xlink:href="#SimSun-7684" x="700"/>
       <use xlink:href="#SimSun-5f00" x="800"/>
       <use xlink:href="#SimSun-53d1" x="900"/>
       <use xlink:href="#SimSun-4e0e" x="1000"/>
       <use xlink:href="#SimSun-9a8c" x="1100"/>
       <use xlink:href="#SimSun-8bc1" x="1200"/>
      </g>
     </g>
    </g>
    <g id="ytick_4">
     <g id="line2d_24">
      <g>
       <use xlink:href="#m3396800428" x="173.41" y="208.71875" style="stroke: #000000; stroke-width: 0.8"/>
      </g>
     </g>
     <g id="text_15">
      <!-- 芯片采集阵列的搭建与调试 -->
      <g transform="translate(22.41 213.523438) scale(0.12 -0.12)">
       <defs>
        <path id="SimSun-82af" d="M 1150 2300 
L 1250 2300 
Q 1275 2025 1275 1625 
Q 1275 1275 1212 1075 
Q 1150 875 1000 800 
Q 850 725 750 725 
Q 725 725 600 762 
Q 475 800 475 850 
Q 475 925 650 1125 
Q 925 1425 1150 2300 
z
M 1825 2775 
L 2425 2475 
L 2225 2300 
L 2225 725 
Q 2200 250 2625 250 
L 4225 250 
Q 4550 250 4575 500 
Q 4600 750 4600 1450 
L 4725 1450 
Q 4725 975 4775 712 
Q 4825 450 5100 300 
Q 4875 -75 4400 -75 
L 2375 -75 
Q 1850 0 1850 575 
L 1850 2025 
Q 1850 2300 1825 2775 
z
M 2700 3200 
L 2775 3275 
Q 3325 2925 3537 2725 
Q 3750 2525 3750 2325 
Q 3750 2175 3650 2012 
Q 3550 1850 3525 1850 
Q 3425 1850 3350 2150 
Q 3200 2575 2700 3200 
z
M 4800 2275 
L 4875 2325 
Q 5725 1750 5837 1537 
Q 5950 1325 5950 1225 
Q 5950 1075 5837 912 
Q 5725 750 5675 750 
Q 5600 750 5525 1025 
Q 5400 1450 4800 2275 
z
M 4225 4100 
L 4225 3400 
L 3875 3250 
L 3875 4100 
L 2525 4100 
L 2525 3400 
L 2175 3225 
L 2175 4100 
L 1200 4100 
Q 875 4100 600 4025 
L 375 4250 
L 2175 4250 
Q 2175 4700 2150 5150 
L 2775 4875 
L 2525 4700 
L 2525 4250 
L 3875 4250 
Q 3875 4675 3850 5125 
L 4475 4850 
L 4225 4650 
L 4225 4250 
L 5175 4250 
L 5575 4650 
L 6075 4100 
L 4225 4100 
z
" transform="scale(0.015625)"/>
        <path id="SimSun-7247" d="M 1975 3150 
Q 1975 2550 1925 2075 
L 4025 2075 
L 4200 2350 
L 4625 2025 
L 4425 1850 
Q 4425 175 4450 -450 
L 4050 -625 
Q 4075 125 4075 1925 
L 1925 1925 
Q 1750 400 450 -500 
L 400 -425 
Q 1075 250 1337 1000 
Q 1600 1750 1612 2987 
Q 1625 4225 1600 4900 
L 2200 4625 
L 1975 4425 
L 1975 3300 
L 3675 3300 
Q 3675 4575 3650 5225 
L 4225 4950 
L 4025 4750 
L 4025 3300 
L 5075 3300 
L 5450 3675 
L 5900 3150 
L 1975 3150 
z
" transform="scale(0.015625)"/>
        <path id="SimSun-9635" d="M 4075 2425 
Q 4075 3125 4050 3625 
L 4625 3375 
L 4400 3200 
L 4400 2450 
L 5025 2450 
L 5350 2775 
L 5775 2300 
L 4400 2300 
L 4400 1200 
L 5325 1200 
L 5675 1550 
L 6125 1050 
L 4400 1050 
Q 4400 -100 4425 -475 
L 4050 -650 
Q 4075 350 4075 1025 
L 3125 1025 
Q 2800 1025 2525 950 
L 2300 1175 
L 4075 1175 
L 4075 2275 
L 3125 2275 
L 2925 2075 
L 2625 2400 
L 2825 2525 
Q 3175 3425 3375 4075 
L 3250 4075 
Q 2925 4075 2650 4000 
L 2425 4225 
L 3425 4225 
Q 3625 4975 3650 5275 
L 4175 5000 
L 3975 4850 
L 3750 4225 
L 5100 4225 
L 5450 4550 
L 5900 4075 
L 3725 4075 
L 3125 2425 
L 4075 2425 
z
M 1575 3050 
Q 2050 2650 2237 2312 
Q 2425 1975 2387 1587 
Q 2350 1200 2125 1012 
Q 1900 825 1625 775 
Q 1625 1100 1100 1275 
L 1100 1375 
Q 1350 1325 1600 1325 
Q 1825 1325 1937 1412 
Q 2050 1500 2000 1975 
Q 1950 2450 1450 3050 
L 1950 4500 
L 950 4500 
L 950 -475 
L 600 -650 
Q 625 225 625 2350 
Q 625 4475 600 4900 
L 950 4650 
L 1925 4650 
L 2125 4925 
L 2550 4550 
Q 2325 4450 2112 4087 
Q 1900 3725 1575 3050 
z
" transform="scale(0.015625)"/>
        <path id="SimSun-5217" d="M 550 4550 
L 3175 4550 
L 3500 4875 
L 3975 4400 
L 2325 4400 
Q 2125 3800 1925 3325 
L 2925 3325 
L 3150 3575 
L 3575 3200 
L 3325 3050 
Q 3075 2075 2787 1525 
Q 2500 975 1975 462 
Q 1450 -50 425 -525 
L 375 -450 
Q 1475 200 2062 1000 
Q 2650 1800 2975 3175 
L 1875 3175 
Q 1750 2925 1600 2650 
Q 2250 2125 2212 1850 
Q 2175 1575 2075 1500 
L 1950 1425 
Q 1850 1425 1825 1725 
Q 1775 2100 1550 2550 
Q 1100 1925 550 1375 
L 475 1450 
Q 1050 2225 1375 2925 
Q 1700 3625 1875 4400 
L 1375 4400 
Q 1050 4400 775 4325 
L 550 4550 
z
M 4100 650 
Q 4125 1525 4125 2475 
Q 4125 3425 4100 4100 
L 4650 3875 
L 4450 3675 
L 4450 1625 
Q 4450 1200 4475 800 
L 4100 650 
z
M 5325 3950 
Q 5325 4850 5300 5150 
L 5875 4900 
L 5675 4700 
L 5675 225 
Q 5700 -400 5050 -600 
Q 5025 -175 4125 0 
L 4125 100 
Q 4825 50 5075 37 
Q 5325 25 5325 350 
L 5325 3950 
z
" transform="scale(0.015625)"/>
        <path id="SimSun-642d" d="M 3200 1200 
L 3200 150 
L 4925 150 
L 4925 1200 
L 3200 1200 
z
M 4875 4100 
Q 4875 3800 4900 3600 
L 4550 3450 
L 4550 4100 
L 3500 4100 
L 3500 3525 
L 3150 3375 
Q 3175 3750 3175 4100 
L 2700 4100 
L 2475 4050 
L 2275 4250 
L 3175 4250 
Q 3175 4775 3150 5200 
L 3700 4925 
L 3500 4775 
L 3500 4250 
L 4550 4250 
Q 4550 4775 4525 5175 
L 5100 4900 
L 4875 4750 
L 4875 4250 
L 5200 4250 
L 5475 4525 
L 5900 4100 
L 4875 4100 
z
M 4375 3575 
L 4175 3425 
Q 4650 2800 5175 2525 
Q 5700 2250 6150 2225 
L 6150 2125 
Q 5775 2050 5700 1800 
Q 5175 2050 4800 2425 
Q 4425 2800 4075 3375 
Q 3575 2650 3100 2250 
Q 2625 1850 2050 1575 
L 2000 1650 
Q 2800 2200 3250 2800 
Q 3700 3400 3875 3925 
L 4375 3575 
z
M 2975 2075 
L 4500 2075 
L 4750 2325 
L 5150 1925 
L 3775 1925 
Q 3425 1925 3200 1850 
L 2975 2075 
z
M 2850 -550 
Q 2875 -25 2875 512 
Q 2875 1050 2850 1575 
L 3225 1350 
L 4875 1350 
L 5100 1575 
L 5450 1250 
L 5250 1100 
Q 5250 -25 5275 -350 
L 4925 -475 
L 4925 0 
L 3200 0 
L 3200 -400 
L 2850 -550 
z
M 1700 2400 
L 2550 2825 
L 2600 2750 
L 1700 2125 
L 1700 0 
Q 1700 -400 1200 -625 
Q 1175 -350 500 -100 
L 500 0 
Q 1225 -100 1300 -62 
Q 1375 -25 1375 100 
L 1375 1950 
Q 725 1525 600 1350 
L 275 1750 
Q 525 1825 1375 2250 
L 1375 3575 
L 775 3575 
L 500 3525 
L 300 3725 
L 1375 3725 
Q 1375 4850 1350 5200 
L 1900 4900 
L 1700 4700 
L 1700 3725 
L 2000 3725 
L 2250 3975 
L 2650 3575 
L 1700 3575 
L 1700 2400 
z
" transform="scale(0.015625)"/>
        <path id="SimSun-5efa" d="M 2200 2375 
Q 2000 1175 1700 575 
Q 2050 250 2600 75 
Q 3150 -100 3950 -125 
Q 4750 -150 6125 0 
L 6125 -100 
Q 5750 -250 5675 -475 
Q 4950 -500 4050 -487 
Q 3150 -475 2562 -275 
Q 1975 -75 1550 325 
Q 1175 -150 375 -600 
L 325 -525 
Q 950 -100 1375 525 
Q 975 1100 775 1800 
L 875 1850 
Q 1125 1250 1475 800 
Q 1725 1350 1875 2475 
L 1100 2475 
L 900 2250 
L 575 2575 
L 850 2700 
L 1700 4250 
L 825 4250 
L 600 4200 
L 400 4400 
L 1700 4400 
L 1925 4625 
L 2275 4275 
L 2025 4150 
L 1125 2625 
L 1875 2625 
L 2050 2850 
L 2400 2525 
L 2200 2375 
z
M 5275 3425 
Q 5275 2850 5300 2600 
L 4950 2425 
L 4950 2650 
L 4000 2650 
L 4000 1950 
L 4675 1950 
L 4950 2225 
L 5350 1800 
L 4000 1800 
L 4000 1150 
L 5150 1150 
L 5450 1450 
L 5875 1000 
L 4000 1000 
Q 4000 600 4025 125 
L 3650 -25 
Q 3675 550 3675 1000 
L 2500 1000 
L 2275 950 
L 2075 1150 
L 3675 1150 
L 3675 1800 
L 2875 1800 
L 2650 1750 
L 2450 1950 
L 3675 1950 
L 3675 2650 
L 2875 2650 
L 2650 2600 
L 2450 2800 
L 3675 2800 
L 3675 3425 
L 2500 3425 
L 2300 3375 
L 2100 3575 
L 3675 3575 
L 3675 4175 
L 2900 4175 
L 2700 4125 
L 2500 4325 
L 3675 4325 
Q 3675 4850 3650 5225 
L 4225 4950 
L 4000 4775 
L 4000 4325 
L 4900 4325 
L 5125 4550 
L 5475 4225 
L 5275 4075 
L 5275 3575 
L 5350 3575 
L 5625 3850 
L 6050 3425 
L 5275 3425 
z
M 4000 4175 
L 4000 3575 
L 4950 3575 
L 4950 4175 
L 4000 4175 
z
M 4000 3425 
L 4000 2800 
L 4950 2800 
L 4950 3425 
L 4000 3425 
z
" transform="scale(0.015625)"/>
        <path id="SimSun-8c03" d="M 950 4975 
L 1000 5050 
Q 1425 4850 1637 4662 
Q 1850 4475 1850 4275 
Q 1850 4075 1762 4025 
Q 1675 3975 1650 3975 
Q 1525 3975 1450 4250 
Q 1325 4575 950 4975 
z
M 1575 675 
L 2350 1375 
L 2425 1300 
Q 1650 300 1450 -25 
L 1150 325 
Q 1250 475 1250 675 
L 1250 3025 
L 1125 3025 
Q 800 3025 525 2950 
L 300 3175 
L 1225 3175 
L 1475 3425 
L 1825 3075 
L 1575 2900 
L 1575 675 
z
M 1875 -500 
Q 2650 575 2650 1937 
Q 2650 3300 2650 3750 
Q 2650 4200 2625 4925 
L 3000 4725 
L 5300 4725 
L 5525 4950 
L 5875 4600 
L 5675 4450 
L 5675 25 
Q 5675 -200 5587 -325 
Q 5500 -450 5250 -575 
Q 5075 -200 4350 -75 
L 4350 50 
Q 5125 -50 5237 -25 
Q 5350 0 5350 175 
L 5350 4575 
L 4025 4575 
L 4450 4375 
L 4275 4225 
L 4275 3700 
L 4550 3700 
L 4800 3950 
L 5175 3550 
L 4275 3550 
L 4275 2850 
L 4650 2850 
L 4925 3125 
L 5325 2700 
L 3800 2700 
Q 3475 2700 3200 2625 
L 2975 2850 
L 3975 2850 
L 3975 3550 
L 3950 3550 
Q 3625 3550 3350 3475 
L 3125 3700 
L 3975 3700 
Q 3975 4200 3950 4575 
L 2950 4575 
L 2950 2475 
Q 3050 425 1925 -575 
L 1875 -500 
z
M 3400 350 
Q 3425 825 3425 1325 
Q 3425 1825 3400 2325 
L 3725 2100 
L 4475 2100 
L 4675 2300 
L 4975 2000 
L 4800 1850 
Q 4800 1000 4825 650 
L 4500 500 
L 4500 825 
L 3725 825 
L 3725 500 
L 3400 350 
z
M 3725 1950 
L 3725 975 
L 4500 975 
L 4500 1950 
L 3725 1950 
z
" transform="scale(0.015625)"/>
        <path id="SimSun-8bd5" d="M 825 4800 
L 900 4850 
Q 1250 4600 1475 4362 
Q 1700 4125 1650 3925 
Q 1600 3725 1500 3650 
L 1375 3575 
Q 1275 3575 1225 3875 
Q 1150 4225 825 4800 
z
M 1600 300 
L 2475 1275 
L 2550 1200 
Q 2125 550 1925 250 
Q 1725 -50 1550 -400 
L 1150 25 
Q 1275 175 1250 425 
L 1250 2600 
L 950 2600 
Q 750 2600 475 2525 
L 250 2750 
L 1225 2750 
L 1375 3000 
L 1825 2700 
L 1600 2525 
L 1600 300 
z
M 5725 75 
L 5925 1100 
L 6025 1100 
Q 5975 525 5975 200 
Q 5975 -125 6075 -450 
Q 6125 -600 6050 -600 
Q 5950 -600 5487 -250 
Q 5025 100 4650 1050 
Q 4275 2000 4200 3525 
L 2725 3525 
Q 2525 3525 2250 3450 
L 2025 3675 
L 4175 3675 
Q 4125 4450 4125 5175 
L 4725 4850 
L 4500 4675 
Q 4500 4100 4525 3675 
L 5375 3675 
L 5700 4025 
L 6150 3525 
L 4550 3525 
Q 4625 1025 5725 75 
z
M 4875 5000 
Q 5300 4825 5512 4675 
Q 5725 4525 5700 4362 
Q 5675 4200 5600 4100 
Q 5525 4000 5500 4000 
Q 5425 4000 5325 4250 
Q 5175 4575 4825 4925 
L 4875 5000 
z
M 3425 625 
L 4375 900 
L 4400 800 
Q 3525 450 2650 25 
L 2475 -175 
L 2175 275 
Q 2775 425 3075 525 
L 3075 2325 
L 2850 2325 
Q 2650 2325 2375 2250 
L 2150 2475 
L 3575 2475 
L 3875 2775 
L 4250 2325 
L 3425 2325 
L 3425 625 
z
" transform="scale(0.015625)"/>
       </defs>
       <use xlink:href="#SimSun-82af"/>
       <use xlink:href="#SimSun-7247" x="100"/>
       <use xlink:href="#SimSun-91c7" x="200"/>
       <use xlink:href="#SimSun-96c6" x="300"/>
       <use xlink:href="#SimSun-9635" x="400"/>
       <use xlink:href="#SimSun-5217" x="500"/>
       <use xlink:href="#SimSun-7684" x="600"/>
       <use xlink:href="#SimSun-642d" x="700"/>
       <use xlink:href="#SimSun-5efa" x="800"/>
       <use xlink:href="#SimSun-4e0e" x="900"/>
       <use xlink:href="#SimSun-8c03" x="1000"/>
       <use xlink:href="#SimSun-8bd5" x="1100"/>
      </g>
     </g>
    </g>
    <g id="ytick_5">
     <g id="line2d_25">
      <g>
       <use xlink:href="#m3396800428" x="173.41" y="258.074466" style="stroke: #000000; stroke-width: 0.8"/>
      </g>
     </g>
     <g id="text_16">
      <!-- 天空辐射采集 -->
      <g transform="translate(94.41 262.879154) scale(0.12 -0.12)">
       <defs>
        <path id="SimSun-5929" d="M 975 4650 
L 4525 4650 
L 4900 5025 
L 5425 4500 
L 3275 4500 
Q 3250 3825 3175 2775 
L 4900 2775 
L 5325 3200 
L 5900 2625 
L 3500 2625 
Q 3925 1325 4625 725 
Q 5325 125 6100 -25 
L 6100 -125 
Q 5675 -150 5525 -475 
Q 4500 100 3987 1025 
Q 3475 1950 3375 2625 
L 3150 2625 
Q 2925 1325 2187 550 
Q 1450 -225 425 -625 
L 375 -550 
Q 1400 0 1987 762 
Q 2575 1525 2775 2625 
L 1225 2625 
Q 900 2625 625 2550 
L 400 2775 
L 2800 2775 
Q 2875 3925 2875 4500 
L 1800 4500 
Q 1475 4500 1200 4425 
L 975 4650 
z
" transform="scale(0.015625)"/>
        <path id="SimSun-7a7a" d="M 1275 2100 
L 4400 2100 
L 4725 2400 
L 5175 1950 
L 3375 1950 
L 3375 -150 
L 5100 -150 
L 5475 225 
L 5975 -300 
L 1275 -300 
Q 950 -300 675 -375 
L 450 -150 
L 3000 -150 
L 3000 1950 
L 2100 1950 
Q 1775 1950 1500 1875 
L 1275 2100 
z
M 2650 5175 
Q 3200 5025 3350 4875 
Q 3500 4725 3500 4575 
Q 3500 4450 3425 4325 
Q 3350 4200 3300 4200 
Q 3225 4200 3150 4400 
Q 3025 4725 2600 5100 
L 2650 5175 
z
M 5050 3300 
L 5350 4000 
L 1175 4000 
Q 1250 3400 1062 3312 
Q 875 3225 750 3225 
Q 650 3225 575 3250 
Q 500 3275 500 3325 
Q 500 3350 575 3450 
Q 700 3575 837 3787 
Q 975 4000 1050 4425 
L 1175 4425 
L 1175 4150 
L 5300 4150 
L 5525 4450 
L 6050 3925 
Q 5650 3925 5125 3250 
L 5050 3300 
z
M 2825 3425 
L 2600 3350 
Q 1425 2400 600 2100 
L 550 2175 
Q 1175 2550 1637 2962 
Q 2100 3375 2400 3850 
L 2825 3425 
z
M 3675 3675 
Q 4500 3400 4975 3175 
Q 5450 2950 5500 2787 
Q 5550 2625 5550 2575 
Q 5550 2500 5512 2400 
Q 5475 2300 5425 2300 
Q 5325 2300 5200 2450 
Q 4975 2675 4587 2975 
Q 4200 3275 3625 3575 
L 3675 3675 
z
" transform="scale(0.015625)"/>
        <path id="SimSun-8f90" d="M 3500 3675 
L 3500 2875 
L 5000 2875 
L 5000 3675 
L 3500 3675 
z
M 3100 1925 
L 3100 1075 
L 4075 1075 
L 4075 1925 
L 3100 1925 
z
M 4375 1925 
L 4375 1075 
L 5425 1075 
L 5425 1925 
L 4375 1925 
z
M 3100 925 
L 3100 0 
L 4075 0 
L 4075 925 
L 3100 925 
z
M 4375 925 
L 4375 0 
L 5425 0 
L 5425 925 
L 4375 925 
z
M 2650 4525 
L 5275 4525 
L 5550 4800 
L 5950 4375 
L 3350 4375 
Q 3150 4375 2875 4300 
L 2650 4525 
z
M 3175 2300 
Q 3200 2800 3200 3187 
Q 3200 3575 3175 4025 
L 3500 3825 
L 4950 3825 
L 5175 4050 
L 5500 3725 
L 5300 3600 
Q 5300 2850 5325 2575 
L 5000 2450 
L 5000 2725 
L 3500 2725 
L 3500 2425 
L 3175 2300 
z
M 2775 -600 
Q 2800 100 2800 987 
Q 2800 1875 2775 2275 
L 3100 2075 
L 5375 2075 
L 5600 2300 
L 5925 1975 
L 5725 1825 
Q 5725 75 5750 -425 
L 5425 -575 
L 5425 -150 
L 3100 -150 
L 3100 -475 
L 2775 -600 
z
M 1525 2450 
Q 1525 3200 1500 3550 
L 2025 3250 
L 1825 3100 
L 1825 2450 
L 2100 2450 
L 2350 2700 
L 2725 2300 
L 1825 2300 
L 1825 1350 
L 2650 1525 
L 2675 1400 
L 1825 1150 
Q 1825 150 1850 -425 
L 1500 -650 
Q 1525 325 1525 1075 
Q 625 825 425 625 
L 200 1050 
Q 875 1150 1525 1300 
L 1525 2300 
L 775 2300 
L 575 2125 
L 275 2475 
Q 475 2525 637 2912 
Q 800 3300 1000 3900 
Q 725 3900 450 3825 
L 225 4050 
L 1050 4050 
Q 1250 4675 1350 5200 
L 1825 4900 
L 1650 4750 
Q 1525 4450 1375 4050 
L 2200 4050 
L 2450 4300 
L 2825 3900 
L 1325 3900 
L 800 2450 
L 1525 2450 
z
" transform="scale(0.015625)"/>
        <path id="SimSun-5c04" d="M 1300 4200 
L 1300 3450 
L 2525 3450 
L 2525 4200 
L 1300 4200 
z
M 1300 3300 
L 1300 2625 
L 2525 2625 
L 2525 3300 
L 1300 3300 
z
M 1300 2475 
L 1300 1725 
L 2525 1725 
L 2525 2475 
L 1300 2475 
z
M 1825 5275 
L 2300 5000 
Q 2050 4925 1750 4350 
L 2500 4350 
L 2675 4600 
L 3050 4300 
L 2875 4150 
L 2875 50 
Q 2875 -375 2350 -600 
Q 2350 -275 1700 -75 
L 1700 25 
Q 2225 -25 2375 -25 
Q 2525 -25 2525 150 
L 2525 1575 
L 2300 1575 
Q 1925 850 1400 350 
Q 875 -150 300 -475 
L 250 -400 
Q 800 25 1212 525 
Q 1625 1025 1900 1575 
L 1075 1575 
Q 750 1575 475 1500 
L 250 1725 
L 950 1725 
Q 950 4000 925 4550 
L 1300 4350 
L 1600 4350 
Q 1750 4900 1825 5275 
z
M 4725 3450 
Q 4725 4600 4700 5225 
L 5300 4975 
L 5075 4775 
L 5075 3450 
L 5350 3450 
L 5675 3775 
L 6150 3300 
L 5075 3300 
L 5075 100 
Q 5100 -400 4500 -625 
Q 4450 -275 3675 -75 
L 3675 50 
Q 4350 -25 4537 -25 
Q 4725 -25 4725 200 
L 4725 3300 
L 3800 3300 
Q 3475 3300 3200 3225 
L 2975 3450 
L 4725 3450 
z
M 3325 2625 
L 3400 2675 
Q 3825 2325 3987 2125 
Q 4150 1925 4125 1725 
Q 4100 1525 4000 1437 
Q 3900 1350 3850 1350 
Q 3725 1350 3700 1675 
Q 3625 2100 3325 2625 
z
" transform="scale(0.015625)"/>
       </defs>
       <use xlink:href="#SimSun-5929"/>
       <use xlink:href="#SimSun-7a7a" x="100"/>
       <use xlink:href="#SimSun-8f90" x="200"/>
       <use xlink:href="#SimSun-5c04" x="300"/>
       <use xlink:href="#SimSun-91c7" x="400"/>
       <use xlink:href="#SimSun-96c6" x="500"/>
      </g>
     </g>
    </g>
    <g id="ytick_6">
     <g id="line2d_26">
      <g>
       <use xlink:href="#m3396800428" x="173.41" y="307.430183" style="stroke: #000000; stroke-width: 0.8"/>
      </g>
     </g>
     <g id="text_17">
      <!-- 辐射数据处理 -->
      <g transform="translate(94.41 312.211433) scale(0.12 -0.12)">
       <defs>
        <path id="SimSun-6570" d="M 1875 1525 
Q 1675 1200 1500 900 
Q 1825 825 2275 725 
Q 2500 975 2725 1525 
L 1875 1525 
z
M 850 4900 
Q 1325 4600 1425 4450 
Q 1525 4300 1525 4225 
Q 1525 4100 1437 3975 
Q 1350 3850 1300 3850 
Q 1225 3850 1150 4100 
Q 1050 4450 775 4850 
L 850 4900 
z
M 3000 4975 
L 3450 4675 
Q 3250 4625 3100 4425 
Q 2925 4225 2525 3825 
L 2450 3875 
Q 2925 4625 3000 4975 
z
M 1875 5250 
L 2425 5000 
L 2225 4825 
L 2225 3675 
L 2850 3675 
L 3125 3950 
L 3550 3525 
L 2225 3525 
L 2225 3300 
Q 2800 3175 2937 3062 
Q 3075 2950 3075 2775 
Q 3075 2700 3050 2587 
Q 3025 2475 2975 2475 
Q 2925 2475 2800 2650 
Q 2600 2925 2225 3175 
L 2225 2400 
L 1925 2200 
L 2275 2050 
Q 2150 2000 1950 1675 
L 2725 1675 
L 2900 1900 
L 3275 1575 
L 3050 1450 
Q 2800 875 2600 650 
Q 3000 550 3137 437 
Q 3275 325 3275 150 
Q 3275 -25 3200 -25 
Q 3125 -25 3025 75 
Q 2750 275 2400 425 
Q 1525 -275 325 -500 
L 300 -425 
Q 1450 -50 2100 550 
Q 1600 725 1125 800 
Q 1225 950 1525 1525 
L 1200 1525 
Q 875 1525 600 1450 
L 375 1675 
L 1575 1675 
Q 1675 1925 1775 2275 
L 1900 2225 
L 1900 3250 
Q 1225 2475 350 2050 
L 300 2125 
Q 1225 2775 1700 3525 
L 1250 3525 
Q 925 3525 650 3450 
L 425 3675 
L 1900 3675 
Q 1900 4575 1875 5250 
z
M 3925 3525 
Q 4050 2075 4525 1100 
Q 4925 1950 5025 3525 
L 3925 3525 
z
M 4050 5250 
L 4625 4925 
Q 4425 4850 4325 4625 
Q 4225 4400 3950 3675 
L 5375 3675 
L 5675 3975 
L 6125 3525 
L 5400 3525 
Q 5250 1675 4750 775 
Q 5325 75 6100 -100 
L 6100 -200 
Q 5625 -275 5600 -500 
Q 4950 -50 4525 525 
Q 3700 -275 2550 -650 
L 2500 -575 
Q 3650 -50 4325 800 
Q 3850 1975 3825 3375 
Q 3575 2725 3100 2150 
L 3025 2200 
Q 3625 3200 4050 5250 
z
" transform="scale(0.015625)"/>
        <path id="SimSun-636e" d="M 3125 -650 
Q 3150 -100 3150 512 
Q 3150 1125 3125 1600 
L 3475 1400 
L 4175 1400 
L 4175 2400 
L 3000 2400 
Q 2825 625 1675 -525 
L 1600 -450 
Q 2150 275 2437 1187 
Q 2725 2100 2737 3312 
Q 2750 4525 2725 5050 
L 3100 4825 
L 5150 4825 
L 5350 5025 
L 5700 4700 
L 5500 4575 
Q 5500 3825 5525 3475 
L 5175 3325 
L 5175 3625 
L 3075 3625 
Q 3075 3150 3025 2550 
L 4175 2550 
Q 4175 3025 4150 3475 
L 4700 3225 
L 4500 3075 
L 4500 2550 
L 5325 2550 
L 5600 2825 
L 6025 2400 
L 4500 2400 
L 4500 1400 
L 5150 1400 
L 5350 1625 
L 5700 1300 
L 5500 1150 
Q 5500 150 5525 -400 
L 5175 -600 
L 5175 -75 
L 3475 -75 
L 3475 -500 
L 3125 -650 
z
M 3075 4675 
L 3075 3775 
L 5175 3775 
L 5175 4675 
L 3075 4675 
z
M 3475 1250 
L 3475 75 
L 5175 75 
L 5175 1250 
L 3475 1250 
z
M 1675 2450 
L 2500 2925 
L 2550 2825 
L 1675 2175 
L 1675 150 
Q 1650 -300 1125 -500 
Q 1175 -250 500 25 
L 500 125 
Q 1050 25 1187 37 
Q 1325 50 1325 225 
L 1325 2000 
Q 625 1500 600 1350 
L 225 1800 
Q 375 1825 1325 2300 
L 1325 3575 
L 750 3575 
L 450 3525 
L 250 3725 
L 1325 3725 
Q 1325 4750 1300 5175 
L 1875 4875 
L 1675 4700 
L 1675 3725 
L 1950 3725 
L 2275 4000 
L 2650 3575 
L 1675 3575 
L 1675 2450 
z
" transform="scale(0.015625)"/>
        <path id="SimSun-5904" d="M 1700 3500 
Q 1600 3200 1500 2900 
Q 1750 1900 2200 1250 
Q 2625 2150 2850 3500 
L 1700 3500 
z
M 3525 3500 
L 3275 3350 
Q 3100 2825 2925 2225 
Q 2750 1600 2425 925 
Q 2750 550 3487 312 
Q 4225 75 6125 125 
L 6125 50 
Q 5700 -100 5650 -375 
Q 4100 -300 3400 -50 
Q 2700 200 2225 700 
Q 1975 400 1537 75 
Q 1100 -250 425 -500 
L 375 -425 
Q 950 -125 1362 237 
Q 1775 600 2050 950 
Q 1525 1875 1425 2750 
Q 1050 1900 525 1275 
L 425 1350 
Q 1025 2300 1325 3450 
Q 1625 4600 1650 5025 
L 2225 4775 
Q 2125 4650 2037 4475 
Q 1950 4300 1750 3650 
L 2825 3650 
L 3100 3925 
L 3525 3500 
z
M 4375 3350 
L 4375 1450 
Q 4375 1075 4400 650 
L 4000 475 
Q 4025 950 4025 1450 
L 4025 4150 
Q 4025 4475 4000 5075 
L 4575 4775 
L 4375 4600 
L 4375 3475 
Q 5175 3175 5587 2887 
Q 6000 2600 5925 2325 
Q 5850 2050 5775 2050 
Q 5675 2050 5575 2250 
Q 5325 2650 4375 3350 
z
" transform="scale(0.015625)"/>
        <path id="SimSun-7406" d="M 325 575 
Q 1075 775 1350 875 
L 1350 2550 
L 1225 2550 
Q 900 2550 625 2475 
L 400 2700 
L 1350 2700 
L 1350 4225 
L 1175 4225 
Q 850 4225 575 4150 
L 350 4375 
L 1925 4375 
L 2225 4675 
L 2650 4225 
L 1675 4225 
L 1675 2700 
L 1925 2700 
L 2225 3000 
L 2650 2550 
L 1675 2550 
L 1675 975 
L 2700 1325 
L 2725 1225 
Q 1775 800 825 325 
L 625 125 
L 325 575 
z
M 2800 1800 
Q 2825 2600 2825 3350 
Q 2825 4100 2800 4900 
L 3125 4675 
L 5200 4675 
L 5375 4900 
L 5750 4600 
L 5550 4450 
L 5550 3275 
Q 5550 2475 5575 2025 
L 5250 1875 
L 5250 2175 
L 4350 2175 
L 4350 1100 
L 5075 1100 
L 5375 1400 
L 5800 950 
L 4350 950 
L 4350 -75 
L 5400 -75 
L 5725 250 
L 6175 -225 
L 2775 -225 
Q 2450 -225 2175 -300 
L 1950 -75 
L 4050 -75 
L 4050 950 
L 3500 950 
Q 3175 950 2900 875 
L 2675 1100 
L 4050 1100 
L 4050 2175 
L 3125 2175 
L 3125 1925 
L 2800 1800 
z
M 3125 4525 
L 3125 3525 
L 4050 3525 
L 4050 4525 
L 3125 4525 
z
M 4350 4525 
L 4350 3525 
L 5250 3525 
L 5250 4525 
L 4350 4525 
z
M 3125 3375 
L 3125 2325 
L 4050 2325 
L 4050 3375 
L 3125 3375 
z
M 4350 3375 
L 4350 2325 
L 5250 2325 
L 5250 3375 
L 4350 3375 
z
" transform="scale(0.015625)"/>
       </defs>
       <use xlink:href="#SimSun-8f90"/>
       <use xlink:href="#SimSun-5c04" x="100"/>
       <use xlink:href="#SimSun-6570" x="200"/>
       <use xlink:href="#SimSun-636e" x="300"/>
       <use xlink:href="#SimSun-5904" x="400"/>
       <use xlink:href="#SimSun-7406" x="500"/>
      </g>
     </g>
    </g>
    <g id="ytick_7">
     <g id="line2d_27">
      <g>
       <use xlink:href="#m3396800428" x="173.41" y="356.785899" style="stroke: #000000; stroke-width: 0.8"/>
      </g>
     </g>
     <g id="text_18">
      <!-- 时间序列预测 -->
      <g transform="translate(94.41 361.496836) scale(0.12 -0.12)">
       <defs>
        <path id="SimSun-65f6" d="M 4500 3600 
Q 4500 4575 4475 5225 
L 5100 4900 
L 4850 4725 
L 4850 3600 
L 5225 3600 
L 5550 3925 
L 6025 3450 
L 4850 3450 
L 4850 100 
Q 4850 -375 4300 -575 
Q 4275 -200 3475 -25 
L 3475 100 
Q 4150 0 4325 25 
Q 4500 50 4500 325 
L 4500 3450 
L 3200 3450 
Q 2875 3450 2600 3375 
L 2375 3600 
L 4500 3600 
z
M 2875 2825 
Q 3525 2375 3637 2200 
Q 3750 2025 3750 1925 
Q 3750 1800 3637 1637 
Q 3525 1475 3475 1475 
Q 3400 1475 3325 1775 
Q 3200 2225 2800 2750 
L 2875 2825 
z
M 925 4150 
L 925 2650 
L 1950 2650 
L 1950 4150 
L 925 4150 
z
M 925 2500 
L 925 900 
L 1950 900 
L 1950 2500 
L 925 2500 
z
M 2300 2000 
Q 2300 800 2325 450 
L 1950 250 
L 1950 750 
L 925 750 
L 925 225 
L 550 25 
Q 575 825 575 2425 
Q 575 4025 550 4500 
L 950 4300 
L 1900 4300 
L 2100 4550 
L 2500 4225 
L 2300 4050 
L 2300 2000 
z
" transform="scale(0.015625)"/>
        <path id="SimSun-95f4" d="M 2150 525 
Q 2175 1325 2175 2112 
Q 2175 2900 2150 3675 
L 2525 3450 
L 3750 3450 
L 4000 3700 
L 4325 3375 
L 4125 3200 
Q 4125 1550 4150 775 
L 3800 575 
L 3800 975 
L 2500 975 
L 2500 700 
L 2150 525 
z
M 2500 3300 
L 2500 2325 
L 3800 2325 
L 3800 3300 
L 2500 3300 
z
M 2500 2175 
L 2500 1125 
L 3800 1125 
L 3800 2175 
L 2500 2175 
z
M 1275 5200 
Q 1850 4825 1950 4675 
Q 2050 4525 2050 4425 
Q 2050 4275 1950 4137 
Q 1850 4000 1825 4000 
Q 1750 4000 1675 4275 
Q 1550 4650 1200 5125 
L 1275 5200 
z
M 1125 425 
Q 1125 25 1150 -375 
L 750 -525 
Q 775 -150 775 1950 
Q 775 4050 750 4425 
L 1350 4125 
L 1125 3975 
L 1125 425 
z
M 4225 125 
Q 5025 0 5125 37 
Q 5225 75 5225 250 
L 5225 4450 
L 3225 4450 
Q 2900 4450 2625 4375 
L 2400 4600 
L 5175 4600 
L 5425 4850 
L 5775 4500 
L 5575 4350 
L 5575 225 
Q 5575 -100 5462 -250 
Q 5350 -400 5000 -550 
Q 4800 -125 4225 25 
L 4225 125 
z
" transform="scale(0.015625)"/>
        <path id="SimSun-5e8f" d="M 1000 4575 
L 1375 4350 
L 5050 4350 
L 5425 4725 
L 5950 4200 
L 1375 4200 
Q 1375 3225 1350 2462 
Q 1325 1700 1112 962 
Q 900 225 300 -575 
L 225 -525 
Q 725 350 862 1087 
Q 1000 1825 1012 2687 
Q 1025 3550 1000 4575 
z
M 3000 5225 
Q 3450 5075 3625 4937 
Q 3800 4800 3762 4637 
Q 3725 4475 3612 4400 
Q 3500 4325 3400 4600 
Q 3275 4875 2950 5150 
L 3000 5225 
z
M 2675 0 
Q 3100 -50 3325 -50 
Q 3550 -50 3575 225 
L 3575 2050 
L 2325 2050 
Q 2000 2050 1725 1975 
L 1500 2200 
L 3625 2200 
Q 3625 2400 3400 2637 
Q 3175 2875 2925 3075 
L 2975 3150 
Q 3325 3050 3775 2800 
L 4750 3550 
L 2725 3550 
Q 2400 3550 2125 3475 
L 1900 3700 
L 4775 3700 
L 5050 3950 
L 5475 3425 
Q 5200 3425 4837 3262 
Q 4475 3100 3875 2725 
Q 4000 2575 3975 2450 
Q 3950 2325 3825 2200 
L 5325 2200 
L 5550 2475 
L 6025 2000 
Q 5600 2000 5100 1350 
L 5000 1400 
L 5350 2050 
L 3900 2050 
L 3900 125 
Q 3900 -375 3400 -600 
Q 3325 -275 2675 -125 
L 2675 0 
z
" transform="scale(0.015625)"/>
        <path id="SimSun-9884" d="M 475 4825 
L 2225 4825 
L 2425 5075 
L 2825 4675 
Q 2600 4625 2387 4412 
Q 2175 4200 1800 3750 
Q 2050 3575 2037 3400 
Q 2025 3225 1937 3150 
Q 1850 3075 1825 3075 
Q 1725 3075 1650 3300 
Q 1525 3600 1050 4100 
L 1100 4150 
Q 1475 3975 1700 3825 
L 2225 4675 
L 1300 4675 
Q 975 4675 700 4600 
L 475 4825 
z
M 725 100 
Q 1175 50 1362 37 
Q 1550 25 1550 275 
L 1550 2875 
L 1125 2875 
Q 800 2875 525 2800 
L 300 3025 
L 2525 3025 
L 2725 3275 
L 3150 2875 
Q 2800 2825 2275 2075 
L 2200 2125 
L 2550 2875 
L 1875 2875 
L 1875 150 
Q 1875 -400 1350 -500 
Q 1325 -175 725 0 
L 725 100 
z
M 3250 775 
Q 3275 1425 3275 2287 
Q 3275 3150 3250 3900 
L 3600 3700 
L 4050 3700 
Q 4175 4400 4200 4675 
L 3650 4675 
Q 3325 4675 3050 4600 
L 2825 4825 
L 5325 4825 
L 5675 5150 
L 6125 4675 
L 4675 4675 
Q 4500 4425 4175 3700 
L 5300 3700 
L 5475 3975 
L 5875 3675 
L 5675 3475 
L 5675 1950 
Q 5675 1525 5700 1075 
L 5350 875 
L 5350 3550 
L 3600 3550 
L 3600 1000 
L 3250 775 
z
M 4850 2875 
L 4625 2675 
Q 4625 1475 4475 937 
Q 4325 400 3900 50 
Q 3475 -300 2425 -625 
L 2400 -550 
Q 3500 -50 3837 400 
Q 4175 850 4237 1587 
Q 4300 2325 4275 3175 
L 4850 2875 
z
M 4650 950 
Q 5725 375 5875 212 
Q 6025 50 6025 -125 
Q 6025 -225 5962 -387 
Q 5900 -550 5850 -550 
Q 5800 -550 5750 -450 
Q 5625 -250 5437 0 
Q 5250 250 4600 875 
L 4650 950 
z
" transform="scale(0.015625)"/>
        <path id="SimSun-6d4b" d="M 1975 1000 
Q 2000 1475 2000 2925 
Q 2000 4375 1975 5000 
L 2350 4775 
L 3575 4775 
L 3775 4975 
L 4100 4650 
L 3900 4500 
L 3900 2350 
Q 3900 1850 3925 1350 
L 3600 1200 
L 3600 4625 
L 2325 4625 
L 2325 1150 
L 1975 1000 
z
M 2775 3975 
L 3300 3700 
L 3125 3525 
Q 3150 1825 2875 937 
Q 2600 50 1375 -600 
L 1325 -500 
Q 2200 100 2475 725 
Q 2750 1350 2775 2187 
Q 2800 3025 2775 3975 
z
M 3100 950 
Q 3825 450 3937 262 
Q 4050 75 4050 -25 
Q 4050 -150 3975 -262 
Q 3900 -375 3850 -375 
Q 3750 -375 3650 -75 
Q 3500 375 3050 875 
L 3100 950 
z
M 4475 825 
Q 4500 1200 4500 1700 
L 4500 3400 
Q 4500 3950 4475 4300 
L 5025 4025 
L 4825 3825 
L 4825 1700 
Q 4825 1325 4850 950 
L 4475 825 
z
M 5375 150 
L 5375 4050 
Q 5375 4750 5350 5125 
L 5875 4875 
L 5700 4700 
L 5700 75 
Q 5700 -200 5600 -350 
Q 5500 -500 5200 -600 
Q 5025 -225 4450 -50 
L 4450 50 
Q 5125 -50 5250 -37 
Q 5375 -25 5375 150 
z
M 1850 3500 
Q 1375 1525 1300 1225 
Q 1200 900 1212 450 
Q 1225 0 1250 -175 
Q 1250 -275 1125 -275 
Q 1025 -275 875 -225 
Q 725 -175 725 0 
Q 725 125 800 375 
Q 875 625 875 775 
Q 875 950 762 1050 
Q 650 1150 275 1250 
L 275 1350 
Q 725 1300 837 1312 
Q 950 1325 1087 1537 
Q 1225 1750 1750 3525 
L 1850 3500 
z
M 375 3775 
Q 1075 3350 1112 3100 
Q 1150 2850 1050 2775 
Q 950 2700 900 2700 
Q 800 2700 725 2975 
Q 600 3350 325 3700 
L 375 3775 
z
M 800 5100 
Q 1475 4725 1550 4512 
Q 1625 4300 1525 4187 
Q 1425 4075 1350 4075 
Q 1275 4075 1200 4300 
Q 1075 4650 750 5025 
L 800 5100 
z
" transform="scale(0.015625)"/>
       </defs>
       <use xlink:href="#SimSun-65f6"/>
       <use xlink:href="#SimSun-95f4" x="100"/>
       <use xlink:href="#SimSun-5e8f" x="200"/>
       <use xlink:href="#SimSun-5217" x="300"/>
       <use xlink:href="#SimSun-9884" x="400"/>
       <use xlink:href="#SimSun-6d4b" x="500"/>
      </g>
     </g>
    </g>
   </g>
   <g id="patch_10">
    <path d="M 173.41 387.88 
L 173.41 29.5575 
" style="fill: none; stroke: #000000; stroke-width: 0.8; stroke-linejoin: miter; stroke-linecap: square"/>
   </g>
   <g id="patch_11">
    <path d="M 817.98 387.88 
L 817.98 29.5575 
" style="fill: none; stroke: #000000; stroke-width: 0.8; stroke-linejoin: miter; stroke-linecap: square"/>
   </g>
   <g id="patch_12">
    <path d="M 173.41 387.88 
L 817.98 387.88 
" style="fill: none; stroke: #000000; stroke-width: 0.8; stroke-linejoin: miter; stroke-linecap: square"/>
   </g>
   <g id="patch_13">
    <path d="M 173.41 29.5575 
L 817.98 29.5575 
" style="fill: none; stroke: #000000; stroke-width: 0.8; stroke-linejoin: miter; stroke-linecap: square"/>
   </g>
   <g id="text_19">
    <!-- W7 -->
    <g transform="translate(140.880278 63.135039) scale(0.09 -0.09)">
     <defs>
      <path id="DejaVuSans-57" d="M 213 4666 
L 850 4666 
L 1831 722 
L 2809 4666 
L 3519 4666 
L 4500 722 
L 5478 4666 
L 6119 4666 
L 4947 0 
L 4153 0 
L 3169 4050 
L 2175 0 
L 1381 0 
L 213 4666 
z
" transform="scale(0.015625)"/>
     </defs>
     <use xlink:href="#DejaVuSans-57"/>
     <use xlink:href="#DejaVuSans-37" x="98.876953"/>
    </g>
   </g>
   <g id="text_20">
    <!-- W8 -->
    <g transform="translate(330.971556 63.135039) scale(0.09 -0.09)">
     <use xlink:href="#DejaVuSans-57"/>
     <use xlink:href="#DejaVuSans-38" x="98.876953"/>
    </g>
   </g>
   <g id="text_21">
    <!-- W8 -->
    <g transform="translate(212.499167 112.490755) scale(0.09 -0.09)">
     <use xlink:href="#DejaVuSans-57"/>
     <use xlink:href="#DejaVuSans-38" x="98.876953"/>
    </g>
   </g>
   <g id="text_22">
    <!-- W9 -->
    <g transform="translate(402.590444 112.490755) scale(0.09 -0.09)">
     <use xlink:href="#DejaVuSans-57"/>
     <use xlink:href="#DejaVuSans-39" x="98.876953"/>
    </g>
   </g>
   <g id="text_23">
    <!-- W8 -->
    <g transform="translate(212.499167 161.846471) scale(0.09 -0.09)">
     <use xlink:href="#DejaVuSans-57"/>
     <use xlink:href="#DejaVuSans-38" x="98.876953"/>
    </g>
   </g>
   <g id="text_24">
    <!-- W10 -->
    <g transform="translate(474.209333 161.846471) scale(0.09 -0.09)">
     <use xlink:href="#DejaVuSans-57"/>
     <use xlink:href="#DejaVuSans-31" x="98.876953"/>
     <use xlink:href="#DejaVuSans-30" x="162.5"/>
    </g>
   </g>
   <g id="text_25">
    <!-- W9 -->
    <g transform="translate(284.118056 211.202188) scale(0.09 -0.09)">
     <use xlink:href="#DejaVuSans-57"/>
     <use xlink:href="#DejaVuSans-39" x="98.876953"/>
    </g>
   </g>
   <g id="text_26">
    <!-- W10 -->
    <g transform="translate(474.209333 211.202188) scale(0.09 -0.09)">
     <use xlink:href="#DejaVuSans-57"/>
     <use xlink:href="#DejaVuSans-31" x="98.876953"/>
     <use xlink:href="#DejaVuSans-30" x="162.5"/>
    </g>
   </g>
   <g id="text_27">
    <!-- W10 -->
    <g transform="translate(350.010694 260.557904) scale(0.09 -0.09)">
     <use xlink:href="#DejaVuSans-57"/>
     <use xlink:href="#DejaVuSans-31" x="98.876953"/>
     <use xlink:href="#DejaVuSans-30" x="162.5"/>
    </g>
   </g>
   <g id="text_28">
    <!-- W13 -->
    <g transform="translate(689.066 260.557904) scale(0.09 -0.09)">
     <use xlink:href="#DejaVuSans-57"/>
     <use xlink:href="#DejaVuSans-31" x="98.876953"/>
     <use xlink:href="#DejaVuSans-33" x="162.5"/>
    </g>
   </g>
   <g id="text_29">
    <!-- W13 -->
    <g transform="translate(564.867361 309.91362) scale(0.09 -0.09)">
     <use xlink:href="#DejaVuSans-57"/>
     <use xlink:href="#DejaVuSans-31" x="98.876953"/>
     <use xlink:href="#DejaVuSans-33" x="162.5"/>
    </g>
   </g>
   <g id="text_30">
    <!-- W15 -->
    <g transform="translate(832.303778 309.91362) scale(0.09 -0.09)">
     <use xlink:href="#DejaVuSans-57"/>
     <use xlink:href="#DejaVuSans-31" x="98.876953"/>
     <use xlink:href="#DejaVuSans-35" x="162.5"/>
    </g>
   </g>
   <g id="text_31">
    <!-- W14 -->
    <g transform="translate(636.48625 359.269336) scale(0.09 -0.09)">
     <use xlink:href="#DejaVuSans-57"/>
     <use xlink:href="#DejaVuSans-31" x="98.876953"/>
     <use xlink:href="#DejaVuSans-34" x="162.5"/>
    </g>
   </g>
   <g id="text_32">
    <!-- W15 -->
    <g transform="translate(832.303778 359.269336) scale(0.09 -0.09)">
     <use xlink:href="#DejaVuSans-57"/>
     <use xlink:href="#DejaVuSans-31" x="98.876953"/>
     <use xlink:href="#DejaVuSans-35" x="162.5"/>
    </g>
   </g>
   <g id="text_33">
    <!-- 2 周 -->
    <g style="fill: #ffffff" transform="translate(236.028889 63.481679) scale(0.09 -0.09)">
     <defs>
      <path id="SimSun-32" d="M 2325 3325 
Q 2325 3775 2125 4012 
Q 1925 4250 1525 4250 
Q 1225 4250 1012 4087 
Q 800 3925 800 3675 
Q 800 3525 900 3425 
Q 975 3325 975 3225 
Q 975 3100 912 3037 
Q 850 2975 725 2975 
Q 575 2975 487 3062 
Q 400 3150 400 3350 
Q 400 3875 775 4150 
Q 1150 4425 1575 4425 
Q 2175 4425 2462 4125 
Q 2750 3825 2750 3375 
Q 2750 3075 2612 2775 
Q 2475 2475 2175 2200 
Q 1450 1500 1062 1062 
Q 675 625 600 475 
L 2075 475 
Q 2300 475 2450 650 
Q 2600 825 2650 1175 
L 2800 1175 
L 2650 100 
L 325 100 
L 325 425 
Q 450 650 737 1000 
Q 1025 1350 1500 1825 
Q 1925 2250 2125 2625 
Q 2325 3000 2325 3325 
z
" transform="scale(0.015625)"/>
      <path id="SimSun-5468" d="M 275 -500 
Q 800 275 1000 1025 
Q 1200 1775 1200 2925 
Q 1200 4075 1175 5100 
L 1550 4875 
L 5025 4875 
L 5225 5125 
L 5650 4825 
L 5425 4625 
L 5425 275 
Q 5475 -300 4875 -525 
Q 4875 -225 4125 -25 
L 4125 100 
Q 4650 25 4875 37 
Q 5100 50 5100 350 
L 5100 4725 
L 1550 4725 
Q 1550 3000 1525 2300 
Q 1500 1600 1250 862 
Q 1000 125 350 -550 
L 275 -500 
z
M 3100 3650 
Q 3100 4225 3075 4575 
L 3625 4325 
L 3425 4175 
L 3425 3650 
L 3950 3650 
L 4225 3925 
L 4650 3500 
L 3425 3500 
L 3425 2750 
L 4200 2750 
L 4500 3050 
L 4950 2600 
L 2475 2600 
Q 2150 2600 1875 2525 
L 1650 2750 
L 3100 2750 
L 3100 3500 
L 2800 3500 
Q 2475 3500 2200 3425 
L 1975 3650 
L 3100 3650 
z
M 2250 200 
Q 2275 600 2275 1212 
Q 2275 1825 2250 2250 
L 2625 2025 
L 3975 2025 
L 4150 2275 
L 4525 1950 
L 4325 1800 
Q 4325 850 4350 450 
L 4000 300 
L 4000 700 
L 2600 700 
L 2600 350 
L 2250 200 
z
M 2600 1875 
L 2600 850 
L 4000 850 
L 4000 1875 
L 2600 1875 
z
" transform="scale(0.015625)"/>
     </defs>
     <use xlink:href="#SimSun-32"/>
     <use xlink:href="#SimSun-20" x="50"/>
     <use xlink:href="#SimSun-5468" x="100"/>
    </g>
   </g>
   <g id="text_34">
    <!-- 2 周 -->
    <g style="fill: #ffffff" transform="translate(307.647778 112.837396) scale(0.09 -0.09)">
     <use xlink:href="#SimSun-32"/>
     <use xlink:href="#SimSun-20" x="50"/>
     <use xlink:href="#SimSun-5468" x="100"/>
    </g>
   </g>
   <g id="text_35">
    <!-- 3 周 -->
    <g style="fill: #ffffff" transform="translate(343.457222 162.193112) scale(0.09 -0.09)">
     <defs>
      <path id="SimSun-33" d="M 2800 1250 
Q 2800 775 2450 412 
Q 2100 50 1475 50 
Q 1025 50 700 300 
Q 375 550 375 875 
Q 375 1025 475 1137 
Q 575 1250 675 1250 
Q 825 1250 887 1137 
Q 950 1025 950 950 
Q 950 825 900 750 
Q 850 650 850 575 
Q 850 425 1037 325 
Q 1225 225 1450 225 
Q 1900 225 2125 487 
Q 2350 750 2350 1300 
Q 2350 1750 2112 2025 
Q 1875 2300 1225 2300 
L 1225 2475 
Q 1725 2475 1962 2712 
Q 2200 2950 2200 3375 
Q 2200 3725 2012 3987 
Q 1825 4250 1425 4250 
Q 1250 4250 1050 4162 
Q 850 4075 850 3875 
Q 850 3675 900 3625 
Q 950 3575 950 3500 
Q 950 3375 900 3300 
Q 850 3225 725 3225 
Q 625 3225 537 3300 
Q 450 3375 450 3575 
Q 450 3950 775 4187 
Q 1100 4425 1525 4425 
Q 2025 4425 2325 4112 
Q 2625 3800 2625 3450 
Q 2625 3075 2437 2812 
Q 2250 2550 1850 2425 
Q 2400 2225 2600 1900 
Q 2800 1575 2800 1250 
z
" transform="scale(0.015625)"/>
     </defs>
     <use xlink:href="#SimSun-33"/>
     <use xlink:href="#SimSun-20" x="50"/>
     <use xlink:href="#SimSun-5468" x="100"/>
    </g>
   </g>
   <g id="text_36">
    <!-- 2 周 -->
    <g style="fill: #ffffff" transform="translate(379.266667 211.548828) scale(0.09 -0.09)">
     <use xlink:href="#SimSun-32"/>
     <use xlink:href="#SimSun-20" x="50"/>
     <use xlink:href="#SimSun-5468" x="100"/>
    </g>
   </g>
   <g id="text_37">
    <!-- 4 周 -->
    <g style="fill: #ffffff" transform="translate(522.504444 260.904544) scale(0.09 -0.09)">
     <defs>
      <path id="SimSun-34" d="M 2300 575 
Q 2300 400 2400 325 
Q 2500 250 2675 250 
L 2900 250 
L 2900 100 
L 1250 100 
L 1250 250 
L 1525 250 
Q 1725 250 1812 325 
Q 1900 400 1900 575 
L 1900 1400 
L 225 1400 
L 225 1525 
L 2050 4425 
L 2300 4425 
L 2300 1550 
L 2975 1550 
L 2975 1400 
L 2300 1400 
L 2300 575 
z
M 1875 3800 
L 450 1550 
L 1900 1550 
L 1900 3800 
L 1875 3800 
z
" transform="scale(0.015625)"/>
     </defs>
     <use xlink:href="#SimSun-34"/>
     <use xlink:href="#SimSun-20" x="50"/>
     <use xlink:href="#SimSun-5468" x="100"/>
    </g>
   </g>
   <g id="text_38">
    <!-- 3 周 -->
    <g style="fill: #ffffff" transform="translate(701.551667 310.260261) scale(0.09 -0.09)">
     <use xlink:href="#SimSun-33"/>
     <use xlink:href="#SimSun-20" x="50"/>
     <use xlink:href="#SimSun-5468" x="100"/>
    </g>
   </g>
   <g id="text_39">
    <!-- 2 周 -->
    <g style="fill: #ffffff" transform="translate(737.361111 359.615977) scale(0.09 -0.09)">
     <use xlink:href="#SimSun-32"/>
     <use xlink:href="#SimSun-20" x="50"/>
     <use xlink:href="#SimSun-5468" x="100"/>
    </g>
   </g>
   <g id="text_40">
    <!-- 项目甘特图（按周） -->
    <g transform="translate(423.695 23.5575) scale(0.16 -0.16)">
     <defs>
      <path id="SimSun-9879" d="M 1700 1400 
L 2700 1725 
L 2750 1625 
Q 1200 950 950 787 
Q 700 625 650 500 
L 350 1000 
Q 625 1050 1375 1300 
L 1375 4100 
L 1175 4100 
Q 850 4100 575 4025 
L 350 4250 
L 2025 4250 
L 2350 4550 
L 2750 4100 
L 1700 4100 
L 1700 1400 
z
M 2900 825 
Q 2925 1475 2925 2337 
Q 2925 3200 2900 3950 
L 3250 3750 
L 3825 3750 
Q 3925 4450 3950 4725 
L 3250 4725 
Q 2925 4725 2650 4650 
L 2425 4875 
L 5225 4875 
L 5575 5200 
L 6000 4725 
L 4400 4725 
Q 4250 4475 3950 3750 
L 5175 3750 
L 5400 4000 
L 5800 3675 
L 5575 3525 
L 5575 2000 
Q 5575 1575 5600 1125 
L 5250 925 
L 5250 3600 
L 3250 3600 
L 3250 1050 
L 2900 825 
z
M 4625 2900 
L 4425 2700 
Q 4425 1350 4212 837 
Q 4000 325 3525 -25 
Q 3050 -375 2150 -625 
L 2100 -550 
Q 3275 -25 3600 425 
Q 3925 875 4012 1537 
Q 4100 2200 4050 3175 
L 4625 2900 
z
M 4450 1025 
Q 5500 475 5700 312 
Q 5900 150 5900 -75 
Q 5900 -200 5850 -362 
Q 5800 -525 5775 -525 
Q 5700 -525 5600 -350 
Q 5400 -50 5150 237 
Q 4900 525 4400 950 
L 4450 1025 
z
" transform="scale(0.015625)"/>
      <path id="SimSun-76ee" d="M 1875 1700 
L 1875 325 
L 4550 325 
L 4550 1700 
L 1875 1700 
z
M 1475 -550 
Q 1500 350 1500 2087 
Q 1500 3825 1475 4950 
L 1875 4675 
L 4500 4675 
L 4700 4950 
L 5175 4600 
L 4925 4425 
L 4925 725 
Q 4925 -25 4950 -325 
L 4550 -525 
L 4550 175 
L 1875 175 
L 1875 -325 
L 1475 -550 
z
M 1875 4525 
L 1875 3250 
L 4550 3250 
L 4550 4525 
L 1875 4525 
z
M 1875 3100 
L 1875 1850 
L 4550 1850 
L 4550 3100 
L 1875 3100 
z
" transform="scale(0.015625)"/>
      <path id="SimSun-7518" d="M 1775 3650 
Q 1775 4350 1750 5250 
L 2325 5000 
L 2125 4775 
L 2125 3650 
L 4200 3650 
Q 4200 4625 4175 5200 
L 4750 4975 
L 4550 4750 
L 4550 3650 
L 5175 3650 
L 5600 4050 
L 6100 3500 
L 4550 3500 
Q 4550 425 4600 -400 
L 4200 -575 
L 4200 -25 
L 2125 -25 
L 2125 -475 
L 1725 -625 
Q 1775 700 1775 3500 
L 1050 3500 
Q 725 3500 450 3425 
L 225 3650 
L 1775 3650 
z
M 2125 3500 
L 2125 2000 
L 4200 2000 
L 4200 3500 
L 2125 3500 
z
M 2125 1850 
L 2125 125 
L 4200 125 
L 4200 1850 
L 2125 1850 
z
" transform="scale(0.015625)"/>
      <path id="SimSun-7279" d="M 2600 4225 
L 3800 4225 
Q 3800 4875 3775 5275 
L 4325 5050 
L 4150 4900 
L 4150 4225 
L 4850 4225 
L 5200 4525 
L 5625 4075 
L 4150 4075 
L 4150 3025 
L 5300 3025 
L 5675 3375 
L 6125 2875 
L 3100 2875 
Q 2775 2875 2500 2800 
L 2275 3025 
L 3800 3025 
L 3800 4075 
L 3425 4075 
Q 3100 4075 2825 4000 
L 2600 4225 
z
M 3475 50 
Q 4050 0 4275 0 
Q 4400 0 4487 25 
Q 4575 50 4575 225 
L 4575 1800 
L 3200 1800 
Q 2875 1800 2600 1725 
L 2375 1950 
L 4575 1950 
Q 4575 2550 4550 2825 
L 5125 2550 
L 4925 2375 
L 4925 1950 
L 5400 1950 
L 5725 2275 
L 6175 1800 
L 4925 1800 
L 4925 150 
Q 4950 -425 4325 -600 
Q 4300 -225 3475 -50 
L 3475 50 
z
M 2875 1550 
Q 3325 1250 3475 1062 
Q 3625 875 3625 750 
Q 3625 625 3512 475 
Q 3400 325 3350 325 
Q 3275 325 3200 625 
Q 3100 1050 2800 1500 
L 2875 1550 
z
M 1475 -650 
Q 1500 -175 1500 1625 
Q 1150 1425 775 1200 
L 625 975 
L 300 1450 
Q 550 1500 1500 1900 
L 1500 3275 
L 800 3275 
Q 600 2725 325 2275 
L 250 2325 
Q 450 2950 550 3537 
Q 650 4125 650 4450 
L 1200 4250 
Q 1050 4150 975 3900 
Q 900 3650 825 3425 
L 1500 3425 
Q 1500 4850 1475 5225 
L 2050 4950 
L 1850 4775 
L 1850 3425 
L 2150 3425 
L 2450 3725 
L 2875 3275 
L 1850 3275 
L 1850 2075 
L 2750 2450 
L 2800 2375 
L 1850 1825 
Q 1850 -75 1875 -500 
L 1475 -650 
z
" transform="scale(0.015625)"/>
      <path id="SimSun-56fe" d="M 5675 4700 
L 5675 550 
Q 5675 50 5700 -350 
L 5325 -550 
L 5325 -50 
L 1250 -50 
L 1250 -450 
L 875 -600 
Q 900 -100 900 425 
L 900 4200 
Q 900 4625 875 5150 
L 1250 4925 
L 5275 4925 
L 5450 5175 
L 5850 4850 
L 5675 4700 
z
M 1250 4775 
L 1250 1700 
Q 2425 2200 3075 2825 
Q 2750 3275 2500 3850 
Q 2100 3225 1650 2800 
L 1575 2850 
Q 1975 3375 2250 3937 
Q 2525 4500 2575 4775 
L 1250 4775 
z
M 1250 100 
L 5325 100 
L 5325 4775 
L 2625 4775 
L 3050 4550 
L 2900 4475 
Q 2750 4250 2675 4125 
L 4000 4125 
L 4175 4350 
L 4550 4000 
L 4350 3875 
Q 3925 3275 3475 2775 
Q 4250 2200 5250 2100 
L 5250 2000 
Q 4875 1975 4775 1700 
Q 3900 2025 3250 2600 
Q 2375 1900 1250 1575 
L 1250 100 
z
M 2600 3975 
Q 2950 3350 3275 3000 
Q 3625 3400 3975 3975 
L 2600 3975 
z
M 2750 2050 
Q 3350 1925 3600 1825 
Q 3850 1725 3825 1487 
Q 3800 1250 3725 1250 
Q 3650 1250 3550 1375 
Q 3300 1625 2725 1975 
L 2750 2050 
z
M 2275 1150 
Q 3425 1025 3787 912 
Q 4150 800 4175 525 
Q 4200 250 4075 250 
Q 4000 250 3825 400 
Q 3450 700 2275 1050 
L 2275 1150 
z
" transform="scale(0.015625)"/>
      <path id="SimSun-ff08" d="M 5087 200 
Q 5475 -100 5425 -150 
Q 5375 -200 4950 87 
Q 4525 375 4137 850 
Q 3750 1325 3687 2100 
Q 3625 2875 4000 3487 
Q 4375 4100 4887 4462 
Q 5400 4825 5412 4762 
Q 5425 4700 5075 4425 
Q 4725 4125 4387 3600 
Q 4050 3075 4050 2250 
Q 4050 1425 4375 962 
Q 4700 500 5087 200 
z
" transform="scale(0.015625)"/>
      <path id="SimSun-6309" d="M 5175 3300 
L 5425 3925 
L 3025 3925 
Q 3050 3450 2900 3362 
Q 2750 3275 2675 3275 
Q 2600 3275 2525 3325 
Q 2450 3375 2450 3400 
Q 2450 3450 2550 3550 
Q 2675 3700 2762 3837 
Q 2850 3975 2925 4350 
L 3025 4350 
L 3025 4075 
L 5400 4075 
L 5625 4325 
L 6050 3900 
Q 5700 3850 5250 3250 
L 5175 3300 
z
M 3700 5200 
Q 4100 4950 4250 4800 
Q 4400 4650 4387 4487 
Q 4375 4325 4275 4250 
Q 4175 4175 4150 4175 
Q 4050 4175 4025 4400 
Q 3950 4700 3625 5150 
L 3700 5200 
z
M 4250 3325 
L 4050 3225 
L 3675 2425 
L 5250 2425 
L 5550 2725 
L 6000 2275 
L 5250 2275 
Q 4900 1200 4600 725 
Q 5175 500 5437 312 
Q 5700 125 5750 12 
Q 5800 -100 5800 -200 
Q 5800 -300 5762 -375 
Q 5725 -450 5700 -450 
Q 5600 -450 5350 -175 
Q 5025 200 4450 500 
Q 4175 175 3612 -112 
Q 3050 -400 2050 -575 
L 2000 -475 
Q 3475 -125 4150 650 
Q 3550 900 2700 1125 
Q 2975 1600 3275 2275 
L 2725 2275 
L 2450 2225 
L 2250 2425 
L 3325 2425 
Q 3675 3275 3725 3650 
L 4250 3325 
z
M 3625 2275 
L 3100 1175 
Q 3800 1000 4275 850 
Q 4625 1475 4850 2275 
L 3625 2275 
z
M 1725 2525 
L 2375 2925 
L 2425 2825 
L 1725 2300 
L 1725 -25 
Q 1700 -450 1225 -650 
Q 1225 -325 575 -125 
L 575 0 
Q 1025 -75 1200 -75 
Q 1375 -75 1375 175 
L 1375 2075 
Q 800 1625 675 1425 
L 325 1825 
Q 625 1925 1375 2350 
L 1375 3600 
L 725 3600 
L 500 3550 
L 300 3750 
L 1375 3750 
Q 1375 4550 1350 5200 
L 1950 4900 
L 1725 4725 
L 1725 3750 
L 1875 3750 
L 2125 4000 
L 2525 3600 
L 1725 3600 
L 1725 2525 
z
" transform="scale(0.015625)"/>
      <path id="SimSun-ff09" d="M 2337 875 
Q 1925 350 1437 62 
Q 950 -225 937 -162 
Q 925 -100 1300 175 
Q 1650 425 2037 1012 
Q 2425 1600 2375 2375 
Q 2325 3150 1987 3662 
Q 1650 4175 1300 4475 
Q 925 4775 937 4837 
Q 950 4900 1412 4587 
Q 1875 4275 2325 3662 
Q 2775 3050 2762 2225 
Q 2750 1400 2337 875 
z
" transform="scale(0.015625)"/>
     </defs>
     <use xlink:href="#SimSun-9879"/>
     <use xlink:href="#SimSun-76ee" x="100"/>
     <use xlink:href="#SimSun-7518" x="200"/>
     <use xlink:href="#SimSun-7279" x="300"/>
     <use xlink:href="#SimSun-56fe" x="400"/>
     <use xlink:href="#SimSun-ff08" x="500"/>
     <use xlink:href="#SimSun-6309" x="600"/>
     <use xlink:href="#SimSun-5468" x="700"/>
     <use xlink:href="#SimSun-ff09" x="800"/>
    </g>
   </g>
  </g>
 </g>
 <defs>
  <clipPath id="p4010bc0077">
   <rect x="173.41" y="29.5575" width="644.57" height="358.3225"/>
  </clipPath>
 </defs>
</svg>
