<?xml version="1.0" encoding="utf-8" standalone="no"?>
<!DOCTYPE svg PUBLIC "-//W3C//DTD SVG 1.1//EN"
  "http://www.w3.org/Graphics/SVG/1.1/DTD/svg11.dtd">
<svg xmlns:xlink="http://www.w3.org/1999/xlink" width="864pt" height="432pt" viewBox="0 0 864 432" xmlns="http://www.w3.org/2000/svg" version="1.1">
 <metadata>
  <rdf:RDF xmlns:dc="http://purl.org/dc/elements/1.1/" xmlns:cc="http://creativecommons.org/ns#" xmlns:rdf="http://www.w3.org/1999/02/22-rdf-syntax-ns#">
   <cc:Work>
    <dc:type rdf:resource="http://purl.org/dc/dcmitype/StillImage"/>
    <dc:date>2025-12-26T14:28:30.291222</dc:date>
    <dc:format>image/svg+xml</dc:format>
    <dc:creator>
     <cc:Agent>
      <dc:title>Matplotlib v3.10.7, https://matplotlib.org/</dc:title>
     </cc:Agent>
    </dc:creator>
   </cc:Work>
  </rdf:RDF>
 </metadata>
 <defs>
  <style type="text/css">*{stroke-linejoin: round; stroke-linecap: butt}</style>
 </defs>
 <g id="figure_1">
  <g id="patch_1">
   <path d="M 0 432 
L 864 432 
L 864 0 
L 0 0 
z
" style="fill: #ffffff"/>
  </g>
  <g id="axes_1">
   <g id="patch_2">
    <path d="M 52.13 402.68 
L 853.2 402.68 
L 853.2 52.08 
L 52.13 52.08 
z
" style="fill: #ffffff"/>
   </g>
   <g id="matplotlib.axis_1">
    <g id="xtick_1">
     <g id="line2d_1">
      <path d="M 79.368516 402.68 
L 79.368516 52.08 
" clip-path="url(#pfaa5946e26)" style="fill: none; stroke: #b0b0b0; stroke-opacity: 0.3; stroke-width: 0.8; stroke-linecap: square"/>
     </g>
     <g id="line2d_2">
      <defs>
       <path id="m9810322cc2" d="M 0 0 
L 0 3.5 
" style="stroke: #000000; stroke-width: 0.8"/>
      </defs>
      <g>
       <use xlink:href="#m9810322cc2" x="79.368516" y="402.68" style="stroke: #000000; stroke-width: 0.8"/>
      </g>
     </g>
     <g id="text_1">
      <!-- 12:30 -->
      <g transform="translate(65.701641 418.0125) scale(0.12 -0.12)">
       <defs>
        <path id="TimesNewRomanPSMT-31" d="M 750 3822 
L 1781 4325 
L 1884 4325 
L 1884 747 
Q 1884 391 1914 303 
Q 1944 216 2037 169 
Q 2131 122 2419 116 
L 2419 0 
L 825 0 
L 825 116 
Q 1125 122 1212 167 
Q 1300 213 1334 289 
Q 1369 366 1369 747 
L 1369 3034 
Q 1369 3497 1338 3628 
Q 1316 3728 1258 3775 
Q 1200 3822 1119 3822 
Q 1003 3822 797 3725 
L 750 3822 
z
" transform="scale(0.015625)"/>
        <path id="TimesNewRomanPSMT-32" d="M 2934 816 
L 2638 0 
L 138 0 
L 138 116 
Q 1241 1122 1691 1759 
Q 2141 2397 2141 2925 
Q 2141 3328 1894 3587 
Q 1647 3847 1303 3847 
Q 991 3847 742 3664 
Q 494 3481 375 3128 
L 259 3128 
Q 338 3706 661 4015 
Q 984 4325 1469 4325 
Q 1984 4325 2329 3994 
Q 2675 3663 2675 3213 
Q 2675 2891 2525 2569 
Q 2294 2063 1775 1497 
Q 997 647 803 472 
L 1909 472 
Q 2247 472 2383 497 
Q 2519 522 2628 598 
Q 2738 675 2819 816 
L 2934 816 
z
" transform="scale(0.015625)"/>
        <path id="TimesNewRomanPSMT-3a" d="M 903 2950 
Q 1047 2950 1148 2848 
Q 1250 2747 1250 2603 
Q 1250 2459 1148 2357 
Q 1047 2256 903 2256 
Q 759 2256 657 2357 
Q 556 2459 556 2603 
Q 556 2747 657 2848 
Q 759 2950 903 2950 
z
M 897 609 
Q 1044 609 1145 506 
Q 1247 403 1247 259 
Q 1247 116 1144 14 
Q 1041 -88 897 -88 
Q 753 -88 651 14 
Q 550 116 550 259 
Q 550 403 651 506 
Q 753 609 897 609 
z
" transform="scale(0.015625)"/>
        <path id="TimesNewRomanPSMT-33" d="M 325 3431 
Q 506 3859 782 4092 
Q 1059 4325 1472 4325 
Q 1981 4325 2253 3994 
Q 2459 3747 2459 3466 
Q 2459 3003 1878 2509 
Q 2269 2356 2469 2072 
Q 2669 1788 2669 1403 
Q 2669 853 2319 450 
Q 1863 -75 997 -75 
Q 569 -75 414 31 
Q 259 138 259 259 
Q 259 350 332 419 
Q 406 488 509 488 
Q 588 488 669 463 
Q 722 447 909 348 
Q 1097 250 1169 231 
Q 1284 197 1416 197 
Q 1734 197 1970 444 
Q 2206 691 2206 1028 
Q 2206 1275 2097 1509 
Q 2016 1684 1919 1775 
Q 1784 1900 1550 2001 
Q 1316 2103 1072 2103 
L 972 2103 
L 972 2197 
Q 1219 2228 1467 2375 
Q 1716 2522 1828 2728 
Q 1941 2934 1941 3181 
Q 1941 3503 1739 3701 
Q 1538 3900 1238 3900 
Q 753 3900 428 3381 
L 325 3431 
z
" transform="scale(0.015625)"/>
        <path id="TimesNewRomanPSMT-30" d="M 231 2094 
Q 231 2819 450 3342 
Q 669 3866 1031 4122 
Q 1313 4325 1613 4325 
Q 2100 4325 2488 3828 
Q 2972 3213 2972 2159 
Q 2972 1422 2759 906 
Q 2547 391 2217 158 
Q 1888 -75 1581 -75 
Q 975 -75 572 641 
Q 231 1244 231 2094 
z
M 844 2016 
Q 844 1141 1059 588 
Q 1238 122 1591 122 
Q 1759 122 1940 273 
Q 2122 425 2216 781 
Q 2359 1319 2359 2297 
Q 2359 3022 2209 3506 
Q 2097 3866 1919 4016 
Q 1791 4119 1609 4119 
Q 1397 4119 1231 3928 
Q 1006 3669 925 3112 
Q 844 2556 844 2016 
z
" transform="scale(0.015625)"/>
       </defs>
       <use xlink:href="#TimesNewRomanPSMT-31"/>
       <use xlink:href="#TimesNewRomanPSMT-32" transform="translate(50 0)"/>
       <use xlink:href="#TimesNewRomanPSMT-3a" transform="translate(100 0)"/>
       <use xlink:href="#TimesNewRomanPSMT-33" transform="translate(127.783203 0)"/>
       <use xlink:href="#TimesNewRomanPSMT-30" transform="translate(177.783203 0)"/>
      </g>
     </g>
    </g>
    <g id="xtick_2">
     <g id="line2d_3">
      <path d="M 192.469622 402.68 
L 192.469622 52.08 
" clip-path="url(#pfaa5946e26)" style="fill: none; stroke: #b0b0b0; stroke-opacity: 0.3; stroke-width: 0.8; stroke-linecap: square"/>
     </g>
     <g id="line2d_4">
      <g>
       <use xlink:href="#m9810322cc2" x="192.469622" y="402.68" style="stroke: #000000; stroke-width: 0.8"/>
      </g>
     </g>
     <g id="text_2">
      <!-- 13:00 -->
      <g transform="translate(178.802747 418.0125) scale(0.12 -0.12)">
       <use xlink:href="#TimesNewRomanPSMT-31"/>
       <use xlink:href="#TimesNewRomanPSMT-33" transform="translate(50 0)"/>
       <use xlink:href="#TimesNewRomanPSMT-3a" transform="translate(100 0)"/>
       <use xlink:href="#TimesNewRomanPSMT-30" transform="translate(127.783203 0)"/>
       <use xlink:href="#TimesNewRomanPSMT-30" transform="translate(177.783203 0)"/>
      </g>
     </g>
    </g>
    <g id="xtick_3">
     <g id="line2d_5">
      <path d="M 305.570728 402.68 
L 305.570728 52.08 
" clip-path="url(#pfaa5946e26)" style="fill: none; stroke: #b0b0b0; stroke-opacity: 0.3; stroke-width: 0.8; stroke-linecap: square"/>
     </g>
     <g id="line2d_6">
      <g>
       <use xlink:href="#m9810322cc2" x="305.570728" y="402.68" style="stroke: #000000; stroke-width: 0.8"/>
      </g>
     </g>
     <g id="text_3">
      <!-- 13:30 -->
      <g transform="translate(291.903853 418.0125) scale(0.12 -0.12)">
       <use xlink:href="#TimesNewRomanPSMT-31"/>
       <use xlink:href="#TimesNewRomanPSMT-33" transform="translate(50 0)"/>
       <use xlink:href="#TimesNewRomanPSMT-3a" transform="translate(100 0)"/>
       <use xlink:href="#TimesNewRomanPSMT-33" transform="translate(127.783203 0)"/>
       <use xlink:href="#TimesNewRomanPSMT-30" transform="translate(177.783203 0)"/>
      </g>
     </g>
    </g>
    <g id="xtick_4">
     <g id="line2d_7">
      <path d="M 418.671834 402.68 
L 418.671834 52.08 
" clip-path="url(#pfaa5946e26)" style="fill: none; stroke: #b0b0b0; stroke-opacity: 0.3; stroke-width: 0.8; stroke-linecap: square"/>
     </g>
     <g id="line2d_8">
      <g>
       <use xlink:href="#m9810322cc2" x="418.671834" y="402.68" style="stroke: #000000; stroke-width: 0.8"/>
      </g>
     </g>
     <g id="text_4">
      <!-- 14:00 -->
      <g transform="translate(405.004959 418.0125) scale(0.12 -0.12)">
       <defs>
        <path id="TimesNewRomanPSMT-34" d="M 2978 1563 
L 2978 1119 
L 2409 1119 
L 2409 0 
L 1894 0 
L 1894 1119 
L 100 1119 
L 100 1519 
L 2066 4325 
L 2409 4325 
L 2409 1563 
L 2978 1563 
z
M 1894 1563 
L 1894 3666 
L 406 1563 
L 1894 1563 
z
" transform="scale(0.015625)"/>
       </defs>
       <use xlink:href="#TimesNewRomanPSMT-31"/>
       <use xlink:href="#TimesNewRomanPSMT-34" transform="translate(50 0)"/>
       <use xlink:href="#TimesNewRomanPSMT-3a" transform="translate(100 0)"/>
       <use xlink:href="#TimesNewRomanPSMT-30" transform="translate(127.783203 0)"/>
       <use xlink:href="#TimesNewRomanPSMT-30" transform="translate(177.783203 0)"/>
      </g>
     </g>
    </g>
    <g id="xtick_5">
     <g id="line2d_9">
      <path d="M 531.77294 402.68 
L 531.77294 52.08 
" clip-path="url(#pfaa5946e26)" style="fill: none; stroke: #b0b0b0; stroke-opacity: 0.3; stroke-width: 0.8; stroke-linecap: square"/>
     </g>
     <g id="line2d_10">
      <g>
       <use xlink:href="#m9810322cc2" x="531.77294" y="402.68" style="stroke: #000000; stroke-width: 0.8"/>
      </g>
     </g>
     <g id="text_5">
      <!-- 14:30 -->
      <g transform="translate(518.106065 418.0125) scale(0.12 -0.12)">
       <use xlink:href="#TimesNewRomanPSMT-31"/>
       <use xlink:href="#TimesNewRomanPSMT-34" transform="translate(50 0)"/>
       <use xlink:href="#TimesNewRomanPSMT-3a" transform="translate(100 0)"/>
       <use xlink:href="#TimesNewRomanPSMT-33" transform="translate(127.783203 0)"/>
       <use xlink:href="#TimesNewRomanPSMT-30" transform="translate(177.783203 0)"/>
      </g>
     </g>
    </g>
    <g id="xtick_6">
     <g id="line2d_11">
      <path d="M 644.874046 402.68 
L 644.874046 52.08 
" clip-path="url(#pfaa5946e26)" style="fill: none; stroke: #b0b0b0; stroke-opacity: 0.3; stroke-width: 0.8; stroke-linecap: square"/>
     </g>
     <g id="line2d_12">
      <g>
       <use xlink:href="#m9810322cc2" x="644.874046" y="402.68" style="stroke: #000000; stroke-width: 0.8"/>
      </g>
     </g>
     <g id="text_6">
      <!-- 15:00 -->
      <g transform="translate(631.207171 418.0125) scale(0.12 -0.12)">
       <defs>
        <path id="TimesNewRomanPSMT-35" d="M 2778 4238 
L 2534 3706 
L 1259 3706 
L 981 3138 
Q 1809 3016 2294 2522 
Q 2709 2097 2709 1522 
Q 2709 1188 2573 903 
Q 2438 619 2231 419 
Q 2025 219 1772 97 
Q 1413 -75 1034 -75 
Q 653 -75 479 54 
Q 306 184 306 341 
Q 306 428 378 495 
Q 450 563 559 563 
Q 641 563 702 538 
Q 763 513 909 409 
Q 1144 247 1384 247 
Q 1750 247 2026 523 
Q 2303 800 2303 1197 
Q 2303 1581 2056 1914 
Q 1809 2247 1375 2428 
Q 1034 2569 447 2591 
L 1259 4238 
L 2778 4238 
z
" transform="scale(0.015625)"/>
       </defs>
       <use xlink:href="#TimesNewRomanPSMT-31"/>
       <use xlink:href="#TimesNewRomanPSMT-35" transform="translate(50 0)"/>
       <use xlink:href="#TimesNewRomanPSMT-3a" transform="translate(100 0)"/>
       <use xlink:href="#TimesNewRomanPSMT-30" transform="translate(127.783203 0)"/>
       <use xlink:href="#TimesNewRomanPSMT-30" transform="translate(177.783203 0)"/>
      </g>
     </g>
    </g>
    <g id="xtick_7">
     <g id="line2d_13">
      <path d="M 757.975152 402.68 
L 757.975152 52.08 
" clip-path="url(#pfaa5946e26)" style="fill: none; stroke: #b0b0b0; stroke-opacity: 0.3; stroke-width: 0.8; stroke-linecap: square"/>
     </g>
     <g id="line2d_14">
      <g>
       <use xlink:href="#m9810322cc2" x="757.975152" y="402.68" style="stroke: #000000; stroke-width: 0.8"/>
      </g>
     </g>
     <g id="text_7">
      <!-- 15:30 -->
      <g transform="translate(744.308277 418.0125) scale(0.12 -0.12)">
       <use xlink:href="#TimesNewRomanPSMT-31"/>
       <use xlink:href="#TimesNewRomanPSMT-35" transform="translate(50 0)"/>
       <use xlink:href="#TimesNewRomanPSMT-3a" transform="translate(100 0)"/>
       <use xlink:href="#TimesNewRomanPSMT-33" transform="translate(127.783203 0)"/>
       <use xlink:href="#TimesNewRomanPSMT-30" transform="translate(177.783203 0)"/>
      </g>
     </g>
    </g>
   </g>
   <g id="matplotlib.axis_2">
    <g id="ytick_1">
     <g id="line2d_15">
      <path d="M 52.13 352.517889 
L 853.2 352.517889 
" clip-path="url(#pfaa5946e26)" style="fill: none; stroke: #b0b0b0; stroke-opacity: 0.3; stroke-width: 0.8; stroke-linecap: square"/>
     </g>
     <g id="line2d_16">
      <defs>
       <path id="me6b3fe0e65" d="M 0 0 
L -3.5 0 
" style="stroke: #000000; stroke-width: 0.8"/>
      </defs>
      <g>
       <use xlink:href="#me6b3fe0e65" x="52.13" y="352.517889" style="stroke: #000000; stroke-width: 0.8"/>
      </g>
     </g>
     <g id="text_8">
      <!-- -0.5 -->
      <g transform="translate(26.134375 356.684139) scale(0.12 -0.12)">
       <defs>
        <path id="TimesNewRomanPSMT-2d" d="M 259 1672 
L 1875 1672 
L 1875 1200 
L 259 1200 
L 259 1672 
z
" transform="scale(0.015625)"/>
        <path id="TimesNewRomanPSMT-2e" d="M 800 606 
Q 947 606 1047 504 
Q 1147 403 1147 259 
Q 1147 116 1045 14 
Q 944 -88 800 -88 
Q 656 -88 554 14 
Q 453 116 453 259 
Q 453 406 554 506 
Q 656 606 800 606 
z
" transform="scale(0.015625)"/>
       </defs>
       <use xlink:href="#TimesNewRomanPSMT-2d"/>
       <use xlink:href="#TimesNewRomanPSMT-30" transform="translate(33.300781 0)"/>
       <use xlink:href="#TimesNewRomanPSMT-2e" transform="translate(83.300781 0)"/>
       <use xlink:href="#TimesNewRomanPSMT-35" transform="translate(108.300781 0)"/>
      </g>
     </g>
    </g>
    <g id="ytick_2">
     <g id="line2d_17">
      <path d="M 52.13 284.066394 
L 853.2 284.066394 
" clip-path="url(#pfaa5946e26)" style="fill: none; stroke: #b0b0b0; stroke-opacity: 0.3; stroke-width: 0.8; stroke-linecap: square"/>
     </g>
     <g id="line2d_18">
      <g>
       <use xlink:href="#me6b3fe0e65" x="52.13" y="284.066394" style="stroke: #000000; stroke-width: 0.8"/>
      </g>
     </g>
     <g id="text_9">
      <!-- 0.0 -->
      <g transform="translate(30.13 288.232644) scale(0.12 -0.12)">
       <use xlink:href="#TimesNewRomanPSMT-30"/>
       <use xlink:href="#TimesNewRomanPSMT-2e" transform="translate(50 0)"/>
       <use xlink:href="#TimesNewRomanPSMT-30" transform="translate(75 0)"/>
      </g>
     </g>
    </g>
    <g id="ytick_3">
     <g id="line2d_19">
      <path d="M 52.13 215.614899 
L 853.2 215.614899 
" clip-path="url(#pfaa5946e26)" style="fill: none; stroke: #b0b0b0; stroke-opacity: 0.3; stroke-width: 0.8; stroke-linecap: square"/>
     </g>
     <g id="line2d_20">
      <g>
       <use xlink:href="#me6b3fe0e65" x="52.13" y="215.614899" style="stroke: #000000; stroke-width: 0.8"/>
      </g>
     </g>
     <g id="text_10">
      <!-- 0.5 -->
      <g transform="translate(30.13 219.781149) scale(0.12 -0.12)">
       <use xlink:href="#TimesNewRomanPSMT-30"/>
       <use xlink:href="#TimesNewRomanPSMT-2e" transform="translate(50 0)"/>
       <use xlink:href="#TimesNewRomanPSMT-35" transform="translate(75 0)"/>
      </g>
     </g>
    </g>
    <g id="ytick_4">
     <g id="line2d_21">
      <path d="M 52.13 147.163405 
L 853.2 147.163405 
" clip-path="url(#pfaa5946e26)" style="fill: none; stroke: #b0b0b0; stroke-opacity: 0.3; stroke-width: 0.8; stroke-linecap: square"/>
     </g>
     <g id="line2d_22">
      <g>
       <use xlink:href="#me6b3fe0e65" x="52.13" y="147.163405" style="stroke: #000000; stroke-width: 0.8"/>
      </g>
     </g>
     <g id="text_11">
      <!-- 1.0 -->
      <g transform="translate(30.13 151.329655) scale(0.12 -0.12)">
       <use xlink:href="#TimesNewRomanPSMT-31"/>
       <use xlink:href="#TimesNewRomanPSMT-2e" transform="translate(50 0)"/>
       <use xlink:href="#TimesNewRomanPSMT-30" transform="translate(75 0)"/>
      </g>
     </g>
    </g>
    <g id="ytick_5">
     <g id="line2d_23">
      <path d="M 52.13 78.71191 
L 853.2 78.71191 
" clip-path="url(#pfaa5946e26)" style="fill: none; stroke: #b0b0b0; stroke-opacity: 0.3; stroke-width: 0.8; stroke-linecap: square"/>
     </g>
     <g id="line2d_24">
      <g>
       <use xlink:href="#me6b3fe0e65" x="52.13" y="78.71191" style="stroke: #000000; stroke-width: 0.8"/>
      </g>
     </g>
     <g id="text_12">
      <!-- 1.5 -->
      <g transform="translate(30.13 82.87816) scale(0.12 -0.12)">
       <use xlink:href="#TimesNewRomanPSMT-31"/>
       <use xlink:href="#TimesNewRomanPSMT-2e" transform="translate(50 0)"/>
       <use xlink:href="#TimesNewRomanPSMT-35" transform="translate(75 0)"/>
      </g>
     </g>
    </g>
    <g id="text_13">
     <!-- mV -->
     <g transform="translate(19.5675 236.38) rotate(-90) scale(0.12 -0.12)">
      <defs>
       <path id="TimesNewRomanPSMT-6d" d="M 1050 2338 
Q 1363 2650 1419 2697 
Q 1559 2816 1721 2881 
Q 1884 2947 2044 2947 
Q 2313 2947 2506 2790 
Q 2700 2634 2766 2338 
Q 3088 2713 3309 2830 
Q 3531 2947 3766 2947 
Q 3994 2947 4170 2830 
Q 4347 2713 4450 2447 
Q 4519 2266 4519 1878 
L 4519 647 
Q 4519 378 4559 278 
Q 4591 209 4675 161 
Q 4759 113 4950 113 
L 4950 0 
L 3538 0 
L 3538 113 
L 3597 113 
Q 3781 113 3884 184 
Q 3956 234 3988 344 
Q 4000 397 4000 647 
L 4000 1878 
Q 4000 2228 3916 2372 
Q 3794 2572 3525 2572 
Q 3359 2572 3192 2489 
Q 3025 2406 2788 2181 
L 2781 2147 
L 2788 2013 
L 2788 647 
Q 2788 353 2820 281 
Q 2853 209 2943 161 
Q 3034 113 3253 113 
L 3253 0 
L 1806 0 
L 1806 113 
Q 2044 113 2133 169 
Q 2222 225 2256 338 
Q 2272 391 2272 647 
L 2272 1878 
Q 2272 2228 2169 2381 
Q 2031 2581 1784 2581 
Q 1616 2581 1450 2491 
Q 1191 2353 1050 2181 
L 1050 647 
Q 1050 366 1089 281 
Q 1128 197 1204 155 
Q 1281 113 1516 113 
L 1516 0 
L 100 0 
L 100 113 
Q 297 113 375 155 
Q 453 197 493 289 
Q 534 381 534 647 
L 534 1741 
Q 534 2213 506 2350 
Q 484 2453 437 2492 
Q 391 2531 309 2531 
Q 222 2531 100 2484 
L 53 2597 
L 916 2947 
L 1050 2947 
L 1050 2338 
z
" transform="scale(0.015625)"/>
       <path id="TimesNewRomanPSMT-56" d="M 4544 4238 
L 4544 4122 
Q 4319 4081 4203 3978 
Q 4038 3825 3909 3509 
L 2431 -97 
L 2316 -97 
L 728 3556 
Q 606 3838 556 3900 
Q 478 3997 364 4051 
Q 250 4106 56 4122 
L 56 4238 
L 1788 4238 
L 1788 4122 
Q 1494 4094 1406 4022 
Q 1319 3950 1319 3838 
Q 1319 3681 1463 3350 
L 2541 866 
L 3541 3319 
Q 3688 3681 3688 3822 
Q 3688 3913 3597 3995 
Q 3506 4078 3291 4113 
Q 3275 4116 3238 4122 
L 3238 4238 
L 4544 4238 
z
" transform="scale(0.015625)"/>
      </defs>
      <use xlink:href="#TimesNewRomanPSMT-6d"/>
      <use xlink:href="#TimesNewRomanPSMT-56" transform="translate(77.783203 0)"/>
     </g>
    </g>
   </g>
   <g id="line2d_25">
    <path d="M 88.542273 156.789328 
L 89.170612 199.571512 
L 89.798952 171.763229 
L 90.427291 201.710758 
L 91.055631 163.206655 
L 91.68397 164.276278 
L 92.31231 168.554497 
L 92.940649 185.66737 
L 93.568989 165.345764 
L 94.197328 178.18042 
L 94.825667 172.832715 
L 95.454007 211.336681 
L 96.082346 198.502026 
L 96.710686 191.015075 
L 97.339025 181.389152 
L 97.967365 187.80648 
L 98.595704 198.502026 
L 99.224044 223.101713 
L 99.852383 226.310445 
L 100.480723 192.084698 
L 101.109062 207.058462 
L 101.737402 213.47579 
L 102.365741 226.310445 
L 102.994081 210.267058 
L 103.62242 201.710758 
L 104.25076 227.380068 
L 104.879099 211.336681 
L 105.507439 211.336681 
L 106.135778 229.519041 
L 106.764118 256.257974 
L 107.392457 223.101713 
L 108.020797 265.883897 
L 108.649136 363.213435 
L 109.277475 269.09263 
L 109.905815 269.09263 
L 110.534154 275.509957 
L 111.162494 176.04131 
L 111.790833 138.606968 
L 112.419173 142.885186 
L 113.047512 166.415387 
L 113.675852 212.406167 
L 114.304191 225.240822 
L 115.56087 178.18042 
L 116.18921 191.015075 
L 116.817549 197.432403 
L 117.445889 185.66737 
L 118.074228 193.154184 
L 118.702568 203.849867 
L 119.330907 218.823632 
L 119.959247 217.754009 
L 120.587586 225.240822 
L 121.215926 202.780244 
L 121.844265 201.710758 
L 122.472605 216.684385 
L 123.100944 213.47579 
L 123.729283 230.588664 
L 124.357623 217.754009 
L 124.985962 210.267058 
L 125.614302 228.449555 
L 126.242641 233.797259 
L 126.870981 231.65815 
L 127.49932 217.754009 
L 128.12766 217.754009 
L 128.755999 223.101713 
L 129.384339 211.336681 
L 130.012678 213.47579 
L 130.641018 213.47579 
L 131.269357 215.614899 
L 131.897697 220.962604 
L 133.154376 234.866882 
L 133.782715 235.936505 
L 134.411055 232.727773 
L 135.039394 231.65815 
L 135.667734 237.005991 
L 136.296073 231.65815 
L 136.924412 240.214587 
L 137.552752 243.423319 
L 138.181091 248.771024 
L 138.809431 249.840647 
L 139.43777 247.701538 
L 140.06611 247.701538 
L 140.694449 254.118865 
L 141.322789 253.049242 
L 141.951128 257.327461 
L 142.579468 255.188488 
L 143.207807 262.675302 
L 143.836147 257.327461 
L 144.464486 256.257974 
L 145.092826 256.257974 
L 145.721165 255.188488 
L 146.349505 265.883897 
L 146.977844 255.188488 
L 147.606184 257.327461 
L 148.234523 256.257974 
L 148.862863 256.257974 
L 149.491202 247.701538 
L 150.119542 246.631914 
L 150.747881 246.631914 
L 151.37622 242.353833 
L 152.00456 247.701538 
L 152.632899 264.814411 
L 153.261239 240.214587 
L 153.889578 241.28421 
L 154.517918 245.562428 
L 155.146257 240.214587 
L 156.402936 240.214587 
L 157.031276 234.866882 
L 157.659615 249.840647 
L 158.287955 253.049242 
L 158.916294 246.631914 
L 159.544634 245.562428 
L 160.172973 259.466707 
L 160.801313 303.318377 
L 161.429652 361.074326 
L 162.057992 363.213435 
L 162.686331 386.743636 
L 163.314671 305.457486 
L 163.94301 254.118865 
L 164.57135 266.95352 
L 165.199689 254.118865 
L 165.828028 272.301362 
L 166.456368 319.361765 
L 167.084707 270.162116 
L 167.713047 164.276278 
L 168.341386 140.746077 
L 168.969726 127.911422 
L 169.598065 153.580732 
L 170.226405 114.007143 
L 170.854744 173.902201 
L 171.483084 157.858951 
L 172.111423 170.693606 
L 172.739763 161.067546 
L 173.368102 223.101713 
L 173.996442 180.319529 
L 174.624781 200.641135 
L 175.253121 179.250043 
L 176.5098 149.302514 
L 177.138139 146.093781 
L 177.766479 123.633203 
L 178.394818 173.902201 
L 179.023157 154.650355 
L 179.651497 171.763229 
L 180.279836 180.319529 
L 180.908176 235.936505 
L 181.536515 217.754009 
L 182.164855 136.467858 
L 182.793194 134.328749 
L 183.421534 149.302514 
L 184.049873 132.18964 
L 184.678213 172.832715 
L 185.306552 197.432403 
L 185.934892 158.928437 
L 186.563231 178.18042 
L 187.191571 201.710758 
L 187.81991 156.789328 
L 188.44825 189.945589 
L 189.076589 182.458638 
L 189.704929 195.293293 
L 190.333268 203.849867 
L 190.961608 167.48501 
L 191.589947 182.458638 
L 192.218287 192.084698 
L 192.846626 170.693606 
L 193.474965 184.597884 
L 194.103305 229.519041 
L 194.731644 219.893118 
L 195.359984 248.771024 
L 195.988323 240.214587 
L 196.616663 164.276278 
L 197.245002 180.319529 
L 197.873342 104.38122 
L 198.501681 147.163405 
L 199.130021 81.920505 
L 199.75836 68.016364 
L 200.3867 91.546565 
L 201.015039 76.5728 
L 201.643379 69.08585 
L 202.271718 86.19886 
L 202.900058 94.755297 
L 203.528397 142.885186 
L 204.156737 125.772312 
L 204.785076 119.354985 
L 206.041755 181.389152 
L 206.670095 168.554497 
L 207.298434 146.093781 
L 207.926773 162.137169 
L 208.555113 143.954672 
L 209.183452 216.684385 
L 209.811792 218.823632 
L 210.440131 156.789328 
L 211.068471 110.798548 
L 211.69681 128.981045 
L 212.32515 80.851019 
L 212.953489 157.858951 
L 213.581829 134.328749 
L 214.210168 142.885186 
L 214.838508 99.033379 
L 215.466847 77.642287 
L 216.095187 81.920505 
L 216.723526 103.311597 
L 217.351866 184.597884 
L 217.980205 107.589816 
L 218.608545 134.328749 
L 219.236884 143.954672 
L 219.865224 143.954672 
L 221.121902 154.650355 
L 221.750242 143.954672 
L 222.378581 180.319529 
L 223.006921 153.580732 
L 224.2636 197.432403 
L 224.891939 208.127949 
L 225.520279 185.66737 
L 226.148618 220.962604 
L 226.776958 208.127949 
L 227.405297 151.441623 
L 228.033637 134.328749 
L 229.290316 204.919353 
L 229.918655 186.736993 
L 230.546995 155.719841 
L 231.175334 165.345764 
L 231.803674 200.641135 
L 232.432013 226.310445 
L 233.060353 155.719841 
L 233.688692 123.633203 
L 234.317032 176.04131 
L 234.945371 106.520329 
L 235.57371 109.728925 
L 236.20205 132.18964 
L 236.830389 119.354985 
L 237.458729 177.110933 
L 238.087068 145.024295 
L 238.715408 155.719841 
L 239.343747 150.372137 
L 239.972087 184.597884 
L 240.600426 166.415387 
L 241.228766 184.597884 
L 241.857105 184.597884 
L 242.485445 195.293293 
L 243.113784 203.849867 
L 243.742124 208.127949 
L 244.370463 216.684385 
L 244.998803 183.528261 
L 245.627142 205.988976 
L 246.255482 199.571512 
L 246.883821 185.66737 
L 247.512161 152.511246 
L 248.1405 170.693606 
L 248.76884 169.62412 
L 250.025518 191.015075 
L 251.282197 202.780244 
L 251.910537 203.849867 
L 252.538876 210.267058 
L 253.167216 214.545276 
L 253.795555 222.032227 
L 254.423895 218.823632 
L 255.052234 223.101713 
L 255.680574 226.310445 
L 256.308913 222.032227 
L 256.937253 234.866882 
L 257.565592 228.449555 
L 258.193932 227.380068 
L 258.822271 225.240822 
L 259.450611 230.588664 
L 260.07895 250.91027 
L 260.70729 237.005991 
L 261.335629 233.797259 
L 261.963969 232.727773 
L 262.592308 204.919353 
L 263.220647 243.423319 
L 263.848987 227.380068 
L 265.105666 203.849867 
L 265.734005 222.032227 
L 266.362345 220.962604 
L 266.990684 229.519041 
L 267.619024 224.171336 
L 268.247363 228.449555 
L 268.875703 222.032227 
L 269.504042 230.588664 
L 270.132382 232.727773 
L 270.760721 239.145101 
L 271.389061 232.727773 
L 272.0174 235.936505 
L 272.64574 241.28421 
L 273.274079 235.936505 
L 273.902419 239.145101 
L 274.530758 239.145101 
L 275.159098 238.075478 
L 275.787437 247.701538 
L 276.415777 251.979756 
L 277.044116 244.492942 
L 277.672455 255.188488 
L 278.300795 253.049242 
L 278.929134 245.562428 
L 279.557474 242.353833 
L 280.185813 245.562428 
L 280.814153 250.91027 
L 281.442492 249.840647 
L 282.070832 250.91027 
L 282.699171 255.188488 
L 283.327511 260.536193 
L 283.95585 248.771024 
L 284.58419 248.771024 
L 285.212529 254.118865 
L 285.840869 262.675302 
L 286.469208 274.440334 
L 287.097548 254.118865 
L 287.725887 251.979756 
L 288.354227 250.91027 
L 288.982566 254.118865 
L 289.610906 258.397084 
L 290.239245 251.979756 
L 291.495924 258.397084 
L 292.124263 255.188488 
L 292.752603 256.257974 
L 293.380942 255.188488 
L 294.009282 257.327461 
L 294.637621 258.397084 
L 295.265961 258.397084 
L 295.8943 259.466707 
L 296.52264 259.466707 
L 297.150979 271.231739 
L 297.779319 258.397084 
L 298.407658 260.536193 
L 299.035998 255.188488 
L 299.664337 255.188488 
L 300.292677 258.397084 
L 300.921016 262.675302 
L 301.549356 261.605679 
L 302.177695 264.814411 
L 302.806035 266.95352 
L 303.434374 258.397084 
L 304.062714 258.397084 
L 304.691053 259.466707 
L 305.319393 262.675302 
L 305.947732 264.814411 
L 306.576071 265.883897 
L 307.83275 261.605679 
L 308.46109 260.536193 
L 309.089429 260.536193 
L 309.717769 265.883897 
L 310.346108 263.744925 
L 310.974448 265.883897 
L 311.602787 263.744925 
L 312.231127 263.744925 
L 312.859466 264.814411 
L 313.487806 262.675302 
L 314.116145 263.744925 
L 314.744485 265.883897 
L 315.372824 265.883897 
L 316.001164 269.09263 
L 316.629503 263.744925 
L 317.257843 265.883897 
L 317.886182 265.883897 
L 318.514522 264.814411 
L 319.142861 266.95352 
L 319.7712 263.744925 
L 320.39954 263.744925 
L 321.027879 261.605679 
L 321.656219 264.814411 
L 322.284558 265.883897 
L 322.912898 268.023143 
L 323.541237 264.814411 
L 324.169577 264.814411 
L 324.797916 265.883897 
L 325.426256 270.162116 
L 326.054595 270.162116 
L 326.682935 266.95352 
L 327.311274 269.09263 
L 327.939614 269.09263 
L 328.567953 265.883897 
L 329.824632 270.162116 
L 330.452972 268.023143 
L 331.709651 268.023143 
L 332.96633 270.162116 
L 333.594669 269.09263 
L 334.223008 270.162116 
L 334.851348 268.023143 
L 335.479687 269.09263 
L 336.736366 269.09263 
L 337.364706 266.95352 
L 337.993045 268.023143 
L 338.621385 270.162116 
L 339.249724 270.162116 
L 339.878064 266.95352 
L 340.506403 268.023143 
L 341.134743 268.023143 
L 341.763082 269.09263 
L 342.391422 266.95352 
L 343.019761 271.231739 
L 343.648101 266.95352 
L 344.27644 260.536193 
L 344.90478 240.214587 
L 345.533119 263.744925 
L 346.789798 261.605679 
L 347.418137 263.744925 
L 348.046477 262.675302 
L 348.674816 258.397084 
L 349.303156 259.466707 
L 349.931495 258.397084 
L 350.559835 256.257974 
L 351.188174 258.397084 
L 351.816514 259.466707 
L 352.444853 262.675302 
L 353.701532 260.536193 
L 354.329872 261.605679 
L 354.958211 261.605679 
L 355.586551 264.814411 
L 356.21489 265.883897 
L 356.84323 263.744925 
L 357.471569 264.814411 
L 358.099909 263.744925 
L 358.728248 263.744925 
L 359.356588 265.883897 
L 359.984927 270.162116 
L 360.613267 269.09263 
L 361.241606 265.883897 
L 361.869945 269.09263 
L 362.498285 269.09263 
L 363.126624 265.883897 
L 363.754964 261.605679 
L 364.383303 263.744925 
L 365.011643 266.95352 
L 365.639982 266.95352 
L 366.268322 265.883897 
L 366.896661 265.883897 
L 367.525001 271.231739 
L 368.15334 266.95352 
L 368.78168 266.95352 
L 369.410019 265.883897 
L 370.038359 270.162116 
L 370.666698 270.162116 
L 371.295038 266.95352 
L 371.923377 266.95352 
L 372.551717 268.023143 
L 373.180056 261.605679 
L 373.808396 261.605679 
L 374.436735 263.744925 
L 375.065075 266.95352 
L 375.693414 269.09263 
L 376.321753 274.440334 
L 376.950093 269.09263 
L 377.578432 264.814411 
L 378.835111 266.95352 
L 379.463451 266.95352 
L 380.09179 268.023143 
L 380.72013 271.231739 
L 381.348469 269.09263 
L 381.976809 268.023143 
L 382.605148 271.231739 
L 383.861827 271.231739 
L 384.490167 269.09263 
L 385.118506 270.162116 
L 385.746846 269.09263 
L 386.375185 270.162116 
L 387.003525 269.09263 
L 388.260204 271.231739 
L 389.516882 271.231739 
L 390.145222 270.162116 
L 390.773561 270.162116 
L 391.401901 269.09263 
L 392.03024 269.09263 
L 393.915259 272.301362 
L 394.543598 274.440334 
L 395.171938 272.301362 
L 396.428617 272.301362 
L 397.056956 271.231739 
L 397.685296 272.301362 
L 398.313635 272.301362 
L 398.941975 275.509957 
L 399.570314 274.440334 
L 400.198654 272.301362 
L 400.826993 274.440334 
L 402.083672 272.301362 
L 402.712012 273.370848 
L 403.340351 271.231739 
L 403.96869 274.440334 
L 404.59703 274.440334 
L 405.225369 275.509957 
L 408.367067 275.509957 
L 408.995406 276.579443 
L 409.623746 275.509957 
L 411.508764 275.509957 
L 412.137104 276.579443 
L 412.765443 276.579443 
L 413.393783 275.509957 
L 414.022122 275.509957 
L 415.278801 277.649067 
L 416.53548 277.649067 
L 417.163819 275.509957 
L 417.792159 277.649067 
L 418.420498 276.579443 
L 419.048838 278.718553 
L 419.677177 278.718553 
L 420.933856 274.440334 
L 421.562196 276.579443 
L 422.190535 274.440334 
L 423.447214 274.440334 
L 424.703893 272.301362 
L 425.332233 274.440334 
L 425.960572 274.440334 
L 426.588912 273.370848 
L 427.217251 274.440334 
L 427.845591 276.579443 
L 428.47393 274.440334 
L 429.10227 274.440334 
L 430.358949 272.301362 
L 430.987288 274.440334 
L 431.615627 273.370848 
L 432.243967 274.440334 
L 432.872306 271.231739 
L 433.500646 272.301362 
L 434.128985 272.301362 
L 434.757325 275.509957 
L 435.385664 274.440334 
L 436.014004 272.301362 
L 436.642343 274.440334 
L 437.270683 273.370848 
L 437.899022 271.231739 
L 438.527362 273.370848 
L 439.155701 274.440334 
L 439.784041 273.370848 
L 441.669059 276.579443 
L 443.554078 276.579443 
L 444.182417 277.649067 
L 444.810757 276.579443 
L 445.439096 277.649067 
L 446.067435 275.509957 
L 447.324114 277.649067 
L 448.580793 275.509957 
L 449.209133 273.370848 
L 449.837472 274.440334 
L 450.465812 273.370848 
L 451.094151 276.579443 
L 451.722491 275.509957 
L 452.35083 276.579443 
L 452.97917 272.301362 
L 453.607509 272.301362 
L 454.864188 274.440334 
L 455.492528 273.370848 
L 456.120867 274.440334 
L 456.749207 273.370848 
L 458.634225 273.370848 
L 459.262565 271.231739 
L 459.890904 272.301362 
L 460.519243 271.231739 
L 461.775922 271.231739 
L 462.404262 274.440334 
L 463.032601 275.509957 
L 464.28928 273.370848 
L 464.91762 270.162116 
L 465.545959 270.162116 
L 466.174299 269.09263 
L 467.430978 273.370848 
L 468.059317 274.440334 
L 468.687657 271.231739 
L 469.315996 271.231739 
L 470.572675 273.370848 
L 471.201015 273.370848 
L 471.829354 272.301362 
L 472.457694 272.301362 
L 473.086033 271.231739 
L 473.714372 273.370848 
L 474.342712 274.440334 
L 476.85607 274.440334 
L 477.484409 275.509957 
L 478.112749 274.440334 
L 479.369428 274.440334 
L 479.997767 275.509957 
L 480.626107 277.649067 
L 483.767804 272.301362 
L 484.396144 274.440334 
L 485.024483 280.857662 
L 485.652823 275.509957 
L 486.281162 275.509957 
L 486.909502 274.440334 
L 487.537841 272.301362 
L 489.422859 275.509957 
L 490.051199 277.649067 
L 490.679538 277.649067 
L 491.307878 271.231739 
L 491.936217 273.370848 
L 492.564557 276.579443 
L 493.192896 277.649067 
L 493.821236 273.370848 
L 495.077915 271.231739 
L 495.706254 273.370848 
L 496.334594 274.440334 
L 496.962933 272.301362 
L 498.219612 274.440334 
L 498.847952 273.370848 
L 499.476291 274.440334 
L 500.104631 272.301362 
L 500.73297 272.301362 
L 501.361309 275.509957 
L 501.989649 277.649067 
L 503.246328 271.231739 
L 503.874667 271.231739 
L 504.503007 274.440334 
L 505.131346 275.509957 
L 505.759686 273.370848 
L 506.388025 274.440334 
L 507.016365 270.162116 
L 507.644704 274.440334 
L 508.273044 276.579443 
L 508.901383 270.162116 
L 509.529723 271.231739 
L 510.158062 271.231739 
L 510.786402 272.301362 
L 511.414741 275.509957 
L 512.043081 272.301362 
L 512.67142 272.301362 
L 513.928099 268.023143 
L 514.556439 269.09263 
L 515.184778 266.95352 
L 515.813118 269.09263 
L 516.441457 268.023143 
L 517.069796 272.301362 
L 517.698136 266.95352 
L 518.326475 269.09263 
L 518.954815 270.162116 
L 519.583154 264.814411 
L 520.211494 264.814411 
L 520.839833 263.744925 
L 521.468173 268.023143 
L 522.096512 271.231739 
L 522.724852 269.09263 
L 523.353191 268.023143 
L 523.981531 265.883897 
L 524.60987 269.09263 
L 525.866549 266.95352 
L 526.494889 271.231739 
L 527.123228 263.744925 
L 527.751568 264.814411 
L 528.379907 268.023143 
L 529.008247 269.09263 
L 529.636586 263.744925 
L 530.264925 262.675302 
L 530.893265 271.231739 
L 532.149944 262.675302 
L 532.778283 264.814411 
L 533.406623 269.09263 
L 534.034962 270.162116 
L 534.663302 270.162116 
L 535.291641 268.023143 
L 535.919981 264.814411 
L 536.54832 268.023143 
L 537.17666 270.162116 
L 537.804999 266.95352 
L 538.433339 266.95352 
L 539.061678 278.718553 
L 539.690018 265.883897 
L 540.318357 265.883897 
L 540.946697 266.95352 
L 541.575036 269.09263 
L 542.203376 266.95352 
L 542.831715 262.675302 
L 543.460054 265.883897 
L 544.088394 264.814411 
L 544.716733 265.883897 
L 545.345073 265.883897 
L 545.973412 261.605679 
L 546.601752 264.814411 
L 547.230091 265.883897 
L 547.858431 261.605679 
L 548.48677 262.675302 
L 549.743449 266.95352 
L 550.371789 266.95352 
L 551.000128 263.744925 
L 551.628468 266.95352 
L 552.256807 263.744925 
L 552.885147 259.466707 
L 553.513486 264.814411 
L 554.141826 262.675302 
L 554.770165 266.95352 
L 555.398505 264.814411 
L 556.026844 259.466707 
L 556.655184 262.675302 
L 557.283523 266.95352 
L 557.911862 261.605679 
L 558.540202 262.675302 
L 559.168541 268.023143 
L 559.796881 265.883897 
L 561.05356 263.744925 
L 562.310239 263.744925 
L 562.938578 268.023143 
L 563.566918 265.883897 
L 564.195257 266.95352 
L 564.823597 266.95352 
L 565.451936 269.09263 
L 566.080276 265.883897 
L 567.336955 268.023143 
L 567.965294 268.023143 
L 568.593634 269.09263 
L 570.478652 269.09263 
L 572.36367 272.301362 
L 573.620349 265.883897 
L 574.248689 266.95352 
L 575.505368 271.231739 
L 576.133707 269.09263 
L 576.762047 269.09263 
L 577.390386 273.370848 
L 578.018726 269.09263 
L 578.647065 271.231739 
L 579.275405 274.440334 
L 579.903744 273.370848 
L 580.532084 269.09263 
L 581.160423 269.09263 
L 581.788763 271.231739 
L 582.417102 270.162116 
L 583.045442 268.023143 
L 583.673781 266.95352 
L 584.302121 268.023143 
L 584.93046 268.023143 
L 585.5588 270.162116 
L 586.815478 270.162116 
L 587.443818 273.370848 
L 588.700497 271.231739 
L 589.328836 272.301362 
L 589.957176 270.162116 
L 590.585515 271.231739 
L 591.213855 271.231739 
L 591.842194 269.09263 
L 592.470534 271.231739 
L 593.098873 270.162116 
L 593.727213 272.301362 
L 594.355552 268.023143 
L 594.983892 271.231739 
L 596.240571 269.09263 
L 596.86891 272.301362 
L 597.49725 271.231739 
L 598.125589 271.231739 
L 598.753929 275.509957 
L 599.382268 272.301362 
L 600.010607 273.370848 
L 601.267286 271.231739 
L 603.152305 271.231739 
L 603.780644 273.370848 
L 604.408984 273.370848 
L 605.037323 274.440334 
L 606.294002 274.440334 
L 606.922342 272.301362 
L 607.550681 274.440334 
L 608.179021 274.440334 
L 608.80736 273.370848 
L 609.4357 273.370848 
L 610.692379 275.509957 
L 611.320718 275.509957 
L 611.949058 276.579443 
L 612.577397 276.579443 
L 613.205737 273.370848 
L 613.834076 275.509957 
L 614.462415 275.509957 
L 615.090755 278.718553 
L 615.719094 276.579443 
L 616.347434 275.509957 
L 616.975773 272.301362 
L 617.604113 272.301362 
L 618.232452 274.440334 
L 620.117471 274.440334 
L 620.74581 275.509957 
L 621.37415 272.301362 
L 622.002489 275.509957 
L 622.630829 277.649067 
L 623.259168 276.579443 
L 623.887508 272.301362 
L 624.515847 272.301362 
L 625.144187 275.509957 
L 625.772526 275.509957 
L 626.400866 276.579443 
L 627.029205 271.231739 
L 627.657545 273.370848 
L 628.285884 273.370848 
L 628.914223 272.301362 
L 629.542563 273.370848 
L 630.170902 273.370848 
L 630.799242 269.09263 
L 631.427581 271.231739 
L 632.055921 272.301362 
L 632.68426 271.231739 
L 633.3126 273.370848 
L 633.940939 272.301362 
L 634.569279 272.301362 
L 635.197618 274.440334 
L 635.825958 272.301362 
L 636.454297 275.509957 
L 637.082637 272.301362 
L 638.967655 269.09263 
L 639.595995 261.605679 
L 640.224334 262.675302 
L 640.852674 272.301362 
L 641.481013 265.883897 
L 642.109352 270.162116 
L 642.737692 270.162116 
L 643.366031 268.023143 
L 643.994371 269.09263 
L 644.62271 271.231739 
L 645.25105 272.301362 
L 645.879389 271.231739 
L 647.136068 271.231739 
L 647.764408 266.95352 
L 648.392747 269.09263 
L 649.649426 269.09263 
L 650.277766 271.231739 
L 650.906105 268.023143 
L 651.534445 269.09263 
L 652.162784 272.301362 
L 652.791124 264.814411 
L 653.419463 260.536193 
L 654.047803 260.536193 
L 654.676142 262.675302 
L 655.304482 263.744925 
L 655.932821 259.466707 
L 657.1895 265.883897 
L 657.817839 261.605679 
L 658.446179 265.883897 
L 659.074518 261.605679 
L 659.702858 261.605679 
L 660.331197 262.675302 
L 660.959537 261.605679 
L 661.587876 263.744925 
L 662.216216 268.023143 
L 662.844555 265.883897 
L 663.472895 260.536193 
L 664.101234 261.605679 
L 664.729574 270.162116 
L 665.357913 261.605679 
L 665.986253 265.883897 
L 667.242932 263.744925 
L 667.871271 260.536193 
L 668.499611 261.605679 
L 669.12795 261.605679 
L 669.756289 265.883897 
L 670.384629 260.536193 
L 671.012968 261.605679 
L 671.641308 261.605679 
L 672.897987 265.883897 
L 673.526326 266.95352 
L 674.154666 270.162116 
L 674.783005 269.09263 
L 675.411345 265.883897 
L 676.039684 265.883897 
L 676.668024 263.744925 
L 677.296363 265.883897 
L 677.924703 265.883897 
L 678.553042 271.231739 
L 679.181382 269.09263 
L 679.809721 264.814411 
L 680.438061 263.744925 
L 681.0664 265.883897 
L 681.69474 270.162116 
L 682.323079 271.231739 
L 682.951419 269.09263 
L 683.579758 270.162116 
L 684.208097 266.95352 
L 684.836437 266.95352 
L 685.464776 270.162116 
L 686.093116 265.883897 
L 686.721455 269.09263 
L 687.349795 269.09263 
L 687.978134 268.023143 
L 688.606474 271.231739 
L 689.234813 266.95352 
L 689.863153 263.744925 
L 690.491492 263.744925 
L 691.119832 272.301362 
L 691.748171 266.95352 
L 692.376511 268.023143 
L 693.00485 265.883897 
L 693.63319 266.95352 
L 694.261529 265.883897 
L 694.889869 265.883897 
L 695.518208 264.814411 
L 696.146548 271.231739 
L 696.774887 269.09263 
L 697.403227 271.231739 
L 698.031566 272.301362 
L 698.659905 268.023143 
L 699.288245 266.95352 
L 700.544924 271.231739 
L 701.173263 274.440334 
L 702.429942 272.301362 
L 703.058282 270.162116 
L 703.686621 272.301362 
L 704.314961 269.09263 
L 704.9433 272.301362 
L 705.57164 271.231739 
L 706.199979 272.301362 
L 707.456658 272.301362 
L 708.084998 271.231739 
L 708.713337 273.370848 
L 709.341677 274.440334 
L 711.226695 274.440334 
L 711.855035 275.509957 
L 712.483374 274.440334 
L 713.111713 274.440334 
L 713.740053 276.579443 
L 714.368392 274.440334 
L 714.996732 275.509957 
L 715.625071 277.649067 
L 716.253411 277.649067 
L 717.51009 275.509957 
L 719.395108 275.509957 
L 720.023448 277.649067 
L 720.651787 276.579443 
L 721.280127 278.718553 
L 721.908466 275.509957 
L 722.536806 276.579443 
L 723.165145 279.788176 
L 723.793485 275.509957 
L 724.421824 276.579443 
L 725.678503 276.579443 
L 726.306842 277.649067 
L 726.935182 277.649067 
L 727.563521 278.718553 
L 728.191861 277.649067 
L 728.8202 275.509957 
L 729.44854 277.649067 
L 730.076879 276.579443 
L 730.705219 277.649067 
L 731.333558 277.649067 
L 731.961898 280.857662 
L 732.590237 277.649067 
L 733.218577 278.718553 
L 733.846916 278.718553 
L 734.475256 277.649067 
L 735.103595 278.718553 
L 735.731935 278.718553 
L 736.360274 279.788176 
L 736.988614 277.649067 
L 738.873632 277.649067 
L 739.501972 276.579443 
L 740.130311 277.649067 
L 740.75865 277.649067 
L 741.38699 276.579443 
L 742.015329 277.649067 
L 744.528687 277.649067 
L 745.157027 279.788176 
L 745.785366 276.579443 
L 746.413706 276.579443 
L 747.670385 278.718553 
L 748.927064 276.579443 
L 749.555403 279.788176 
L 750.183743 277.649067 
L 750.812082 276.579443 
L 751.440422 277.649067 
L 752.697101 275.509957 
L 753.32544 277.649067 
L 755.210458 277.649067 
L 755.838798 278.718553 
L 757.095477 278.718553 
L 758.352156 280.857662 
L 758.980495 279.788176 
L 760.237174 279.788176 
L 760.865514 278.718553 
L 761.493853 278.718553 
L 762.122193 279.788176 
L 762.750532 278.718553 
L 763.378872 278.718553 
L 764.635551 280.857662 
L 765.89223 280.857662 
L 766.520569 279.788176 
L 767.148909 277.649067 
L 767.777248 278.718553 
L 768.405587 278.718553 
L 769.033927 279.788176 
L 769.662266 279.788176 
L 770.290606 277.649067 
L 770.918945 278.718553 
L 771.547285 278.718553 
L 772.175624 277.649067 
L 772.803964 279.788176 
L 773.432303 278.718553 
L 774.060643 278.718553 
L 774.688982 276.579443 
L 775.945661 278.718553 
L 776.574001 278.718553 
L 777.20234 277.649067 
L 777.83068 278.718553 
L 778.459019 277.649067 
L 779.087359 280.857662 
L 779.715698 275.509957 
L 780.344038 279.788176 
L 780.972377 277.649067 
L 782.229056 279.788176 
L 782.857395 276.579443 
L 784.742414 279.788176 
L 785.370753 279.788176 
L 785.999093 277.649067 
L 787.884111 277.649067 
L 788.512451 278.718553 
L 789.14079 277.649067 
L 789.76913 278.718553 
L 790.397469 280.857662 
L 791.025809 278.718553 
L 791.654148 278.718553 
L 792.282488 277.649067 
L 794.167506 277.649067 
L 794.795846 279.788176 
L 795.424185 280.857662 
L 796.680864 278.718553 
L 797.309203 278.718553 
L 797.937543 277.649067 
L 798.565882 278.718553 
L 799.822561 278.718553 
L 800.450901 279.788176 
L 801.07924 279.788176 
L 801.70758 280.857662 
L 802.335919 280.857662 
L 802.964259 279.788176 
L 803.592598 279.788176 
L 804.220938 280.857662 
L 806.105956 277.649067 
L 806.734296 278.718553 
L 807.990975 278.718553 
L 808.619314 279.788176 
L 809.247654 278.718553 
L 809.875993 280.857662 
L 810.504333 279.788176 
L 811.132672 279.788176 
L 811.761011 278.718553 
L 813.64603 278.718553 
L 814.274369 279.788176 
L 815.531048 279.788176 
L 816.159388 280.857662 
L 816.787727 279.788176 
L 816.787727 279.788176 
" clip-path="url(#pfaa5946e26)" style="fill: none; stroke: #ee82ee; stroke-opacity: 0.8; stroke-linecap: square"/>
   </g>
   <g id="patch_3">
    <path d="M 52.13 402.68 
L 52.13 52.08 
" style="fill: none; stroke: #000000; stroke-width: 0.8; stroke-linejoin: miter; stroke-linecap: square"/>
   </g>
   <g id="patch_4">
    <path d="M 853.2 402.68 
L 853.2 52.08 
" style="fill: none; stroke: #000000; stroke-width: 0.8; stroke-linejoin: miter; stroke-linecap: square"/>
   </g>
   <g id="patch_5">
    <path d="M 52.13 402.68 
L 853.2 402.68 
" style="fill: none; stroke: #000000; stroke-width: 0.8; stroke-linejoin: miter; stroke-linecap: square"/>
   </g>
   <g id="patch_6">
    <path d="M 52.13 52.08 
L 853.2 52.08 
" style="fill: none; stroke: #000000; stroke-width: 0.8; stroke-linejoin: miter; stroke-linecap: square"/>
   </g>
   <g id="text_14">
    <!-- Violet Channel -->
    <g transform="translate(410.509688 46.08) scale(0.14 -0.14)">
     <defs>
      <path id="TimesNewRomanPSMT-69" d="M 928 4444 
Q 1059 4444 1151 4351 
Q 1244 4259 1244 4128 
Q 1244 3997 1151 3903 
Q 1059 3809 928 3809 
Q 797 3809 703 3903 
Q 609 3997 609 4128 
Q 609 4259 701 4351 
Q 794 4444 928 4444 
z
M 1188 2947 
L 1188 647 
Q 1188 378 1227 289 
Q 1266 200 1342 156 
Q 1419 113 1622 113 
L 1622 0 
L 231 0 
L 231 113 
Q 441 113 512 153 
Q 584 194 626 287 
Q 669 381 669 647 
L 669 1750 
Q 669 2216 641 2353 
Q 619 2453 572 2492 
Q 525 2531 444 2531 
Q 356 2531 231 2484 
L 188 2597 
L 1050 2947 
L 1188 2947 
z
" transform="scale(0.015625)"/>
      <path id="TimesNewRomanPSMT-6f" d="M 1600 2947 
Q 2250 2947 2644 2453 
Q 2978 2031 2978 1484 
Q 2978 1100 2793 706 
Q 2609 313 2286 112 
Q 1963 -88 1566 -88 
Q 919 -88 538 428 
Q 216 863 216 1403 
Q 216 1797 411 2186 
Q 606 2575 925 2761 
Q 1244 2947 1600 2947 
z
M 1503 2744 
Q 1338 2744 1170 2645 
Q 1003 2547 900 2300 
Q 797 2053 797 1666 
Q 797 1041 1045 587 
Q 1294 134 1700 134 
Q 2003 134 2200 384 
Q 2397 634 2397 1244 
Q 2397 2006 2069 2444 
Q 1847 2744 1503 2744 
z
" transform="scale(0.015625)"/>
      <path id="TimesNewRomanPSMT-6c" d="M 1184 4444 
L 1184 647 
Q 1184 378 1223 290 
Q 1263 203 1344 158 
Q 1425 113 1647 113 
L 1647 0 
L 244 0 
L 244 113 
Q 441 113 512 153 
Q 584 194 625 287 
Q 666 381 666 647 
L 666 3247 
Q 666 3731 644 3842 
Q 622 3953 573 3993 
Q 525 4034 450 4034 
Q 369 4034 244 3984 
L 191 4094 
L 1044 4444 
L 1184 4444 
z
" transform="scale(0.015625)"/>
      <path id="TimesNewRomanPSMT-65" d="M 681 1784 
Q 678 1147 991 784 
Q 1303 422 1725 422 
Q 2006 422 2214 576 
Q 2422 731 2563 1106 
L 2659 1044 
Q 2594 616 2278 264 
Q 1963 -88 1488 -88 
Q 972 -88 605 314 
Q 238 716 238 1394 
Q 238 2128 614 2539 
Q 991 2950 1559 2950 
Q 2041 2950 2350 2633 
Q 2659 2316 2659 1784 
L 681 1784 
z
M 681 1966 
L 2006 1966 
Q 1991 2241 1941 2353 
Q 1863 2528 1708 2628 
Q 1553 2728 1384 2728 
Q 1125 2728 920 2526 
Q 716 2325 681 1966 
z
" transform="scale(0.015625)"/>
      <path id="TimesNewRomanPSMT-74" d="M 1031 3803 
L 1031 2863 
L 1700 2863 
L 1700 2644 
L 1031 2644 
L 1031 788 
Q 1031 509 1111 412 
Q 1191 316 1316 316 
Q 1419 316 1516 380 
Q 1613 444 1666 569 
L 1788 569 
Q 1678 263 1478 108 
Q 1278 -47 1066 -47 
Q 922 -47 784 33 
Q 647 113 581 261 
Q 516 409 516 719 
L 516 2644 
L 63 2644 
L 63 2747 
Q 234 2816 414 2980 
Q 594 3144 734 3369 
Q 806 3488 934 3803 
L 1031 3803 
z
" transform="scale(0.015625)"/>
      <path id="TimesNewRomanPSMT-20" transform="scale(0.015625)"/>
      <path id="TimesNewRomanPSMT-43" d="M 3853 4334 
L 3950 2894 
L 3853 2894 
Q 3659 3541 3300 3825 
Q 2941 4109 2438 4109 
Q 2016 4109 1675 3895 
Q 1334 3681 1139 3212 
Q 944 2744 944 2047 
Q 944 1472 1128 1050 
Q 1313 628 1683 403 
Q 2053 178 2528 178 
Q 2941 178 3256 354 
Q 3572 531 3950 1056 
L 4047 994 
Q 3728 428 3303 165 
Q 2878 -97 2294 -97 
Q 1241 -97 663 684 
Q 231 1266 231 2053 
Q 231 2688 515 3219 
Q 800 3750 1298 4042 
Q 1797 4334 2388 4334 
Q 2847 4334 3294 4109 
Q 3425 4041 3481 4041 
Q 3566 4041 3628 4100 
Q 3709 4184 3744 4334 
L 3853 4334 
z
" transform="scale(0.015625)"/>
      <path id="TimesNewRomanPSMT-68" d="M 1041 4444 
L 1041 2350 
Q 1388 2731 1591 2839 
Q 1794 2947 1997 2947 
Q 2241 2947 2416 2812 
Q 2591 2678 2675 2391 
Q 2734 2191 2734 1659 
L 2734 647 
Q 2734 375 2778 275 
Q 2809 200 2884 156 
Q 2959 113 3159 113 
L 3159 0 
L 1753 0 
L 1753 113 
L 1819 113 
Q 2019 113 2097 173 
Q 2175 234 2206 353 
Q 2216 403 2216 647 
L 2216 1659 
Q 2216 2128 2167 2275 
Q 2119 2422 2012 2495 
Q 1906 2569 1756 2569 
Q 1603 2569 1437 2487 
Q 1272 2406 1041 2159 
L 1041 647 
Q 1041 353 1073 281 
Q 1106 209 1195 161 
Q 1284 113 1503 113 
L 1503 0 
L 84 0 
L 84 113 
Q 275 113 384 172 
Q 447 203 484 290 
Q 522 378 522 647 
L 522 3238 
Q 522 3728 498 3840 
Q 475 3953 426 3993 
Q 378 4034 297 4034 
Q 231 4034 84 3984 
L 41 4094 
L 897 4444 
L 1041 4444 
z
" transform="scale(0.015625)"/>
      <path id="TimesNewRomanPSMT-61" d="M 1822 413 
Q 1381 72 1269 19 
Q 1100 -59 909 -59 
Q 613 -59 420 144 
Q 228 347 228 678 
Q 228 888 322 1041 
Q 450 1253 767 1440 
Q 1084 1628 1822 1897 
L 1822 2009 
Q 1822 2438 1686 2597 
Q 1550 2756 1291 2756 
Q 1094 2756 978 2650 
Q 859 2544 859 2406 
L 866 2225 
Q 866 2081 792 2003 
Q 719 1925 600 1925 
Q 484 1925 411 2006 
Q 338 2088 338 2228 
Q 338 2497 613 2722 
Q 888 2947 1384 2947 
Q 1766 2947 2009 2819 
Q 2194 2722 2281 2516 
Q 2338 2381 2338 1966 
L 2338 994 
Q 2338 584 2353 492 
Q 2369 400 2405 369 
Q 2441 338 2488 338 
Q 2538 338 2575 359 
Q 2641 400 2828 588 
L 2828 413 
Q 2478 -56 2159 -56 
Q 2006 -56 1915 50 
Q 1825 156 1822 413 
z
M 1822 616 
L 1822 1706 
Q 1350 1519 1213 1441 
Q 966 1303 859 1153 
Q 753 1003 753 825 
Q 753 600 887 451 
Q 1022 303 1197 303 
Q 1434 303 1822 616 
z
" transform="scale(0.015625)"/>
      <path id="TimesNewRomanPSMT-6e" d="M 1034 2341 
Q 1538 2947 1994 2947 
Q 2228 2947 2397 2830 
Q 2566 2713 2666 2444 
Q 2734 2256 2734 1869 
L 2734 647 
Q 2734 375 2778 278 
Q 2813 200 2889 156 
Q 2966 113 3172 113 
L 3172 0 
L 1756 0 
L 1756 113 
L 1816 113 
Q 2016 113 2095 173 
Q 2175 234 2206 353 
Q 2219 400 2219 647 
L 2219 1819 
Q 2219 2209 2117 2386 
Q 2016 2563 1775 2563 
Q 1403 2563 1034 2156 
L 1034 647 
Q 1034 356 1069 288 
Q 1113 197 1189 155 
Q 1266 113 1500 113 
L 1500 0 
L 84 0 
L 84 113 
L 147 113 
Q 366 113 442 223 
Q 519 334 519 647 
L 519 1709 
Q 519 2225 495 2337 
Q 472 2450 423 2490 
Q 375 2531 294 2531 
Q 206 2531 84 2484 
L 38 2597 
L 900 2947 
L 1034 2947 
L 1034 2341 
z
" transform="scale(0.015625)"/>
     </defs>
     <use xlink:href="#TimesNewRomanPSMT-56"/>
     <use xlink:href="#TimesNewRomanPSMT-69" transform="translate(66.216797 0)"/>
     <use xlink:href="#TimesNewRomanPSMT-6f" transform="translate(94 0)"/>
     <use xlink:href="#TimesNewRomanPSMT-6c" transform="translate(144 0)"/>
     <use xlink:href="#TimesNewRomanPSMT-65" transform="translate(171.783203 0)"/>
     <use xlink:href="#TimesNewRomanPSMT-74" transform="translate(216.167969 0)"/>
     <use xlink:href="#TimesNewRomanPSMT-20" transform="translate(243.951172 0)"/>
     <use xlink:href="#TimesNewRomanPSMT-43" transform="translate(268.951172 0)"/>
     <use xlink:href="#TimesNewRomanPSMT-68" transform="translate(335.650391 0)"/>
     <use xlink:href="#TimesNewRomanPSMT-61" transform="translate(385.650391 0)"/>
     <use xlink:href="#TimesNewRomanPSMT-6e" transform="translate(430.035156 0)"/>
     <use xlink:href="#TimesNewRomanPSMT-6e" transform="translate(480.035156 0)"/>
     <use xlink:href="#TimesNewRomanPSMT-65" transform="translate(530.035156 0)"/>
     <use xlink:href="#TimesNewRomanPSMT-6c" transform="translate(574.419922 0)"/>
    </g>
   </g>
   <g id="legend_1">
    <g id="patch_7">
     <path d="M 736.42125 78.669375 
L 844.8 78.669375 
Q 847.2 78.669375 847.2 76.269375 
L 847.2 60.48 
Q 847.2 58.08 844.8 58.08 
L 736.42125 58.08 
Q 734.02125 58.08 734.02125 60.48 
L 734.02125 76.269375 
Q 734.02125 78.669375 736.42125 78.669375 
z
" style="fill: #ffffff; opacity: 0.8; stroke: #cccccc; stroke-linejoin: miter"/>
    </g>
    <g id="line2d_26">
     <path d="M 738.82125 67.08 
L 750.82125 67.08 
L 762.82125 67.08 
" style="fill: none; stroke: #ee82ee; stroke-opacity: 0.8; stroke-linecap: square"/>
    </g>
    <g id="text_15">
     <!-- Original(Raw) -->
     <g transform="translate(772.42125 71.28) scale(0.12 -0.12)">
      <defs>
       <path id="TimesNewRomanPSMT-4f" d="M 2341 4334 
Q 3166 4334 3770 3707 
Q 4375 3081 4375 2144 
Q 4375 1178 3765 540 
Q 3156 -97 2291 -97 
Q 1416 -97 820 525 
Q 225 1147 225 2134 
Q 225 3144 913 3781 
Q 1509 4334 2341 4334 
z
M 2281 4106 
Q 1713 4106 1369 3684 
Q 941 3159 941 2147 
Q 941 1109 1384 550 
Q 1725 125 2284 125 
Q 2881 125 3270 590 
Q 3659 1056 3659 2059 
Q 3659 3147 3231 3681 
Q 2888 4106 2281 4106 
z
" transform="scale(0.015625)"/>
       <path id="TimesNewRomanPSMT-72" d="M 1038 2947 
L 1038 2303 
Q 1397 2947 1775 2947 
Q 1947 2947 2059 2842 
Q 2172 2738 2172 2600 
Q 2172 2478 2090 2393 
Q 2009 2309 1897 2309 
Q 1788 2309 1652 2417 
Q 1516 2525 1450 2525 
Q 1394 2525 1328 2463 
Q 1188 2334 1038 2041 
L 1038 669 
Q 1038 431 1097 309 
Q 1138 225 1241 169 
Q 1344 113 1538 113 
L 1538 0 
L 72 0 
L 72 113 
Q 291 113 397 181 
Q 475 231 506 341 
Q 522 394 522 644 
L 522 1753 
Q 522 2253 501 2348 
Q 481 2444 426 2487 
Q 372 2531 291 2531 
Q 194 2531 72 2484 
L 41 2597 
L 906 2947 
L 1038 2947 
z
" transform="scale(0.015625)"/>
       <path id="TimesNewRomanPSMT-67" d="M 966 1044 
Q 703 1172 562 1401 
Q 422 1631 422 1909 
Q 422 2334 742 2640 
Q 1063 2947 1563 2947 
Q 1972 2947 2272 2747 
L 2878 2747 
Q 3013 2747 3034 2739 
Q 3056 2731 3066 2713 
Q 3084 2684 3084 2613 
Q 3084 2531 3069 2500 
Q 3059 2484 3036 2475 
Q 3013 2466 2878 2466 
L 2506 2466 
Q 2681 2241 2681 1891 
Q 2681 1491 2375 1206 
Q 2069 922 1553 922 
Q 1341 922 1119 984 
Q 981 866 932 777 
Q 884 688 884 625 
Q 884 572 936 522 
Q 988 472 1138 450 
Q 1225 438 1575 428 
Q 2219 413 2409 384 
Q 2700 344 2873 169 
Q 3047 -6 3047 -263 
Q 3047 -616 2716 -925 
Q 2228 -1381 1444 -1381 
Q 841 -1381 425 -1109 
Q 191 -953 191 -784 
Q 191 -709 225 -634 
Q 278 -519 444 -313 
Q 466 -284 763 25 
Q 600 122 533 198 
Q 466 275 466 372 
Q 466 481 555 628 
Q 644 775 966 1044 
z
M 1509 2797 
Q 1278 2797 1122 2612 
Q 966 2428 966 2047 
Q 966 1553 1178 1281 
Q 1341 1075 1591 1075 
Q 1828 1075 1981 1253 
Q 2134 1431 2134 1813 
Q 2134 2309 1919 2591 
Q 1759 2797 1509 2797 
z
M 934 0 
Q 788 -159 713 -296 
Q 638 -434 638 -550 
Q 638 -700 819 -813 
Q 1131 -1006 1722 -1006 
Q 2284 -1006 2551 -807 
Q 2819 -609 2819 -384 
Q 2819 -222 2659 -153 
Q 2497 -84 2016 -72 
Q 1313 -53 934 0 
z
" transform="scale(0.015625)"/>
       <path id="TimesNewRomanPSMT-28" d="M 1988 -1253 
L 1988 -1369 
Q 1516 -1131 1200 -813 
Q 750 -359 506 256 
Q 263 872 263 1534 
Q 263 2503 741 3301 
Q 1219 4100 1988 4444 
L 1988 4313 
Q 1603 4100 1356 3731 
Q 1109 3363 987 2797 
Q 866 2231 866 1616 
Q 866 947 969 400 
Q 1050 -31 1165 -292 
Q 1281 -553 1476 -793 
Q 1672 -1034 1988 -1253 
z
" transform="scale(0.015625)"/>
       <path id="TimesNewRomanPSMT-52" d="M 4325 0 
L 3194 0 
L 1759 1981 
Q 1600 1975 1500 1975 
Q 1459 1975 1412 1976 
Q 1366 1978 1316 1981 
L 1316 750 
Q 1316 350 1403 253 
Q 1522 116 1759 116 
L 1925 116 
L 1925 0 
L 109 0 
L 109 116 
L 269 116 
Q 538 116 653 291 
Q 719 388 719 750 
L 719 3488 
Q 719 3888 631 3984 
Q 509 4122 269 4122 
L 109 4122 
L 109 4238 
L 1653 4238 
Q 2328 4238 2648 4139 
Q 2969 4041 3192 3777 
Q 3416 3513 3416 3147 
Q 3416 2756 3161 2468 
Q 2906 2181 2372 2063 
L 3247 847 
Q 3547 428 3762 290 
Q 3978 153 4325 116 
L 4325 0 
z
M 1316 2178 
Q 1375 2178 1419 2176 
Q 1463 2175 1491 2175 
Q 2097 2175 2405 2437 
Q 2713 2700 2713 3106 
Q 2713 3503 2464 3751 
Q 2216 4000 1806 4000 
Q 1625 4000 1316 3941 
L 1316 2178 
z
" transform="scale(0.015625)"/>
       <path id="TimesNewRomanPSMT-77" d="M 41 2863 
L 1241 2863 
L 1241 2747 
Q 1075 2734 1023 2687 
Q 972 2641 972 2553 
Q 972 2456 1025 2319 
L 1638 672 
L 2253 2013 
L 2091 2434 
Q 2016 2622 1894 2694 
Q 1825 2738 1638 2747 
L 1638 2863 
L 3000 2863 
L 3000 2747 
Q 2775 2738 2681 2666 
Q 2619 2616 2619 2506 
Q 2619 2444 2644 2378 
L 3294 734 
L 3897 2319 
Q 3959 2488 3959 2588 
Q 3959 2647 3898 2694 
Q 3838 2741 3659 2747 
L 3659 2863 
L 4563 2863 
L 4563 2747 
Q 4291 2706 4163 2378 
L 3206 -88 
L 3078 -88 
L 2363 1741 
L 1528 -88 
L 1413 -88 
L 494 2319 
Q 403 2547 315 2626 
Q 228 2706 41 2747 
L 41 2863 
z
" transform="scale(0.015625)"/>
       <path id="TimesNewRomanPSMT-29" d="M 144 4313 
L 144 4444 
Q 619 4209 934 3891 
Q 1381 3434 1625 2820 
Q 1869 2206 1869 1541 
Q 1869 572 1392 -226 
Q 916 -1025 144 -1369 
L 144 -1253 
Q 528 -1038 776 -670 
Q 1025 -303 1145 264 
Q 1266 831 1266 1447 
Q 1266 2113 1163 2663 
Q 1084 3094 967 3353 
Q 850 3613 656 3853 
Q 463 4094 144 4313 
z
" transform="scale(0.015625)"/>
      </defs>
      <use xlink:href="#TimesNewRomanPSMT-4f"/>
      <use xlink:href="#TimesNewRomanPSMT-72" transform="translate(72.216797 0)"/>
      <use xlink:href="#TimesNewRomanPSMT-69" transform="translate(105.517578 0)"/>
      <use xlink:href="#TimesNewRomanPSMT-67" transform="translate(133.300781 0)"/>
      <use xlink:href="#TimesNewRomanPSMT-69" transform="translate(183.300781 0)"/>
      <use xlink:href="#TimesNewRomanPSMT-6e" transform="translate(211.083984 0)"/>
      <use xlink:href="#TimesNewRomanPSMT-61" transform="translate(261.083984 0)"/>
      <use xlink:href="#TimesNewRomanPSMT-6c" transform="translate(305.46875 0)"/>
      <use xlink:href="#TimesNewRomanPSMT-28" transform="translate(333.251953 0)"/>
      <use xlink:href="#TimesNewRomanPSMT-52" transform="translate(366.552734 0)"/>
      <use xlink:href="#TimesNewRomanPSMT-61" transform="translate(433.251953 0)"/>
      <use xlink:href="#TimesNewRomanPSMT-77" transform="translate(477.636719 0)"/>
      <use xlink:href="#TimesNewRomanPSMT-29" transform="translate(549.853516 0)"/>
     </g>
    </g>
   </g>
  </g>
  <g id="text_16">
   <!-- Radiation Variation - Violet (0.0-1.0) -->
   <g transform="translate(313.68125 19.75) scale(0.16 -0.16)">
    <defs>
     <path id="TimesNewRomanPSMT-64" d="M 2222 322 
Q 2013 103 1813 7 
Q 1613 -88 1381 -88 
Q 913 -88 563 304 
Q 213 697 213 1313 
Q 213 1928 600 2439 
Q 988 2950 1597 2950 
Q 1975 2950 2222 2709 
L 2222 3238 
Q 2222 3728 2198 3840 
Q 2175 3953 2125 3993 
Q 2075 4034 2000 4034 
Q 1919 4034 1784 3984 
L 1744 4094 
L 2597 4444 
L 2738 4444 
L 2738 1134 
Q 2738 631 2761 520 
Q 2784 409 2836 365 
Q 2888 322 2956 322 
Q 3041 322 3181 375 
L 3216 266 
L 2366 -88 
L 2222 -88 
L 2222 322 
z
M 2222 541 
L 2222 2016 
Q 2203 2228 2109 2403 
Q 2016 2578 1861 2667 
Q 1706 2756 1559 2756 
Q 1284 2756 1069 2509 
Q 784 2184 784 1559 
Q 784 928 1059 592 
Q 1334 256 1672 256 
Q 1956 256 2222 541 
z
" transform="scale(0.015625)"/>
    </defs>
    <use xlink:href="#TimesNewRomanPSMT-52"/>
    <use xlink:href="#TimesNewRomanPSMT-61" transform="translate(66.699219 0)"/>
    <use xlink:href="#TimesNewRomanPSMT-64" transform="translate(111.083984 0)"/>
    <use xlink:href="#TimesNewRomanPSMT-69" transform="translate(161.083984 0)"/>
    <use xlink:href="#TimesNewRomanPSMT-61" transform="translate(188.867188 0)"/>
    <use xlink:href="#TimesNewRomanPSMT-74" transform="translate(233.251953 0)"/>
    <use xlink:href="#TimesNewRomanPSMT-69" transform="translate(261.035156 0)"/>
    <use xlink:href="#TimesNewRomanPSMT-6f" transform="translate(288.818359 0)"/>
    <use xlink:href="#TimesNewRomanPSMT-6e" transform="translate(338.818359 0)"/>
    <use xlink:href="#TimesNewRomanPSMT-20" transform="translate(388.818359 0)"/>
    <use xlink:href="#TimesNewRomanPSMT-56" transform="translate(412.068359 0)"/>
    <use xlink:href="#TimesNewRomanPSMT-61" transform="translate(473.160156 0)"/>
    <use xlink:href="#TimesNewRomanPSMT-72" transform="translate(517.544922 0)"/>
    <use xlink:href="#TimesNewRomanPSMT-69" transform="translate(550.845703 0)"/>
    <use xlink:href="#TimesNewRomanPSMT-61" transform="translate(578.628906 0)"/>
    <use xlink:href="#TimesNewRomanPSMT-74" transform="translate(623.013672 0)"/>
    <use xlink:href="#TimesNewRomanPSMT-69" transform="translate(650.796875 0)"/>
    <use xlink:href="#TimesNewRomanPSMT-6f" transform="translate(678.580078 0)"/>
    <use xlink:href="#TimesNewRomanPSMT-6e" transform="translate(728.580078 0)"/>
    <use xlink:href="#TimesNewRomanPSMT-20" transform="translate(778.580078 0)"/>
    <use xlink:href="#TimesNewRomanPSMT-2d" transform="translate(803.580078 0)"/>
    <use xlink:href="#TimesNewRomanPSMT-20" transform="translate(836.880859 0)"/>
    <use xlink:href="#TimesNewRomanPSMT-56" transform="translate(860.130859 0)"/>
    <use xlink:href="#TimesNewRomanPSMT-69" transform="translate(926.347656 0)"/>
    <use xlink:href="#TimesNewRomanPSMT-6f" transform="translate(954.130859 0)"/>
    <use xlink:href="#TimesNewRomanPSMT-6c" transform="translate(1004.130859 0)"/>
    <use xlink:href="#TimesNewRomanPSMT-65" transform="translate(1031.914062 0)"/>
    <use xlink:href="#TimesNewRomanPSMT-74" transform="translate(1076.298828 0)"/>
    <use xlink:href="#TimesNewRomanPSMT-20" transform="translate(1104.082031 0)"/>
    <use xlink:href="#TimesNewRomanPSMT-28" transform="translate(1129.082031 0)"/>
    <use xlink:href="#TimesNewRomanPSMT-30" transform="translate(1162.382812 0)"/>
    <use xlink:href="#TimesNewRomanPSMT-2e" transform="translate(1212.382812 0)"/>
    <use xlink:href="#TimesNewRomanPSMT-30" transform="translate(1237.382812 0)"/>
    <use xlink:href="#TimesNewRomanPSMT-2d" transform="translate(1287.382812 0)"/>
    <use xlink:href="#TimesNewRomanPSMT-31" transform="translate(1320.683594 0)"/>
    <use xlink:href="#TimesNewRomanPSMT-2e" transform="translate(1370.683594 0)"/>
    <use xlink:href="#TimesNewRomanPSMT-30" transform="translate(1395.683594 0)"/>
    <use xlink:href="#TimesNewRomanPSMT-29" transform="translate(1445.683594 0)"/>
   </g>
  </g>
 </g>
 <defs>
  <clipPath id="pfaa5946e26">
   <rect x="52.13" y="52.08" width="801.07" height="350.6"/>
  </clipPath>
 </defs>
</svg>
