<?xml version="1.0" encoding="utf-8" standalone="no"?>
<!DOCTYPE svg PUBLIC "-//W3C//DTD SVG 1.1//EN"
  "http://www.w3.org/Graphics/SVG/1.1/DTD/svg11.dtd">
<svg xmlns:xlink="http://www.w3.org/1999/xlink" width="864pt" height="432pt" viewBox="0 0 864 432" xmlns="http://www.w3.org/2000/svg" version="1.1">
 <metadata>
  <rdf:RDF xmlns:dc="http://purl.org/dc/elements/1.1/" xmlns:cc="http://creativecommons.org/ns#" xmlns:rdf="http://www.w3.org/1999/02/22-rdf-syntax-ns#">
   <cc:Work>
    <dc:type rdf:resource="http://purl.org/dc/dcmitype/StillImage"/>
    <dc:date>2025-12-26T14:28:30.381391</dc:date>
    <dc:format>image/svg+xml</dc:format>
    <dc:creator>
     <cc:Agent>
      <dc:title>Matplotlib v3.10.7, https://matplotlib.org/</dc:title>
     </cc:Agent>
    </dc:creator>
   </cc:Work>
  </rdf:RDF>
 </metadata>
 <defs>
  <style type="text/css">*{stroke-linejoin: round; stroke-linecap: butt}</style>
 </defs>
 <g id="figure_1">
  <g id="patch_1">
   <path d="M 0 432 
L 864 432 
L 864 0 
L 0 0 
z
" style="fill: #ffffff"/>
  </g>
  <g id="axes_1">
   <g id="patch_2">
    <path d="M 48.26 402.68 
L 853.2 402.68 
L 853.2 52.08 
L 48.26 52.08 
z
" style="fill: #ffffff"/>
   </g>
   <g id="matplotlib.axis_1">
    <g id="xtick_1">
     <g id="line2d_1">
      <path d="M 75.630107 402.68 
L 75.630107 52.08 
" clip-path="url(#pef3b8640e8)" style="fill: none; stroke: #b0b0b0; stroke-opacity: 0.3; stroke-width: 0.8; stroke-linecap: square"/>
     </g>
     <g id="line2d_2">
      <defs>
       <path id="m1ab10c7eb5" d="M 0 0 
L 0 3.5 
" style="stroke: #000000; stroke-width: 0.8"/>
      </defs>
      <g>
       <use xlink:href="#m1ab10c7eb5" x="75.630107" y="402.68" style="stroke: #000000; stroke-width: 0.8"/>
      </g>
     </g>
     <g id="text_1">
      <!-- 12:30 -->
      <g transform="translate(61.963232 418.0125) scale(0.12 -0.12)">
       <defs>
        <path id="TimesNewRomanPSMT-31" d="M 750 3822 
L 1781 4325 
L 1884 4325 
L 1884 747 
Q 1884 391 1914 303 
Q 1944 216 2037 169 
Q 2131 122 2419 116 
L 2419 0 
L 825 0 
L 825 116 
Q 1125 122 1212 167 
Q 1300 213 1334 289 
Q 1369 366 1369 747 
L 1369 3034 
Q 1369 3497 1338 3628 
Q 1316 3728 1258 3775 
Q 1200 3822 1119 3822 
Q 1003 3822 797 3725 
L 750 3822 
z
" transform="scale(0.015625)"/>
        <path id="TimesNewRomanPSMT-32" d="M 2934 816 
L 2638 0 
L 138 0 
L 138 116 
Q 1241 1122 1691 1759 
Q 2141 2397 2141 2925 
Q 2141 3328 1894 3587 
Q 1647 3847 1303 3847 
Q 991 3847 742 3664 
Q 494 3481 375 3128 
L 259 3128 
Q 338 3706 661 4015 
Q 984 4325 1469 4325 
Q 1984 4325 2329 3994 
Q 2675 3663 2675 3213 
Q 2675 2891 2525 2569 
Q 2294 2063 1775 1497 
Q 997 647 803 472 
L 1909 472 
Q 2247 472 2383 497 
Q 2519 522 2628 598 
Q 2738 675 2819 816 
L 2934 816 
z
" transform="scale(0.015625)"/>
        <path id="TimesNewRomanPSMT-3a" d="M 903 2950 
Q 1047 2950 1148 2848 
Q 1250 2747 1250 2603 
Q 1250 2459 1148 2357 
Q 1047 2256 903 2256 
Q 759 2256 657 2357 
Q 556 2459 556 2603 
Q 556 2747 657 2848 
Q 759 2950 903 2950 
z
M 897 609 
Q 1044 609 1145 506 
Q 1247 403 1247 259 
Q 1247 116 1144 14 
Q 1041 -88 897 -88 
Q 753 -88 651 14 
Q 550 116 550 259 
Q 550 403 651 506 
Q 753 609 897 609 
z
" transform="scale(0.015625)"/>
        <path id="TimesNewRomanPSMT-33" d="M 325 3431 
Q 506 3859 782 4092 
Q 1059 4325 1472 4325 
Q 1981 4325 2253 3994 
Q 2459 3747 2459 3466 
Q 2459 3003 1878 2509 
Q 2269 2356 2469 2072 
Q 2669 1788 2669 1403 
Q 2669 853 2319 450 
Q 1863 -75 997 -75 
Q 569 -75 414 31 
Q 259 138 259 259 
Q 259 350 332 419 
Q 406 488 509 488 
Q 588 488 669 463 
Q 722 447 909 348 
Q 1097 250 1169 231 
Q 1284 197 1416 197 
Q 1734 197 1970 444 
Q 2206 691 2206 1028 
Q 2206 1275 2097 1509 
Q 2016 1684 1919 1775 
Q 1784 1900 1550 2001 
Q 1316 2103 1072 2103 
L 972 2103 
L 972 2197 
Q 1219 2228 1467 2375 
Q 1716 2522 1828 2728 
Q 1941 2934 1941 3181 
Q 1941 3503 1739 3701 
Q 1538 3900 1238 3900 
Q 753 3900 428 3381 
L 325 3431 
z
" transform="scale(0.015625)"/>
        <path id="TimesNewRomanPSMT-30" d="M 231 2094 
Q 231 2819 450 3342 
Q 669 3866 1031 4122 
Q 1313 4325 1613 4325 
Q 2100 4325 2488 3828 
Q 2972 3213 2972 2159 
Q 2972 1422 2759 906 
Q 2547 391 2217 158 
Q 1888 -75 1581 -75 
Q 975 -75 572 641 
Q 231 1244 231 2094 
z
M 844 2016 
Q 844 1141 1059 588 
Q 1238 122 1591 122 
Q 1759 122 1940 273 
Q 2122 425 2216 781 
Q 2359 1319 2359 2297 
Q 2359 3022 2209 3506 
Q 2097 3866 1919 4016 
Q 1791 4119 1609 4119 
Q 1397 4119 1231 3928 
Q 1006 3669 925 3112 
Q 844 2556 844 2016 
z
" transform="scale(0.015625)"/>
       </defs>
       <use xlink:href="#TimesNewRomanPSMT-31"/>
       <use xlink:href="#TimesNewRomanPSMT-32" transform="translate(50 0)"/>
       <use xlink:href="#TimesNewRomanPSMT-3a" transform="translate(100 0)"/>
       <use xlink:href="#TimesNewRomanPSMT-33" transform="translate(127.783203 0)"/>
       <use xlink:href="#TimesNewRomanPSMT-30" transform="translate(177.783203 0)"/>
      </g>
     </g>
    </g>
    <g id="xtick_2">
     <g id="line2d_3">
      <path d="M 189.277608 402.68 
L 189.277608 52.08 
" clip-path="url(#pef3b8640e8)" style="fill: none; stroke: #b0b0b0; stroke-opacity: 0.3; stroke-width: 0.8; stroke-linecap: square"/>
     </g>
     <g id="line2d_4">
      <g>
       <use xlink:href="#m1ab10c7eb5" x="189.277608" y="402.68" style="stroke: #000000; stroke-width: 0.8"/>
      </g>
     </g>
     <g id="text_2">
      <!-- 13:00 -->
      <g transform="translate(175.610733 418.0125) scale(0.12 -0.12)">
       <use xlink:href="#TimesNewRomanPSMT-31"/>
       <use xlink:href="#TimesNewRomanPSMT-33" transform="translate(50 0)"/>
       <use xlink:href="#TimesNewRomanPSMT-3a" transform="translate(100 0)"/>
       <use xlink:href="#TimesNewRomanPSMT-30" transform="translate(127.783203 0)"/>
       <use xlink:href="#TimesNewRomanPSMT-30" transform="translate(177.783203 0)"/>
      </g>
     </g>
    </g>
    <g id="xtick_3">
     <g id="line2d_5">
      <path d="M 302.92511 402.68 
L 302.92511 52.08 
" clip-path="url(#pef3b8640e8)" style="fill: none; stroke: #b0b0b0; stroke-opacity: 0.3; stroke-width: 0.8; stroke-linecap: square"/>
     </g>
     <g id="line2d_6">
      <g>
       <use xlink:href="#m1ab10c7eb5" x="302.92511" y="402.68" style="stroke: #000000; stroke-width: 0.8"/>
      </g>
     </g>
     <g id="text_3">
      <!-- 13:30 -->
      <g transform="translate(289.258235 418.0125) scale(0.12 -0.12)">
       <use xlink:href="#TimesNewRomanPSMT-31"/>
       <use xlink:href="#TimesNewRomanPSMT-33" transform="translate(50 0)"/>
       <use xlink:href="#TimesNewRomanPSMT-3a" transform="translate(100 0)"/>
       <use xlink:href="#TimesNewRomanPSMT-33" transform="translate(127.783203 0)"/>
       <use xlink:href="#TimesNewRomanPSMT-30" transform="translate(177.783203 0)"/>
      </g>
     </g>
    </g>
    <g id="xtick_4">
     <g id="line2d_7">
      <path d="M 416.572612 402.68 
L 416.572612 52.08 
" clip-path="url(#pef3b8640e8)" style="fill: none; stroke: #b0b0b0; stroke-opacity: 0.3; stroke-width: 0.8; stroke-linecap: square"/>
     </g>
     <g id="line2d_8">
      <g>
       <use xlink:href="#m1ab10c7eb5" x="416.572612" y="402.68" style="stroke: #000000; stroke-width: 0.8"/>
      </g>
     </g>
     <g id="text_4">
      <!-- 14:00 -->
      <g transform="translate(402.905737 418.0125) scale(0.12 -0.12)">
       <defs>
        <path id="TimesNewRomanPSMT-34" d="M 2978 1563 
L 2978 1119 
L 2409 1119 
L 2409 0 
L 1894 0 
L 1894 1119 
L 100 1119 
L 100 1519 
L 2066 4325 
L 2409 4325 
L 2409 1563 
L 2978 1563 
z
M 1894 1563 
L 1894 3666 
L 406 1563 
L 1894 1563 
z
" transform="scale(0.015625)"/>
       </defs>
       <use xlink:href="#TimesNewRomanPSMT-31"/>
       <use xlink:href="#TimesNewRomanPSMT-34" transform="translate(50 0)"/>
       <use xlink:href="#TimesNewRomanPSMT-3a" transform="translate(100 0)"/>
       <use xlink:href="#TimesNewRomanPSMT-30" transform="translate(127.783203 0)"/>
       <use xlink:href="#TimesNewRomanPSMT-30" transform="translate(177.783203 0)"/>
      </g>
     </g>
    </g>
    <g id="xtick_5">
     <g id="line2d_9">
      <path d="M 530.220114 402.68 
L 530.220114 52.08 
" clip-path="url(#pef3b8640e8)" style="fill: none; stroke: #b0b0b0; stroke-opacity: 0.3; stroke-width: 0.8; stroke-linecap: square"/>
     </g>
     <g id="line2d_10">
      <g>
       <use xlink:href="#m1ab10c7eb5" x="530.220114" y="402.68" style="stroke: #000000; stroke-width: 0.8"/>
      </g>
     </g>
     <g id="text_5">
      <!-- 14:30 -->
      <g transform="translate(516.553239 418.0125) scale(0.12 -0.12)">
       <use xlink:href="#TimesNewRomanPSMT-31"/>
       <use xlink:href="#TimesNewRomanPSMT-34" transform="translate(50 0)"/>
       <use xlink:href="#TimesNewRomanPSMT-3a" transform="translate(100 0)"/>
       <use xlink:href="#TimesNewRomanPSMT-33" transform="translate(127.783203 0)"/>
       <use xlink:href="#TimesNewRomanPSMT-30" transform="translate(177.783203 0)"/>
      </g>
     </g>
    </g>
    <g id="xtick_6">
     <g id="line2d_11">
      <path d="M 643.867615 402.68 
L 643.867615 52.08 
" clip-path="url(#pef3b8640e8)" style="fill: none; stroke: #b0b0b0; stroke-opacity: 0.3; stroke-width: 0.8; stroke-linecap: square"/>
     </g>
     <g id="line2d_12">
      <g>
       <use xlink:href="#m1ab10c7eb5" x="643.867615" y="402.68" style="stroke: #000000; stroke-width: 0.8"/>
      </g>
     </g>
     <g id="text_6">
      <!-- 15:00 -->
      <g transform="translate(630.20074 418.0125) scale(0.12 -0.12)">
       <defs>
        <path id="TimesNewRomanPSMT-35" d="M 2778 4238 
L 2534 3706 
L 1259 3706 
L 981 3138 
Q 1809 3016 2294 2522 
Q 2709 2097 2709 1522 
Q 2709 1188 2573 903 
Q 2438 619 2231 419 
Q 2025 219 1772 97 
Q 1413 -75 1034 -75 
Q 653 -75 479 54 
Q 306 184 306 341 
Q 306 428 378 495 
Q 450 563 559 563 
Q 641 563 702 538 
Q 763 513 909 409 
Q 1144 247 1384 247 
Q 1750 247 2026 523 
Q 2303 800 2303 1197 
Q 2303 1581 2056 1914 
Q 1809 2247 1375 2428 
Q 1034 2569 447 2591 
L 1259 4238 
L 2778 4238 
z
" transform="scale(0.015625)"/>
       </defs>
       <use xlink:href="#TimesNewRomanPSMT-31"/>
       <use xlink:href="#TimesNewRomanPSMT-35" transform="translate(50 0)"/>
       <use xlink:href="#TimesNewRomanPSMT-3a" transform="translate(100 0)"/>
       <use xlink:href="#TimesNewRomanPSMT-30" transform="translate(127.783203 0)"/>
       <use xlink:href="#TimesNewRomanPSMT-30" transform="translate(177.783203 0)"/>
      </g>
     </g>
    </g>
    <g id="xtick_7">
     <g id="line2d_13">
      <path d="M 757.515117 402.68 
L 757.515117 52.08 
" clip-path="url(#pef3b8640e8)" style="fill: none; stroke: #b0b0b0; stroke-opacity: 0.3; stroke-width: 0.8; stroke-linecap: square"/>
     </g>
     <g id="line2d_14">
      <g>
       <use xlink:href="#m1ab10c7eb5" x="757.515117" y="402.68" style="stroke: #000000; stroke-width: 0.8"/>
      </g>
     </g>
     <g id="text_7">
      <!-- 15:30 -->
      <g transform="translate(743.848242 418.0125) scale(0.12 -0.12)">
       <use xlink:href="#TimesNewRomanPSMT-31"/>
       <use xlink:href="#TimesNewRomanPSMT-35" transform="translate(50 0)"/>
       <use xlink:href="#TimesNewRomanPSMT-3a" transform="translate(100 0)"/>
       <use xlink:href="#TimesNewRomanPSMT-33" transform="translate(127.783203 0)"/>
       <use xlink:href="#TimesNewRomanPSMT-30" transform="translate(177.783203 0)"/>
      </g>
     </g>
    </g>
   </g>
   <g id="matplotlib.axis_2">
    <g id="ytick_1">
     <g id="line2d_15">
      <path d="M 48.26 388.624033 
L 853.2 388.624033 
" clip-path="url(#pef3b8640e8)" style="fill: none; stroke: #b0b0b0; stroke-opacity: 0.3; stroke-width: 0.8; stroke-linecap: square"/>
     </g>
     <g id="line2d_16">
      <defs>
       <path id="m5dc9f7e0e0" d="M 0 0 
L -3.5 0 
" style="stroke: #000000; stroke-width: 0.8"/>
      </defs>
      <g>
       <use xlink:href="#m5dc9f7e0e0" x="48.26" y="388.624033" style="stroke: #000000; stroke-width: 0.8"/>
      </g>
     </g>
     <g id="text_8">
      <!-- 0.0 -->
      <g transform="translate(26.26 392.790283) scale(0.12 -0.12)">
       <defs>
        <path id="TimesNewRomanPSMT-2e" d="M 800 606 
Q 947 606 1047 504 
Q 1147 403 1147 259 
Q 1147 116 1045 14 
Q 944 -88 800 -88 
Q 656 -88 554 14 
Q 453 116 453 259 
Q 453 406 554 506 
Q 656 606 800 606 
z
" transform="scale(0.015625)"/>
       </defs>
       <use xlink:href="#TimesNewRomanPSMT-30"/>
       <use xlink:href="#TimesNewRomanPSMT-2e" transform="translate(50 0)"/>
       <use xlink:href="#TimesNewRomanPSMT-30" transform="translate(75 0)"/>
      </g>
     </g>
    </g>
    <g id="ytick_2">
     <g id="line2d_17">
      <path d="M 48.26 328.451344 
L 853.2 328.451344 
" clip-path="url(#pef3b8640e8)" style="fill: none; stroke: #b0b0b0; stroke-opacity: 0.3; stroke-width: 0.8; stroke-linecap: square"/>
     </g>
     <g id="line2d_18">
      <g>
       <use xlink:href="#m5dc9f7e0e0" x="48.26" y="328.451344" style="stroke: #000000; stroke-width: 0.8"/>
      </g>
     </g>
     <g id="text_9">
      <!-- 0.5 -->
      <g transform="translate(26.26 332.617594) scale(0.12 -0.12)">
       <use xlink:href="#TimesNewRomanPSMT-30"/>
       <use xlink:href="#TimesNewRomanPSMT-2e" transform="translate(50 0)"/>
       <use xlink:href="#TimesNewRomanPSMT-35" transform="translate(75 0)"/>
      </g>
     </g>
    </g>
    <g id="ytick_3">
     <g id="line2d_19">
      <path d="M 48.26 268.278655 
L 853.2 268.278655 
" clip-path="url(#pef3b8640e8)" style="fill: none; stroke: #b0b0b0; stroke-opacity: 0.3; stroke-width: 0.8; stroke-linecap: square"/>
     </g>
     <g id="line2d_20">
      <g>
       <use xlink:href="#m5dc9f7e0e0" x="48.26" y="268.278655" style="stroke: #000000; stroke-width: 0.8"/>
      </g>
     </g>
     <g id="text_10">
      <!-- 1.0 -->
      <g transform="translate(26.26 272.444905) scale(0.12 -0.12)">
       <use xlink:href="#TimesNewRomanPSMT-31"/>
       <use xlink:href="#TimesNewRomanPSMT-2e" transform="translate(50 0)"/>
       <use xlink:href="#TimesNewRomanPSMT-30" transform="translate(75 0)"/>
      </g>
     </g>
    </g>
    <g id="ytick_4">
     <g id="line2d_21">
      <path d="M 48.26 208.105966 
L 853.2 208.105966 
" clip-path="url(#pef3b8640e8)" style="fill: none; stroke: #b0b0b0; stroke-opacity: 0.3; stroke-width: 0.8; stroke-linecap: square"/>
     </g>
     <g id="line2d_22">
      <g>
       <use xlink:href="#m5dc9f7e0e0" x="48.26" y="208.105966" style="stroke: #000000; stroke-width: 0.8"/>
      </g>
     </g>
     <g id="text_11">
      <!-- 1.5 -->
      <g transform="translate(26.26 212.272216) scale(0.12 -0.12)">
       <use xlink:href="#TimesNewRomanPSMT-31"/>
       <use xlink:href="#TimesNewRomanPSMT-2e" transform="translate(50 0)"/>
       <use xlink:href="#TimesNewRomanPSMT-35" transform="translate(75 0)"/>
      </g>
     </g>
    </g>
    <g id="ytick_5">
     <g id="line2d_23">
      <path d="M 48.26 147.933277 
L 853.2 147.933277 
" clip-path="url(#pef3b8640e8)" style="fill: none; stroke: #b0b0b0; stroke-opacity: 0.3; stroke-width: 0.8; stroke-linecap: square"/>
     </g>
     <g id="line2d_24">
      <g>
       <use xlink:href="#m5dc9f7e0e0" x="48.26" y="147.933277" style="stroke: #000000; stroke-width: 0.8"/>
      </g>
     </g>
     <g id="text_12">
      <!-- 2.0 -->
      <g transform="translate(26.26 152.099527) scale(0.12 -0.12)">
       <use xlink:href="#TimesNewRomanPSMT-32"/>
       <use xlink:href="#TimesNewRomanPSMT-2e" transform="translate(50 0)"/>
       <use xlink:href="#TimesNewRomanPSMT-30" transform="translate(75 0)"/>
      </g>
     </g>
    </g>
    <g id="ytick_6">
     <g id="line2d_25">
      <path d="M 48.26 87.760587 
L 853.2 87.760587 
" clip-path="url(#pef3b8640e8)" style="fill: none; stroke: #b0b0b0; stroke-opacity: 0.3; stroke-width: 0.8; stroke-linecap: square"/>
     </g>
     <g id="line2d_26">
      <g>
       <use xlink:href="#m5dc9f7e0e0" x="48.26" y="87.760587" style="stroke: #000000; stroke-width: 0.8"/>
      </g>
     </g>
     <g id="text_13">
      <!-- 2.5 -->
      <g transform="translate(26.26 91.926837) scale(0.12 -0.12)">
       <use xlink:href="#TimesNewRomanPSMT-32"/>
       <use xlink:href="#TimesNewRomanPSMT-2e" transform="translate(50 0)"/>
       <use xlink:href="#TimesNewRomanPSMT-35" transform="translate(75 0)"/>
      </g>
     </g>
    </g>
    <g id="text_14">
     <!-- mV -->
     <g transform="translate(19.693125 236.38) rotate(-90) scale(0.12 -0.12)">
      <defs>
       <path id="TimesNewRomanPSMT-6d" d="M 1050 2338 
Q 1363 2650 1419 2697 
Q 1559 2816 1721 2881 
Q 1884 2947 2044 2947 
Q 2313 2947 2506 2790 
Q 2700 2634 2766 2338 
Q 3088 2713 3309 2830 
Q 3531 2947 3766 2947 
Q 3994 2947 4170 2830 
Q 4347 2713 4450 2447 
Q 4519 2266 4519 1878 
L 4519 647 
Q 4519 378 4559 278 
Q 4591 209 4675 161 
Q 4759 113 4950 113 
L 4950 0 
L 3538 0 
L 3538 113 
L 3597 113 
Q 3781 113 3884 184 
Q 3956 234 3988 344 
Q 4000 397 4000 647 
L 4000 1878 
Q 4000 2228 3916 2372 
Q 3794 2572 3525 2572 
Q 3359 2572 3192 2489 
Q 3025 2406 2788 2181 
L 2781 2147 
L 2788 2013 
L 2788 647 
Q 2788 353 2820 281 
Q 2853 209 2943 161 
Q 3034 113 3253 113 
L 3253 0 
L 1806 0 
L 1806 113 
Q 2044 113 2133 169 
Q 2222 225 2256 338 
Q 2272 391 2272 647 
L 2272 1878 
Q 2272 2228 2169 2381 
Q 2031 2581 1784 2581 
Q 1616 2581 1450 2491 
Q 1191 2353 1050 2181 
L 1050 647 
Q 1050 366 1089 281 
Q 1128 197 1204 155 
Q 1281 113 1516 113 
L 1516 0 
L 100 0 
L 100 113 
Q 297 113 375 155 
Q 453 197 493 289 
Q 534 381 534 647 
L 534 1741 
Q 534 2213 506 2350 
Q 484 2453 437 2492 
Q 391 2531 309 2531 
Q 222 2531 100 2484 
L 53 2597 
L 916 2947 
L 1050 2947 
L 1050 2338 
z
" transform="scale(0.015625)"/>
       <path id="TimesNewRomanPSMT-56" d="M 4544 4238 
L 4544 4122 
Q 4319 4081 4203 3978 
Q 4038 3825 3909 3509 
L 2431 -97 
L 2316 -97 
L 728 3556 
Q 606 3838 556 3900 
Q 478 3997 364 4051 
Q 250 4106 56 4122 
L 56 4238 
L 1788 4238 
L 1788 4122 
Q 1494 4094 1406 4022 
Q 1319 3950 1319 3838 
Q 1319 3681 1463 3350 
L 2541 866 
L 3541 3319 
Q 3688 3681 3688 3822 
Q 3688 3913 3597 3995 
Q 3506 4078 3291 4113 
Q 3275 4116 3238 4122 
L 3238 4238 
L 4544 4238 
z
" transform="scale(0.015625)"/>
      </defs>
      <use xlink:href="#TimesNewRomanPSMT-6d"/>
      <use xlink:href="#TimesNewRomanPSMT-56" transform="translate(77.783203 0)"/>
     </g>
    </g>
   </g>
   <g id="line2d_27">
    <path d="M 84.848182 259.81681 
L 85.479557 294.604206 
L 86.110932 263.577603 
L 86.742307 275.800241 
L 87.373682 259.81681 
L 88.005057 256.056017 
L 88.636432 272.979706 
L 89.267807 272.979706 
L 89.899182 264.517862 
L 90.530557 272.039448 
L 91.161932 273.919844 
L 91.793307 298.364999 
L 92.424682 293.663948 
L 93.056057 285.202224 
L 93.687432 274.860103 
L 94.318807 277.680637 
L 94.950182 297.424741 
L 95.581557 304.946447 
L 96.212932 305.886585 
L 96.844307 283.321827 
L 97.475682 295.544344 
L 98.107057 299.305137 
L 98.738432 305.886585 
L 99.369807 297.424741 
L 100.001182 292.72381 
L 100.632557 311.527775 
L 101.263932 294.604206 
L 101.895307 293.663948 
L 102.526682 288.963017 
L 103.158057 305.886585 
L 103.789432 293.663948 
L 104.420807 249.474689 
L 105.683557 300.245396 
L 106.314932 219.388345 
L 106.946307 289.903275 
L 107.577682 239.132448 
L 108.209057 204.345173 
L 109.471807 241.012845 
L 110.103182 259.81681 
L 110.734557 290.843413 
L 111.365932 277.680637 
L 111.997307 256.056017 
L 112.628682 282.381569 
L 113.260057 288.963017 
L 113.891432 280.501172 
L 114.522807 290.843413 
L 115.154182 299.305137 
L 115.785557 310.587517 
L 117.048307 323.750292 
L 117.679682 305.886585 
L 118.311057 305.886585 
L 118.942432 312.467913 
L 120.205182 328.451344 
L 120.836557 316.228827 
L 121.467932 310.587517 
L 122.099307 325.630689 
L 122.730682 333.152275 
L 123.362057 337.853326 
L 123.993432 319.049361 
L 124.624807 322.810154 
L 125.256182 327.511085 
L 125.887557 320.929758 
L 126.518932 325.630689 
L 127.150307 323.750292 
L 127.781682 323.750292 
L 128.413058 329.391482 
L 129.044432 330.33174 
L 129.675808 336.913068 
L 130.307183 338.793585 
L 130.938558 334.092533 
L 131.569933 335.032671 
L 132.832683 333.152275 
L 134.095433 345.374913 
L 134.726808 350.075844 
L 135.358183 352.896499 
L 135.989558 351.956361 
L 137.252308 364.178878 
L 137.883683 364.178878 
L 138.515058 373.580861 
L 139.146433 373.580861 
L 139.777808 378.281912 
L 140.409183 373.580861 
L 141.671933 367.939671 
L 142.303308 364.178878 
L 142.934683 364.178878 
L 143.566058 352.896499 
L 144.197433 349.135706 
L 144.828808 344.434654 
L 145.460183 344.434654 
L 146.091558 335.97293 
L 146.722933 333.152275 
L 147.354308 333.152275 
L 147.985683 334.092533 
L 149.248433 347.255309 
L 149.879808 326.570947 
L 150.511183 330.33174 
L 151.142558 332.212137 
L 151.773933 320.929758 
L 153.036683 328.451344 
L 153.668058 324.690551 
L 154.299433 335.032671 
L 154.930808 332.212137 
L 156.193558 322.810154 
L 156.824933 319.049361 
L 157.456308 330.33174 
L 158.087683 349.135706 
L 158.719058 350.075844 
L 159.350433 363.23874 
L 159.981808 307.766982 
L 160.613183 284.261965 
L 161.244558 296.484603 
L 161.875933 298.364999 
L 162.507308 314.34831 
L 163.138683 344.434654 
L 163.770058 317.168965 
L 164.401433 267.338396 
L 165.032808 242.893362 
L 165.664183 247.594293 
L 166.295558 250.414948 
L 166.926933 237.252052 
L 167.558308 277.680637 
L 168.189683 272.039448 
L 169.452433 277.680637 
L 170.083808 310.587517 
L 170.715183 276.740379 
L 171.346558 301.185654 
L 171.977933 278.620775 
L 172.609308 267.338396 
L 173.240683 268.278655 
L 173.872058 263.577603 
L 174.503433 243.8335 
L 175.134808 290.843413 
L 175.766183 263.577603 
L 176.397558 261.697207 
L 177.028933 267.338396 
L 177.660308 295.544344 
L 178.291683 308.70712 
L 178.923058 247.594293 
L 179.554433 244.773758 
L 180.185808 249.474689 
L 180.817183 247.594293 
L 181.448558 270.159051 
L 182.079933 286.142482 
L 182.711308 261.697207 
L 183.342683 280.501172 
L 183.974058 292.72381 
L 184.605433 260.757069 
L 185.236808 288.963017 
L 185.868183 278.620775 
L 186.499558 291.783551 
L 187.130933 296.484603 
L 187.762308 266.398258 
L 188.393683 274.860103 
L 189.025058 286.142482 
L 189.656433 265.458 
L 190.287808 221.268741 
L 190.919183 263.577603 
L 191.550558 254.175621 
L 192.181933 211.866759 
L 192.813308 196.823586 
L 193.444684 110.325346 
L 194.076059 179.900018 
L 194.707434 85.880191 
L 195.338809 88.700726 
L 195.970184 68.016364 
L 197.232934 155.454863 
L 197.864309 171.438173 
L 198.495684 177.079363 
L 199.127059 192.122655 
L 200.389809 230.670724 
L 201.021184 235.371655 
L 201.652559 242.893362 
L 202.283934 256.996276 
L 202.915309 275.800241 
L 203.546684 277.680637 
L 204.178059 252.295344 
L 204.809434 252.295344 
L 205.440809 194.94319 
L 206.072184 208.105966 
L 206.703559 169.557776 
L 207.334934 91.52138 
L 207.966309 81.179139 
L 208.597684 102.80376 
L 209.229059 79.298743 
L 209.860434 145.112622 
L 210.491809 130.069449 
L 211.123184 169.557776 
L 211.754559 178.019621 
L 212.385934 168.617638 
L 213.017309 178.959759 
L 213.648684 198.703983 
L 214.280059 272.979706 
L 214.911434 223.149138 
L 215.542809 253.235482 
L 216.174184 250.414948 
L 216.805559 253.235482 
L 218.068309 256.996276 
L 218.699684 251.355086 
L 219.331059 274.860103 
L 219.962434 258.876672 
L 220.593809 271.09931 
L 221.856559 301.185654 
L 222.487934 309.647378 
L 223.119309 332.212137 
L 223.750684 318.109223 
L 224.382059 256.996276 
L 225.013434 256.056017 
L 225.644809 297.424741 
L 226.276184 315.288568 
L 227.538934 277.680637 
L 228.170309 282.381569 
L 228.801684 319.98962 
L 229.433059 334.092533 
L 230.064434 258.876672 
L 230.695809 242.893362 
L 231.327184 285.202224 
L 231.958559 225.029534 
L 233.221309 248.534551 
L 233.852684 242.893362 
L 234.484059 276.740379 
L 235.115434 259.81681 
L 235.746809 269.218793 
L 236.378184 271.09931 
L 237.009559 288.963017 
L 237.640934 280.501172 
L 238.272309 288.963017 
L 238.903684 288.963017 
L 239.535059 292.72381 
L 240.166434 295.544344 
L 240.797809 303.066051 
L 241.429184 307.766982 
L 242.060559 277.680637 
L 242.691934 314.34831 
L 243.954684 291.783551 
L 244.586059 276.740379 
L 245.217434 294.604206 
L 245.848809 293.663948 
L 246.480184 302.125792 
L 247.111559 312.467913 
L 247.742934 313.408172 
L 248.374309 315.288568 
L 249.005684 316.228827 
L 249.637059 319.98962 
L 250.268434 320.929758 
L 250.899809 325.630689 
L 251.531184 323.750292 
L 252.162559 329.391482 
L 252.793934 333.152275 
L 253.425309 328.451344 
L 254.056684 332.212137 
L 254.688059 326.570947 
L 255.319434 327.511085 
L 255.950809 325.630689 
L 256.582184 330.33174 
L 257.213559 346.315171 
L 258.47631 330.33174 
L 259.107685 329.391482 
L 259.73906 316.228827 
L 260.370435 349.135706 
L 261.633185 314.34831 
L 262.26456 303.066051 
L 262.895935 317.168965 
L 263.52731 317.168965 
L 264.158685 328.451344 
L 264.79006 331.271999 
L 265.421435 325.630689 
L 266.05281 326.570947 
L 266.684185 334.092533 
L 267.31556 329.391482 
L 267.946935 336.913068 
L 268.57831 331.271999 
L 269.209685 336.913068 
L 269.84106 338.793585 
L 270.472435 338.793585 
L 271.10381 339.733723 
L 271.735185 341.61412 
L 272.36656 342.554258 
L 272.997935 350.075844 
L 273.62931 354.776895 
L 274.260685 344.434654 
L 274.89206 351.956361 
L 275.523435 355.717033 
L 276.15481 344.434654 
L 276.786185 344.434654 
L 278.048935 353.836757 
L 278.68031 349.135706 
L 279.311685 350.075844 
L 280.574435 357.59743 
L 281.20581 350.075844 
L 281.837185 350.075844 
L 282.46856 354.776895 
L 283.099935 358.537688 
L 283.73131 366.999533 
L 284.362685 354.776895 
L 284.99406 355.717033 
L 285.625435 353.836757 
L 286.25681 354.776895 
L 286.888185 357.59743 
L 287.51956 354.776895 
L 288.150935 356.657292 
L 288.78231 360.418085 
L 289.413685 356.657292 
L 290.676435 356.657292 
L 291.30781 357.59743 
L 291.939185 360.418085 
L 292.57056 362.298481 
L 293.83331 362.298481 
L 294.464685 370.760326 
L 295.09606 360.418085 
L 295.727435 364.178878 
L 296.35881 357.59743 
L 296.990185 359.477947 
L 297.62156 364.178878 
L 298.252935 366.999533 
L 298.88431 364.178878 
L 299.515685 368.879809 
L 300.14706 367.939671 
L 300.778435 363.23874 
L 301.40981 362.298481 
L 302.041185 364.178878 
L 302.67256 365.119016 
L 303.303935 366.999533 
L 303.93531 367.939671 
L 304.566685 364.178878 
L 305.19806 363.23874 
L 305.829435 365.119016 
L 306.46081 364.178878 
L 307.092185 367.939671 
L 307.72356 366.059274 
L 308.354935 367.939671 
L 309.617685 366.059274 
L 310.24906 366.999533 
L 310.880435 365.119016 
L 311.51181 366.999533 
L 312.143185 369.820068 
L 313.405935 371.700464 
L 314.03731 367.939671 
L 314.668685 369.820068 
L 315.30006 370.760326 
L 315.931435 367.939671 
L 316.56281 370.760326 
L 317.194185 366.999533 
L 317.82556 369.820068 
L 318.456935 367.939671 
L 319.08831 370.760326 
L 320.35106 370.760326 
L 320.982435 367.939671 
L 321.613811 368.879809 
L 322.245185 370.760326 
L 322.876561 374.521119 
L 323.507936 371.700464 
L 324.139311 370.760326 
L 324.770686 371.700464 
L 325.402061 373.580861 
L 326.033436 369.820068 
L 327.296186 373.580861 
L 327.927561 370.760326 
L 328.558936 371.700464 
L 329.190311 369.820068 
L 330.453061 371.700464 
L 331.084436 369.820068 
L 331.715811 370.760326 
L 332.347186 369.820068 
L 332.978561 370.760326 
L 334.241311 368.879809 
L 334.872686 368.879809 
L 335.504061 372.640602 
L 336.766811 372.640602 
L 337.398186 369.820068 
L 338.660936 369.820068 
L 339.292311 368.879809 
L 339.923686 368.879809 
L 340.555061 370.760326 
L 341.817811 360.418085 
L 342.449186 331.271999 
L 343.080561 364.178878 
L 343.711936 363.23874 
L 344.343311 364.178878 
L 344.974686 366.999533 
L 345.606061 363.23874 
L 346.237436 356.657292 
L 346.868811 361.358223 
L 347.500186 361.358223 
L 348.131561 360.418085 
L 348.762936 363.23874 
L 349.394311 365.119016 
L 350.025686 367.939671 
L 350.657061 365.119016 
L 351.288436 360.418085 
L 351.919811 363.23874 
L 352.551186 364.178878 
L 353.182561 366.999533 
L 353.813936 366.999533 
L 354.445311 366.059274 
L 355.076686 366.059274 
L 355.708061 365.119016 
L 356.339436 367.939671 
L 356.970811 367.939671 
L 357.602186 369.820068 
L 358.233561 366.059274 
L 358.864936 366.059274 
L 359.496311 368.879809 
L 361.390436 363.23874 
L 362.021811 367.939671 
L 362.653186 368.879809 
L 363.284561 368.879809 
L 363.915936 367.939671 
L 364.547311 370.760326 
L 365.178686 371.700464 
L 365.810061 369.820068 
L 366.441436 369.820068 
L 367.072811 368.879809 
L 367.704186 370.760326 
L 368.335561 371.700464 
L 368.966936 366.999533 
L 370.229686 366.999533 
L 370.861061 364.178878 
L 371.492436 365.119016 
L 372.123811 367.939671 
L 372.755186 368.879809 
L 373.386561 372.640602 
L 374.017936 374.521119 
L 374.649311 368.879809 
L 375.280686 366.999533 
L 375.912061 367.939671 
L 377.174811 373.580861 
L 377.806186 371.700464 
L 378.437561 373.580861 
L 379.068936 372.640602 
L 379.700311 372.640602 
L 380.331686 373.580861 
L 381.594436 373.580861 
L 382.225811 371.700464 
L 383.488561 373.580861 
L 384.751311 373.580861 
L 385.382686 374.521119 
L 386.014061 373.580861 
L 386.645436 374.521119 
L 387.276812 373.580861 
L 387.908187 371.700464 
L 388.539562 373.580861 
L 389.170937 374.521119 
L 389.802312 373.580861 
L 390.433687 373.580861 
L 391.065062 375.461257 
L 391.696437 375.461257 
L 392.327812 377.341654 
L 392.959187 376.401395 
L 393.590562 374.521119 
L 394.221937 375.461257 
L 394.853312 374.521119 
L 395.484687 375.461257 
L 396.747437 379.22205 
L 397.378812 377.341654 
L 398.010187 376.401395 
L 398.641562 377.341654 
L 399.272937 377.341654 
L 399.904312 375.461257 
L 401.798437 378.281912 
L 402.429812 377.341654 
L 403.061187 379.22205 
L 403.692562 380.162188 
L 404.955312 378.281912 
L 405.586687 379.22205 
L 406.218062 379.22205 
L 406.849437 380.162188 
L 408.112187 378.281912 
L 408.743562 379.22205 
L 409.374937 379.22205 
L 410.006312 381.102447 
L 411.269062 379.22205 
L 411.900437 379.22205 
L 413.794562 382.042585 
L 414.425937 379.22205 
L 416.320062 382.042585 
L 416.951437 381.102447 
L 417.582812 382.982843 
L 418.214187 380.162188 
L 418.845562 378.281912 
L 419.476937 379.22205 
L 420.108312 377.341654 
L 421.371062 377.341654 
L 422.633812 375.461257 
L 423.265187 378.281912 
L 423.896562 378.281912 
L 424.527937 377.341654 
L 425.790687 379.22205 
L 427.053437 377.341654 
L 430.210312 377.341654 
L 430.841687 375.461257 
L 432.735812 378.281912 
L 433.367187 376.401395 
L 433.998562 376.401395 
L 434.629937 377.341654 
L 435.261312 376.401395 
L 435.892687 374.521119 
L 436.524062 376.401395 
L 437.155437 376.401395 
L 439.680937 380.162188 
L 440.312312 380.162188 
L 440.943687 381.102447 
L 441.575062 381.102447 
L 442.837812 379.22205 
L 443.469187 380.162188 
L 444.100562 379.22205 
L 444.731937 379.22205 
L 445.363312 380.162188 
L 445.994687 379.22205 
L 446.626062 379.22205 
L 447.257437 376.401395 
L 447.888812 377.341654 
L 448.520187 376.401395 
L 449.151562 378.281912 
L 449.782937 378.281912 
L 450.414313 377.341654 
L 451.045687 375.461257 
L 451.677063 377.341654 
L 452.308438 378.281912 
L 453.571188 376.401395 
L 454.833938 378.281912 
L 455.465313 377.341654 
L 456.728063 377.341654 
L 457.359438 375.461257 
L 457.990813 376.401395 
L 458.622188 374.521119 
L 460.516313 377.341654 
L 461.147688 376.401395 
L 461.779063 378.281912 
L 463.041813 372.640602 
L 464.304563 374.521119 
L 464.935938 376.401395 
L 465.567313 377.341654 
L 466.198688 377.341654 
L 466.830063 375.461257 
L 467.461438 374.521119 
L 468.092813 376.401395 
L 468.724188 377.341654 
L 469.986938 375.461257 
L 470.618313 375.461257 
L 471.249688 374.521119 
L 471.881063 376.401395 
L 472.512438 376.401395 
L 473.143813 377.341654 
L 473.775188 377.341654 
L 474.406563 379.22205 
L 475.037938 380.162188 
L 476.300688 378.281912 
L 476.932063 378.281912 
L 477.563438 377.341654 
L 478.194813 379.22205 
L 478.826188 380.162188 
L 480.720313 377.341654 
L 481.351688 375.461257 
L 481.983063 375.461257 
L 482.614438 378.281912 
L 483.245813 382.042585 
L 483.877188 377.341654 
L 484.508563 377.341654 
L 485.771313 375.461257 
L 486.402688 377.341654 
L 487.034063 377.341654 
L 487.665438 380.162188 
L 488.296813 379.22205 
L 488.928188 380.162188 
L 489.559563 373.580861 
L 490.190938 376.401395 
L 490.822313 378.281912 
L 491.453688 378.281912 
L 492.085063 375.461257 
L 493.347813 373.580861 
L 493.979188 376.401395 
L 494.610563 378.281912 
L 495.241938 376.401395 
L 495.873313 375.461257 
L 496.504688 377.341654 
L 497.136063 375.461257 
L 497.767438 376.401395 
L 498.398813 374.521119 
L 499.030188 375.461257 
L 499.661563 378.281912 
L 500.292938 379.22205 
L 500.924313 376.401395 
L 501.555688 372.640602 
L 502.187063 373.580861 
L 503.449813 379.22205 
L 504.081188 376.401395 
L 504.712563 375.461257 
L 505.343938 371.700464 
L 505.975313 374.521119 
L 506.606688 378.281912 
L 507.238063 371.700464 
L 508.500813 371.700464 
L 509.132188 373.580861 
L 509.763563 377.341654 
L 510.394938 372.640602 
L 511.026313 370.760326 
L 511.657688 371.700464 
L 512.289063 368.879809 
L 512.920438 369.820068 
L 513.551813 369.820068 
L 514.183188 373.580861 
L 514.814563 369.820068 
L 515.445938 371.700464 
L 516.077314 367.939671 
L 516.708689 369.820068 
L 517.340064 369.820068 
L 517.971439 367.939671 
L 519.234189 366.059274 
L 519.865564 369.820068 
L 521.128314 369.820068 
L 521.759689 367.939671 
L 522.391064 366.999533 
L 523.022439 367.939671 
L 524.285189 367.939671 
L 524.916564 369.820068 
L 525.547939 365.119016 
L 526.179314 366.999533 
L 526.810689 369.820068 
L 527.442064 368.879809 
L 528.073439 365.119016 
L 528.704814 365.119016 
L 529.336189 370.760326 
L 529.967564 366.059274 
L 530.598939 363.23874 
L 531.230314 366.999533 
L 531.861689 372.640602 
L 532.493064 369.820068 
L 533.124439 370.760326 
L 534.387189 366.999533 
L 535.018564 369.820068 
L 535.649939 370.760326 
L 536.281314 367.939671 
L 536.912689 368.879809 
L 537.544064 374.521119 
L 538.175439 364.178878 
L 538.806814 366.999533 
L 539.438189 367.939671 
L 540.069564 369.820068 
L 540.700939 364.178878 
L 541.332314 363.23874 
L 541.963689 366.999533 
L 542.595064 366.059274 
L 543.226439 366.999533 
L 543.857814 365.119016 
L 544.489189 364.178878 
L 545.120564 366.999533 
L 545.751939 366.059274 
L 546.383314 361.358223 
L 547.014689 365.119016 
L 547.646064 366.999533 
L 548.277439 366.999533 
L 548.908814 366.059274 
L 549.540189 363.23874 
L 550.171564 365.119016 
L 551.434314 359.477947 
L 552.065689 364.178878 
L 552.697064 363.23874 
L 553.328439 366.999533 
L 553.959814 364.178878 
L 554.591189 362.298481 
L 555.222564 365.119016 
L 555.853939 366.999533 
L 556.485314 364.178878 
L 557.116689 364.178878 
L 557.748064 366.999533 
L 558.379439 366.999533 
L 559.010814 365.119016 
L 559.642189 362.298481 
L 561.536314 370.760326 
L 562.167689 367.939671 
L 562.799064 368.879809 
L 563.430439 370.760326 
L 564.061814 370.760326 
L 564.693189 367.939671 
L 565.324564 369.820068 
L 565.955939 370.760326 
L 567.850064 370.760326 
L 568.481439 372.640602 
L 569.112814 371.700464 
L 570.375564 375.461257 
L 571.006939 375.461257 
L 571.638314 370.760326 
L 572.269689 370.760326 
L 572.901064 371.700464 
L 573.532439 374.521119 
L 574.163814 375.461257 
L 574.795189 373.580861 
L 576.057939 375.461257 
L 576.689314 373.580861 
L 577.320689 372.640602 
L 577.952064 376.401395 
L 578.583439 375.461257 
L 579.214815 371.700464 
L 579.846189 372.640602 
L 580.477565 374.521119 
L 581.10894 370.760326 
L 582.37169 370.760326 
L 583.003065 371.700464 
L 583.63444 371.700464 
L 584.89719 373.580861 
L 585.528565 373.580861 
L 586.15994 375.461257 
L 587.42269 373.580861 
L 588.054065 373.580861 
L 588.68544 371.700464 
L 589.316815 371.700464 
L 589.94819 373.580861 
L 590.579565 372.640602 
L 591.21094 372.640602 
L 591.842315 371.700464 
L 592.47369 373.580861 
L 593.105065 371.700464 
L 593.73644 373.580861 
L 594.367815 374.521119 
L 594.99919 372.640602 
L 595.630565 375.461257 
L 596.26194 372.640602 
L 596.893315 373.580861 
L 597.52469 377.341654 
L 598.156065 375.461257 
L 598.78744 376.401395 
L 600.681565 373.580861 
L 601.944315 375.461257 
L 602.57569 377.341654 
L 603.83844 377.341654 
L 604.469815 378.281912 
L 605.10119 377.341654 
L 605.732565 375.461257 
L 606.995315 377.341654 
L 607.62669 376.401395 
L 608.258065 377.341654 
L 608.88944 377.341654 
L 609.520815 378.281912 
L 610.15219 378.281912 
L 610.783565 380.162188 
L 611.41494 380.162188 
L 612.046315 376.401395 
L 612.67769 378.281912 
L 613.309065 378.281912 
L 613.94044 379.22205 
L 614.571815 379.22205 
L 615.834565 373.580861 
L 616.46594 375.461257 
L 617.097315 376.401395 
L 617.72869 376.401395 
L 618.360065 377.341654 
L 618.99144 377.341654 
L 619.622815 375.461257 
L 620.25419 375.461257 
L 620.885565 377.341654 
L 621.51694 378.281912 
L 622.148315 378.281912 
L 622.77969 373.580861 
L 623.411065 373.580861 
L 624.04244 378.281912 
L 624.673815 377.341654 
L 625.30519 375.461257 
L 625.936565 372.640602 
L 626.56794 375.461257 
L 627.83069 371.700464 
L 629.09344 371.700464 
L 629.724815 368.879809 
L 630.35619 372.640602 
L 631.61894 370.760326 
L 632.250315 373.580861 
L 633.513065 373.580861 
L 634.14444 374.521119 
L 634.775815 374.521119 
L 635.40719 377.341654 
L 636.038565 372.640602 
L 637.301315 368.879809 
L 637.93269 366.059274 
L 638.564065 361.358223 
L 639.19544 364.178878 
L 639.826815 369.820068 
L 640.45819 368.879809 
L 641.72094 372.640602 
L 642.352315 370.760326 
L 642.98369 371.700464 
L 644.246441 375.461257 
L 644.877816 375.461257 
L 646.140566 373.580861 
L 646.771941 369.820068 
L 647.403316 371.700464 
L 648.034691 371.700464 
L 648.666066 372.640602 
L 649.928816 370.760326 
L 651.191566 370.760326 
L 651.822941 366.999533 
L 652.454316 361.358223 
L 653.085691 364.178878 
L 653.717066 365.119016 
L 654.348441 364.178878 
L 654.979816 364.178878 
L 655.611191 367.939671 
L 656.242566 367.939671 
L 656.873941 366.059274 
L 657.505316 367.939671 
L 658.136691 364.178878 
L 658.768066 363.23874 
L 659.399441 365.119016 
L 660.030816 364.178878 
L 660.662191 366.059274 
L 661.293566 368.879809 
L 661.924941 366.059274 
L 662.556316 364.178878 
L 663.819066 367.939671 
L 664.450441 363.23874 
L 665.081816 367.939671 
L 665.713191 366.059274 
L 666.344566 365.119016 
L 666.975941 365.119016 
L 668.238691 366.999533 
L 668.870066 366.999533 
L 669.501441 365.119016 
L 670.132816 364.178878 
L 670.764191 366.999533 
L 671.395566 367.939671 
L 672.026941 369.820068 
L 672.658316 370.760326 
L 673.289691 370.760326 
L 673.921066 373.580861 
L 674.552441 368.879809 
L 675.183816 367.939671 
L 675.815191 367.939671 
L 676.446566 369.820068 
L 677.077941 369.820068 
L 677.709316 372.640602 
L 678.340691 371.700464 
L 678.972066 366.999533 
L 679.603441 367.939671 
L 680.234816 370.760326 
L 680.866191 372.640602 
L 681.497566 373.580861 
L 682.128941 372.640602 
L 682.760316 373.580861 
L 683.391691 370.760326 
L 684.023066 369.820068 
L 684.654441 371.700464 
L 685.285816 369.820068 
L 685.917191 372.640602 
L 686.548566 368.879809 
L 687.179941 368.879809 
L 687.811316 371.700464 
L 688.442691 370.760326 
L 689.074066 366.999533 
L 689.705441 368.879809 
L 690.336816 372.640602 
L 690.968191 370.760326 
L 691.599566 371.700464 
L 692.230941 371.700464 
L 692.862316 372.640602 
L 693.493691 370.760326 
L 694.125066 369.820068 
L 694.756441 369.820068 
L 695.387816 374.521119 
L 696.019191 373.580861 
L 696.650566 374.521119 
L 697.281941 374.521119 
L 697.913316 372.640602 
L 698.544691 371.700464 
L 699.176066 373.580861 
L 699.807441 376.401395 
L 700.438816 377.341654 
L 701.070191 377.341654 
L 701.701566 374.521119 
L 702.332941 373.580861 
L 702.964316 375.461257 
L 703.595691 372.640602 
L 704.227066 376.401395 
L 704.858441 376.401395 
L 705.489816 375.461257 
L 706.121191 376.401395 
L 706.752566 375.461257 
L 707.383942 375.461257 
L 708.646692 377.341654 
L 710.540817 377.341654 
L 711.172192 379.22205 
L 711.803567 377.341654 
L 712.434942 379.22205 
L 713.066317 380.162188 
L 713.697692 379.22205 
L 714.960442 381.102447 
L 716.223192 379.22205 
L 716.854567 380.162188 
L 717.485942 378.281912 
L 718.748692 380.162188 
L 719.380067 382.042585 
L 720.011442 379.22205 
L 720.642817 381.102447 
L 721.274192 380.162188 
L 721.905567 382.042585 
L 723.168317 380.162188 
L 723.799692 381.102447 
L 724.431067 380.162188 
L 725.062442 380.162188 
L 726.325192 382.042585 
L 726.956567 382.042585 
L 727.587942 380.162188 
L 728.219317 380.162188 
L 730.744817 383.922981 
L 732.007567 383.922981 
L 732.638942 382.982843 
L 735.795817 382.982843 
L 736.427192 382.042585 
L 737.058567 382.982843 
L 738.321317 382.982843 
L 738.952692 381.102447 
L 739.584067 382.042585 
L 740.215442 382.042585 
L 740.846817 381.102447 
L 741.478192 382.042585 
L 742.109567 382.042585 
L 742.740942 382.982843 
L 743.372317 381.102447 
L 744.635067 382.982843 
L 745.266442 381.102447 
L 745.897817 380.162188 
L 746.529192 381.102447 
L 747.160567 382.982843 
L 748.423317 381.102447 
L 749.054692 382.982843 
L 750.317442 381.102447 
L 750.948817 382.042585 
L 751.580192 382.042585 
L 752.211567 381.102447 
L 752.842942 382.042585 
L 753.474317 381.102447 
L 754.737067 382.982843 
L 755.368442 382.042585 
L 755.999817 383.922981 
L 756.631192 384.86324 
L 757.262567 383.922981 
L 757.893942 384.86324 
L 758.525317 384.86324 
L 761.050817 381.102447 
L 761.682192 382.982843 
L 763.576317 382.982843 
L 764.207692 384.86324 
L 764.839067 383.922981 
L 765.470442 384.86324 
L 766.101817 382.982843 
L 766.733192 382.042585 
L 767.995942 382.042585 
L 768.627317 382.982843 
L 769.258692 382.982843 
L 769.890067 382.042585 
L 770.521442 383.922981 
L 771.784192 382.042585 
L 772.415568 382.982843 
L 773.046943 382.042585 
L 773.678318 382.042585 
L 774.309693 380.162188 
L 775.572443 382.042585 
L 776.203818 382.042585 
L 776.835193 382.982843 
L 778.097943 382.982843 
L 778.729318 383.922981 
L 779.360693 380.162188 
L 779.992068 382.982843 
L 780.623443 381.102447 
L 781.254818 382.982843 
L 782.517568 381.102447 
L 783.148943 382.042585 
L 787.568568 382.042585 
L 788.199943 382.982843 
L 789.462693 382.982843 
L 790.094068 383.922981 
L 791.356818 382.042585 
L 791.988193 382.982843 
L 792.619568 382.042585 
L 793.250943 382.042585 
L 793.882318 382.982843 
L 794.513693 382.982843 
L 795.145068 383.922981 
L 795.776443 382.982843 
L 796.407818 382.982843 
L 797.039193 383.922981 
L 797.670568 382.982843 
L 798.301943 382.982843 
L 798.933318 383.922981 
L 800.196068 383.922981 
L 800.827443 385.803378 
L 802.090193 385.803378 
L 802.721568 384.86324 
L 803.352943 385.803378 
L 804.615693 383.922981 
L 805.247068 383.922981 
L 805.878443 382.982843 
L 806.509818 384.86324 
L 807.141193 383.922981 
L 807.772568 384.86324 
L 808.403943 384.86324 
L 809.035318 385.803378 
L 809.666693 385.803378 
L 811.560818 382.982843 
L 812.192193 383.922981 
L 813.454943 383.922981 
L 814.086318 384.86324 
L 815.349068 384.86324 
L 815.980443 386.743636 
L 816.611818 385.803378 
L 816.611818 385.803378 
" clip-path="url(#pef3b8640e8)" style="fill: none; stroke: #ffd700; stroke-opacity: 0.8; stroke-linecap: square"/>
   </g>
   <g id="patch_3">
    <path d="M 48.26 402.68 
L 48.26 52.08 
" style="fill: none; stroke: #000000; stroke-width: 0.8; stroke-linejoin: miter; stroke-linecap: square"/>
   </g>
   <g id="patch_4">
    <path d="M 853.2 402.68 
L 853.2 52.08 
" style="fill: none; stroke: #000000; stroke-width: 0.8; stroke-linejoin: miter; stroke-linecap: square"/>
   </g>
   <g id="patch_5">
    <path d="M 48.26 402.68 
L 853.2 402.68 
" style="fill: none; stroke: #000000; stroke-width: 0.8; stroke-linejoin: miter; stroke-linecap: square"/>
   </g>
   <g id="patch_6">
    <path d="M 48.26 52.08 
L 853.2 52.08 
" style="fill: none; stroke: #000000; stroke-width: 0.8; stroke-linejoin: miter; stroke-linecap: square"/>
   </g>
   <g id="text_15">
    <!-- Yellow Channel -->
    <g transform="translate(405.744063 46.08) scale(0.14 -0.14)">
     <defs>
      <path id="TimesNewRomanPSMT-59" d="M 3050 4238 
L 4528 4238 
L 4528 4122 
L 4447 4122 
Q 4366 4122 4209 4050 
Q 4053 3978 3925 3843 
Q 3797 3709 3609 3406 
L 2588 1797 
L 2588 734 
Q 2588 344 2675 247 
Q 2794 116 3050 116 
L 3188 116 
L 3188 0 
L 1388 0 
L 1388 116 
L 1538 116 
Q 1806 116 1919 278 
Q 1988 378 1988 734 
L 1988 1738 
L 825 3513 
Q 619 3825 545 3903 
Q 472 3981 241 4091 
Q 178 4122 59 4122 
L 59 4238 
L 1872 4238 
L 1872 4122 
L 1778 4122 
Q 1631 4122 1507 4053 
Q 1384 3984 1384 3847 
Q 1384 3734 1575 3441 
L 2459 2075 
L 3291 3381 
Q 3478 3675 3478 3819 
Q 3478 3906 3433 3975 
Q 3388 4044 3303 4083 
Q 3219 4122 3050 4122 
L 3050 4238 
z
" transform="scale(0.015625)"/>
      <path id="TimesNewRomanPSMT-65" d="M 681 1784 
Q 678 1147 991 784 
Q 1303 422 1725 422 
Q 2006 422 2214 576 
Q 2422 731 2563 1106 
L 2659 1044 
Q 2594 616 2278 264 
Q 1963 -88 1488 -88 
Q 972 -88 605 314 
Q 238 716 238 1394 
Q 238 2128 614 2539 
Q 991 2950 1559 2950 
Q 2041 2950 2350 2633 
Q 2659 2316 2659 1784 
L 681 1784 
z
M 681 1966 
L 2006 1966 
Q 1991 2241 1941 2353 
Q 1863 2528 1708 2628 
Q 1553 2728 1384 2728 
Q 1125 2728 920 2526 
Q 716 2325 681 1966 
z
" transform="scale(0.015625)"/>
      <path id="TimesNewRomanPSMT-6c" d="M 1184 4444 
L 1184 647 
Q 1184 378 1223 290 
Q 1263 203 1344 158 
Q 1425 113 1647 113 
L 1647 0 
L 244 0 
L 244 113 
Q 441 113 512 153 
Q 584 194 625 287 
Q 666 381 666 647 
L 666 3247 
Q 666 3731 644 3842 
Q 622 3953 573 3993 
Q 525 4034 450 4034 
Q 369 4034 244 3984 
L 191 4094 
L 1044 4444 
L 1184 4444 
z
" transform="scale(0.015625)"/>
      <path id="TimesNewRomanPSMT-6f" d="M 1600 2947 
Q 2250 2947 2644 2453 
Q 2978 2031 2978 1484 
Q 2978 1100 2793 706 
Q 2609 313 2286 112 
Q 1963 -88 1566 -88 
Q 919 -88 538 428 
Q 216 863 216 1403 
Q 216 1797 411 2186 
Q 606 2575 925 2761 
Q 1244 2947 1600 2947 
z
M 1503 2744 
Q 1338 2744 1170 2645 
Q 1003 2547 900 2300 
Q 797 2053 797 1666 
Q 797 1041 1045 587 
Q 1294 134 1700 134 
Q 2003 134 2200 384 
Q 2397 634 2397 1244 
Q 2397 2006 2069 2444 
Q 1847 2744 1503 2744 
z
" transform="scale(0.015625)"/>
      <path id="TimesNewRomanPSMT-77" d="M 41 2863 
L 1241 2863 
L 1241 2747 
Q 1075 2734 1023 2687 
Q 972 2641 972 2553 
Q 972 2456 1025 2319 
L 1638 672 
L 2253 2013 
L 2091 2434 
Q 2016 2622 1894 2694 
Q 1825 2738 1638 2747 
L 1638 2863 
L 3000 2863 
L 3000 2747 
Q 2775 2738 2681 2666 
Q 2619 2616 2619 2506 
Q 2619 2444 2644 2378 
L 3294 734 
L 3897 2319 
Q 3959 2488 3959 2588 
Q 3959 2647 3898 2694 
Q 3838 2741 3659 2747 
L 3659 2863 
L 4563 2863 
L 4563 2747 
Q 4291 2706 4163 2378 
L 3206 -88 
L 3078 -88 
L 2363 1741 
L 1528 -88 
L 1413 -88 
L 494 2319 
Q 403 2547 315 2626 
Q 228 2706 41 2747 
L 41 2863 
z
" transform="scale(0.015625)"/>
      <path id="TimesNewRomanPSMT-20" transform="scale(0.015625)"/>
      <path id="TimesNewRomanPSMT-43" d="M 3853 4334 
L 3950 2894 
L 3853 2894 
Q 3659 3541 3300 3825 
Q 2941 4109 2438 4109 
Q 2016 4109 1675 3895 
Q 1334 3681 1139 3212 
Q 944 2744 944 2047 
Q 944 1472 1128 1050 
Q 1313 628 1683 403 
Q 2053 178 2528 178 
Q 2941 178 3256 354 
Q 3572 531 3950 1056 
L 4047 994 
Q 3728 428 3303 165 
Q 2878 -97 2294 -97 
Q 1241 -97 663 684 
Q 231 1266 231 2053 
Q 231 2688 515 3219 
Q 800 3750 1298 4042 
Q 1797 4334 2388 4334 
Q 2847 4334 3294 4109 
Q 3425 4041 3481 4041 
Q 3566 4041 3628 4100 
Q 3709 4184 3744 4334 
L 3853 4334 
z
" transform="scale(0.015625)"/>
      <path id="TimesNewRomanPSMT-68" d="M 1041 4444 
L 1041 2350 
Q 1388 2731 1591 2839 
Q 1794 2947 1997 2947 
Q 2241 2947 2416 2812 
Q 2591 2678 2675 2391 
Q 2734 2191 2734 1659 
L 2734 647 
Q 2734 375 2778 275 
Q 2809 200 2884 156 
Q 2959 113 3159 113 
L 3159 0 
L 1753 0 
L 1753 113 
L 1819 113 
Q 2019 113 2097 173 
Q 2175 234 2206 353 
Q 2216 403 2216 647 
L 2216 1659 
Q 2216 2128 2167 2275 
Q 2119 2422 2012 2495 
Q 1906 2569 1756 2569 
Q 1603 2569 1437 2487 
Q 1272 2406 1041 2159 
L 1041 647 
Q 1041 353 1073 281 
Q 1106 209 1195 161 
Q 1284 113 1503 113 
L 1503 0 
L 84 0 
L 84 113 
Q 275 113 384 172 
Q 447 203 484 290 
Q 522 378 522 647 
L 522 3238 
Q 522 3728 498 3840 
Q 475 3953 426 3993 
Q 378 4034 297 4034 
Q 231 4034 84 3984 
L 41 4094 
L 897 4444 
L 1041 4444 
z
" transform="scale(0.015625)"/>
      <path id="TimesNewRomanPSMT-61" d="M 1822 413 
Q 1381 72 1269 19 
Q 1100 -59 909 -59 
Q 613 -59 420 144 
Q 228 347 228 678 
Q 228 888 322 1041 
Q 450 1253 767 1440 
Q 1084 1628 1822 1897 
L 1822 2009 
Q 1822 2438 1686 2597 
Q 1550 2756 1291 2756 
Q 1094 2756 978 2650 
Q 859 2544 859 2406 
L 866 2225 
Q 866 2081 792 2003 
Q 719 1925 600 1925 
Q 484 1925 411 2006 
Q 338 2088 338 2228 
Q 338 2497 613 2722 
Q 888 2947 1384 2947 
Q 1766 2947 2009 2819 
Q 2194 2722 2281 2516 
Q 2338 2381 2338 1966 
L 2338 994 
Q 2338 584 2353 492 
Q 2369 400 2405 369 
Q 2441 338 2488 338 
Q 2538 338 2575 359 
Q 2641 400 2828 588 
L 2828 413 
Q 2478 -56 2159 -56 
Q 2006 -56 1915 50 
Q 1825 156 1822 413 
z
M 1822 616 
L 1822 1706 
Q 1350 1519 1213 1441 
Q 966 1303 859 1153 
Q 753 1003 753 825 
Q 753 600 887 451 
Q 1022 303 1197 303 
Q 1434 303 1822 616 
z
" transform="scale(0.015625)"/>
      <path id="TimesNewRomanPSMT-6e" d="M 1034 2341 
Q 1538 2947 1994 2947 
Q 2228 2947 2397 2830 
Q 2566 2713 2666 2444 
Q 2734 2256 2734 1869 
L 2734 647 
Q 2734 375 2778 278 
Q 2813 200 2889 156 
Q 2966 113 3172 113 
L 3172 0 
L 1756 0 
L 1756 113 
L 1816 113 
Q 2016 113 2095 173 
Q 2175 234 2206 353 
Q 2219 400 2219 647 
L 2219 1819 
Q 2219 2209 2117 2386 
Q 2016 2563 1775 2563 
Q 1403 2563 1034 2156 
L 1034 647 
Q 1034 356 1069 288 
Q 1113 197 1189 155 
Q 1266 113 1500 113 
L 1500 0 
L 84 0 
L 84 113 
L 147 113 
Q 366 113 442 223 
Q 519 334 519 647 
L 519 1709 
Q 519 2225 495 2337 
Q 472 2450 423 2490 
Q 375 2531 294 2531 
Q 206 2531 84 2484 
L 38 2597 
L 900 2947 
L 1034 2947 
L 1034 2341 
z
" transform="scale(0.015625)"/>
     </defs>
     <use xlink:href="#TimesNewRomanPSMT-59"/>
     <use xlink:href="#TimesNewRomanPSMT-65" transform="translate(62.216797 0)"/>
     <use xlink:href="#TimesNewRomanPSMT-6c" transform="translate(106.601562 0)"/>
     <use xlink:href="#TimesNewRomanPSMT-6c" transform="translate(134.384766 0)"/>
     <use xlink:href="#TimesNewRomanPSMT-6f" transform="translate(162.167969 0)"/>
     <use xlink:href="#TimesNewRomanPSMT-77" transform="translate(212.167969 0)"/>
     <use xlink:href="#TimesNewRomanPSMT-20" transform="translate(284.384766 0)"/>
     <use xlink:href="#TimesNewRomanPSMT-43" transform="translate(309.384766 0)"/>
     <use xlink:href="#TimesNewRomanPSMT-68" transform="translate(376.083984 0)"/>
     <use xlink:href="#TimesNewRomanPSMT-61" transform="translate(426.083984 0)"/>
     <use xlink:href="#TimesNewRomanPSMT-6e" transform="translate(470.46875 0)"/>
     <use xlink:href="#TimesNewRomanPSMT-6e" transform="translate(520.46875 0)"/>
     <use xlink:href="#TimesNewRomanPSMT-65" transform="translate(570.46875 0)"/>
     <use xlink:href="#TimesNewRomanPSMT-6c" transform="translate(614.853516 0)"/>
    </g>
   </g>
   <g id="legend_1">
    <g id="patch_7">
     <path d="M 736.42125 78.669375 
L 844.8 78.669375 
Q 847.2 78.669375 847.2 76.269375 
L 847.2 60.48 
Q 847.2 58.08 844.8 58.08 
L 736.42125 58.08 
Q 734.02125 58.08 734.02125 60.48 
L 734.02125 76.269375 
Q 734.02125 78.669375 736.42125 78.669375 
z
" style="fill: #ffffff; opacity: 0.8; stroke: #cccccc; stroke-linejoin: miter"/>
    </g>
    <g id="line2d_28">
     <path d="M 738.82125 67.08 
L 750.82125 67.08 
L 762.82125 67.08 
" style="fill: none; stroke: #ffd700; stroke-opacity: 0.8; stroke-linecap: square"/>
    </g>
    <g id="text_16">
     <!-- Original(Raw) -->
     <g transform="translate(772.42125 71.28) scale(0.12 -0.12)">
      <defs>
       <path id="TimesNewRomanPSMT-4f" d="M 2341 4334 
Q 3166 4334 3770 3707 
Q 4375 3081 4375 2144 
Q 4375 1178 3765 540 
Q 3156 -97 2291 -97 
Q 1416 -97 820 525 
Q 225 1147 225 2134 
Q 225 3144 913 3781 
Q 1509 4334 2341 4334 
z
M 2281 4106 
Q 1713 4106 1369 3684 
Q 941 3159 941 2147 
Q 941 1109 1384 550 
Q 1725 125 2284 125 
Q 2881 125 3270 590 
Q 3659 1056 3659 2059 
Q 3659 3147 3231 3681 
Q 2888 4106 2281 4106 
z
" transform="scale(0.015625)"/>
       <path id="TimesNewRomanPSMT-72" d="M 1038 2947 
L 1038 2303 
Q 1397 2947 1775 2947 
Q 1947 2947 2059 2842 
Q 2172 2738 2172 2600 
Q 2172 2478 2090 2393 
Q 2009 2309 1897 2309 
Q 1788 2309 1652 2417 
Q 1516 2525 1450 2525 
Q 1394 2525 1328 2463 
Q 1188 2334 1038 2041 
L 1038 669 
Q 1038 431 1097 309 
Q 1138 225 1241 169 
Q 1344 113 1538 113 
L 1538 0 
L 72 0 
L 72 113 
Q 291 113 397 181 
Q 475 231 506 341 
Q 522 394 522 644 
L 522 1753 
Q 522 2253 501 2348 
Q 481 2444 426 2487 
Q 372 2531 291 2531 
Q 194 2531 72 2484 
L 41 2597 
L 906 2947 
L 1038 2947 
z
" transform="scale(0.015625)"/>
       <path id="TimesNewRomanPSMT-69" d="M 928 4444 
Q 1059 4444 1151 4351 
Q 1244 4259 1244 4128 
Q 1244 3997 1151 3903 
Q 1059 3809 928 3809 
Q 797 3809 703 3903 
Q 609 3997 609 4128 
Q 609 4259 701 4351 
Q 794 4444 928 4444 
z
M 1188 2947 
L 1188 647 
Q 1188 378 1227 289 
Q 1266 200 1342 156 
Q 1419 113 1622 113 
L 1622 0 
L 231 0 
L 231 113 
Q 441 113 512 153 
Q 584 194 626 287 
Q 669 381 669 647 
L 669 1750 
Q 669 2216 641 2353 
Q 619 2453 572 2492 
Q 525 2531 444 2531 
Q 356 2531 231 2484 
L 188 2597 
L 1050 2947 
L 1188 2947 
z
" transform="scale(0.015625)"/>
       <path id="TimesNewRomanPSMT-67" d="M 966 1044 
Q 703 1172 562 1401 
Q 422 1631 422 1909 
Q 422 2334 742 2640 
Q 1063 2947 1563 2947 
Q 1972 2947 2272 2747 
L 2878 2747 
Q 3013 2747 3034 2739 
Q 3056 2731 3066 2713 
Q 3084 2684 3084 2613 
Q 3084 2531 3069 2500 
Q 3059 2484 3036 2475 
Q 3013 2466 2878 2466 
L 2506 2466 
Q 2681 2241 2681 1891 
Q 2681 1491 2375 1206 
Q 2069 922 1553 922 
Q 1341 922 1119 984 
Q 981 866 932 777 
Q 884 688 884 625 
Q 884 572 936 522 
Q 988 472 1138 450 
Q 1225 438 1575 428 
Q 2219 413 2409 384 
Q 2700 344 2873 169 
Q 3047 -6 3047 -263 
Q 3047 -616 2716 -925 
Q 2228 -1381 1444 -1381 
Q 841 -1381 425 -1109 
Q 191 -953 191 -784 
Q 191 -709 225 -634 
Q 278 -519 444 -313 
Q 466 -284 763 25 
Q 600 122 533 198 
Q 466 275 466 372 
Q 466 481 555 628 
Q 644 775 966 1044 
z
M 1509 2797 
Q 1278 2797 1122 2612 
Q 966 2428 966 2047 
Q 966 1553 1178 1281 
Q 1341 1075 1591 1075 
Q 1828 1075 1981 1253 
Q 2134 1431 2134 1813 
Q 2134 2309 1919 2591 
Q 1759 2797 1509 2797 
z
M 934 0 
Q 788 -159 713 -296 
Q 638 -434 638 -550 
Q 638 -700 819 -813 
Q 1131 -1006 1722 -1006 
Q 2284 -1006 2551 -807 
Q 2819 -609 2819 -384 
Q 2819 -222 2659 -153 
Q 2497 -84 2016 -72 
Q 1313 -53 934 0 
z
" transform="scale(0.015625)"/>
       <path id="TimesNewRomanPSMT-28" d="M 1988 -1253 
L 1988 -1369 
Q 1516 -1131 1200 -813 
Q 750 -359 506 256 
Q 263 872 263 1534 
Q 263 2503 741 3301 
Q 1219 4100 1988 4444 
L 1988 4313 
Q 1603 4100 1356 3731 
Q 1109 3363 987 2797 
Q 866 2231 866 1616 
Q 866 947 969 400 
Q 1050 -31 1165 -292 
Q 1281 -553 1476 -793 
Q 1672 -1034 1988 -1253 
z
" transform="scale(0.015625)"/>
       <path id="TimesNewRomanPSMT-52" d="M 4325 0 
L 3194 0 
L 1759 1981 
Q 1600 1975 1500 1975 
Q 1459 1975 1412 1976 
Q 1366 1978 1316 1981 
L 1316 750 
Q 1316 350 1403 253 
Q 1522 116 1759 116 
L 1925 116 
L 1925 0 
L 109 0 
L 109 116 
L 269 116 
Q 538 116 653 291 
Q 719 388 719 750 
L 719 3488 
Q 719 3888 631 3984 
Q 509 4122 269 4122 
L 109 4122 
L 109 4238 
L 1653 4238 
Q 2328 4238 2648 4139 
Q 2969 4041 3192 3777 
Q 3416 3513 3416 3147 
Q 3416 2756 3161 2468 
Q 2906 2181 2372 2063 
L 3247 847 
Q 3547 428 3762 290 
Q 3978 153 4325 116 
L 4325 0 
z
M 1316 2178 
Q 1375 2178 1419 2176 
Q 1463 2175 1491 2175 
Q 2097 2175 2405 2437 
Q 2713 2700 2713 3106 
Q 2713 3503 2464 3751 
Q 2216 4000 1806 4000 
Q 1625 4000 1316 3941 
L 1316 2178 
z
" transform="scale(0.015625)"/>
       <path id="TimesNewRomanPSMT-29" d="M 144 4313 
L 144 4444 
Q 619 4209 934 3891 
Q 1381 3434 1625 2820 
Q 1869 2206 1869 1541 
Q 1869 572 1392 -226 
Q 916 -1025 144 -1369 
L 144 -1253 
Q 528 -1038 776 -670 
Q 1025 -303 1145 264 
Q 1266 831 1266 1447 
Q 1266 2113 1163 2663 
Q 1084 3094 967 3353 
Q 850 3613 656 3853 
Q 463 4094 144 4313 
z
" transform="scale(0.015625)"/>
      </defs>
      <use xlink:href="#TimesNewRomanPSMT-4f"/>
      <use xlink:href="#TimesNewRomanPSMT-72" transform="translate(72.216797 0)"/>
      <use xlink:href="#TimesNewRomanPSMT-69" transform="translate(105.517578 0)"/>
      <use xlink:href="#TimesNewRomanPSMT-67" transform="translate(133.300781 0)"/>
      <use xlink:href="#TimesNewRomanPSMT-69" transform="translate(183.300781 0)"/>
      <use xlink:href="#TimesNewRomanPSMT-6e" transform="translate(211.083984 0)"/>
      <use xlink:href="#TimesNewRomanPSMT-61" transform="translate(261.083984 0)"/>
      <use xlink:href="#TimesNewRomanPSMT-6c" transform="translate(305.46875 0)"/>
      <use xlink:href="#TimesNewRomanPSMT-28" transform="translate(333.251953 0)"/>
      <use xlink:href="#TimesNewRomanPSMT-52" transform="translate(366.552734 0)"/>
      <use xlink:href="#TimesNewRomanPSMT-61" transform="translate(433.251953 0)"/>
      <use xlink:href="#TimesNewRomanPSMT-77" transform="translate(477.636719 0)"/>
      <use xlink:href="#TimesNewRomanPSMT-29" transform="translate(549.853516 0)"/>
     </g>
    </g>
   </g>
  </g>
  <g id="text_17">
   <!-- Radiation Variation - Yellow (0.0-1.0) -->
   <g transform="translate(310.60625 19.75) scale(0.16 -0.16)">
    <defs>
     <path id="TimesNewRomanPSMT-64" d="M 2222 322 
Q 2013 103 1813 7 
Q 1613 -88 1381 -88 
Q 913 -88 563 304 
Q 213 697 213 1313 
Q 213 1928 600 2439 
Q 988 2950 1597 2950 
Q 1975 2950 2222 2709 
L 2222 3238 
Q 2222 3728 2198 3840 
Q 2175 3953 2125 3993 
Q 2075 4034 2000 4034 
Q 1919 4034 1784 3984 
L 1744 4094 
L 2597 4444 
L 2738 4444 
L 2738 1134 
Q 2738 631 2761 520 
Q 2784 409 2836 365 
Q 2888 322 2956 322 
Q 3041 322 3181 375 
L 3216 266 
L 2366 -88 
L 2222 -88 
L 2222 322 
z
M 2222 541 
L 2222 2016 
Q 2203 2228 2109 2403 
Q 2016 2578 1861 2667 
Q 1706 2756 1559 2756 
Q 1284 2756 1069 2509 
Q 784 2184 784 1559 
Q 784 928 1059 592 
Q 1334 256 1672 256 
Q 1956 256 2222 541 
z
" transform="scale(0.015625)"/>
     <path id="TimesNewRomanPSMT-74" d="M 1031 3803 
L 1031 2863 
L 1700 2863 
L 1700 2644 
L 1031 2644 
L 1031 788 
Q 1031 509 1111 412 
Q 1191 316 1316 316 
Q 1419 316 1516 380 
Q 1613 444 1666 569 
L 1788 569 
Q 1678 263 1478 108 
Q 1278 -47 1066 -47 
Q 922 -47 784 33 
Q 647 113 581 261 
Q 516 409 516 719 
L 516 2644 
L 63 2644 
L 63 2747 
Q 234 2816 414 2980 
Q 594 3144 734 3369 
Q 806 3488 934 3803 
L 1031 3803 
z
" transform="scale(0.015625)"/>
     <path id="TimesNewRomanPSMT-2d" d="M 259 1672 
L 1875 1672 
L 1875 1200 
L 259 1200 
L 259 1672 
z
" transform="scale(0.015625)"/>
    </defs>
    <use xlink:href="#TimesNewRomanPSMT-52"/>
    <use xlink:href="#TimesNewRomanPSMT-61" transform="translate(66.699219 0)"/>
    <use xlink:href="#TimesNewRomanPSMT-64" transform="translate(111.083984 0)"/>
    <use xlink:href="#TimesNewRomanPSMT-69" transform="translate(161.083984 0)"/>
    <use xlink:href="#TimesNewRomanPSMT-61" transform="translate(188.867188 0)"/>
    <use xlink:href="#TimesNewRomanPSMT-74" transform="translate(233.251953 0)"/>
    <use xlink:href="#TimesNewRomanPSMT-69" transform="translate(261.035156 0)"/>
    <use xlink:href="#TimesNewRomanPSMT-6f" transform="translate(288.818359 0)"/>
    <use xlink:href="#TimesNewRomanPSMT-6e" transform="translate(338.818359 0)"/>
    <use xlink:href="#TimesNewRomanPSMT-20" transform="translate(388.818359 0)"/>
    <use xlink:href="#TimesNewRomanPSMT-56" transform="translate(412.068359 0)"/>
    <use xlink:href="#TimesNewRomanPSMT-61" transform="translate(473.160156 0)"/>
    <use xlink:href="#TimesNewRomanPSMT-72" transform="translate(517.544922 0)"/>
    <use xlink:href="#TimesNewRomanPSMT-69" transform="translate(550.845703 0)"/>
    <use xlink:href="#TimesNewRomanPSMT-61" transform="translate(578.628906 0)"/>
    <use xlink:href="#TimesNewRomanPSMT-74" transform="translate(623.013672 0)"/>
    <use xlink:href="#TimesNewRomanPSMT-69" transform="translate(650.796875 0)"/>
    <use xlink:href="#TimesNewRomanPSMT-6f" transform="translate(678.580078 0)"/>
    <use xlink:href="#TimesNewRomanPSMT-6e" transform="translate(728.580078 0)"/>
    <use xlink:href="#TimesNewRomanPSMT-20" transform="translate(778.580078 0)"/>
    <use xlink:href="#TimesNewRomanPSMT-2d" transform="translate(803.580078 0)"/>
    <use xlink:href="#TimesNewRomanPSMT-20" transform="translate(836.880859 0)"/>
    <use xlink:href="#TimesNewRomanPSMT-59" transform="translate(858.130859 0)"/>
    <use xlink:href="#TimesNewRomanPSMT-65" transform="translate(920.347656 0)"/>
    <use xlink:href="#TimesNewRomanPSMT-6c" transform="translate(964.732422 0)"/>
    <use xlink:href="#TimesNewRomanPSMT-6c" transform="translate(992.515625 0)"/>
    <use xlink:href="#TimesNewRomanPSMT-6f" transform="translate(1020.298828 0)"/>
    <use xlink:href="#TimesNewRomanPSMT-77" transform="translate(1070.298828 0)"/>
    <use xlink:href="#TimesNewRomanPSMT-20" transform="translate(1142.515625 0)"/>
    <use xlink:href="#TimesNewRomanPSMT-28" transform="translate(1167.515625 0)"/>
    <use xlink:href="#TimesNewRomanPSMT-30" transform="translate(1200.816406 0)"/>
    <use xlink:href="#TimesNewRomanPSMT-2e" transform="translate(1250.816406 0)"/>
    <use xlink:href="#TimesNewRomanPSMT-30" transform="translate(1275.816406 0)"/>
    <use xlink:href="#TimesNewRomanPSMT-2d" transform="translate(1325.816406 0)"/>
    <use xlink:href="#TimesNewRomanPSMT-31" transform="translate(1359.117188 0)"/>
    <use xlink:href="#TimesNewRomanPSMT-2e" transform="translate(1409.117188 0)"/>
    <use xlink:href="#TimesNewRomanPSMT-30" transform="translate(1434.117188 0)"/>
    <use xlink:href="#TimesNewRomanPSMT-29" transform="translate(1484.117188 0)"/>
   </g>
  </g>
 </g>
 <defs>
  <clipPath id="pef3b8640e8">
   <rect x="48.26" y="52.08" width="804.94" height="350.6"/>
  </clipPath>
 </defs>
</svg>
