<?xml version="1.0" encoding="utf-8" standalone="no"?>
<!DOCTYPE svg PUBLIC "-//W3C//DTD SVG 1.1//EN"
  "http://www.w3.org/Graphics/SVG/1.1/DTD/svg11.dtd">
<svg xmlns:xlink="http://www.w3.org/1999/xlink" width="648pt" height="432pt" viewBox="0 0 648 432" xmlns="http://www.w3.org/2000/svg" version="1.1">
 <metadata>
  <rdf:RDF xmlns:dc="http://purl.org/dc/elements/1.1/" xmlns:cc="http://creativecommons.org/ns#" xmlns:rdf="http://www.w3.org/1999/02/22-rdf-syntax-ns#">
   <cc:Work>
    <dc:type rdf:resource="http://purl.org/dc/dcmitype/StillImage"/>
    <dc:date>2025-12-26T14:28:32.945543</dc:date>
    <dc:format>image/svg+xml</dc:format>
    <dc:creator>
     <cc:Agent>
      <dc:title>Matplotlib v3.10.7, https://matplotlib.org/</dc:title>
     </cc:Agent>
    </dc:creator>
   </cc:Work>
  </rdf:RDF>
 </metadata>
 <defs>
  <style type="text/css">*{stroke-linejoin: round; stroke-linecap: butt}</style>
 </defs>
 <g id="figure_1">
  <g id="patch_1">
   <path d="M 0 432 
L 648 432 
L 648 0 
L 0 0 
z
" style="fill: #ffffff"/>
  </g>
  <g id="axes_1">
   <g id="patch_2">
    <path d="M 58.07 303.225 
L 637.2 303.225 
L 637.2 86.64 
L 58.07 86.64 
z
" style="fill: #ffffff"/>
   </g>
   <g id="matplotlib.axis_1">
    <g id="xtick_1">
     <g id="line2d_1">
      <path d="M 154.896873 303.225 
L 154.896873 86.64 
" clip-path="url(#p75445cfc86)" style="fill: none; stroke: #b0b0b0; stroke-opacity: 0.3; stroke-width: 0.8; stroke-linecap: square"/>
     </g>
     <g id="line2d_2">
      <defs>
       <path id="m880ffef1fb" d="M 0 0 
L 0 3.5 
" style="stroke: #000000; stroke-width: 0.8"/>
      </defs>
      <g>
       <use xlink:href="#m880ffef1fb" x="154.896873" y="303.225" style="stroke: #000000; stroke-width: 0.8"/>
      </g>
     </g>
    </g>
    <g id="xtick_2">
     <g id="line2d_3">
      <path d="M 292.239956 303.225 
L 292.239956 86.64 
" clip-path="url(#p75445cfc86)" style="fill: none; stroke: #b0b0b0; stroke-opacity: 0.3; stroke-width: 0.8; stroke-linecap: square"/>
     </g>
     <g id="line2d_4">
      <g>
       <use xlink:href="#m880ffef1fb" x="292.239956" y="303.225" style="stroke: #000000; stroke-width: 0.8"/>
      </g>
     </g>
    </g>
    <g id="xtick_3">
     <g id="line2d_5">
      <path d="M 429.58304 303.225 
L 429.58304 86.64 
" clip-path="url(#p75445cfc86)" style="fill: none; stroke: #b0b0b0; stroke-opacity: 0.3; stroke-width: 0.8; stroke-linecap: square"/>
     </g>
     <g id="line2d_6">
      <g>
       <use xlink:href="#m880ffef1fb" x="429.58304" y="303.225" style="stroke: #000000; stroke-width: 0.8"/>
      </g>
     </g>
    </g>
    <g id="xtick_4">
     <g id="line2d_7">
      <path d="M 566.926123 303.225 
L 566.926123 86.64 
" clip-path="url(#p75445cfc86)" style="fill: none; stroke: #b0b0b0; stroke-opacity: 0.3; stroke-width: 0.8; stroke-linecap: square"/>
     </g>
     <g id="line2d_8">
      <g>
       <use xlink:href="#m880ffef1fb" x="566.926123" y="303.225" style="stroke: #000000; stroke-width: 0.8"/>
      </g>
     </g>
    </g>
   </g>
   <g id="matplotlib.axis_2">
    <g id="ytick_1">
     <g id="line2d_9">
      <path d="M 58.07 277.841388 
L 637.2 277.841388 
" clip-path="url(#p75445cfc86)" style="fill: none; stroke: #b0b0b0; stroke-opacity: 0.3; stroke-width: 0.8; stroke-linecap: square"/>
     </g>
     <g id="line2d_10">
      <defs>
       <path id="me70e50ef9c" d="M 0 0 
L -3.5 0 
" style="stroke: #000000; stroke-width: 0.8"/>
      </defs>
      <g>
       <use xlink:href="#me70e50ef9c" x="58.07" y="277.841388" style="stroke: #000000; stroke-width: 0.8"/>
      </g>
     </g>
     <g id="text_1">
      <!-- 0.2 -->
      <g transform="translate(36.07 282.007638) scale(0.12 -0.12)">
       <defs>
        <path id="TimesNewRomanPSMT-30" d="M 231 2094 
Q 231 2819 450 3342 
Q 669 3866 1031 4122 
Q 1313 4325 1613 4325 
Q 2100 4325 2488 3828 
Q 2972 3213 2972 2159 
Q 2972 1422 2759 906 
Q 2547 391 2217 158 
Q 1888 -75 1581 -75 
Q 975 -75 572 641 
Q 231 1244 231 2094 
z
M 844 2016 
Q 844 1141 1059 588 
Q 1238 122 1591 122 
Q 1759 122 1940 273 
Q 2122 425 2216 781 
Q 2359 1319 2359 2297 
Q 2359 3022 2209 3506 
Q 2097 3866 1919 4016 
Q 1791 4119 1609 4119 
Q 1397 4119 1231 3928 
Q 1006 3669 925 3112 
Q 844 2556 844 2016 
z
" transform="scale(0.015625)"/>
        <path id="TimesNewRomanPSMT-2e" d="M 800 606 
Q 947 606 1047 504 
Q 1147 403 1147 259 
Q 1147 116 1045 14 
Q 944 -88 800 -88 
Q 656 -88 554 14 
Q 453 116 453 259 
Q 453 406 554 506 
Q 656 606 800 606 
z
" transform="scale(0.015625)"/>
        <path id="TimesNewRomanPSMT-32" d="M 2934 816 
L 2638 0 
L 138 0 
L 138 116 
Q 1241 1122 1691 1759 
Q 2141 2397 2141 2925 
Q 2141 3328 1894 3587 
Q 1647 3847 1303 3847 
Q 991 3847 742 3664 
Q 494 3481 375 3128 
L 259 3128 
Q 338 3706 661 4015 
Q 984 4325 1469 4325 
Q 1984 4325 2329 3994 
Q 2675 3663 2675 3213 
Q 2675 2891 2525 2569 
Q 2294 2063 1775 1497 
Q 997 647 803 472 
L 1909 472 
Q 2247 472 2383 497 
Q 2519 522 2628 598 
Q 2738 675 2819 816 
L 2934 816 
z
" transform="scale(0.015625)"/>
       </defs>
       <use xlink:href="#TimesNewRomanPSMT-30"/>
       <use xlink:href="#TimesNewRomanPSMT-2e" transform="translate(50 0)"/>
       <use xlink:href="#TimesNewRomanPSMT-32" transform="translate(75 0)"/>
      </g>
     </g>
    </g>
    <g id="ytick_2">
     <g id="line2d_11">
      <path d="M 58.07 250.595324 
L 637.2 250.595324 
" clip-path="url(#p75445cfc86)" style="fill: none; stroke: #b0b0b0; stroke-opacity: 0.3; stroke-width: 0.8; stroke-linecap: square"/>
     </g>
     <g id="line2d_12">
      <g>
       <use xlink:href="#me70e50ef9c" x="58.07" y="250.595324" style="stroke: #000000; stroke-width: 0.8"/>
      </g>
     </g>
     <g id="text_2">
      <!-- 0.4 -->
      <g transform="translate(36.07 254.761574) scale(0.12 -0.12)">
       <defs>
        <path id="TimesNewRomanPSMT-34" d="M 2978 1563 
L 2978 1119 
L 2409 1119 
L 2409 0 
L 1894 0 
L 1894 1119 
L 100 1119 
L 100 1519 
L 2066 4325 
L 2409 4325 
L 2409 1563 
L 2978 1563 
z
M 1894 1563 
L 1894 3666 
L 406 1563 
L 1894 1563 
z
" transform="scale(0.015625)"/>
       </defs>
       <use xlink:href="#TimesNewRomanPSMT-30"/>
       <use xlink:href="#TimesNewRomanPSMT-2e" transform="translate(50 0)"/>
       <use xlink:href="#TimesNewRomanPSMT-34" transform="translate(75 0)"/>
      </g>
     </g>
    </g>
    <g id="ytick_3">
     <g id="line2d_13">
      <path d="M 58.07 223.34926 
L 637.2 223.34926 
" clip-path="url(#p75445cfc86)" style="fill: none; stroke: #b0b0b0; stroke-opacity: 0.3; stroke-width: 0.8; stroke-linecap: square"/>
     </g>
     <g id="line2d_14">
      <g>
       <use xlink:href="#me70e50ef9c" x="58.07" y="223.34926" style="stroke: #000000; stroke-width: 0.8"/>
      </g>
     </g>
     <g id="text_3">
      <!-- 0.6 -->
      <g transform="translate(36.07 227.51551) scale(0.12 -0.12)">
       <defs>
        <path id="TimesNewRomanPSMT-36" d="M 2869 4325 
L 2869 4209 
Q 2456 4169 2195 4045 
Q 1934 3922 1679 3669 
Q 1425 3416 1258 3105 
Q 1091 2794 978 2366 
Q 1428 2675 1881 2675 
Q 2316 2675 2634 2325 
Q 2953 1975 2953 1425 
Q 2953 894 2631 456 
Q 2244 -75 1606 -75 
Q 1172 -75 869 213 
Q 275 772 275 1663 
Q 275 2231 503 2743 
Q 731 3256 1154 3653 
Q 1578 4050 1965 4187 
Q 2353 4325 2688 4325 
L 2869 4325 
z
M 925 2138 
Q 869 1716 869 1456 
Q 869 1156 980 804 
Q 1091 453 1309 247 
Q 1469 100 1697 100 
Q 1969 100 2183 356 
Q 2397 613 2397 1088 
Q 2397 1622 2184 2012 
Q 1972 2403 1581 2403 
Q 1463 2403 1327 2353 
Q 1191 2303 925 2138 
z
" transform="scale(0.015625)"/>
       </defs>
       <use xlink:href="#TimesNewRomanPSMT-30"/>
       <use xlink:href="#TimesNewRomanPSMT-2e" transform="translate(50 0)"/>
       <use xlink:href="#TimesNewRomanPSMT-36" transform="translate(75 0)"/>
      </g>
     </g>
    </g>
    <g id="ytick_4">
     <g id="line2d_15">
      <path d="M 58.07 196.103195 
L 637.2 196.103195 
" clip-path="url(#p75445cfc86)" style="fill: none; stroke: #b0b0b0; stroke-opacity: 0.3; stroke-width: 0.8; stroke-linecap: square"/>
     </g>
     <g id="line2d_16">
      <g>
       <use xlink:href="#me70e50ef9c" x="58.07" y="196.103195" style="stroke: #000000; stroke-width: 0.8"/>
      </g>
     </g>
     <g id="text_4">
      <!-- 0.8 -->
      <g transform="translate(36.07 200.269445) scale(0.12 -0.12)">
       <defs>
        <path id="TimesNewRomanPSMT-38" d="M 1228 2134 
Q 725 2547 579 2797 
Q 434 3047 434 3316 
Q 434 3728 753 4026 
Q 1072 4325 1600 4325 
Q 2113 4325 2425 4047 
Q 2738 3769 2738 3413 
Q 2738 3175 2569 2928 
Q 2400 2681 1866 2347 
Q 2416 1922 2594 1678 
Q 2831 1359 2831 1006 
Q 2831 559 2490 242 
Q 2150 -75 1597 -75 
Q 994 -75 656 303 
Q 388 606 388 966 
Q 388 1247 577 1523 
Q 766 1800 1228 2134 
z
M 1719 2469 
Q 2094 2806 2194 3001 
Q 2294 3197 2294 3444 
Q 2294 3772 2109 3958 
Q 1925 4144 1606 4144 
Q 1288 4144 1088 3959 
Q 888 3775 888 3528 
Q 888 3366 970 3203 
Q 1053 3041 1206 2894 
L 1719 2469 
z
M 1375 2016 
Q 1116 1797 991 1539 
Q 866 1281 866 981 
Q 866 578 1086 336 
Q 1306 94 1647 94 
Q 1984 94 2187 284 
Q 2391 475 2391 747 
Q 2391 972 2272 1150 
Q 2050 1481 1375 2016 
z
" transform="scale(0.015625)"/>
       </defs>
       <use xlink:href="#TimesNewRomanPSMT-30"/>
       <use xlink:href="#TimesNewRomanPSMT-2e" transform="translate(50 0)"/>
       <use xlink:href="#TimesNewRomanPSMT-38" transform="translate(75 0)"/>
      </g>
     </g>
    </g>
    <g id="ytick_5">
     <g id="line2d_17">
      <path d="M 58.07 168.857131 
L 637.2 168.857131 
" clip-path="url(#p75445cfc86)" style="fill: none; stroke: #b0b0b0; stroke-opacity: 0.3; stroke-width: 0.8; stroke-linecap: square"/>
     </g>
     <g id="line2d_18">
      <g>
       <use xlink:href="#me70e50ef9c" x="58.07" y="168.857131" style="stroke: #000000; stroke-width: 0.8"/>
      </g>
     </g>
     <g id="text_5">
      <!-- 1.0 -->
      <g transform="translate(36.07 173.023381) scale(0.12 -0.12)">
       <defs>
        <path id="TimesNewRomanPSMT-31" d="M 750 3822 
L 1781 4325 
L 1884 4325 
L 1884 747 
Q 1884 391 1914 303 
Q 1944 216 2037 169 
Q 2131 122 2419 116 
L 2419 0 
L 825 0 
L 825 116 
Q 1125 122 1212 167 
Q 1300 213 1334 289 
Q 1369 366 1369 747 
L 1369 3034 
Q 1369 3497 1338 3628 
Q 1316 3728 1258 3775 
Q 1200 3822 1119 3822 
Q 1003 3822 797 3725 
L 750 3822 
z
" transform="scale(0.015625)"/>
       </defs>
       <use xlink:href="#TimesNewRomanPSMT-31"/>
       <use xlink:href="#TimesNewRomanPSMT-2e" transform="translate(50 0)"/>
       <use xlink:href="#TimesNewRomanPSMT-30" transform="translate(75 0)"/>
      </g>
     </g>
    </g>
    <g id="ytick_6">
     <g id="line2d_19">
      <path d="M 58.07 141.611067 
L 637.2 141.611067 
" clip-path="url(#p75445cfc86)" style="fill: none; stroke: #b0b0b0; stroke-opacity: 0.3; stroke-width: 0.8; stroke-linecap: square"/>
     </g>
     <g id="line2d_20">
      <g>
       <use xlink:href="#me70e50ef9c" x="58.07" y="141.611067" style="stroke: #000000; stroke-width: 0.8"/>
      </g>
     </g>
     <g id="text_6">
      <!-- 1.2 -->
      <g transform="translate(36.07 145.777317) scale(0.12 -0.12)">
       <use xlink:href="#TimesNewRomanPSMT-31"/>
       <use xlink:href="#TimesNewRomanPSMT-2e" transform="translate(50 0)"/>
       <use xlink:href="#TimesNewRomanPSMT-32" transform="translate(75 0)"/>
      </g>
     </g>
    </g>
    <g id="ytick_7">
     <g id="line2d_21">
      <path d="M 58.07 114.365002 
L 637.2 114.365002 
" clip-path="url(#p75445cfc86)" style="fill: none; stroke: #b0b0b0; stroke-opacity: 0.3; stroke-width: 0.8; stroke-linecap: square"/>
     </g>
     <g id="line2d_22">
      <g>
       <use xlink:href="#me70e50ef9c" x="58.07" y="114.365002" style="stroke: #000000; stroke-width: 0.8"/>
      </g>
     </g>
     <g id="text_7">
      <!-- 1.4 -->
      <g transform="translate(36.07 118.531252) scale(0.12 -0.12)">
       <use xlink:href="#TimesNewRomanPSMT-31"/>
       <use xlink:href="#TimesNewRomanPSMT-2e" transform="translate(50 0)"/>
       <use xlink:href="#TimesNewRomanPSMT-34" transform="translate(75 0)"/>
      </g>
     </g>
    </g>
    <g id="ytick_8">
     <g id="line2d_23">
      <path d="M 58.07 87.118938 
L 637.2 87.118938 
" clip-path="url(#p75445cfc86)" style="fill: none; stroke: #b0b0b0; stroke-opacity: 0.3; stroke-width: 0.8; stroke-linecap: square"/>
     </g>
     <g id="line2d_24">
      <g>
       <use xlink:href="#me70e50ef9c" x="58.07" y="87.118938" style="stroke: #000000; stroke-width: 0.8"/>
      </g>
     </g>
     <g id="text_8">
      <!-- 1.6 -->
      <g transform="translate(36.07 91.285188) scale(0.12 -0.12)">
       <use xlink:href="#TimesNewRomanPSMT-31"/>
       <use xlink:href="#TimesNewRomanPSMT-2e" transform="translate(50 0)"/>
       <use xlink:href="#TimesNewRomanPSMT-36" transform="translate(75 0)"/>
      </g>
     </g>
    </g>
    <g id="text_9">
     <!-- mV -->
     <g transform="translate(29.503125 203.9325) rotate(-90) scale(0.12 -0.12)">
      <defs>
       <path id="TimesNewRomanPSMT-6d" d="M 1050 2338 
Q 1363 2650 1419 2697 
Q 1559 2816 1721 2881 
Q 1884 2947 2044 2947 
Q 2313 2947 2506 2790 
Q 2700 2634 2766 2338 
Q 3088 2713 3309 2830 
Q 3531 2947 3766 2947 
Q 3994 2947 4170 2830 
Q 4347 2713 4450 2447 
Q 4519 2266 4519 1878 
L 4519 647 
Q 4519 378 4559 278 
Q 4591 209 4675 161 
Q 4759 113 4950 113 
L 4950 0 
L 3538 0 
L 3538 113 
L 3597 113 
Q 3781 113 3884 184 
Q 3956 234 3988 344 
Q 4000 397 4000 647 
L 4000 1878 
Q 4000 2228 3916 2372 
Q 3794 2572 3525 2572 
Q 3359 2572 3192 2489 
Q 3025 2406 2788 2181 
L 2781 2147 
L 2788 2013 
L 2788 647 
Q 2788 353 2820 281 
Q 2853 209 2943 161 
Q 3034 113 3253 113 
L 3253 0 
L 1806 0 
L 1806 113 
Q 2044 113 2133 169 
Q 2222 225 2256 338 
Q 2272 391 2272 647 
L 2272 1878 
Q 2272 2228 2169 2381 
Q 2031 2581 1784 2581 
Q 1616 2581 1450 2491 
Q 1191 2353 1050 2181 
L 1050 647 
Q 1050 366 1089 281 
Q 1128 197 1204 155 
Q 1281 113 1516 113 
L 1516 0 
L 100 0 
L 100 113 
Q 297 113 375 155 
Q 453 197 493 289 
Q 534 381 534 647 
L 534 1741 
Q 534 2213 506 2350 
Q 484 2453 437 2492 
Q 391 2531 309 2531 
Q 222 2531 100 2484 
L 53 2597 
L 916 2947 
L 1050 2947 
L 1050 2338 
z
" transform="scale(0.015625)"/>
       <path id="TimesNewRomanPSMT-56" d="M 4544 4238 
L 4544 4122 
Q 4319 4081 4203 3978 
Q 4038 3825 3909 3509 
L 2431 -97 
L 2316 -97 
L 728 3556 
Q 606 3838 556 3900 
Q 478 3997 364 4051 
Q 250 4106 56 4122 
L 56 4238 
L 1788 4238 
L 1788 4122 
Q 1494 4094 1406 4022 
Q 1319 3950 1319 3838 
Q 1319 3681 1463 3350 
L 2541 866 
L 3541 3319 
Q 3688 3681 3688 3822 
Q 3688 3913 3597 3995 
Q 3506 4078 3291 4113 
Q 3275 4116 3238 4122 
L 3238 4238 
L 4544 4238 
z
" transform="scale(0.015625)"/>
      </defs>
      <use xlink:href="#TimesNewRomanPSMT-6d"/>
      <use xlink:href="#TimesNewRomanPSMT-56" transform="translate(77.783203 0)"/>
     </g>
    </g>
   </g>
   <g id="line2d_25">
    <path d="M 84.394091 159.278368 
L 88.972193 198.657514 
L 93.550296 163.535566 
L 98.128399 177.371526 
L 102.706502 159.278368 
L 107.284605 155.021171 
L 111.862707 174.178696 
L 116.44081 174.178696 
L 121.018913 164.599933 
L 125.597016 173.114329 
L 130.175118 175.242927 
L 134.753221 202.914711 
L 139.331324 197.593146 
L 143.909427 188.01452 
L 148.48753 176.307295 
L 153.065632 179.500125 
L 157.643735 201.850344 
L 162.221838 210.364875 
L 166.799941 211.429106 
L 171.378043 185.885921 
L 175.956146 199.721745 
L 180.534249 203.978943 
L 185.112352 211.429106 
L 189.690454 201.850344 
L 194.268557 196.528915 
L 198.84666 217.814903 
L 203.424763 198.657514 
L 208.002866 197.593146 
L 212.580968 192.271717 
L 217.159071 211.429106 
L 221.737174 197.593146 
L 226.315277 147.571143 
L 230.893379 177.371526 
L 235.471482 205.04331 
L 240.049585 113.513563 
L 244.627688 193.336085 
L 249.20579 135.863782 
L 253.783893 96.484773 
L 258.361996 115.642162 
L 262.940099 137.992381 
L 267.518201 159.278368 
L 272.096304 194.400316 
L 276.674407 179.500125 
L 281.25251 155.021171 
L 285.830613 184.821554 
L 290.408715 192.271717 
L 294.986818 182.692955 
L 299.564921 194.400316 
L 304.143024 203.978943 
L 308.721126 216.750535 
L 313.299229 224.200699 
L 317.877332 231.650727 
L 322.455435 211.429106 
L 327.033538 211.429106 
L 331.61164 218.879134 
L 336.189743 228.457897 
L 340.767846 236.972292 
L 345.345949 223.136468 
L 349.924051 216.750535 
L 354.502154 233.779325 
L 359.080257 242.293721 
L 363.65836 247.615286 
L 368.236462 226.329298 
L 372.814565 230.586495 
L 377.392668 235.907924 
L 381.970771 228.457897 
L 386.548874 233.779325 
L 391.126976 231.650727 
L 395.705079 231.650727 
L 400.283182 238.036523 
L 404.861284 239.10089 
L 409.439387 246.550918 
L 414.01749 248.679653 
L 418.595593 243.358088 
L 423.173696 244.422319 
L 427.751798 243.358088 
L 432.329901 242.293721 
L 436.908004 249.743884 
L 441.486107 256.129681 
L 446.064209 261.451109 
L 450.642312 264.644076 
L 455.220415 263.579844 
L 459.798518 271.029872 
L 464.376621 277.415668 
L 468.954723 277.415668 
L 473.532826 288.058662 
L 478.110929 288.058662 
L 482.689032 293.380227 
L 487.267134 288.058662 
L 491.845237 284.865832 
L 496.42334 281.672866 
L 501.001443 277.415668 
L 505.579545 277.415668 
L 510.157648 264.644076 
L 514.735751 260.386878 
L 519.313854 255.065313 
L 523.891957 255.065313 
L 528.470059 245.486687 
L 533.048162 242.293721 
L 537.626265 242.293721 
L 542.204368 243.358088 
L 546.78247 250.808116 
L 551.360573 258.258279 
L 555.938676 234.843693 
L 560.516779 239.10089 
L 565.094881 241.229489 
L 569.672984 228.457897 
L 574.251087 232.715094 
L 578.82919 236.972292 
L 583.407292 232.715094 
L 587.985395 244.422319 
L 592.563498 241.229489 
L 597.141601 235.907924 
L 601.719704 230.586495 
L 606.297806 226.329298 
L 610.875909 239.10089 
" clip-path="url(#p75445cfc86)" style="fill: none; stroke: #ffd700; stroke-linecap: square"/>
   </g>
   <g id="line2d_26">
    <path d="M 84.394091 173.823816 
L 88.972193 174.710744 
L 93.550296 171.624269 
L 98.128399 170.772829 
L 102.706502 165.877065 
L 107.284605 168.005691 
L 111.862707 165.4617 
L 116.44081 168.228892 
L 121.018913 172.273243 
L 125.597016 178.020446 
L 130.175118 182.703336 
L 134.753221 187.375927 
L 139.331324 188.01452 
L 143.909427 188.865959 
L 148.48753 188.653086 
L 153.065632 191.207432 
L 157.643735 195.890349 
L 162.221838 197.806074 
L 166.799941 201.850398 
L 171.378043 202.276118 
L 175.956146 202.488964 
L 180.534249 200.573212 
L 185.112352 202.701811 
L 189.690454 206.320442 
L 194.268557 205.256156 
L 198.84666 202.488964 
L 203.424763 200.573239 
L 208.002866 203.553277 
L 212.580968 199.508926 
L 217.159071 189.291652 
L 221.737174 185.247328 
L 226.315277 187.801646 
L 230.893379 168.218538 
L 235.471482 167.367125 
L 240.049585 165.025653 
L 244.627688 148.848303 
L 249.20579 130.968073 
L 253.783893 135.863836 
L 258.361996 129.052293 
L 262.940099 140.7596 
L 267.518201 157.36267 
L 272.096304 165.238472 
L 276.674407 174.604307 
L 281.25251 181.202977 
L 285.830613 178.861504 
L 290.408715 181.841543 
L 294.986818 191.633097 
L 299.564921 198.018893 
L 304.143024 204.40469 
L 308.721126 214.196244 
L 313.299229 217.602002 
L 317.877332 219.092035 
L 322.455435 219.517755 
L 327.033538 220.369194 
L 331.61164 221.433507 
L 336.189743 223.774979 
L 340.767846 224.839265 
L 345.345949 227.819303 
L 349.924051 230.586468 
L 354.502154 232.715067 
L 359.080257 233.353633 
L 363.65836 236.120825 
L 368.236462 236.546545 
L 372.814565 233.77938 
L 377.392668 231.012188 
L 381.970771 232.076474 
L 386.548874 232.28932 
L 391.126976 232.71504 
L 395.705079 234.843638 
L 400.283182 237.397957 
L 404.861284 240.803742 
L 409.439387 243.145215 
L 414.01749 244.422374 
L 418.595593 245.273813 
L 423.173696 244.422374 
L 427.751798 244.63522 
L 432.329901 247.189539 
L 436.908004 250.595297 
L 441.486107 254.852494 
L 446.064209 259.109719 
L 450.642312 263.366916 
L 455.220415 267.624114 
L 459.798518 270.817026 
L 464.376621 275.499943 
L 468.954723 280.395707 
L 473.532826 284.865778 
L 478.110929 286.994376 
L 482.689032 288.484409 
L 487.267134 287.20725 
L 491.845237 285.078651 
L 496.42334 281.885739 
L 501.001443 277.202822 
L 505.579545 272.307031 
L 510.157648 266.985521 
L 514.735751 262.51545 
L 519.313854 256.129653 
L 523.891957 251.659582 
L 528.470059 248.040951 
L 533.048162 245.699506 
L 537.626265 244.848066 
L 542.204368 247.402385 
L 546.78247 245.912379 
L 551.360573 245.273813 
L 555.938676 244.848094 
L 560.516779 240.37805 
L 565.094881 235.269413 
L 569.672984 235.695132 
L 574.251087 234.417973 
L 578.82919 235.056539 
L 583.407292 237.610858 
L 587.985395 238.249424 
L 592.563498 236.972264 
L 597.141601 235.695105 
L 601.719704 234.630819 
L 606.297806 238.462297 
L 610.875909 243.570934 
" clip-path="url(#p75445cfc86)" style="fill: none; stroke: #1f77b4; stroke-linecap: square"/>
   </g>
   <g id="patch_3">
    <path d="M 58.07 303.225 
L 58.07 86.64 
" style="fill: none; stroke: #000000; stroke-width: 0.8; stroke-linejoin: miter; stroke-linecap: square"/>
   </g>
   <g id="patch_4">
    <path d="M 637.2 303.225 
L 637.2 86.64 
" style="fill: none; stroke: #000000; stroke-width: 0.8; stroke-linejoin: miter; stroke-linecap: square"/>
   </g>
   <g id="patch_5">
    <path d="M 58.07 303.225 
L 637.2 303.225 
" style="fill: none; stroke: #000000; stroke-width: 0.8; stroke-linejoin: miter; stroke-linecap: square"/>
   </g>
   <g id="patch_6">
    <path d="M 58.07 86.64 
L 637.2 86.64 
" style="fill: none; stroke: #000000; stroke-width: 0.8; stroke-linejoin: miter; stroke-linecap: square"/>
   </g>
   <g id="text_10">
    <!-- Yellow (Denoised n=1.75 L=5) -->
    <g transform="translate(259.956719 80.64) scale(0.14 -0.14)">
     <defs>
      <path id="TimesNewRomanPSMT-59" d="M 3050 4238 
L 4528 4238 
L 4528 4122 
L 4447 4122 
Q 4366 4122 4209 4050 
Q 4053 3978 3925 3843 
Q 3797 3709 3609 3406 
L 2588 1797 
L 2588 734 
Q 2588 344 2675 247 
Q 2794 116 3050 116 
L 3188 116 
L 3188 0 
L 1388 0 
L 1388 116 
L 1538 116 
Q 1806 116 1919 278 
Q 1988 378 1988 734 
L 1988 1738 
L 825 3513 
Q 619 3825 545 3903 
Q 472 3981 241 4091 
Q 178 4122 59 4122 
L 59 4238 
L 1872 4238 
L 1872 4122 
L 1778 4122 
Q 1631 4122 1507 4053 
Q 1384 3984 1384 3847 
Q 1384 3734 1575 3441 
L 2459 2075 
L 3291 3381 
Q 3478 3675 3478 3819 
Q 3478 3906 3433 3975 
Q 3388 4044 3303 4083 
Q 3219 4122 3050 4122 
L 3050 4238 
z
" transform="scale(0.015625)"/>
      <path id="TimesNewRomanPSMT-65" d="M 681 1784 
Q 678 1147 991 784 
Q 1303 422 1725 422 
Q 2006 422 2214 576 
Q 2422 731 2563 1106 
L 2659 1044 
Q 2594 616 2278 264 
Q 1963 -88 1488 -88 
Q 972 -88 605 314 
Q 238 716 238 1394 
Q 238 2128 614 2539 
Q 991 2950 1559 2950 
Q 2041 2950 2350 2633 
Q 2659 2316 2659 1784 
L 681 1784 
z
M 681 1966 
L 2006 1966 
Q 1991 2241 1941 2353 
Q 1863 2528 1708 2628 
Q 1553 2728 1384 2728 
Q 1125 2728 920 2526 
Q 716 2325 681 1966 
z
" transform="scale(0.015625)"/>
      <path id="TimesNewRomanPSMT-6c" d="M 1184 4444 
L 1184 647 
Q 1184 378 1223 290 
Q 1263 203 1344 158 
Q 1425 113 1647 113 
L 1647 0 
L 244 0 
L 244 113 
Q 441 113 512 153 
Q 584 194 625 287 
Q 666 381 666 647 
L 666 3247 
Q 666 3731 644 3842 
Q 622 3953 573 3993 
Q 525 4034 450 4034 
Q 369 4034 244 3984 
L 191 4094 
L 1044 4444 
L 1184 4444 
z
" transform="scale(0.015625)"/>
      <path id="TimesNewRomanPSMT-6f" d="M 1600 2947 
Q 2250 2947 2644 2453 
Q 2978 2031 2978 1484 
Q 2978 1100 2793 706 
Q 2609 313 2286 112 
Q 1963 -88 1566 -88 
Q 919 -88 538 428 
Q 216 863 216 1403 
Q 216 1797 411 2186 
Q 606 2575 925 2761 
Q 1244 2947 1600 2947 
z
M 1503 2744 
Q 1338 2744 1170 2645 
Q 1003 2547 900 2300 
Q 797 2053 797 1666 
Q 797 1041 1045 587 
Q 1294 134 1700 134 
Q 2003 134 2200 384 
Q 2397 634 2397 1244 
Q 2397 2006 2069 2444 
Q 1847 2744 1503 2744 
z
" transform="scale(0.015625)"/>
      <path id="TimesNewRomanPSMT-77" d="M 41 2863 
L 1241 2863 
L 1241 2747 
Q 1075 2734 1023 2687 
Q 972 2641 972 2553 
Q 972 2456 1025 2319 
L 1638 672 
L 2253 2013 
L 2091 2434 
Q 2016 2622 1894 2694 
Q 1825 2738 1638 2747 
L 1638 2863 
L 3000 2863 
L 3000 2747 
Q 2775 2738 2681 2666 
Q 2619 2616 2619 2506 
Q 2619 2444 2644 2378 
L 3294 734 
L 3897 2319 
Q 3959 2488 3959 2588 
Q 3959 2647 3898 2694 
Q 3838 2741 3659 2747 
L 3659 2863 
L 4563 2863 
L 4563 2747 
Q 4291 2706 4163 2378 
L 3206 -88 
L 3078 -88 
L 2363 1741 
L 1528 -88 
L 1413 -88 
L 494 2319 
Q 403 2547 315 2626 
Q 228 2706 41 2747 
L 41 2863 
z
" transform="scale(0.015625)"/>
      <path id="TimesNewRomanPSMT-20" transform="scale(0.015625)"/>
      <path id="TimesNewRomanPSMT-28" d="M 1988 -1253 
L 1988 -1369 
Q 1516 -1131 1200 -813 
Q 750 -359 506 256 
Q 263 872 263 1534 
Q 263 2503 741 3301 
Q 1219 4100 1988 4444 
L 1988 4313 
Q 1603 4100 1356 3731 
Q 1109 3363 987 2797 
Q 866 2231 866 1616 
Q 866 947 969 400 
Q 1050 -31 1165 -292 
Q 1281 -553 1476 -793 
Q 1672 -1034 1988 -1253 
z
" transform="scale(0.015625)"/>
      <path id="TimesNewRomanPSMT-44" d="M 109 0 
L 109 116 
L 269 116 
Q 538 116 650 288 
Q 719 391 719 750 
L 719 3488 
Q 719 3884 631 3984 
Q 509 4122 269 4122 
L 109 4122 
L 109 4238 
L 1834 4238 
Q 2784 4238 3279 4022 
Q 3775 3806 4076 3303 
Q 4378 2800 4378 2141 
Q 4378 1256 3841 663 
Q 3238 0 2003 0 
L 109 0 
z
M 1319 306 
Q 1716 219 1984 219 
Q 2709 219 3187 728 
Q 3666 1238 3666 2109 
Q 3666 2988 3187 3494 
Q 2709 4000 1959 4000 
Q 1678 4000 1319 3909 
L 1319 306 
z
" transform="scale(0.015625)"/>
      <path id="TimesNewRomanPSMT-6e" d="M 1034 2341 
Q 1538 2947 1994 2947 
Q 2228 2947 2397 2830 
Q 2566 2713 2666 2444 
Q 2734 2256 2734 1869 
L 2734 647 
Q 2734 375 2778 278 
Q 2813 200 2889 156 
Q 2966 113 3172 113 
L 3172 0 
L 1756 0 
L 1756 113 
L 1816 113 
Q 2016 113 2095 173 
Q 2175 234 2206 353 
Q 2219 400 2219 647 
L 2219 1819 
Q 2219 2209 2117 2386 
Q 2016 2563 1775 2563 
Q 1403 2563 1034 2156 
L 1034 647 
Q 1034 356 1069 288 
Q 1113 197 1189 155 
Q 1266 113 1500 113 
L 1500 0 
L 84 0 
L 84 113 
L 147 113 
Q 366 113 442 223 
Q 519 334 519 647 
L 519 1709 
Q 519 2225 495 2337 
Q 472 2450 423 2490 
Q 375 2531 294 2531 
Q 206 2531 84 2484 
L 38 2597 
L 900 2947 
L 1034 2947 
L 1034 2341 
z
" transform="scale(0.015625)"/>
      <path id="TimesNewRomanPSMT-69" d="M 928 4444 
Q 1059 4444 1151 4351 
Q 1244 4259 1244 4128 
Q 1244 3997 1151 3903 
Q 1059 3809 928 3809 
Q 797 3809 703 3903 
Q 609 3997 609 4128 
Q 609 4259 701 4351 
Q 794 4444 928 4444 
z
M 1188 2947 
L 1188 647 
Q 1188 378 1227 289 
Q 1266 200 1342 156 
Q 1419 113 1622 113 
L 1622 0 
L 231 0 
L 231 113 
Q 441 113 512 153 
Q 584 194 626 287 
Q 669 381 669 647 
L 669 1750 
Q 669 2216 641 2353 
Q 619 2453 572 2492 
Q 525 2531 444 2531 
Q 356 2531 231 2484 
L 188 2597 
L 1050 2947 
L 1188 2947 
z
" transform="scale(0.015625)"/>
      <path id="TimesNewRomanPSMT-73" d="M 2050 2947 
L 2050 1972 
L 1947 1972 
Q 1828 2431 1642 2597 
Q 1456 2763 1169 2763 
Q 950 2763 815 2647 
Q 681 2531 681 2391 
Q 681 2216 781 2091 
Q 878 1963 1175 1819 
L 1631 1597 
Q 2266 1288 2266 781 
Q 2266 391 1970 151 
Q 1675 -88 1309 -88 
Q 1047 -88 709 6 
Q 606 38 541 38 
Q 469 38 428 -44 
L 325 -44 
L 325 978 
L 428 978 
Q 516 541 762 319 
Q 1009 97 1316 97 
Q 1531 97 1667 223 
Q 1803 350 1803 528 
Q 1803 744 1651 891 
Q 1500 1038 1047 1263 
Q 594 1488 453 1669 
Q 313 1847 313 2119 
Q 313 2472 555 2709 
Q 797 2947 1181 2947 
Q 1350 2947 1591 2875 
Q 1750 2828 1803 2828 
Q 1853 2828 1881 2850 
Q 1909 2872 1947 2947 
L 2050 2947 
z
" transform="scale(0.015625)"/>
      <path id="TimesNewRomanPSMT-64" d="M 2222 322 
Q 2013 103 1813 7 
Q 1613 -88 1381 -88 
Q 913 -88 563 304 
Q 213 697 213 1313 
Q 213 1928 600 2439 
Q 988 2950 1597 2950 
Q 1975 2950 2222 2709 
L 2222 3238 
Q 2222 3728 2198 3840 
Q 2175 3953 2125 3993 
Q 2075 4034 2000 4034 
Q 1919 4034 1784 3984 
L 1744 4094 
L 2597 4444 
L 2738 4444 
L 2738 1134 
Q 2738 631 2761 520 
Q 2784 409 2836 365 
Q 2888 322 2956 322 
Q 3041 322 3181 375 
L 3216 266 
L 2366 -88 
L 2222 -88 
L 2222 322 
z
M 2222 541 
L 2222 2016 
Q 2203 2228 2109 2403 
Q 2016 2578 1861 2667 
Q 1706 2756 1559 2756 
Q 1284 2756 1069 2509 
Q 784 2184 784 1559 
Q 784 928 1059 592 
Q 1334 256 1672 256 
Q 1956 256 2222 541 
z
" transform="scale(0.015625)"/>
      <path id="TimesNewRomanPSMT-3d" d="M 116 2759 
L 3488 2759 
L 3488 2503 
L 116 2503 
L 116 2759 
z
M 116 1741 
L 3488 1741 
L 3488 1484 
L 116 1484 
L 116 1741 
z
" transform="scale(0.015625)"/>
      <path id="TimesNewRomanPSMT-37" d="M 644 4238 
L 2916 4238 
L 2916 4119 
L 1503 -88 
L 1153 -88 
L 2419 3728 
L 1253 3728 
Q 900 3728 750 3644 
Q 488 3500 328 3200 
L 238 3234 
L 644 4238 
z
" transform="scale(0.015625)"/>
      <path id="TimesNewRomanPSMT-35" d="M 2778 4238 
L 2534 3706 
L 1259 3706 
L 981 3138 
Q 1809 3016 2294 2522 
Q 2709 2097 2709 1522 
Q 2709 1188 2573 903 
Q 2438 619 2231 419 
Q 2025 219 1772 97 
Q 1413 -75 1034 -75 
Q 653 -75 479 54 
Q 306 184 306 341 
Q 306 428 378 495 
Q 450 563 559 563 
Q 641 563 702 538 
Q 763 513 909 409 
Q 1144 247 1384 247 
Q 1750 247 2026 523 
Q 2303 800 2303 1197 
Q 2303 1581 2056 1914 
Q 1809 2247 1375 2428 
Q 1034 2569 447 2591 
L 1259 4238 
L 2778 4238 
z
" transform="scale(0.015625)"/>
      <path id="TimesNewRomanPSMT-4c" d="M 3669 1172 
L 3772 1150 
L 3409 0 
L 128 0 
L 128 116 
L 288 116 
Q 556 116 672 291 
Q 738 391 738 753 
L 738 3488 
Q 738 3884 650 3984 
Q 528 4122 288 4122 
L 128 4122 
L 128 4238 
L 2047 4238 
L 2047 4122 
Q 1709 4125 1573 4059 
Q 1438 3994 1388 3894 
Q 1338 3794 1338 3416 
L 1338 753 
Q 1338 494 1388 397 
Q 1425 331 1503 300 
Q 1581 269 1991 269 
L 2300 269 
Q 2788 269 2984 341 
Q 3181 413 3343 595 
Q 3506 778 3669 1172 
z
" transform="scale(0.015625)"/>
      <path id="TimesNewRomanPSMT-29" d="M 144 4313 
L 144 4444 
Q 619 4209 934 3891 
Q 1381 3434 1625 2820 
Q 1869 2206 1869 1541 
Q 1869 572 1392 -226 
Q 916 -1025 144 -1369 
L 144 -1253 
Q 528 -1038 776 -670 
Q 1025 -303 1145 264 
Q 1266 831 1266 1447 
Q 1266 2113 1163 2663 
Q 1084 3094 967 3353 
Q 850 3613 656 3853 
Q 463 4094 144 4313 
z
" transform="scale(0.015625)"/>
     </defs>
     <use xlink:href="#TimesNewRomanPSMT-59"/>
     <use xlink:href="#TimesNewRomanPSMT-65" transform="translate(62.216797 0)"/>
     <use xlink:href="#TimesNewRomanPSMT-6c" transform="translate(106.601562 0)"/>
     <use xlink:href="#TimesNewRomanPSMT-6c" transform="translate(134.384766 0)"/>
     <use xlink:href="#TimesNewRomanPSMT-6f" transform="translate(162.167969 0)"/>
     <use xlink:href="#TimesNewRomanPSMT-77" transform="translate(212.167969 0)"/>
     <use xlink:href="#TimesNewRomanPSMT-20" transform="translate(284.384766 0)"/>
     <use xlink:href="#TimesNewRomanPSMT-28" transform="translate(309.384766 0)"/>
     <use xlink:href="#TimesNewRomanPSMT-44" transform="translate(342.685547 0)"/>
     <use xlink:href="#TimesNewRomanPSMT-65" transform="translate(414.902344 0)"/>
     <use xlink:href="#TimesNewRomanPSMT-6e" transform="translate(459.287109 0)"/>
     <use xlink:href="#TimesNewRomanPSMT-6f" transform="translate(509.287109 0)"/>
     <use xlink:href="#TimesNewRomanPSMT-69" transform="translate(559.287109 0)"/>
     <use xlink:href="#TimesNewRomanPSMT-73" transform="translate(587.070312 0)"/>
     <use xlink:href="#TimesNewRomanPSMT-65" transform="translate(625.986328 0)"/>
     <use xlink:href="#TimesNewRomanPSMT-64" transform="translate(670.371094 0)"/>
     <use xlink:href="#TimesNewRomanPSMT-20" transform="translate(720.371094 0)"/>
     <use xlink:href="#TimesNewRomanPSMT-6e" transform="translate(745.371094 0)"/>
     <use xlink:href="#TimesNewRomanPSMT-3d" transform="translate(795.371094 0)"/>
     <use xlink:href="#TimesNewRomanPSMT-31" transform="translate(851.767578 0)"/>
     <use xlink:href="#TimesNewRomanPSMT-2e" transform="translate(901.767578 0)"/>
     <use xlink:href="#TimesNewRomanPSMT-37" transform="translate(926.767578 0)"/>
     <use xlink:href="#TimesNewRomanPSMT-35" transform="translate(976.767578 0)"/>
     <use xlink:href="#TimesNewRomanPSMT-20" transform="translate(1026.767578 0)"/>
     <use xlink:href="#TimesNewRomanPSMT-4c" transform="translate(1051.767578 0)"/>
     <use xlink:href="#TimesNewRomanPSMT-3d" transform="translate(1112.851562 0)"/>
     <use xlink:href="#TimesNewRomanPSMT-35" transform="translate(1169.248047 0)"/>
     <use xlink:href="#TimesNewRomanPSMT-29" transform="translate(1219.248047 0)"/>
    </g>
   </g>
   <g id="legend_1">
    <g id="patch_7">
     <path d="M 485.2125 130.19625 
L 628.8 130.19625 
Q 631.2 130.19625 631.2 127.79625 
L 631.2 95.04 
Q 631.2 92.64 628.8 92.64 
L 485.2125 92.64 
Q 482.8125 92.64 482.8125 95.04 
L 482.8125 127.79625 
Q 482.8125 130.19625 485.2125 130.19625 
z
" style="fill: #ffffff; opacity: 0.8; stroke: #cccccc; stroke-linejoin: miter"/>
    </g>
    <g id="line2d_27">
     <path d="M 487.6125 101.64 
L 499.6125 101.64 
L 511.6125 101.64 
" style="fill: none; stroke: #ffd700; stroke-linecap: square"/>
    </g>
    <g id="text_11">
     <!-- Original -->
     <g transform="translate(521.2125 105.84) scale(0.12 -0.12)">
      <defs>
       <path id="TimesNewRomanPSMT-4f" d="M 2341 4334 
Q 3166 4334 3770 3707 
Q 4375 3081 4375 2144 
Q 4375 1178 3765 540 
Q 3156 -97 2291 -97 
Q 1416 -97 820 525 
Q 225 1147 225 2134 
Q 225 3144 913 3781 
Q 1509 4334 2341 4334 
z
M 2281 4106 
Q 1713 4106 1369 3684 
Q 941 3159 941 2147 
Q 941 1109 1384 550 
Q 1725 125 2284 125 
Q 2881 125 3270 590 
Q 3659 1056 3659 2059 
Q 3659 3147 3231 3681 
Q 2888 4106 2281 4106 
z
" transform="scale(0.015625)"/>
       <path id="TimesNewRomanPSMT-72" d="M 1038 2947 
L 1038 2303 
Q 1397 2947 1775 2947 
Q 1947 2947 2059 2842 
Q 2172 2738 2172 2600 
Q 2172 2478 2090 2393 
Q 2009 2309 1897 2309 
Q 1788 2309 1652 2417 
Q 1516 2525 1450 2525 
Q 1394 2525 1328 2463 
Q 1188 2334 1038 2041 
L 1038 669 
Q 1038 431 1097 309 
Q 1138 225 1241 169 
Q 1344 113 1538 113 
L 1538 0 
L 72 0 
L 72 113 
Q 291 113 397 181 
Q 475 231 506 341 
Q 522 394 522 644 
L 522 1753 
Q 522 2253 501 2348 
Q 481 2444 426 2487 
Q 372 2531 291 2531 
Q 194 2531 72 2484 
L 41 2597 
L 906 2947 
L 1038 2947 
z
" transform="scale(0.015625)"/>
       <path id="TimesNewRomanPSMT-67" d="M 966 1044 
Q 703 1172 562 1401 
Q 422 1631 422 1909 
Q 422 2334 742 2640 
Q 1063 2947 1563 2947 
Q 1972 2947 2272 2747 
L 2878 2747 
Q 3013 2747 3034 2739 
Q 3056 2731 3066 2713 
Q 3084 2684 3084 2613 
Q 3084 2531 3069 2500 
Q 3059 2484 3036 2475 
Q 3013 2466 2878 2466 
L 2506 2466 
Q 2681 2241 2681 1891 
Q 2681 1491 2375 1206 
Q 2069 922 1553 922 
Q 1341 922 1119 984 
Q 981 866 932 777 
Q 884 688 884 625 
Q 884 572 936 522 
Q 988 472 1138 450 
Q 1225 438 1575 428 
Q 2219 413 2409 384 
Q 2700 344 2873 169 
Q 3047 -6 3047 -263 
Q 3047 -616 2716 -925 
Q 2228 -1381 1444 -1381 
Q 841 -1381 425 -1109 
Q 191 -953 191 -784 
Q 191 -709 225 -634 
Q 278 -519 444 -313 
Q 466 -284 763 25 
Q 600 122 533 198 
Q 466 275 466 372 
Q 466 481 555 628 
Q 644 775 966 1044 
z
M 1509 2797 
Q 1278 2797 1122 2612 
Q 966 2428 966 2047 
Q 966 1553 1178 1281 
Q 1341 1075 1591 1075 
Q 1828 1075 1981 1253 
Q 2134 1431 2134 1813 
Q 2134 2309 1919 2591 
Q 1759 2797 1509 2797 
z
M 934 0 
Q 788 -159 713 -296 
Q 638 -434 638 -550 
Q 638 -700 819 -813 
Q 1131 -1006 1722 -1006 
Q 2284 -1006 2551 -807 
Q 2819 -609 2819 -384 
Q 2819 -222 2659 -153 
Q 2497 -84 2016 -72 
Q 1313 -53 934 0 
z
" transform="scale(0.015625)"/>
       <path id="TimesNewRomanPSMT-61" d="M 1822 413 
Q 1381 72 1269 19 
Q 1100 -59 909 -59 
Q 613 -59 420 144 
Q 228 347 228 678 
Q 228 888 322 1041 
Q 450 1253 767 1440 
Q 1084 1628 1822 1897 
L 1822 2009 
Q 1822 2438 1686 2597 
Q 1550 2756 1291 2756 
Q 1094 2756 978 2650 
Q 859 2544 859 2406 
L 866 2225 
Q 866 2081 792 2003 
Q 719 1925 600 1925 
Q 484 1925 411 2006 
Q 338 2088 338 2228 
Q 338 2497 613 2722 
Q 888 2947 1384 2947 
Q 1766 2947 2009 2819 
Q 2194 2722 2281 2516 
Q 2338 2381 2338 1966 
L 2338 994 
Q 2338 584 2353 492 
Q 2369 400 2405 369 
Q 2441 338 2488 338 
Q 2538 338 2575 359 
Q 2641 400 2828 588 
L 2828 413 
Q 2478 -56 2159 -56 
Q 2006 -56 1915 50 
Q 1825 156 1822 413 
z
M 1822 616 
L 1822 1706 
Q 1350 1519 1213 1441 
Q 966 1303 859 1153 
Q 753 1003 753 825 
Q 753 600 887 451 
Q 1022 303 1197 303 
Q 1434 303 1822 616 
z
" transform="scale(0.015625)"/>
      </defs>
      <use xlink:href="#TimesNewRomanPSMT-4f"/>
      <use xlink:href="#TimesNewRomanPSMT-72" transform="translate(72.216797 0)"/>
      <use xlink:href="#TimesNewRomanPSMT-69" transform="translate(105.517578 0)"/>
      <use xlink:href="#TimesNewRomanPSMT-67" transform="translate(133.300781 0)"/>
      <use xlink:href="#TimesNewRomanPSMT-69" transform="translate(183.300781 0)"/>
      <use xlink:href="#TimesNewRomanPSMT-6e" transform="translate(211.083984 0)"/>
      <use xlink:href="#TimesNewRomanPSMT-61" transform="translate(261.083984 0)"/>
      <use xlink:href="#TimesNewRomanPSMT-6c" transform="translate(305.46875 0)"/>
     </g>
    </g>
    <g id="line2d_28">
     <path d="M 487.6125 118.629375 
L 499.6125 118.629375 
L 511.6125 118.629375 
" style="fill: none; stroke: #1f77b4; stroke-linecap: square"/>
    </g>
    <g id="text_12">
     <!-- Denoised n=1.75 L=5 -->
     <g transform="translate(521.2125 122.829375) scale(0.12 -0.12)">
      <use xlink:href="#TimesNewRomanPSMT-44"/>
      <use xlink:href="#TimesNewRomanPSMT-65" transform="translate(72.216797 0)"/>
      <use xlink:href="#TimesNewRomanPSMT-6e" transform="translate(116.601562 0)"/>
      <use xlink:href="#TimesNewRomanPSMT-6f" transform="translate(166.601562 0)"/>
      <use xlink:href="#TimesNewRomanPSMT-69" transform="translate(216.601562 0)"/>
      <use xlink:href="#TimesNewRomanPSMT-73" transform="translate(244.384766 0)"/>
      <use xlink:href="#TimesNewRomanPSMT-65" transform="translate(283.300781 0)"/>
      <use xlink:href="#TimesNewRomanPSMT-64" transform="translate(327.685547 0)"/>
      <use xlink:href="#TimesNewRomanPSMT-20" transform="translate(377.685547 0)"/>
      <use xlink:href="#TimesNewRomanPSMT-6e" transform="translate(402.685547 0)"/>
      <use xlink:href="#TimesNewRomanPSMT-3d" transform="translate(452.685547 0)"/>
      <use xlink:href="#TimesNewRomanPSMT-31" transform="translate(509.082031 0)"/>
      <use xlink:href="#TimesNewRomanPSMT-2e" transform="translate(559.082031 0)"/>
      <use xlink:href="#TimesNewRomanPSMT-37" transform="translate(584.082031 0)"/>
      <use xlink:href="#TimesNewRomanPSMT-35" transform="translate(634.082031 0)"/>
      <use xlink:href="#TimesNewRomanPSMT-20" transform="translate(684.082031 0)"/>
      <use xlink:href="#TimesNewRomanPSMT-4c" transform="translate(709.082031 0)"/>
      <use xlink:href="#TimesNewRomanPSMT-3d" transform="translate(770.166016 0)"/>
      <use xlink:href="#TimesNewRomanPSMT-35" transform="translate(826.5625 0)"/>
     </g>
    </g>
   </g>
  </g>
  <g id="axes_2">
   <g id="patch_8">
    <path d="M 58.07 389.72 
L 637.2 389.72 
L 637.2 317.525 
L 58.07 317.525 
z
" style="fill: #ffffff"/>
   </g>
   <g id="matplotlib.axis_3">
    <g id="xtick_5">
     <g id="line2d_29">
      <path d="M 154.896873 389.72 
L 154.896873 317.525 
" clip-path="url(#p04598877b0)" style="fill: none; stroke: #b0b0b0; stroke-opacity: 0.3; stroke-width: 0.8; stroke-linecap: square"/>
     </g>
     <g id="line2d_30">
      <g>
       <use xlink:href="#m880ffef1fb" x="154.896873" y="389.72" style="stroke: #000000; stroke-width: 0.8"/>
      </g>
     </g>
     <g id="text_13">
      <!-- 12:35 -->
      <g transform="translate(141.229998 405.0525) scale(0.12 -0.12)">
       <defs>
        <path id="TimesNewRomanPSMT-3a" d="M 903 2950 
Q 1047 2950 1148 2848 
Q 1250 2747 1250 2603 
Q 1250 2459 1148 2357 
Q 1047 2256 903 2256 
Q 759 2256 657 2357 
Q 556 2459 556 2603 
Q 556 2747 657 2848 
Q 759 2950 903 2950 
z
M 897 609 
Q 1044 609 1145 506 
Q 1247 403 1247 259 
Q 1247 116 1144 14 
Q 1041 -88 897 -88 
Q 753 -88 651 14 
Q 550 116 550 259 
Q 550 403 651 506 
Q 753 609 897 609 
z
" transform="scale(0.015625)"/>
        <path id="TimesNewRomanPSMT-33" d="M 325 3431 
Q 506 3859 782 4092 
Q 1059 4325 1472 4325 
Q 1981 4325 2253 3994 
Q 2459 3747 2459 3466 
Q 2459 3003 1878 2509 
Q 2269 2356 2469 2072 
Q 2669 1788 2669 1403 
Q 2669 853 2319 450 
Q 1863 -75 997 -75 
Q 569 -75 414 31 
Q 259 138 259 259 
Q 259 350 332 419 
Q 406 488 509 488 
Q 588 488 669 463 
Q 722 447 909 348 
Q 1097 250 1169 231 
Q 1284 197 1416 197 
Q 1734 197 1970 444 
Q 2206 691 2206 1028 
Q 2206 1275 2097 1509 
Q 2016 1684 1919 1775 
Q 1784 1900 1550 2001 
Q 1316 2103 1072 2103 
L 972 2103 
L 972 2197 
Q 1219 2228 1467 2375 
Q 1716 2522 1828 2728 
Q 1941 2934 1941 3181 
Q 1941 3503 1739 3701 
Q 1538 3900 1238 3900 
Q 753 3900 428 3381 
L 325 3431 
z
" transform="scale(0.015625)"/>
       </defs>
       <use xlink:href="#TimesNewRomanPSMT-31"/>
       <use xlink:href="#TimesNewRomanPSMT-32" transform="translate(50 0)"/>
       <use xlink:href="#TimesNewRomanPSMT-3a" transform="translate(100 0)"/>
       <use xlink:href="#TimesNewRomanPSMT-33" transform="translate(127.783203 0)"/>
       <use xlink:href="#TimesNewRomanPSMT-35" transform="translate(177.783203 0)"/>
      </g>
     </g>
    </g>
    <g id="xtick_6">
     <g id="line2d_31">
      <path d="M 292.239956 389.72 
L 292.239956 317.525 
" clip-path="url(#p04598877b0)" style="fill: none; stroke: #b0b0b0; stroke-opacity: 0.3; stroke-width: 0.8; stroke-linecap: square"/>
     </g>
     <g id="line2d_32">
      <g>
       <use xlink:href="#m880ffef1fb" x="292.239956" y="389.72" style="stroke: #000000; stroke-width: 0.8"/>
      </g>
     </g>
     <g id="text_14">
      <!-- 12:40 -->
      <g transform="translate(278.573081 405.0525) scale(0.12 -0.12)">
       <use xlink:href="#TimesNewRomanPSMT-31"/>
       <use xlink:href="#TimesNewRomanPSMT-32" transform="translate(50 0)"/>
       <use xlink:href="#TimesNewRomanPSMT-3a" transform="translate(100 0)"/>
       <use xlink:href="#TimesNewRomanPSMT-34" transform="translate(127.783203 0)"/>
       <use xlink:href="#TimesNewRomanPSMT-30" transform="translate(177.783203 0)"/>
      </g>
     </g>
    </g>
    <g id="xtick_7">
     <g id="line2d_33">
      <path d="M 429.58304 389.72 
L 429.58304 317.525 
" clip-path="url(#p04598877b0)" style="fill: none; stroke: #b0b0b0; stroke-opacity: 0.3; stroke-width: 0.8; stroke-linecap: square"/>
     </g>
     <g id="line2d_34">
      <g>
       <use xlink:href="#m880ffef1fb" x="429.58304" y="389.72" style="stroke: #000000; stroke-width: 0.8"/>
      </g>
     </g>
     <g id="text_15">
      <!-- 12:45 -->
      <g transform="translate(415.916165 405.0525) scale(0.12 -0.12)">
       <use xlink:href="#TimesNewRomanPSMT-31"/>
       <use xlink:href="#TimesNewRomanPSMT-32" transform="translate(50 0)"/>
       <use xlink:href="#TimesNewRomanPSMT-3a" transform="translate(100 0)"/>
       <use xlink:href="#TimesNewRomanPSMT-34" transform="translate(127.783203 0)"/>
       <use xlink:href="#TimesNewRomanPSMT-35" transform="translate(177.783203 0)"/>
      </g>
     </g>
    </g>
    <g id="xtick_8">
     <g id="line2d_35">
      <path d="M 566.926123 389.72 
L 566.926123 317.525 
" clip-path="url(#p04598877b0)" style="fill: none; stroke: #b0b0b0; stroke-opacity: 0.3; stroke-width: 0.8; stroke-linecap: square"/>
     </g>
     <g id="line2d_36">
      <g>
       <use xlink:href="#m880ffef1fb" x="566.926123" y="389.72" style="stroke: #000000; stroke-width: 0.8"/>
      </g>
     </g>
     <g id="text_16">
      <!-- 12:50 -->
      <g transform="translate(553.259248 405.0525) scale(0.12 -0.12)">
       <use xlink:href="#TimesNewRomanPSMT-31"/>
       <use xlink:href="#TimesNewRomanPSMT-32" transform="translate(50 0)"/>
       <use xlink:href="#TimesNewRomanPSMT-3a" transform="translate(100 0)"/>
       <use xlink:href="#TimesNewRomanPSMT-35" transform="translate(127.783203 0)"/>
       <use xlink:href="#TimesNewRomanPSMT-30" transform="translate(177.783203 0)"/>
      </g>
     </g>
    </g>
   </g>
   <g id="matplotlib.axis_4">
    <g id="ytick_9">
     <g id="line2d_37">
      <path d="M 58.07 374.50536 
L 637.2 374.50536 
" clip-path="url(#p04598877b0)" style="fill: none; stroke: #b0b0b0; stroke-opacity: 0.3; stroke-width: 0.8; stroke-linecap: square"/>
     </g>
     <g id="line2d_38">
      <g>
       <use xlink:href="#me70e50ef9c" x="58.07" y="374.50536" style="stroke: #000000; stroke-width: 0.8"/>
      </g>
     </g>
     <g id="text_17">
      <!-- -0.25 -->
      <g transform="translate(26.074375 378.67161) scale(0.12 -0.12)">
       <defs>
        <path id="TimesNewRomanPSMT-2d" d="M 259 1672 
L 1875 1672 
L 1875 1200 
L 259 1200 
L 259 1672 
z
" transform="scale(0.015625)"/>
       </defs>
       <use xlink:href="#TimesNewRomanPSMT-2d"/>
       <use xlink:href="#TimesNewRomanPSMT-30" transform="translate(33.300781 0)"/>
       <use xlink:href="#TimesNewRomanPSMT-2e" transform="translate(83.300781 0)"/>
       <use xlink:href="#TimesNewRomanPSMT-32" transform="translate(108.300781 0)"/>
       <use xlink:href="#TimesNewRomanPSMT-35" transform="translate(158.300781 0)"/>
      </g>
     </g>
    </g>
    <g id="ytick_10">
     <g id="line2d_39">
      <path d="M 58.07 351.221361 
L 637.2 351.221361 
" clip-path="url(#p04598877b0)" style="fill: none; stroke: #b0b0b0; stroke-opacity: 0.3; stroke-width: 0.8; stroke-linecap: square"/>
     </g>
     <g id="line2d_40">
      <g>
       <use xlink:href="#me70e50ef9c" x="58.07" y="351.221361" style="stroke: #000000; stroke-width: 0.8"/>
      </g>
     </g>
     <g id="text_18">
      <!-- 0.00 -->
      <g transform="translate(30.07 355.387611) scale(0.12 -0.12)">
       <use xlink:href="#TimesNewRomanPSMT-30"/>
       <use xlink:href="#TimesNewRomanPSMT-2e" transform="translate(50 0)"/>
       <use xlink:href="#TimesNewRomanPSMT-30" transform="translate(75 0)"/>
       <use xlink:href="#TimesNewRomanPSMT-30" transform="translate(125 0)"/>
      </g>
     </g>
    </g>
    <g id="ytick_11">
     <g id="line2d_41">
      <path d="M 58.07 327.937362 
L 637.2 327.937362 
" clip-path="url(#p04598877b0)" style="fill: none; stroke: #b0b0b0; stroke-opacity: 0.3; stroke-width: 0.8; stroke-linecap: square"/>
     </g>
     <g id="line2d_42">
      <g>
       <use xlink:href="#me70e50ef9c" x="58.07" y="327.937362" style="stroke: #000000; stroke-width: 0.8"/>
      </g>
     </g>
     <g id="text_19">
      <!-- 0.25 -->
      <g transform="translate(30.07 332.103612) scale(0.12 -0.12)">
       <use xlink:href="#TimesNewRomanPSMT-30"/>
       <use xlink:href="#TimesNewRomanPSMT-2e" transform="translate(50 0)"/>
       <use xlink:href="#TimesNewRomanPSMT-32" transform="translate(75 0)"/>
       <use xlink:href="#TimesNewRomanPSMT-35" transform="translate(125 0)"/>
      </g>
     </g>
    </g>
    <g id="text_20">
     <!-- mV -->
     <g transform="translate(19.5075 362.6225) rotate(-90) scale(0.12 -0.12)">
      <use xlink:href="#TimesNewRomanPSMT-6d"/>
      <use xlink:href="#TimesNewRomanPSMT-56" transform="translate(77.783203 0)"/>
     </g>
    </g>
   </g>
   <g id="line2d_43">
    <path d="M 84.394091 361.165584 
L 88.972193 334.849776 
L 93.550296 356.751329 
L 98.128399 346.710058 
L 102.706502 355.732664 
L 107.284605 360.098432 
L 111.862707 345.26185 
L 116.44081 347.153684 
L 121.018913 356.467339 
L 125.597016 354.575505 
L 130.175118 356.321786 
L 134.753221 340.598027 
L 139.331324 344.672783 
L 143.909427 351.803461 
L 148.48753 359.661755 
L 153.065632 359.225245 
L 157.643735 347.146717 
L 162.221838 342.63534 
L 166.799941 344.672727 
L 171.378043 362.426776 
L 175.956146 353.113214 
L 180.534249 348.89298 
L 185.112352 345.254808 
L 189.690454 354.277414 
L 194.268557 357.187876 
L 198.84666 340.743543 
L 203.424763 352.531077 
L 208.002866 355.296098 
L 212.580968 356.169192 
L 217.159071 336.086743 
L 221.737174 342.780949 
L 226.315277 378.725575 
L 230.893379 344.963777 
L 235.471482 325.463447 
L 240.049585 386.438409 
L 244.627688 320.806591 
L 249.20579 347.874333 
L 253.783893 378.143475 
L 258.361996 360.389407 
L 262.940099 353.113214 
L 267.518201 349.911664 
L 272.096304 331.284409 
L 276.674407 347.874258 
L 281.25251 369.120963 
L 285.830613 347.14668 
L 290.408715 344.090608 
L 294.986818 357.333429 
L 299.564921 353.695258 
L 304.143024 351.51243 
L 308.721126 349.47508 
L 313.299229 346.710058 
L 317.877332 342.635414 
L 322.455435 356.751292 
L 327.033538 357.333392 
L 331.61164 352.967698 
L 336.189743 348.019811 
L 340.767846 342.926427 
L 345.345949 354.422855 
L 349.924051 360.680513 
L 354.502154 350.493764 
L 359.080257 345.10933 
L 363.65836 343.362993 
L 368.236462 358.206542 
L 372.814565 353.404226 
L 377.392668 347.874314 
L 381.970771 353.695258 
L 386.548874 350.202695 
L 391.126976 351.948995 
L 395.705079 353.404245 
L 400.283182 350.784795 
L 404.861284 352.385542 
L 409.439387 348.892998 
L 414.01749 348.310805 
L 418.595593 352.531077 
L 423.173696 351.221398 
L 427.751798 352.094492 
L 432.329901 354.568464 
L 436.908004 351.803442 
L 441.486107 350.348192 
L 446.064209 349.620633 
L 450.642312 350.348211 
L 455.220415 353.986289 
L 459.798518 351.075845 
L 464.376621 349.911645 
L 468.954723 353.258711 
L 473.532826 349.038495 
L 478.110929 350.493745 
L 482.689032 347.874258 
L 487.267134 350.63928 
L 491.845237 351.366858 
L 496.42334 351.366895 
L 501.001443 351.075845 
L 505.579545 347.728761 
L 510.157648 352.822127 
L 514.735751 352.676592 
L 519.313854 351.949014 
L 523.891957 348.89298 
L 528.470059 352.967624 
L 533.048162 353.549779 
L 537.626265 352.967679 
L 542.204368 353.986308 
L 546.78247 347.874314 
L 551.360573 342.344327 
L 555.938676 358.061026 
L 560.516779 352.094511 
L 565.094881 347.146661 
L 569.672984 356.169211 
L 574.251087 352.385561 
L 578.82919 349.911627 
L 583.407292 354.568426 
L 587.985395 347.001164 
L 592.563498 348.310842 
L 597.141601 351.075864 
L 601.719704 353.986326 
L 606.297806 359.516276 
L 610.875909 354.277376 
" clip-path="url(#p04598877b0)" style="fill: none; stroke: #1f77b4; stroke-linecap: square"/>
   </g>
   <g id="line2d_44">
    <path d="M 58.07 351.221361 
L 637.2 351.221361 
" clip-path="url(#p04598877b0)" style="fill: none; stroke: #808080; stroke-opacity: 0.6; stroke-linecap: square"/>
   </g>
   <g id="patch_9">
    <path d="M 58.07 389.72 
L 58.07 317.525 
" style="fill: none; stroke: #000000; stroke-width: 0.8; stroke-linejoin: miter; stroke-linecap: square"/>
   </g>
   <g id="patch_10">
    <path d="M 637.2 389.72 
L 637.2 317.525 
" style="fill: none; stroke: #000000; stroke-width: 0.8; stroke-linejoin: miter; stroke-linecap: square"/>
   </g>
   <g id="patch_11">
    <path d="M 58.07 389.72 
L 637.2 389.72 
" style="fill: none; stroke: #000000; stroke-width: 0.8; stroke-linejoin: miter; stroke-linecap: square"/>
   </g>
   <g id="patch_12">
    <path d="M 58.07 317.525 
L 637.2 317.525 
" style="fill: none; stroke: #000000; stroke-width: 0.8; stroke-linejoin: miter; stroke-linecap: square"/>
   </g>
   <g id="legend_2">
    <g id="patch_13">
     <path d="M 570.61875 344.091875 
L 628.8 344.091875 
Q 631.2 344.091875 631.2 341.691875 
L 631.2 325.925 
Q 631.2 323.525 628.8 323.525 
L 570.61875 323.525 
Q 568.21875 323.525 568.21875 325.925 
L 568.21875 341.691875 
Q 568.21875 344.091875 570.61875 344.091875 
z
" style="fill: #ffffff; opacity: 0.8; stroke: #cccccc; stroke-linejoin: miter"/>
    </g>
    <g id="line2d_45">
     <path d="M 573.01875 332.525 
L 585.01875 332.525 
L 597.01875 332.525 
" style="fill: none; stroke: #1f77b4; stroke-linecap: square"/>
    </g>
    <g id="text_21">
     <!-- Diff -->
     <g transform="translate(606.61875 336.725) scale(0.12 -0.12)">
      <defs>
       <path id="TimesNewRomanPSMT-66" d="M 1319 2638 
L 1319 756 
Q 1319 356 1406 250 
Q 1522 113 1716 113 
L 1975 113 
L 1975 0 
L 266 0 
L 266 113 
L 394 113 
Q 519 113 622 175 
Q 725 238 764 344 
Q 803 450 803 756 
L 803 2638 
L 247 2638 
L 247 2863 
L 803 2863 
L 803 3050 
Q 803 3478 940 3775 
Q 1078 4072 1361 4255 
Q 1644 4438 1997 4438 
Q 2325 4438 2600 4225 
Q 2781 4084 2781 3909 
Q 2781 3816 2700 3733 
Q 2619 3650 2525 3650 
Q 2453 3650 2373 3701 
Q 2294 3753 2178 3923 
Q 2063 4094 1966 4153 
Q 1869 4213 1750 4213 
Q 1606 4213 1506 4136 
Q 1406 4059 1362 3898 
Q 1319 3738 1319 3069 
L 1319 2863 
L 2056 2863 
L 2056 2638 
L 1319 2638 
z
" transform="scale(0.015625)"/>
      </defs>
      <use xlink:href="#TimesNewRomanPSMT-44"/>
      <use xlink:href="#TimesNewRomanPSMT-69" transform="translate(72.216797 0)"/>
      <use xlink:href="#TimesNewRomanPSMT-66" transform="translate(100 0)"/>
      <use xlink:href="#TimesNewRomanPSMT-66" transform="translate(131.550781 0)"/>
     </g>
    </g>
   </g>
  </g>
  <g id="text_22">
   <!-- Radiation Variation - Yellow (0.0-0.1) -->
   <g transform="translate(202.60625 19.75) scale(0.16 -0.16)">
    <defs>
     <path id="TimesNewRomanPSMT-52" d="M 4325 0 
L 3194 0 
L 1759 1981 
Q 1600 1975 1500 1975 
Q 1459 1975 1412 1976 
Q 1366 1978 1316 1981 
L 1316 750 
Q 1316 350 1403 253 
Q 1522 116 1759 116 
L 1925 116 
L 1925 0 
L 109 0 
L 109 116 
L 269 116 
Q 538 116 653 291 
Q 719 388 719 750 
L 719 3488 
Q 719 3888 631 3984 
Q 509 4122 269 4122 
L 109 4122 
L 109 4238 
L 1653 4238 
Q 2328 4238 2648 4139 
Q 2969 4041 3192 3777 
Q 3416 3513 3416 3147 
Q 3416 2756 3161 2468 
Q 2906 2181 2372 2063 
L 3247 847 
Q 3547 428 3762 290 
Q 3978 153 4325 116 
L 4325 0 
z
M 1316 2178 
Q 1375 2178 1419 2176 
Q 1463 2175 1491 2175 
Q 2097 2175 2405 2437 
Q 2713 2700 2713 3106 
Q 2713 3503 2464 3751 
Q 2216 4000 1806 4000 
Q 1625 4000 1316 3941 
L 1316 2178 
z
" transform="scale(0.015625)"/>
     <path id="TimesNewRomanPSMT-74" d="M 1031 3803 
L 1031 2863 
L 1700 2863 
L 1700 2644 
L 1031 2644 
L 1031 788 
Q 1031 509 1111 412 
Q 1191 316 1316 316 
Q 1419 316 1516 380 
Q 1613 444 1666 569 
L 1788 569 
Q 1678 263 1478 108 
Q 1278 -47 1066 -47 
Q 922 -47 784 33 
Q 647 113 581 261 
Q 516 409 516 719 
L 516 2644 
L 63 2644 
L 63 2747 
Q 234 2816 414 2980 
Q 594 3144 734 3369 
Q 806 3488 934 3803 
L 1031 3803 
z
" transform="scale(0.015625)"/>
    </defs>
    <use xlink:href="#TimesNewRomanPSMT-52"/>
    <use xlink:href="#TimesNewRomanPSMT-61" transform="translate(66.699219 0)"/>
    <use xlink:href="#TimesNewRomanPSMT-64" transform="translate(111.083984 0)"/>
    <use xlink:href="#TimesNewRomanPSMT-69" transform="translate(161.083984 0)"/>
    <use xlink:href="#TimesNewRomanPSMT-61" transform="translate(188.867188 0)"/>
    <use xlink:href="#TimesNewRomanPSMT-74" transform="translate(233.251953 0)"/>
    <use xlink:href="#TimesNewRomanPSMT-69" transform="translate(261.035156 0)"/>
    <use xlink:href="#TimesNewRomanPSMT-6f" transform="translate(288.818359 0)"/>
    <use xlink:href="#TimesNewRomanPSMT-6e" transform="translate(338.818359 0)"/>
    <use xlink:href="#TimesNewRomanPSMT-20" transform="translate(388.818359 0)"/>
    <use xlink:href="#TimesNewRomanPSMT-56" transform="translate(412.068359 0)"/>
    <use xlink:href="#TimesNewRomanPSMT-61" transform="translate(473.160156 0)"/>
    <use xlink:href="#TimesNewRomanPSMT-72" transform="translate(517.544922 0)"/>
    <use xlink:href="#TimesNewRomanPSMT-69" transform="translate(550.845703 0)"/>
    <use xlink:href="#TimesNewRomanPSMT-61" transform="translate(578.628906 0)"/>
    <use xlink:href="#TimesNewRomanPSMT-74" transform="translate(623.013672 0)"/>
    <use xlink:href="#TimesNewRomanPSMT-69" transform="translate(650.796875 0)"/>
    <use xlink:href="#TimesNewRomanPSMT-6f" transform="translate(678.580078 0)"/>
    <use xlink:href="#TimesNewRomanPSMT-6e" transform="translate(728.580078 0)"/>
    <use xlink:href="#TimesNewRomanPSMT-20" transform="translate(778.580078 0)"/>
    <use xlink:href="#TimesNewRomanPSMT-2d" transform="translate(803.580078 0)"/>
    <use xlink:href="#TimesNewRomanPSMT-20" transform="translate(836.880859 0)"/>
    <use xlink:href="#TimesNewRomanPSMT-59" transform="translate(858.130859 0)"/>
    <use xlink:href="#TimesNewRomanPSMT-65" transform="translate(920.347656 0)"/>
    <use xlink:href="#TimesNewRomanPSMT-6c" transform="translate(964.732422 0)"/>
    <use xlink:href="#TimesNewRomanPSMT-6c" transform="translate(992.515625 0)"/>
    <use xlink:href="#TimesNewRomanPSMT-6f" transform="translate(1020.298828 0)"/>
    <use xlink:href="#TimesNewRomanPSMT-77" transform="translate(1070.298828 0)"/>
    <use xlink:href="#TimesNewRomanPSMT-20" transform="translate(1142.515625 0)"/>
    <use xlink:href="#TimesNewRomanPSMT-28" transform="translate(1167.515625 0)"/>
    <use xlink:href="#TimesNewRomanPSMT-30" transform="translate(1200.816406 0)"/>
    <use xlink:href="#TimesNewRomanPSMT-2e" transform="translate(1250.816406 0)"/>
    <use xlink:href="#TimesNewRomanPSMT-30" transform="translate(1275.816406 0)"/>
    <use xlink:href="#TimesNewRomanPSMT-2d" transform="translate(1325.816406 0)"/>
    <use xlink:href="#TimesNewRomanPSMT-30" transform="translate(1359.117188 0)"/>
    <use xlink:href="#TimesNewRomanPSMT-2e" transform="translate(1409.117188 0)"/>
    <use xlink:href="#TimesNewRomanPSMT-31" transform="translate(1434.117188 0)"/>
    <use xlink:href="#TimesNewRomanPSMT-29" transform="translate(1484.117188 0)"/>
   </g>
  </g>
 </g>
 <defs>
  <clipPath id="p75445cfc86">
   <rect x="58.07" y="86.64" width="579.13" height="216.585"/>
  </clipPath>
  <clipPath id="p04598877b0">
   <rect x="58.07" y="317.525" width="579.13" height="72.195"/>
  </clipPath>
 </defs>
</svg>
